<svg width="18" height="9" viewBox="0 0 18 9" fill="none" xmlns="http://www.w3.org/2000/svg">
<path d="M18 7.86939C18.0015 8.09266 17.9269 8.31126 17.7858 8.49731C17.6446 8.68337 17.4433 8.82846 17.2075 8.91407C16.9718 8.99969 16.7122 9.02196 16.4618 8.97804C16.2115 8.93412 15.9818 8.82601 15.8021 8.66748L9.00262 2.70991L2.20319 8.66748C1.96115 8.87915 1.63288 8.99806 1.2906 8.99806C1.12111 8.99806 0.953289 8.96887 0.796707 8.91215C0.640124 8.85543 0.49785 8.77229 0.378007 8.66748C0.258164 8.56268 0.1631 8.43825 0.0982413 8.30132C0.0333828 8.16438 1.34985e-07 8.01761 1.55352e-07 7.86939C1.96483e-07 7.57005 0.135973 7.28297 0.378007 7.0713L8.09003 0.326874C8.33085 0.117515 8.65663 2.04138e-06 8.99619 2.08404e-06C9.33576 2.12671e-06 9.66153 0.117515 9.90236 0.326874L17.6144 7.0713C17.7358 7.17541 17.8324 7.29956 17.8986 7.43655C17.9648 7.57355 17.9993 7.72067 18 7.86939Z" fill="black"/>
</svg>
