<svg width="47" height="30" viewBox="0 0 47 30" fill="none" xmlns="http://www.w3.org/2000/svg">
<path d="M46.7616 13.2841H10.4285C15.1935 10.2185 17.9495 6.55527 18.4745 1.30141L12.7504 0C12.0841 7.6446 8.18731 12.4165 -3.8147e-06 13.3805V16.687C7.80369 17.6799 12.0538 22.153 12.6595 30C13.982 29.7686 15.0925 29.4505 16.2232 29.3927C18.6259 29.2577 18.6562 28.0238 18.0606 26.2789C16.839 22.7506 14.931 19.7333 11.6298 17.6317C11.3774 17.4775 11.1755 17.2461 10.6304 16.7738C19.6051 16.7738 28.1559 16.7738 36.7066 16.7738C39.1497 16.7738 41.5827 16.7738 44.0258 16.7738C47.226 16.7738 47.2664 16.7159 46.7616 13.2937V13.2841Z" fill="white"/>
</svg>
