<svg width="483" height="550" viewBox="0 0 483 550" fill="none" xmlns="http://www.w3.org/2000/svg">
<path d="M96.248 324.126C116.616 321.505 133.079 311.249 147.493 297.291C160.019 285.151 169.464 271.059 172.217 253.44C173.962 242.273 171.213 232.861 163.117 223.932C154.295 214.21 144.874 212.864 133.444 216.214C106.998 223.963 86.7089 240.289 70.264 261.827C63.1082 271.195 57.1275 281.185 55.8581 293.339C55.2308 299.344 56.7045 304.428 61.1143 308.611C62.1381 309.573 63.2952 310.451 64.0945 311.575C72.0463 322.834 83.1123 326.029 96.2493 324.14L96.248 324.126ZM117.174 290.496C108.502 299.076 97.7825 304.096 86.2845 307.325C81.4704 308.674 76.1624 309.139 71.1601 308.811C63.9833 308.338 60.0939 304.133 60.0359 296.866C59.9265 284.915 64.8109 274.832 73.1238 266.342C85.1119 250.045 99.4256 236.364 117.536 226.954C126.132 221.134 135.69 218.443 145.99 218.491C154.721 218.533 159.414 222.718 159.409 231.248C159.404 242.151 155.282 251.639 147.509 259.427C139.826 272.15 129.028 281.823 117.171 290.468L117.174 290.496ZM124.066 291.829C130.435 285.912 135.987 280.75 141.993 275.177C145.473 279.379 148.538 283.083 152.257 287.572C145.945 293.498 139.957 299.125 133.333 305.336L124.066 291.829ZM159.253 250.483C161.343 252.995 163.548 255.087 165.002 257.603C165.917 259.196 166.452 261.701 165.891 263.365C163.438 270.66 159.963 277.459 154.125 283.764C150.833 279.757 147.812 276.063 144.695 272.265C149.626 264.888 154.249 257.979 159.253 250.483ZM103.011 305.461C109.269 301.489 115.076 297.814 121.215 293.923C124.16 298.444 126.888 302.618 129.818 307.126C123.313 311.178 117.711 315.215 110.397 316.266C107.919 312.647 105.589 309.24 102.997 305.462L103.011 305.461ZM107.325 318.706C101.197 319.601 96.6798 320.512 92.1222 320.848C85.2374 321.364 84.2622 320.468 81.9824 313.004C87.662 311.106 93.3556 309.207 99.3771 307.192C101.722 310.597 103.934 313.804 107.325 318.706ZM168.216 254.429C160.564 247.35 159.11 245.879 164.198 237.781C169.814 242.767 169.887 243.085 168.216 254.429Z" fill="#99CD70"/>
<path d="M124.066 291.829C130.435 285.912 135.987 280.75 141.993 275.177C145.473 279.379 148.538 283.083 152.257 287.572C145.945 293.498 139.957 299.125 133.333 305.336L124.066 291.829Z" fill="#99CD70"/>
<path d="M103.011 305.461C109.269 301.489 115.076 297.814 121.215 293.923C124.16 298.444 126.888 302.618 129.818 307.126C123.313 311.178 117.711 315.215 110.397 316.266C107.919 312.647 105.589 309.24 102.997 305.462L103.011 305.461Z" fill="#99CD70"/>
<path d="M107.325 318.706C101.197 319.601 96.6798 320.512 92.1222 320.848C85.2374 321.364 84.2622 320.468 81.9824 313.004C87.662 311.106 93.3556 309.207 99.3771 307.192C101.722 310.597 103.934 313.804 107.325 318.706Z" fill="#99CD70"/>
<path d="M159.253 250.483C161.343 252.995 163.548 255.087 165.002 257.603C165.917 259.196 166.452 261.701 165.891 263.365C163.438 270.66 159.963 277.459 154.125 283.764C150.833 279.757 147.812 276.063 144.695 272.265C149.626 264.888 154.249 257.979 159.253 250.483Z" fill="#99CD70"/>
<path d="M168.216 254.429C160.564 247.35 159.11 245.879 164.198 237.781C169.814 242.767 169.887 243.085 168.216 254.429Z" fill="#99CD70"/>
<path d="M117.174 290.496C108.502 299.076 97.7825 304.096 86.2845 307.325C81.4704 308.674 76.1624 309.139 71.1601 308.811C63.9833 308.338 60.0939 304.133 60.0359 296.866C59.9265 284.915 64.8109 274.832 73.1238 266.342C85.1119 250.045 99.4256 236.364 117.536 226.954C126.132 221.134 135.69 218.443 145.99 218.491C154.721 218.533 159.414 222.718 159.409 231.248C159.404 242.151 155.282 251.639 147.509 259.427C139.826 272.15 129.028 281.823 117.171 290.468L117.174 290.496Z" fill="#99CD70"/>
<path d="M96.248 324.126C116.616 321.505 133.079 311.249 147.493 297.291C160.019 285.151 169.464 271.059 172.217 253.44C173.962 242.273 171.213 232.861 163.117 223.932C154.295 214.21 144.874 212.864 133.444 216.214C106.998 223.963 86.7089 240.289 70.264 261.827C63.1082 271.195 57.1275 281.185 55.8581 293.339C55.2307 299.344 56.7045 304.428 61.1143 308.611C62.1381 309.573 63.2952 310.451 64.0945 311.575C72.0463 322.834 83.1123 326.029 96.2493 324.14L96.248 324.126ZM117.174 290.496C108.502 299.076 97.7825 304.096 86.2845 307.325C81.4704 308.674 76.1624 309.139 71.1601 308.811C63.9833 308.338 60.0939 304.133 60.0359 296.866C59.9265 284.915 64.8109 274.832 73.1238 266.342C85.1119 250.045 99.4256 236.364 117.536 226.954C126.132 221.134 135.69 218.443 145.99 218.491C154.721 218.533 159.414 222.718 159.409 231.248C159.404 242.151 155.282 251.639 147.509 259.427C139.826 272.15 129.028 281.823 117.171 290.468L117.174 290.496ZM124.066 291.829C130.435 285.912 135.987 280.75 141.993 275.177C145.473 279.379 148.538 283.083 152.257 287.572C145.945 293.498 139.957 299.125 133.333 305.336L124.066 291.829ZM159.253 250.483C161.343 252.995 163.548 255.087 165.002 257.603C165.917 259.196 166.452 261.701 165.891 263.365C163.438 270.66 159.963 277.459 154.125 283.764C150.833 279.757 147.812 276.063 144.695 272.265C149.626 264.888 154.249 257.979 159.253 250.483ZM103.011 305.461C109.269 301.489 115.076 297.814 121.215 293.923C124.16 298.444 126.888 302.618 129.818 307.126C123.313 311.178 117.711 315.215 110.397 316.266C107.919 312.647 105.589 309.24 102.997 305.462L103.011 305.461ZM107.325 318.706C101.197 319.601 96.6798 320.512 92.1222 320.848C85.2374 321.364 84.2622 320.468 81.9824 313.004C87.662 311.106 93.3556 309.207 99.3771 307.192C101.722 310.597 103.934 313.804 107.325 318.706ZM168.216 254.429C160.564 247.35 159.11 245.879 164.198 237.781C169.814 242.767 169.887 243.085 168.216 254.429Z" fill="black"/>
<path d="M117.534 226.954C99.4379 236.363 85.1088 250.031 73.122 266.342C69.0102 273.866 63.9086 280.934 62.9825 289.877C61.9587 299.719 67.1348 306.752 76.9519 306.479C83.2756 306.299 89.8543 304.499 95.7477 302.03C103.204 298.918 110.059 294.395 117.186 290.495C129.043 281.85 139.841 272.177 147.524 259.454C150.269 253.289 153.799 247.36 155.572 240.935C159.38 227.113 151.044 218.489 136.864 221C133.448 221.608 130.119 222.83 126.787 223.868C123.687 224.827 120.628 225.924 117.55 226.967L117.534 226.954ZM81.095 302.539C68.9863 303.807 64.0449 297.754 67.7341 285.949C68.6313 283.067 69.857 280.225 71.328 277.585C81.8229 258.662 97.0082 244.348 115.499 233.447C123.187 228.914 131.261 225.178 140.44 224.726C149.774 224.273 154.402 228.972 152.347 238.065C151.136 243.434 148.853 248.806 145.984 253.529C136.102 269.837 122.628 282.702 106.374 292.628C98.5399 297.4 90.4369 301.577 81.0964 302.553L81.095 302.539Z" fill="black"/>
<path d="M117.17 290.496C110.058 294.409 103.188 298.92 95.7314 302.032C89.8366 304.487 83.2593 306.301 76.9356 306.48C67.1185 306.753 61.9411 299.706 62.9663 289.878C63.8923 280.935 69.0092 273.88 73.1057 266.343C64.7916 274.819 59.9085 284.916 60.0179 296.867C60.0759 304.135 63.9652 308.339 71.1421 308.813C76.1444 309.14 81.4384 308.677 86.2664 307.327C97.7644 304.097 108.484 299.078 117.156 290.497L117.17 290.496Z" fill="white"/>
<path d="M92.508 268.955C91.0572 276.691 95.6997 280.795 102.484 279.23C111.175 277.215 123.463 264.363 124.959 255.761C125.923 250.175 123.932 247.216 117.302 245.971C122.297 250.804 122.358 255.586 119.037 260.45C114.465 267.142 109.143 272.946 100.931 275.085C98.1885 275.799 95.8513 275.132 94.5832 272.203C94.0778 271.05 93.2193 270.045 92.5233 268.968L92.508 268.955Z" fill="black"/>
<path d="M240.365 383.053C228.096 376.708 220.053 366.437 214.156 354.298C209.034 343.742 206.309 332.663 208.625 320.894C210.093 313.435 213.996 308.12 221.168 304.34C228.981 300.227 235.245 301.545 241.697 306.293C256.627 317.277 265.691 332.265 271.126 349.662C273.492 357.23 274.972 364.92 272.977 372.893C271.991 376.832 269.889 379.706 266.14 381.335C265.271 381.707 264.338 381.996 263.574 382.522C255.957 387.807 248.228 387.279 240.361 383.061L240.365 383.053ZM234.881 356.982C238.386 364.401 244.006 370.041 250.529 374.728C253.26 376.689 256.508 378.204 259.745 379.149C264.389 380.502 267.815 378.74 269.525 374.16C272.345 366.633 271.579 359.136 268.28 351.857C264.455 338.798 258.558 326.858 249.278 316.742C245.185 311.085 239.764 307.184 233.244 304.844C227.716 302.861 223.788 304.425 221.827 309.817C219.321 316.709 219.742 323.654 222.861 330.365C224.788 340.174 229.386 348.773 234.889 356.965L234.881 356.982ZM230.219 356.239C227.556 351.033 225.235 346.493 222.722 341.588C219.556 343.443 216.766 345.078 213.383 347.059C216.007 352.257 218.496 357.192 221.253 362.641L230.219 356.239ZM217.498 322.009C215.599 323.116 213.725 323.93 212.226 325.186C211.281 325.982 210.366 327.442 210.338 328.622C210.209 333.797 210.84 338.894 213.078 344.223C216.081 342.448 218.841 340.809 221.685 339.126C220.266 333.329 218.935 327.899 217.498 322.009ZM240.387 369.7C237.346 365.749 234.523 362.09 231.538 358.218C228.636 360.397 225.951 362.407 223.062 364.582C226.24 368.64 228.852 372.481 233.232 374.828C235.631 373.112 237.888 371.495 240.396 369.704L240.387 369.7ZM234.612 377.077C238.279 379.054 240.924 380.669 243.727 381.931C247.959 383.842 248.781 383.5 251.94 379.307C248.788 376.801 245.627 374.29 242.285 371.63C240.02 373.243 237.883 374.76 234.612 377.077ZM210.926 322.44C217.391 319.728 218.648 319.132 217.297 312.844C212.6 314.702 212.481 314.886 210.926 322.44Z" fill="black"/>
<path d="M249.279 316.742C258.55 326.854 264.459 338.79 268.28 351.857C269.147 357.558 270.744 363.199 269.271 369.064C267.652 375.52 262.762 378.773 256.621 376.341C252.666 374.772 248.923 372.12 245.766 369.203C241.771 365.52 238.479 361.083 234.873 356.978C229.37 348.786 224.772 340.187 222.845 330.378C222.53 325.85 221.664 321.291 222.022 316.822C222.797 307.21 230.05 303.679 238.433 308.529C240.452 309.7 242.275 311.239 244.142 312.662C245.88 313.982 247.561 315.379 249.266 316.746L249.279 316.742ZM254.909 372.897C262.27 376.486 266.786 373.798 267.172 365.489C267.268 363.461 267.148 361.382 266.826 359.375C264.549 345.001 258.247 332.459 249.071 321.313C245.255 316.679 241.013 312.46 235.316 310.061C229.521 307.627 225.515 309.531 224.721 315.75C224.25 319.422 224.456 323.343 225.182 326.988C227.674 339.569 233.228 350.801 241.215 360.815C245.067 365.634 249.227 370.139 254.905 372.906L254.909 372.897Z" fill="black"/>
<path d="M234.884 356.982C238.477 361.092 241.781 365.524 245.777 369.207C248.937 372.115 252.676 374.776 256.632 376.345C262.773 378.777 267.667 375.515 269.281 369.068C270.755 363.203 269.145 357.567 268.291 351.861C271.594 359.131 272.356 366.636 269.536 374.164C267.826 378.744 264.401 380.505 259.756 379.152C256.519 378.208 253.28 376.697 250.54 374.732C244.017 370.045 238.397 364.405 234.892 356.986L234.884 356.982Z" fill="white"/>
<path d="M255.428 349.047C254.564 354.27 250.685 355.795 246.758 353.244C241.73 349.97 236.922 339.019 237.957 333.239C238.633 329.487 240.573 328.075 245.049 328.814C240.78 330.719 239.641 333.727 240.62 337.565C241.969 342.847 243.996 347.74 248.694 350.982C250.262 352.064 251.893 352.181 253.369 350.622C253.953 350.01 254.727 349.572 255.415 349.051L255.428 349.047Z" fill="black"/>
<path d="M157.497 401.049C164.353 400.81 170.336 403.299 175.844 407.119C180.632 410.443 184.509 414.576 186.371 420.235C187.552 423.822 187.156 427.074 184.97 430.456C182.589 434.139 179.556 435.094 175.607 434.609C166.468 433.487 158.895 429.205 152.307 422.995C149.44 420.295 146.927 417.326 145.85 413.388C145.318 411.442 145.528 409.686 146.755 408.068C147.04 407.696 147.374 407.343 147.577 406.93C149.588 402.787 153.063 401.134 157.496 401.045L157.497 401.049ZM166.217 411.002C162.894 408.644 159.088 407.57 155.122 407.128C153.462 406.944 151.687 407.079 150.056 407.458C147.716 408.003 146.661 409.6 147.036 411.999C147.647 415.944 149.804 419.004 153.005 421.352C157.84 426.075 163.3 429.809 169.78 431.93C172.929 433.383 176.226 433.752 179.619 433.178C182.495 432.691 183.815 431.057 183.352 428.245C182.759 424.651 180.886 421.747 177.902 419.601C174.679 415.823 170.595 413.219 166.218 411.012L166.217 411.002ZM168.417 410.189C170.838 411.795 172.948 413.196 175.23 414.707C176.149 413.134 176.959 411.746 177.942 410.065C175.54 408.453 173.261 406.923 170.741 405.234L168.417 410.189ZM182.258 421.913C182.811 420.971 183.424 420.162 183.767 419.254C183.982 418.679 184.023 417.824 183.748 417.306C182.544 415.034 181.03 412.981 178.764 411.219C177.896 412.719 177.1 414.1 176.278 415.521C178.304 417.686 180.202 419.713 182.258 421.913ZM160.737 406.836C163.016 407.807 165.129 408.704 167.364 409.653C168.09 408.004 168.763 406.48 169.485 404.835C167.121 403.851 165.055 402.824 162.587 402.874C161.966 404.201 161.382 405.451 160.733 406.837L160.737 406.836ZM161.442 402.236C159.373 402.273 157.835 402.218 156.314 402.354C154.016 402.557 153.743 402.905 153.396 405.489C155.372 405.807 157.351 406.125 159.446 406.463C160.034 405.213 160.59 404.036 161.442 402.236ZM184.999 420.126C182.86 422.875 182.46 423.438 184.576 425.832C186.158 423.884 186.164 423.775 184.999 420.126Z" fill="black"/>
<path d="M169.778 431.93C163.302 429.808 157.838 426.079 153.002 421.351C151.239 419.094 149.174 417.04 148.384 414.142C147.513 410.953 148.839 408.354 152.09 407.912C154.184 407.629 156.45 407.866 158.527 408.36C161.154 408.982 163.659 410.102 166.22 411.001C170.597 413.209 174.681 415.812 177.903 419.59C179.142 421.474 180.627 423.237 181.56 425.259C183.564 429.61 181.283 432.904 176.473 432.845C175.314 432.829 174.15 432.607 172.995 432.446C171.921 432.297 170.853 432.101 169.782 431.925L169.778 431.93ZM153.669 408.987C149.609 409.225 148.308 411.488 150.163 415.18C150.615 416.081 151.174 416.952 151.802 417.742C156.287 423.412 162.069 427.308 168.755 429.899C171.535 430.977 174.399 431.771 177.45 431.423C180.551 431.066 181.823 429.266 180.652 426.38C179.962 424.676 178.918 423.028 177.717 421.627C173.575 416.786 168.436 413.275 162.54 410.884C159.699 409.735 156.801 408.797 153.669 408.982L153.669 408.987Z" fill="black"/>
<path d="M166.217 411.002C163.66 410.097 161.151 408.983 158.524 408.361C156.448 407.871 154.181 407.629 152.087 407.913C148.835 408.355 147.511 410.958 148.381 414.143C149.171 417.041 151.24 419.089 152.999 421.352C149.799 419.008 147.642 415.944 147.03 411.998C146.656 409.599 147.71 408.003 150.05 407.458C151.682 407.079 153.452 406.944 155.117 407.128C159.082 407.569 162.888 408.643 166.212 411.002L166.217 411.002Z" fill="white"/>
<path d="M159.253 419.44C158.355 416.968 159.663 415.364 161.985 415.512C164.959 415.706 169.706 419.276 170.666 422.031C171.286 423.82 170.79 424.904 168.672 425.674C170.057 423.81 169.818 422.23 168.459 420.806C166.589 418.848 164.521 417.223 161.697 416.963C160.754 416.876 160.02 417.223 159.761 418.257C159.657 418.664 159.428 419.042 159.257 419.435L159.253 419.44Z" fill="black"/>
<path d="M151.75 166L83.25 180" stroke="black" stroke-width="2" stroke-linecap="round"/>
<path d="M407.509 342L424.699 367.5" stroke="black" stroke-width="2" stroke-linecap="round"/>
<path d="M154.081 345L79.25 421.5" stroke="black" stroke-width="2" stroke-linecap="round"/>
<path d="M371.942 344.5L388.25 434.5" stroke="black" stroke-width="2" stroke-linecap="round"/>
<path d="M449.637 153.52C449.974 153.946 450.313 154.368 450.714 154.877C450.986 154.581 451.263 154.278 451.36 154.169C451.47 155.957 451.453 157.886 451.734 159.768C452.289 163.468 452.877 167.16 452.862 170.917C452.861 171.075 452.933 171.235 453.024 171.644C453.765 170.635 454.381 169.793 454.995 168.954C452.059 174.06 452.029 179.742 451.708 185.43C453.236 182.665 456.128 180.994 457.513 178.018C457.944 178.035 458.577 178.055 459.308 178.081C459.116 178.316 459.001 178.594 458.803 178.683C457.816 179.119 457.317 179.787 457.367 180.924C457.385 181.392 457.056 181.875 456.887 182.354C456.767 181.866 456.647 181.379 456.47 180.638C455.309 182.432 454.25 184.082 452.973 186.058C455.275 184.911 455.77 184.406 456.868 182.269C457.081 182.585 457.295 182.9 457.546 183.277C456.805 184.562 456.085 185.877 457.057 187.376C455.424 189.871 455.159 192.759 454.424 195.501C453.816 197.767 452.93 199.958 452.165 202.184C451.774 203.332 451.317 204.465 451.015 205.636C450.878 206.156 450.957 206.773 451.072 207.319C451.811 210.856 452.113 214.416 451.739 218.022C451.407 221.2 450.873 224.329 449.28 227.157C447.77 229.841 446.278 232.542 444.591 235.112C443.55 236.699 442.136 238.042 440.941 239.534C440.308 240.328 439.705 241.167 439.217 242.061C437.838 244.595 436.575 247.195 435.171 249.714C433.484 252.743 431.359 255.417 428.698 257.685C427.771 258.478 427.031 259.623 426.518 260.746C424.738 264.631 422.278 268.061 419.713 271.436C417.195 274.749 413.973 277.354 410.961 280.172C410.656 280.454 410.225 280.595 409.662 280.903L411.025 281.871C410.749 282.017 410.592 282.181 410.464 282.158C408.838 281.88 407.486 282.558 406.213 283.412C402.39 285.959 398.303 287.868 393.779 288.8C393.473 288.861 393.203 289.112 392.917 289.275L393.033 289.653C395.358 289.288 397.672 288.815 400.008 288.586C402.274 288.363 404.566 288.035 406.839 288.426L406.863 288.875C406.113 288.951 405.356 288.978 404.613 289.119C399.465 290.105 394.34 291.177 389.177 292.091C385.601 292.723 382.374 294.308 379.026 295.552C372.226 298.088 365.227 299.684 358.028 300.491C352.881 301.064 347.728 301.029 342.562 300.9C340.05 300.835 337.53 301.342 335.006 301.463C330.145 301.697 325.4 300.965 320.748 299.545C317.336 298.502 313.914 297.477 310.456 296.593C308.131 295.998 305.738 295.668 303.377 295.203C302.942 295.116 302.481 295.042 302.101 294.829C298.267 292.666 293.91 292.655 289.756 291.811C288.861 291.628 287.947 291.535 287.04 291.402L287.094 290.947C289.443 291.138 291.794 291.326 294.571 291.549C293.974 291.114 293.71 290.905 293.431 290.722C290.765 288.956 288.169 287.068 285.407 285.467C283.313 284.258 281.016 283.39 278.786 282.425C276.205 281.313 273.585 280.298 271.007 279.183C268.914 278.274 266.848 277.29 264.788 276.305C264.475 276.152 264.25 275.807 263.996 275.542C263.694 275.232 263.426 274.885 263.105 274.598C260.869 272.606 258.625 270.627 256.382 268.647C256.19 268.48 255.989 268.319 255.786 268.162C251.814 265.151 247.746 262.248 243.898 259.082C241.651 257.237 239.632 255.065 237.731 252.854C235.794 250.599 234.154 248.092 232.324 245.74C231.739 244.99 230.982 244.372 230.264 243.737C225.525 239.537 220.783 235.346 215.098 232.414C214.653 232.186 214.266 231.838 213.953 231.391C219.52 234.096 224.968 236.988 229.489 241.367L229.836 241.138C229.247 239.798 228.881 238.297 228.036 237.148C225.366 233.498 222.517 229.982 219.601 226.24L221.13 226.665C219.82 224.117 218.579 221.704 217.335 219.295L217.813 219.006L220.316 222.289C220.258 222.566 220.059 222.92 220.168 223.102C220.631 223.907 221.139 224.692 221.702 225.43C223.208 227.395 224.75 229.326 226.441 231.478C226.842 229.737 226.442 228.539 225.663 227.529C224.118 225.535 222.562 223.529 220.26 222.307C220.748 222.334 221.239 222.364 221.906 222.404C220.804 220.484 219.768 218.694 218.749 216.895C216.071 212.183 214.339 207.153 213.476 201.793C212.85 197.903 211.868 194.063 211.406 190.161C211.081 187.396 210.3 184.921 208.799 182.624C208.427 182.053 208.122 181.436 207.907 180.752C209.402 181.463 209.613 183.28 210.819 184.305C211.922 180.249 209.528 177.708 207.062 175.097C207.383 175.187 208.877 176.349 209.181 176.654C209.802 177.284 210.431 177.907 211.116 178.591C211.339 178.205 211.612 177.86 211.751 177.471C212.352 175.794 212.774 174.036 213.54 172.444C214.077 171.329 214.245 170.284 213.988 169.152C213.63 167.588 213.181 166.046 212.745 164.42C214.206 164.534 213.64 166.396 214.739 166.764C215.284 164.625 215.98 162.529 216.3 160.378C216.499 159.046 216.281 157.592 215.982 156.249C215.331 153.312 214.512 150.414 213.737 147.417C215.756 150.216 216.434 153.536 217.536 156.818C218.083 155.302 218.456 153.697 219.218 152.3C220.08 150.728 219.753 149.296 219.153 147.779L219.521 147.641C219.826 148.083 220.131 148.525 220.601 149.209C222.996 144.933 225.838 141.175 230.301 138.957C230.125 139.195 229.996 139.505 229.764 139.653C225.71 142.22 223.568 146.292 221.368 150.319C220.815 151.334 221.165 152.226 221.921 153.227C222.238 152.806 222.522 152.5 222.723 152.152C224.344 149.374 226.428 146.999 228.933 144.98C229.325 144.663 229.708 144.302 229.988 143.887C231.276 141.979 232.461 139.995 233.812 138.135C234.697 136.916 235.79 135.845 236.817 134.731C238.933 132.448 241.355 130.533 243.879 128.717C246.112 127.112 247.29 125.033 247.134 122.032C246.765 114.984 246.531 107.929 245.255 100.974C244.599 97.3898 243.52 93.8834 242.791 90.3082C242.402 88.3985 242.231 86.4909 242.674 84.4512C243.428 80.9804 245.555 78.8729 248.69 77.9577C251.621 77.1006 254.723 76.8393 257.756 76.3348C258.315 76.2389 258.885 76.2008 259.45 76.182C260.538 76.1377 261.159 75.5235 261.667 74.613C262.84 72.514 263.354 70.2221 263.738 67.8937C264.048 66.004 264.488 64.1945 265.354 62.45C266.659 59.8282 269.924 58.0501 273.137 58.5368C273.548 58.5988 273.969 58.6219 274.97 58.3574C274.772 58.1919 274.478 58.0734 274.392 57.8598C273.174 54.9857 273.94 51.1141 276.336 49.2641C277.284 48.5335 278.659 48.355 279.837 47.9212C281.535 47.2906 283.354 46.8711 284.904 45.9793C287.918 44.2541 289.912 41.8382 290.452 38.1131C290.971 34.5405 292.057 31.0347 294.728 28.258C297.142 25.751 300.064 24.5488 303.464 24.3296C306.17 24.1564 308.798 24.6169 311.356 25.4262C316.628 27.0851 321.651 29.3519 326.265 32.3948C329.626 34.6124 332.797 37.1102 336.078 39.4567C337.799 40.6875 339.552 41.8807 341.318 43.0526C343.878 44.7571 346.59 44.3495 349.172 43.274C352.632 41.8344 355.792 39.9052 358.412 37.121C361.24 34.1125 364.503 31.5753 367.793 29.0879C370.621 26.9502 373.399 24.7436 376.162 22.523C376.693 22.0942 395.599 -0.202998 396.034 -0.749442L457.546 -6.64981L495.955 1.52088C493.445 3.80275 499.099 98.0681 495.955 99.1648C487.974 101.963 479.945 104.609 471.936 107.328C469.968 107.995 467.896 108.49 466.073 109.444C464.026 110.512 462.204 112.004 460.293 113.326C458.533 114.543 456.799 115.803 455.019 116.997C454.678 117.225 454.136 117.381 453.76 117.288C451.18 116.646 448.615 115.928 446.043 115.241C444.938 114.942 443.833 114.654 442.69 114.351C438.466 116.537 435.96 119.85 435.905 123.363C437.444 122.538 438.066 120.285 440.513 120.364C439.894 121.251 439.419 121.926 438.944 122.602C439.015 122.676 439.087 122.746 439.157 122.821L441.457 121.158L441.767 121.405C440.574 123.226 439.377 125.045 438.184 126.866L438.402 127.026C439.509 125.873 440.618 124.727 441.846 123.452C442.003 124.628 441.243 125.24 440.597 125.811C439.561 126.734 439.117 127.835 439.135 129.292C440.398 128.467 441.566 127.705 442.733 126.938L443.016 127.27C442.446 127.778 441.886 128.297 441.308 128.8C440.502 129.499 439.616 130.124 438.91 130.915C438.624 131.236 438.737 131.911 438.617 132.815C440.509 131.612 441.615 129.854 443.69 129.814C439.453 131.895 439.172 135.3 440.49 139.42C442.149 138.602 443.1 136.867 444.586 135.752C444.425 137.05 444.261 137.148 443.365 138.055C441.809 139.633 440.22 141.248 440.792 143.998C442.096 142.444 443.321 140.98 444.549 139.519L444.964 139.758C443.751 142.32 441.415 144.544 442.487 147.916C442.781 146.87 442.957 145.909 443.326 145.025C443.957 143.501 444.533 141.906 445.458 140.569C446.373 139.238 446.379 138.003 445.959 136.607C445.606 135.436 445.252 134.266 444.899 133.095C445.046 133.027 445.197 132.962 445.344 132.894C445.726 133.691 446.166 134.465 446.483 135.287C447.797 138.72 448.034 142.334 448.273 145.954C448.347 147.07 448.651 148.168 448.799 149.282C448.855 149.705 448.761 150.142 448.74 150.571C447.81 151.046 448.29 151.888 448.213 152.59C448.037 154.157 447.434 155.809 447.761 157.259C448.183 159.142 447.718 160.683 447.168 162.35C446.959 162.986 447.04 163.717 446.988 164.405C447.141 164.443 447.299 164.483 447.453 164.521L449.536 160.912C449.526 160.635 449.399 160.268 449.526 160.127C450.349 159.211 450.281 158.182 450.093 157.079C449.893 155.906 449.792 154.711 449.643 153.529L449.637 153.52ZM450.252 211.137C448.498 214.754 447.863 218.752 446.548 222.527C445.235 226.32 443.958 230.128 442.666 233.933C448.609 227.487 451.21 219.916 450.25 211.142L450.252 211.137ZM424.322 262.474L423.983 262.16C421.466 265.031 419.098 268.045 416.401 270.739C413.146 273.988 409.92 277.304 406.107 279.953C405.662 280.262 405.412 280.852 405.069 281.31L405.498 281.642C413.302 276.752 419.505 270.298 424.319 262.478L424.322 262.474ZM250.022 261.764C250.131 261.652 250.248 261.539 250.358 261.427C250.02 260.836 249.658 260.259 249.354 259.649C248.291 257.486 246.851 255.818 244.561 254.733C242.569 253.787 240.847 252.284 238.996 251.034C238.642 250.796 238.254 250.606 237.885 250.393C241.324 254.866 245.513 258.488 250.012 261.77L250.022 261.764ZM278.591 280.158C274.307 276.13 268.532 273.452 263.851 273.248C268.398 276.603 273.516 278.382 278.591 280.158ZM223.36 158.157C226.869 155.948 227.281 152.444 228.112 148.723C225.629 150.868 224.251 153.374 222.907 155.877C222.502 156.638 222.524 157.589 223.363 158.153L223.36 158.157ZM455.642 184.931C454.727 186.133 454.169 187.15 453.35 187.882C451.66 189.399 451.331 191.193 451.757 193.333C452.748 192.147 453.725 191.061 454.609 189.903C455.649 188.542 455.751 186.955 455.642 184.931ZM218.818 172.692C219.99 170.056 221.112 167.436 222.313 164.857C222.744 163.935 222.495 163.141 222.326 162.122C219.643 165.457 218.077 170.422 218.814 172.69L218.818 172.692ZM243.03 251.577L243.34 251.06C242.527 250.393 241.794 249.597 240.892 249.082C237.993 247.436 235.466 245.35 233.164 242.963C232.901 242.693 232.711 242.357 232.453 242.089C232.196 241.828 231.893 241.619 231.385 241.207C232.1 243.209 233.174 244.394 234.655 245.413C237.002 247.028 239.17 248.902 241.438 250.635C241.924 251.006 242.501 251.26 243.035 251.568L243.03 251.577ZM217.846 196.418C218.67 192.806 216.65 186.495 214.512 185.498C215.598 189.06 216.658 192.532 217.846 196.418ZM446.56 140.471C446.387 140.427 446.219 140.386 446.046 140.343C445.157 143.047 443.826 145.637 444.112 148.961C444.798 147.899 445.323 147.089 445.937 146.143C446.191 146.73 446.314 147.016 446.439 147.309L446.82 147.246C446.732 144.991 446.646 142.731 446.558 140.475L446.56 140.471ZM234.471 239.054C234.544 238.938 234.621 238.824 234.693 238.708C232.42 235.987 230.116 233.3 227.605 230.403C227.376 232.307 228.261 233.36 229.096 234.323C229.998 235.364 231.146 236.196 232.194 237.112C232.947 237.767 233.713 238.408 234.471 239.054ZM217.663 206.663C218.834 209.736 219.583 212.543 221.679 214.709C220.991 211.875 220.914 208.749 217.663 206.663ZM220.587 152.983C219.33 155.757 217.863 158.347 217.947 161.374C219.061 159.287 220.068 157.172 220.888 154.988C221.094 154.435 220.7 153.659 220.584 152.987L220.587 152.983ZM453.77 193.862C451.938 195.851 450.57 197.996 451.351 201.245C452.237 198.534 453.005 196.196 453.77 193.862ZM446.029 156.078C446.302 153.765 446.574 151.452 446.85 149.135C446.664 149.112 446.475 149.088 446.287 149.07C445.941 151.374 444.725 153.578 446.029 156.078ZM256.525 262.856C254.444 261.615 253.53 259.035 251.09 258.209C252.84 259.83 254.034 262.09 256.525 262.856ZM225.145 158.503C223.342 159.854 223.32 159.92 224.1 161.614C224.666 160.703 225.454 159.926 225.145 158.503ZM215.63 199.169L217.85 203.402C217.979 203.335 218.104 203.266 218.235 203.195C217.609 201.725 217.396 200.047 215.626 199.167L215.63 199.169Z" fill="black"/>
<path d="M250.542 151.605C250.196 151.355 249.854 151.107 249.273 150.687C245.128 156.135 244.273 162.292 244.267 168.763C244.26 175.129 246.459 180.862 248.996 186.654C246.815 188.883 246.669 191.43 247.718 194.328C248.227 195.728 248.18 197.35 248.279 198.879C248.528 202.661 248.624 206.458 248.976 210.23C249.078 211.331 249.761 212.416 250.312 213.429C252.077 216.664 253.926 219.852 255.696 223.085C256.888 225.265 257.34 227.579 256.969 230.083C256.36 234.199 257.042 235.064 261.135 237.634C265.661 240.473 269.995 243.33 272.293 248.478C273.216 250.546 275.344 251.33 277.479 251.766C278.762 252.028 280.09 252.085 281.373 252.347C282.999 252.677 284.637 253.026 286.211 253.544C288.231 254.208 289.902 255.251 291.285 257.099C293.972 260.698 297.79 262.395 302.35 262.375C307.148 262.356 311.156 264.454 315.206 266.834C319.279 269.229 323.596 271.47 328.604 271.213C329.482 271.169 330.352 270.807 331.137 270.278C331.682 270.422 332.273 270.785 332.765 270.685C336.651 269.888 340.236 270.843 343.903 272.056C348.134 273.459 352.111 272.413 355.273 269.288C358.322 266.278 361.635 266.049 365.351 267.586C372.132 270.391 379.008 270.794 386.059 268.615C388.718 267.792 390.536 265.955 392.416 264.118C396.699 259.929 399.829 254.873 403.056 249.895C404.915 247.028 407.341 244.794 410.274 242.964C413.038 241.248 416.123 239.699 417.602 236.549C418.396 234.858 419.294 232.943 419.228 231.166C419.012 225.504 420.798 220.338 422.359 215.057C423.497 211.198 424.307 207.221 424.944 203.245C425.46 200.043 425.238 196.805 423.36 193.852C423.85 193.289 424.226 192.747 424.704 192.317C427.708 189.618 428.238 186.241 427.564 182.462C426.989 179.228 426.618 175.958 425.944 172.746C425.606 171.134 424.792 169.621 424.225 168.14C426.002 164.678 426.16 160.937 426.252 157.335C426.308 155.222 425.063 153.044 424.248 150.954C423.603 149.29 422.825 147.663 421.941 146.111C419.83 142.403 416.628 139.761 412.71 138.357C407.186 136.374 402.841 132.699 398.292 129.27C397.899 128.973 397.65 128.483 397.159 127.861C399.048 124.144 400.891 120.319 402.916 116.595C405.417 111.999 405.158 111.147 401.205 107.726C398.883 105.717 396.272 105.022 393.424 104.645C391.644 104.41 390.998 104.914 390.37 106.691C389.494 109.172 388.593 111.647 387.566 114.067C386.081 117.561 383.036 118.727 379.555 119.15C378.395 119.289 377.225 119.406 376.091 119.67C371.239 120.799 369.311 123.33 369.419 128.272C369.462 130.259 369.58 132.4 367.799 133.734C366.645 134.599 365.179 135.447 363.807 135.535C360.55 135.744 357.263 135.379 353.989 135.453C349.007 135.564 345.341 138.148 342.367 141.958C341.069 143.626 339.645 145.195 338.075 147.043C337.544 146.743 336.782 146.558 336.417 146.072C333.237 141.822 328.614 139.705 323.777 138.657C319.517 137.737 315.029 138.542 311.013 140.58C309.139 141.53 307.517 142.966 305.673 143.985C304.649 144.55 303.407 144.728 302.257 145.067C301.782 145.207 301.302 145.313 300.489 145.793C298.822 144.21 297.121 142.665 295.501 141.039C293.316 138.843 290.475 137.917 287.625 137.415C280.214 136.111 272.697 136.161 265.396 137.864C261.09 138.867 256.511 139.921 253.112 143.16C250.749 145.414 249.209 148.14 250.465 151.631C253.115 152.936 254.781 155.931 254.465 158.757C254.126 161.807 254.012 164.815 256.607 167.23C254.878 170.035 257.247 172.093 257.802 174.448C255.25 176.393 252.373 175.615 249.621 175.434C249.48 176.923 250.356 177.32 251.242 177.26C253.323 177.112 255.439 176.96 257.443 176.439C258.992 176.033 259.826 176.252 260.261 177.798C261.357 181.732 262.468 185.664 263.556 189.524C262.169 190.623 261.036 191.52 259.958 192.373C253.142 188.669 248.573 183.42 247.124 175.798C246.81 174.14 246.521 172.467 246.392 170.788C245.966 165.374 246.449 160.076 248.774 155.07C249.322 153.893 249.953 152.755 250.546 151.597L250.542 151.605ZM421.732 195.643C423.306 198.135 423.289 200.706 422.865 203.26C421.842 209.42 420.448 215.487 418.277 221.372C416.973 224.912 415.2 227.99 411.988 230.121C411.643 230.352 411.483 230.863 411.182 231.326C413.464 231.622 414.143 231.178 417.016 227.698C418.057 232.157 416.539 236.095 412.769 238.808C408.36 241.981 404.046 245.296 399.532 248.317C396.502 250.35 393.333 252.283 389.985 253.702C386.477 255.189 384.468 254.219 382.29 251.112C381.969 250.649 381.361 250.389 380.881 250.033L380.368 250.468C380.607 251.111 380.77 251.801 381.1 252.396C382.787 255.399 386.004 256.805 389.634 255.582C392.453 254.634 395.054 253.037 397.738 251.706C398.345 251.405 398.901 251.006 399.478 250.65L399.818 251.021C398.794 252.609 397.807 254.227 396.74 255.783C393.105 261.086 393.03 260.813 386.839 262.233C377.719 264.317 369.203 263.027 361.012 258.748C357.367 256.845 353.781 254.823 350.059 253.075C346.143 251.234 342.13 249.596 338.104 248C337.214 247.65 336.093 246.963 334.699 248.211C335.434 248.628 335.941 249.009 336.514 249.227C338.913 250.14 341.416 250.82 343.721 251.928C350.274 255.074 356.677 258.54 363.273 261.589C369.364 264.405 375.764 265.867 382.552 264.575C384.814 264.144 387.107 263.849 389.386 263.496C387.036 266.318 384 267.639 380.576 267.847C375.481 268.155 370.417 267.785 365.673 265.685C361.365 263.776 357.541 264.245 354.126 267.549C350.647 270.917 346.652 271.408 342.338 269.515C338.88 267.998 335.341 267.845 331.767 268.72C326.96 269.891 322.678 268.706 318.509 266.349C315.319 264.544 312.085 262.779 308.721 261.347C307.233 260.712 306.257 259.936 305.619 258.551C304.181 255.429 303.59 252.398 306.283 249.573C306.665 249.171 306.863 248.599 307.266 247.896C308.379 248.461 309.387 248.968 310.393 249.48L310.811 249.093C309.376 247.009 307.938 244.929 306.597 242.978C307.174 240.505 308.352 238.922 310.65 238.144C311.539 239.769 312.363 241.282 313.187 242.795L313.877 242.632C313.79 241.788 313.971 240.777 313.564 240.137C312.166 237.925 310.604 235.814 309.012 233.729C308.306 232.805 307.304 232.105 306.581 231.19C304.933 229.101 304.808 226.8 306.412 224.695C307.603 223.127 308.982 221.668 310.46 220.368C313.457 217.732 315.137 214.392 316.068 210.607C316.257 209.847 316.566 208.954 315.027 208.702C313.636 211.683 313.438 215.394 310.557 217.634C308.072 216.581 307.031 215.275 307.59 212.895C308.1 210.727 308.998 208.555 310.184 206.671C312.243 203.404 312.643 199.993 312.056 196.317C311.744 194.36 311.47 192.393 311.291 190.423C311.059 187.894 312.138 186.038 314.72 184.676C318.18 186.47 321.786 188.338 325.337 190.179C325.142 190.742 325.133 190.919 325.04 191.006C320.653 195.148 319.826 200.027 321.495 205.73C322.037 207.576 321.66 209.801 321.285 211.776C320.947 213.551 320.027 215.215 319.384 216.934C318.112 220.324 317.085 223.767 317.503 227.46C318.011 231.942 320.265 235.294 324.18 237.492C324.816 237.849 325.646 237.856 326.387 238.023L326.663 237.293C326.123 236.898 325.606 236.461 325.038 236.112C320.967 233.642 318.879 230.02 319.188 225.283C319.335 223.05 319.754 220.708 320.641 218.669C323.021 213.211 324.34 207.856 322.601 201.82C321.406 197.674 323.725 194.398 327.076 191.653C329.436 193.944 331.659 196.104 334.188 198.564C331.648 199.316 329.513 199.95 327.381 200.586C327.432 200.944 327.478 201.3 327.528 201.658C330.56 202.324 333.317 200.2 336.289 199.78L341.869 203.199C340.742 203.798 340.078 204.205 339.372 204.514C337.693 205.257 335.981 205.925 334.305 206.669C331.279 208.013 329.17 210.262 328.76 213.568C328.214 217.999 327.856 222.469 327.731 226.927C327.657 229.533 328.743 231.974 330.333 234.064C334.541 239.595 340.449 241.9 347.117 242.476C348.818 242.622 350.102 243.117 351.516 244.032C353.763 245.484 356.254 246.582 358.712 247.666C359.479 248.005 360.649 248.169 360.947 246.316C358.264 246.058 355.739 245.35 353.48 243.209C356.429 243.104 359.005 243.014 361.646 242.917C361.399 241.024 360.235 241.362 359.395 241.416C354.695 241.722 350.016 241.413 345.41 240.558C342.839 240.084 340.249 239.288 337.904 238.149C332.99 235.762 329.537 231.953 329.408 226.24C329.319 222.228 329.873 218.19 330.322 214.186C330.63 211.428 332.253 209.344 334.793 208.332C337.715 207.164 340.782 206.345 344.236 205.226C347.122 207.697 346.598 216.214 342.539 219.014C342.479 219.057 342.41 219.086 342.354 219.13C339.663 221.28 336.95 223.412 334.297 225.607C333.82 225.999 333.566 226.662 333.209 227.203L333.643 227.706C334.17 227.473 334.764 227.323 335.21 226.985C336.14 226.272 336.976 225.44 337.882 224.693C338.887 223.868 339.925 223.089 341.191 222.098C341.085 224.125 339.352 225.445 340.437 227.349C340.895 227.063 341.256 226.972 341.352 226.758C343.372 222.2 345.696 217.737 347.263 213.029C348.838 208.301 347.357 205.072 343.275 202.169C341.9 201.194 340.388 200.406 339.026 199.409C336.609 197.636 334.002 196.025 331.938 193.896C327.86 189.692 323.08 186.693 317.772 184.388C311.427 181.635 305.315 178.459 299.718 174.34C297.235 172.507 294.832 170.617 293.073 168.05C290.281 163.981 290.724 159.665 294.387 156.372C296.018 154.905 297.884 153.7 299.603 152.322C301.89 150.488 304.165 148.64 306.385 146.727C307.15 146.071 307.614 145.041 308.423 144.465C312.913 141.268 317.868 139.767 323.399 140.815C328.39 141.764 332.484 144.167 335.682 148.619C335.006 148.503 334.66 148.453 334.322 148.383C329.992 147.492 325.644 146.846 321.2 147.379C312.453 148.435 306.401 154.554 306.308 162.602C306.307 162.721 306.177 162.844 305.854 163.394C304.258 162.896 302.54 162.405 300.855 161.818C300.1 161.556 299.386 160.982 298.932 162.292C300.96 164.605 303.874 164.538 306.543 165.09C307.389 169.195 309.644 172.39 312.458 175.17C310.259 178.642 310.191 179.951 312.171 180.476C312.83 179.249 312.117 177.225 314.355 176.703C320.936 181.468 328.862 183.581 336.482 186.521C335.621 188.308 333.524 189.6 335.079 192.165C336.583 190.586 336.549 187.956 338.989 187.521C348.998 190.776 358.098 197.335 359.847 204.64C359.039 207.743 355.677 207.315 353.875 209.102C356.593 210.283 358.527 208.677 360.796 207.35C360.971 210.032 361.182 212.686 360.789 215.243C360.287 218.494 359.273 221.66 358.529 224.874C358.361 225.596 358.386 226.367 358.323 227.112L359.083 227.268L361.401 221.537C362.214 222.798 362.623 223.962 362.909 225.158C363.519 227.707 363.494 227.711 364.937 227.719C364.87 224.957 364.067 222.415 362.955 219.93C362.611 219.158 362.205 218.247 362.311 217.467C362.951 212.85 363.124 208.273 361.607 203.735C362.091 203.502 362.405 203.325 362.735 203.202C366.472 201.784 368.793 199.127 369.541 195.21C370.052 192.548 370.204 189.808 370.842 187.184C371.457 184.665 372.029 181.923 373.451 179.854C375.573 176.773 377.124 176.359 379.943 177.799C380.728 178.198 381.621 178.402 382.36 178.868C385.913 181.114 389.491 180.664 393.096 179.068C394.823 178.302 396.538 177.497 398.186 176.737C400.915 178.188 402.182 180.475 402.568 183.343C404.778 182.125 404.297 180.655 400.119 175.359C402.381 174.729 404.426 173.929 406.541 173.629C409.411 173.225 412.31 173.218 414.227 176.111C414.398 176.37 415.103 176.275 415.81 176.385C415.202 173.713 413.585 172.702 411.567 172.199C408.323 171.387 405.124 171.676 402.066 172.955C399.631 173.978 397.227 175.098 394.904 176.351C390.51 178.721 386.32 179.542 381.617 176.731C377.326 174.167 372.306 174.315 367.432 174.498C363.19 174.66 359.239 173.704 355.699 171.378C349.538 167.325 342.965 164.147 336.119 161.401C333.119 160.197 330.535 157.953 327.762 156.179C327.305 155.885 326.849 155.591 326.346 155.269C325.843 156.735 325.825 156.756 326.934 157.743C330.052 160.512 333.61 162.651 337.558 163.863C346.029 166.462 352.678 172.496 360.859 175.744C359.812 178.06 358.637 180.224 359.36 182.834C360.007 182.491 360.369 182.043 360.558 181.53C360.885 180.639 361.035 179.682 361.374 178.797C362.369 176.207 362.682 176.068 365.542 176.207C366.858 176.268 368.185 176.153 369.504 176.173C370.941 176.193 372.374 176.274 374.305 176.346C371.619 178.67 370.347 181.214 369.875 184.191C369.46 186.791 369.036 189.393 368.498 191.968C368.128 193.754 367.763 195.585 367.031 197.239C365.871 199.871 363.743 201.417 360.779 201.83C356.753 194.298 350.121 190.103 342.617 187.076C335.534 184.22 328.322 181.683 321.273 178.755C316.809 176.902 313.029 174.007 310.248 169.923C307.472 165.851 307.318 159.905 310.025 155.777C313.497 150.475 318.755 148.897 324.698 148.904C330.041 148.911 335.192 150.124 340.236 151.765C342.098 152.371 343.875 152.576 345.821 152.127C349.411 151.296 352.562 152.219 355.205 154.858C353.643 155.472 352.201 156.04 350.762 156.609L350.933 157.315C351.347 157.316 351.762 157.337 352.171 157.312C354.554 157.172 356.955 156.774 359.311 156.947C361.673 157.118 363.989 157.86 366.328 158.345C368.75 158.849 371.288 159.053 373.565 159.926C376.491 161.053 379.191 162.764 382.026 164.139C385.439 165.791 388.979 166.952 392.86 166.177C394.577 165.835 395.986 166.281 397.265 167.527C399.433 169.635 402.046 169.936 404.839 169.007C405.883 168.659 406.955 168.326 407.91 167.799C409.985 166.655 411.995 166.931 414.041 167.811C416.21 168.741 417.875 170.209 419.072 172.249C419.422 172.842 419.972 173.317 420.433 173.846C420.659 173.675 420.885 173.505 421.109 173.339C420.804 170.343 418.426 168.672 416.092 166.738C420.919 167.354 423.847 170.556 424.422 175.484C424.71 177.959 424.959 180.448 425.43 182.893C426.048 186.092 425.555 188.851 423.026 191.115C422.326 191.74 421.839 192.604 421.264 193.366C419.835 195.252 418.434 195.693 416.279 194.754C415.142 194.261 414.045 193.632 413.019 192.936C410.328 191.11 407.562 190.586 404.495 191.994C402.392 192.961 400.375 192.668 398.483 191.241C397.875 190.781 397.035 190.622 396.304 190.326L395.894 190.893C396.47 191.597 397.048 192.307 397.673 193.068C396.475 193.711 395.362 194.312 394.244 194.911C394.322 195.166 394.401 195.417 394.483 195.673C395.14 195.649 395.874 195.808 396.435 195.564C398.622 194.613 400.83 193.989 403.251 194.141C403.937 194.185 404.691 193.838 405.345 193.527C407.642 192.435 409.752 192.78 411.791 194.171C412.396 194.582 413.057 194.911 413.69 195.286C416.28 196.819 418.911 197.784 421.701 195.659L421.732 195.643ZM260.133 158.562L260.127 159.131C260.711 159.238 261.345 159.552 261.875 159.419C263.223 159.085 264.522 158.554 265.841 158.103C270.026 156.671 273.345 153.828 276.887 151.351C278.93 149.923 281.056 149.266 283.47 150.495C284.181 150.854 284.998 151.008 285.78 151.215C288.71 151.991 291.641 152.754 294.785 153.579C294.181 154.176 293.777 154.588 293.358 154.989C288.588 159.572 288.267 165.326 292.676 170.23C294.28 172.016 296.205 173.513 298 175.119C298.579 175.639 299.209 176.093 299.815 176.581L299.739 177.097C297.658 177.435 295.577 177.768 293.499 178.107L293.649 178.972C296.454 179.869 299.139 179.333 301.609 177.873C305.19 179.921 308.655 181.903 312.342 184.018C309.697 186.406 309.236 189.297 309.742 192.489C309.01 192.982 308.395 193.528 307.681 193.857C306.349 194.469 304.952 194.936 303.593 195.495C302.76 195.838 301.912 196.218 302.773 197.546C303.947 197.137 305.118 196.759 306.268 196.316C307.489 195.849 308.69 195.326 309.902 194.822C311.228 199.35 310.878 201.957 308.662 205.822C307.719 207.472 306.816 209.185 306.203 210.973C305.219 213.852 305.64 216.491 308.244 218.472C308.516 218.682 308.731 218.974 309.001 219.259C307.97 220.35 306.99 221.338 306.057 222.373C303.161 225.592 302.666 229.368 306.208 233.122C307.24 234.215 308.225 235.356 309.392 236.656C304.73 239.198 304.528 242.731 307.034 246.813C301.769 250.515 301.828 255.119 304.556 260.261C299.788 260.63 295.763 259.786 292.858 255.704C293.213 255.178 293.624 254.668 293.923 254.105C294.727 252.589 295.758 251.122 296.201 249.499C297.105 246.216 296.298 243.074 294.558 240.215C293.577 238.605 292.376 237.13 291.27 235.584C291.421 235.269 291.524 234.992 291.677 234.744C295.21 228.996 295.011 226.585 290.894 221.195C289.629 219.537 288.744 217.585 287.706 215.753C287.612 215.586 287.673 215.33 287.66 215.173C288.176 214.839 288.659 214.526 289.502 213.982C288.293 213.326 287.461 212.914 286.664 212.439C284.833 211.356 284.496 209.897 285.779 208.218C286.353 207.471 287.009 206.6 287.827 206.26C291.314 204.812 294.033 202.42 296.439 199.588C299.408 203.301 301.965 204.293 305.026 202.43C303.987 202.119 303.36 201.822 302.714 201.761C299.643 201.474 297.861 199.659 297.786 196.623C297.738 194.767 298.669 193.417 300.06 192.32C301.061 191.526 302.067 190.744 303.071 189.956L302.886 189.354C302.343 189.357 301.697 189.177 301.272 189.405C300.375 189.883 299.545 190.523 298.775 191.191C295.121 194.356 289.707 194.077 286.63 190.349C285.054 188.447 283.808 186.273 282.349 184.127C283.103 183.3 283.761 182.625 284.363 181.902C284.952 181.199 286.119 180.548 284.621 179.324C283.396 180.517 282.21 181.674 281.072 182.783C276.971 181.866 271.899 179.072 271.318 175.16C271.15 174.022 271.008 172.88 270.852 171.713C268.253 170.871 265.726 169.991 264.806 166.399C270.532 166.366 275.866 166.35 281.195 166.289C281.807 166.28 282.419 166.037 283.03 165.904L283 165.178C280.387 164.04 277.549 164.177 274.772 164.271C271.917 164.367 269.068 164.717 266.217 164.958C263.39 165.198 260.564 165.434 257.536 165.688C255.556 164.102 255.87 161.599 256.046 159.33C256.289 156.213 255.724 153.563 253.405 151.336C251.774 149.772 251.551 147.841 253.112 146.265C254.575 144.788 256.312 143.365 258.2 142.554C267.868 138.384 277.918 137.741 288.212 139.703C291.321 140.295 293.833 141.658 295.698 144.268C296.832 145.85 298.332 147.056 300.34 147.383C301.14 147.511 301.967 147.489 303.231 147.563C301.47 148.858 300.087 149.821 298.769 150.867C297.655 151.752 296.517 152.106 295.095 151.706C290.579 150.431 285.817 149.737 281.568 147.87C272.909 144.067 264.628 145.559 256.264 148.468C256.025 148.552 255.852 148.839 255.657 149.027C255.954 150.327 256.789 150.027 257.567 149.809C259.549 149.26 261.52 148.668 263.508 148.15C267.541 147.094 271.613 146.763 275.711 147.769C276.413 147.939 277.065 148.303 277.862 148.625C274.84 150.723 272.197 152.869 269.265 154.508C266.369 156.129 263.187 157.234 260.133 158.562ZM277.967 214.595C277.331 213.981 276.81 213.399 276.206 212.917C274.029 211.171 271.82 209.473 269.634 207.737C266.539 205.277 266.299 204.247 267.765 200.578C268.047 199.879 268.081 199.079 268.229 198.326L267.505 198.033C266.851 198.91 266.198 199.783 265.613 200.559C264.258 200.087 262.981 199.552 261.651 199.194C259.638 198.656 258.98 197.472 259.986 195.633C260.975 193.822 262.357 192.335 264.344 191.374C267.52 195.528 271.646 196.945 276.743 196.258C276.608 194.381 275.406 194.823 274.594 194.784C268.715 194.503 265.363 191.925 264.34 186.117C263.433 180.95 261.598 176.327 258.487 172.119C256.701 169.703 257.706 167.584 260.69 167.026C261.396 166.893 262.117 166.862 263.113 166.751C263.195 169.628 265.444 170.795 267.433 172.251C265.971 173.548 263.626 172.937 262.497 175.339C265.051 174.694 267.198 174.149 269.205 173.644C269.527 174.564 269.819 175.443 270.143 176.311C271.409 179.73 274.17 181.57 277.317 182.929C279.41 183.833 281.07 185.184 282.299 187.085C282.978 188.135 283.621 189.203 284.322 190.234C286.734 193.759 290.063 195.349 294.336 194.932C294.896 194.878 295.461 194.869 296.647 194.806C295.906 196.39 295.502 197.706 294.754 198.778C292.648 201.798 289.519 203.653 286.411 205.421C283.086 207.314 282.409 210.527 284.957 213.366C285.242 213.685 285.639 214.055 285.669 214.429C285.958 218.123 288.266 220.717 290.399 223.44C293.063 226.838 293.102 229.494 290.652 233.103C290.158 233.83 289.581 234.505 289.124 235.258C288.48 236.32 287.81 237.39 287.367 238.542C287.154 239.103 287.434 239.859 287.488 240.523L288.157 240.575C288.744 239.499 289.328 238.422 290.022 237.153C292.601 239.656 294.152 242.324 294.706 245.54C295.323 249.129 293.894 252.038 291.625 254.578C290.998 254.082 290.392 253.556 289.746 253.095C286.452 250.763 282.729 249.913 278.741 249.789C275.715 249.696 274.109 248.257 273.14 245.044C273.832 245.272 274.413 245.541 275.028 245.656C277.829 246.176 280.624 246.931 283.445 247.049C285.347 247.134 287.315 246.384 289.203 245.845C289.972 245.623 290.941 245.111 290.088 243.939C289.832 243.935 289.579 243.856 289.406 243.943C283.777 246.651 278.249 245.642 273.117 242.89C268.751 240.548 264.764 237.494 260.617 234.741C260.519 234.678 260.513 234.48 260.465 234.342C262.98 229.499 267.93 227.106 273.123 228.237C274.198 228.472 275.242 228.842 276.321 229.046C276.931 229.159 277.58 229.06 278.21 229.054L278.306 228.465C277.143 227.014 275.289 227.044 273.672 226.633C267.456 225.055 262.968 228.024 259.068 232.573C258.91 231.729 258.866 231.145 258.943 230.577C259.494 226.605 258.474 223.014 256.376 219.664C255.13 217.676 253.842 215.699 252.751 213.621C252.01 212.208 251.582 210.632 250.88 208.769C252.961 209.81 254.472 210.707 256.094 211.33C257.059 211.697 258.294 211.783 258.252 210.605C255.526 209.112 253.136 207.803 250.884 206.573C250.769 205.623 250.66 205.046 250.638 204.466C250.484 200.213 250.447 195.965 249.145 191.823C248.637 190.2 249.508 188.869 250.966 187.922C253.579 189.964 256.154 191.971 258.643 193.92C258.281 195.391 257.951 196.722 257.559 198.314C257.344 198.494 256.874 198.879 256.1 199.512C257.028 199.888 257.626 200.23 258.274 200.368C259.421 200.613 260.611 200.648 261.749 200.927C263.19 201.282 264.582 201.802 265.06 203.466C265.44 204.784 265.818 206.108 266.188 207.404C265.416 208.97 264.399 210.533 263.846 212.25C262.481 216.507 265.454 220.435 269.894 220.405C270.309 220.401 270.72 219.997 271.584 219.543C268.994 218.257 266.014 218.378 265.386 215.441C264.813 212.765 265.979 210.625 267.974 208.621C270.506 210.616 272.963 212.561 275.436 214.489C276.077 214.986 276.685 215.917 277.953 214.594L277.967 214.595ZM394.962 127.485C394.323 127.346 393.902 127.247 393.48 127.162C387.077 125.822 381.475 128.769 379.162 134.84C378.409 136.819 377.938 138.911 377.45 140.978C376.605 144.57 375.228 147.775 372.096 150.037C369.373 152.004 366.761 154.134 363.783 156.44C361.208 156.221 358.572 154.907 356.228 153.174C352.633 150.516 348.829 149.477 344.427 150.507C342.751 150.899 341.098 150.621 339.733 148.964C340.734 147.419 341.578 145.777 342.737 144.396C346.574 139.802 350.989 136.556 357.553 137.709C359.956 138.129 362.546 137.959 364.984 137.599C368.789 137.036 370.76 134.809 371.294 131.02C371.49 129.643 371.513 128.245 371.614 126.854C371.834 123.818 372.739 122.676 375.74 121.982C377.597 121.554 379.487 121.234 381.38 121.011C385.524 120.514 388.204 118.135 389.813 114.462C390.666 112.519 391.273 110.467 392 108.469C392.218 107.872 392.475 107.296 392.682 106.785C396.545 106.735 401.338 109.644 402.529 112.719C400.04 117.577 397.515 122.515 394.97 127.489L394.962 127.485ZM367.628 156.73L367.194 156.122C367.944 155.479 368.667 154.796 369.448 154.194C371.074 152.939 372.933 151.917 374.338 150.455C377.926 146.726 382.253 145.39 387.295 145.636C390.51 145.791 393.606 145.027 396.383 143.396C400.823 140.792 405.576 140.071 410.604 140.659C414.492 141.114 417.732 142.886 419.52 146.344C421.226 149.641 422.66 153.161 423.613 156.743C424.547 160.232 423.827 163.774 421.913 166.991C421.7 165.858 421.724 164.741 421.808 163.628C422.132 159.264 422.034 154.967 420.156 150.887C418.076 146.364 412.629 142.543 407.196 143.38C405.82 143.594 404.432 143.793 403.079 144.116C397.367 145.478 391.662 146.88 385.959 148.268C379.98 149.726 374.326 151.896 369.434 155.758C368.903 156.176 368.224 156.41 367.612 156.724L367.628 156.73ZM371.568 157.492L371.291 156.776C371.812 156.287 372.251 155.604 372.865 155.343C376.769 153.688 380.615 151.8 384.661 150.607C390.92 148.763 397.319 147.394 403.668 145.858C404.949 145.549 406.258 145.312 407.569 145.21C412.762 144.814 416.646 147.241 418.672 152.028C420.481 156.303 420.39 160.748 419.723 165.23C419.706 165.332 419.522 165.41 419.294 165.598C418.791 165.347 418.237 165.071 417.707 164.804C417.74 163.314 417.835 161.997 417.782 160.682C417.729 159.366 417.633 158.039 417.369 156.752C416.18 150.896 411.897 147.598 405.709 147.692C404.106 147.714 402.466 147.912 400.92 148.323C394.938 149.918 388.713 150.643 383.077 153.51C380.28 154.933 377.3 156.01 374.358 157.132C373.503 157.457 372.501 157.384 371.566 157.496L371.568 157.492ZM413.372 164.41C412.17 155.153 404.386 150.715 395.984 152.871C389.71 154.481 383.439 155.944 378.079 159.855C377.515 159.627 377.037 159.457 376.579 159.238C376.34 159.123 376.14 158.923 375.764 158.642C376.257 158.328 376.591 158.068 376.96 157.885C385.329 153.812 394.228 151.319 403.28 149.44C405.907 148.895 408.79 149.433 411.368 150.762C414.77 152.514 417.16 158.727 415.396 164.592C414.776 164.536 414.133 164.481 413.368 164.409L413.372 164.41ZM380.172 160.925C380.373 160.688 380.483 160.475 380.653 160.373C386.931 156.577 393.812 154.547 401.063 154.236C406.421 154.007 410.943 158.714 411.273 164.061C411.287 164.261 411.179 164.47 411.115 164.744C410.554 164.897 409.998 165.048 409.436 165.192C409.414 165.197 409.362 165.081 409.323 165.023C408.814 159.651 406.025 156.658 400.972 156.402C399.023 156.303 396.956 156.428 395.101 156.981C391.11 158.168 387.214 159.674 383.295 161.095C382.269 161.469 381.301 162.181 380.175 160.931L380.172 160.925ZM384.069 163.215C384.045 162.958 384.022 162.697 383.998 162.439C387.593 161.254 391.162 159.968 394.799 158.927C396.537 158.427 398.413 158.188 400.225 158.188C405.258 158.188 407.952 161.357 407.059 166.375C406.71 166.544 406.213 166.785 405.627 167.071C404.726 161.479 402.509 159.516 397.47 159.98C395.468 160.164 393.465 160.824 391.58 161.569C390.109 162.148 388.817 163.19 387.311 164.113C386.294 163.83 385.184 163.528 384.071 163.221L384.069 163.215ZM390.977 164.564L390.817 164.09C393.591 162.159 396.694 161.402 400.069 161.854C402.249 162.146 404.408 164.851 403.233 167.439C401.443 168.075 399.875 167.531 398.515 166.225C396.73 164.513 394.659 163.941 392.253 164.467C391.841 164.557 391.404 164.532 390.973 164.562L390.977 164.564ZM385.276 143.583C385.854 142.437 386.272 141.251 386.978 140.271C389.193 137.205 391.471 134.174 393.846 131.229C394.457 130.473 395.477 129.644 396.558 130.795C393.707 134.888 390.914 138.9 388.129 142.915C387.433 143.918 386.557 144.096 385.276 143.583ZM393.18 129.209C388.846 133.159 385.887 137.899 383.479 143.027C383.27 143.475 382.686 143.743 382.277 144.096C382.091 143.954 381.91 143.815 381.725 143.673C383.447 139.756 384.529 135.565 387.055 132.002C387.722 131.059 388.583 130.237 389.433 129.439C390.516 128.422 391.729 128.375 393.178 129.213L393.18 129.209ZM378.98 145.155L378.285 144.85C380.169 139.524 379.606 132.979 385.755 129.806C383.495 134.923 381.239 140.042 378.98 145.155ZM389.88 143.409C392.811 139.349 395.477 135.652 398.184 131.9C398.8 132.33 399.067 132.457 399.247 132.658C399.424 132.858 399.512 133.132 399.608 133.318C397.506 137.058 391.804 143.227 389.875 143.408L389.88 143.409ZM395.566 141.51C397.634 139.022 399.49 136.785 401.455 134.422C401.982 134.835 402.452 135.201 403.051 135.672C400.504 137.676 399.131 140.74 395.57 141.512L395.566 141.51ZM402.09 139.012C403.204 138.093 403.932 137.493 404.717 136.845C405.669 137.397 406.459 137.854 407.249 138.312L407.061 138.612C405.581 138.731 404.105 138.852 402.088 139.016L402.09 139.012Z" fill="black"/>
<path d="M421.735 195.643C418.95 197.765 416.318 196.805 413.723 195.27C413.09 194.895 412.429 194.566 411.824 194.155C409.785 192.764 407.675 192.419 405.378 193.511C404.724 193.822 403.97 194.169 403.284 194.124C400.859 193.971 398.651 194.595 396.468 195.548C395.907 195.792 395.169 195.631 394.516 195.657C394.438 195.402 394.359 195.151 394.277 194.895C395.391 194.294 396.509 193.695 397.706 193.052C397.082 192.29 396.507 191.582 395.927 190.877L396.337 190.31C397.069 190.606 397.908 190.765 398.516 191.225C400.408 192.651 402.425 192.944 404.528 191.978C407.595 190.57 410.357 191.092 413.052 192.92C414.078 193.616 415.175 194.245 416.312 194.738C418.467 195.677 419.874 195.233 421.297 193.349C421.872 192.588 422.359 191.724 423.059 191.099C425.588 188.835 426.077 186.074 425.463 182.877C424.992 180.431 424.743 177.943 424.455 175.467C423.882 170.536 420.953 167.334 416.126 166.722C418.459 168.656 420.839 170.332 421.142 173.323C420.916 173.493 420.69 173.663 420.466 173.829C420.005 173.3 419.455 172.826 419.105 172.232C417.908 170.193 416.237 168.727 414.074 167.795C412.028 166.915 410.018 166.639 407.943 167.783C406.988 168.31 405.916 168.642 404.872 168.99C402.079 169.92 399.468 169.615 397.299 167.51C396.019 166.265 394.61 165.819 392.893 166.161C389.012 166.936 385.476 165.776 382.059 164.123C379.222 162.751 376.524 161.037 373.598 159.91C371.317 159.035 368.783 158.832 366.361 158.328C364.024 157.839 361.706 157.101 359.344 156.931C356.983 156.76 354.587 157.156 352.204 157.296C351.791 157.319 351.38 157.3 350.966 157.299L350.795 156.593C352.238 156.025 353.676 155.456 355.238 154.841C352.595 152.203 349.444 151.28 345.854 152.111C343.908 152.56 342.131 152.355 340.269 151.749C335.225 150.108 330.076 148.89 324.731 148.887C318.788 148.88 313.53 150.459 310.058 155.761C307.355 159.89 307.509 165.836 310.281 169.907C313.062 173.991 316.847 176.887 321.306 178.739C328.355 181.667 335.567 184.204 342.65 187.06C350.154 190.087 356.786 194.282 360.812 201.814C363.776 201.401 365.905 199.855 367.065 197.223C367.794 195.572 368.157 193.736 368.531 191.951C369.069 189.377 369.493 186.775 369.908 184.175C370.382 181.193 371.653 178.649 374.338 176.33C372.407 176.257 370.97 176.176 369.537 176.157C368.216 176.141 366.89 176.256 365.575 176.19C362.716 176.051 362.401 176.195 361.407 178.78C361.068 179.666 360.914 180.622 360.591 181.514C360.403 182.027 360.041 182.475 359.393 182.817C358.67 180.208 359.845 178.044 360.892 175.727C352.715 172.481 346.067 166.447 337.591 163.846C333.644 162.634 330.085 160.496 326.967 157.726C325.858 156.74 325.877 156.719 326.379 155.253C326.886 155.577 327.337 155.873 327.795 156.163C330.569 157.937 333.148 160.179 336.152 161.385C342.998 164.131 349.565 167.311 355.732 171.362C359.276 173.689 363.223 174.644 367.465 174.482C372.339 174.298 377.359 174.151 381.65 176.715C386.354 179.526 390.545 178.701 394.937 176.335C397.261 175.082 399.666 173.957 402.099 172.939C405.159 171.656 408.358 171.366 411.6 172.183C413.616 172.69 415.229 173.699 415.843 176.368C415.13 176.261 414.431 176.354 414.26 176.094C412.342 173.206 409.438 173.211 406.574 173.613C404.455 173.911 402.414 174.712 400.152 175.343C404.331 180.639 404.811 182.108 402.601 183.326C402.215 180.459 400.948 178.172 398.22 176.721C396.568 177.475 394.858 178.281 393.129 179.052C389.525 180.647 385.946 181.097 382.393 178.851C381.658 178.387 380.761 178.182 379.976 177.783C377.158 176.343 375.604 176.761 373.485 179.837C372.058 181.905 371.487 184.647 370.876 187.168C370.237 189.792 370.081 192.531 369.574 195.194C368.823 199.109 366.505 201.768 362.768 203.186C362.436 203.313 362.122 203.49 361.64 203.718C363.161 208.258 362.984 212.834 362.344 217.45C362.238 218.23 362.64 219.14 362.988 219.914C364.1 222.399 364.903 224.94 364.97 227.703C363.527 227.695 363.552 227.691 362.942 225.142C362.656 223.946 362.243 222.78 361.435 221.521L359.116 227.251L358.356 227.096C358.421 226.347 358.394 225.58 358.562 224.858C359.306 221.644 360.321 218.478 360.822 215.227C361.219 212.671 361.006 210.022 360.829 207.334C358.566 208.659 356.626 210.267 353.908 209.086C355.71 207.299 359.073 207.722 359.88 204.624C358.131 197.319 349.029 190.763 339.022 187.504C336.586 187.941 336.619 190.575 335.112 192.149C333.557 189.584 335.653 188.296 336.515 186.505C328.897 183.56 320.969 181.452 314.388 176.687C312.15 177.208 312.863 179.233 312.205 180.46C310.223 179.939 310.295 178.632 312.492 175.154C309.678 172.374 307.418 169.177 306.576 165.074C303.905 164.516 300.993 164.589 298.965 162.275C299.419 160.965 300.138 161.541 300.888 161.802C302.573 162.389 304.291 162.879 305.887 163.378C306.21 162.828 306.34 162.705 306.341 162.586C306.434 154.537 312.486 148.419 321.233 147.363C325.673 146.828 330.021 147.474 334.355 148.367C334.697 148.439 335.039 148.487 335.715 148.603C332.517 144.151 328.423 141.748 323.432 140.799C317.902 139.746 312.948 141.247 308.456 144.448C307.649 145.021 307.183 146.055 306.418 146.711C304.198 148.624 301.924 150.472 299.636 152.305C297.919 153.68 296.052 154.885 294.42 156.355C290.757 159.649 290.314 163.965 293.106 168.034C294.869 170.602 297.266 172.495 299.752 174.323C305.347 178.447 311.46 181.619 317.805 184.372C323.113 186.676 327.893 189.676 331.971 193.88C334.036 196.009 336.642 197.62 339.06 199.392C340.421 200.39 341.933 201.178 343.308 202.153C347.39 205.055 348.869 208.289 347.296 213.013C345.727 217.725 343.405 222.184 341.385 226.742C341.291 226.951 340.928 227.047 340.47 227.333C339.385 225.429 341.118 224.108 341.225 222.082C339.958 223.073 338.92 223.852 337.915 224.677C337.009 225.424 336.173 226.256 335.243 226.968C334.795 227.31 334.203 227.456 333.676 227.69L333.242 227.186C333.597 226.65 333.851 225.987 334.33 225.591C336.989 223.394 339.696 221.264 342.388 219.114C342.443 219.07 342.514 219.036 342.572 218.998C346.631 216.197 347.151 207.679 344.269 205.21C340.811 206.327 337.748 207.148 334.826 208.316C332.284 209.332 330.663 211.411 330.356 214.17C329.91 218.175 329.35 222.216 329.441 226.224C329.57 231.937 333.024 235.746 337.937 238.133C340.282 239.272 342.877 240.065 345.443 240.542C350.045 241.395 354.724 241.704 359.428 241.4C360.264 241.344 361.432 241.008 361.68 242.901C359.034 242.996 356.462 243.088 353.513 243.193C355.772 245.334 358.295 246.046 360.98 246.3C360.688 248.151 359.516 247.99 358.745 247.65C356.287 246.565 353.797 245.467 351.549 244.016C350.135 243.101 348.851 242.606 347.15 242.46C340.486 241.885 334.574 239.579 330.367 234.048C328.776 231.958 327.69 229.516 327.765 226.911C327.895 222.45 328.247 217.983 328.793 213.552C329.203 210.245 331.316 207.999 334.338 206.653C336.014 205.909 337.727 205.237 339.406 204.498C340.111 204.189 340.775 203.782 341.902 203.182L336.322 199.764C333.354 200.185 330.599 202.305 327.561 201.642C327.511 201.284 327.465 200.928 327.415 200.57C329.55 199.935 331.686 199.301 334.221 198.548C331.688 196.086 329.469 193.928 327.109 191.637C323.758 194.381 321.439 197.657 322.634 201.804C324.374 207.84 323.054 213.194 320.674 218.653C319.785 220.686 319.364 223.032 319.221 225.267C318.912 230.003 321 233.626 325.071 236.096C325.641 236.44 326.157 236.882 326.696 237.276L326.42 238.007C325.679 237.84 324.849 237.833 324.214 237.475C320.298 235.278 318.044 231.926 317.536 227.444C317.118 223.75 318.143 220.312 319.417 216.917C320.06 215.199 320.98 213.535 321.318 211.76C321.693 209.785 322.069 207.564 321.528 205.713C319.857 200.014 320.691 195.133 325.074 190.989C325.166 190.903 325.17 190.729 325.37 190.163C321.819 188.322 318.213 186.454 314.753 184.659C312.167 186.02 311.092 187.878 311.325 190.407C311.507 192.379 311.777 194.343 312.089 196.301C312.674 199.981 312.274 203.392 310.217 206.655C309.031 208.539 308.133 210.711 307.623 212.878C307.066 215.255 308.103 216.559 310.59 217.618C313.471 215.377 313.67 211.662 315.06 208.686C316.603 208.939 316.29 209.83 316.102 210.591C315.17 214.376 313.494 217.718 310.493 220.351C309.015 221.652 307.634 223.114 306.445 224.679C304.841 226.784 304.965 229.089 306.614 231.173C307.338 232.089 308.34 232.785 309.045 233.712C310.633 235.796 312.195 237.907 313.597 240.12C314.004 240.761 313.821 241.776 313.91 242.616L313.22 242.779C312.396 241.266 311.572 239.753 310.683 238.128C308.385 238.906 307.207 240.489 306.63 242.962C307.973 244.909 309.409 246.993 310.844 249.076L310.426 249.464C309.42 248.952 308.412 248.445 307.299 247.88C306.896 248.583 306.696 249.158 306.317 249.556C303.623 252.381 304.212 255.417 305.652 258.535C306.295 259.922 307.264 260.699 308.755 261.331C312.118 262.763 315.352 264.528 318.542 266.332C322.711 268.69 326.997 269.877 331.8 268.704C335.373 267.833 338.913 267.981 342.371 269.499C346.684 271.396 350.68 270.901 354.159 267.533C357.574 264.229 361.397 263.764 365.706 265.669C370.45 267.769 375.513 268.142 380.609 267.831C384.033 267.622 387.069 266.301 389.419 263.48C387.139 263.837 384.852 264.129 382.585 264.558C375.796 265.855 369.395 264.393 363.306 261.572C356.712 258.519 350.311 255.059 343.755 251.912C341.453 250.805 338.944 250.128 336.547 249.21C335.974 248.993 335.463 248.61 334.732 248.195C336.126 246.947 337.243 247.632 338.137 247.984C342.163 249.58 346.176 251.217 350.093 253.059C353.81 254.805 357.401 256.829 361.045 258.731C369.232 263.009 377.75 264.305 386.872 262.216C393.068 260.799 393.137 261.074 396.773 255.767C397.842 254.206 398.828 252.593 399.851 251.004L399.511 250.634C398.93 250.988 398.374 251.387 397.771 251.69C395.085 253.025 392.484 254.622 389.667 255.565C386.039 256.785 382.822 255.379 381.134 252.379C380.802 251.788 380.64 251.095 380.401 250.451L380.914 250.017C381.39 250.371 381.996 250.635 382.323 251.096C384.501 254.203 386.51 255.173 390.018 253.686C393.366 252.267 396.531 250.332 399.565 248.301C404.075 245.279 408.389 241.963 412.802 238.792C416.574 236.075 418.09 232.141 417.049 227.682C414.176 231.162 413.497 231.605 411.215 231.31C411.516 230.847 411.672 230.334 412.021 230.104C415.231 227.978 417.001 224.898 418.31 221.356C420.482 215.471 421.875 209.404 422.898 203.244C423.322 200.69 423.34 198.119 421.765 195.627L421.735 195.643ZM328.551 251.103L326.121 250.762C325.759 250.915 325.283 251.103 324.82 251.32C322.943 252.197 321.751 254.697 322.078 257.051C322.391 259.323 323.731 260.631 326.175 260.939C327.19 261.064 328.247 260.931 329.249 261.113C331.756 261.57 334.259 262.098 336.736 262.7C337.537 262.896 338.203 263.436 337.448 264.62C336.144 264.197 334.868 263.59 333.532 263.388C331.073 263.011 328.58 262.849 326.1 262.64C323.605 262.435 321.777 261.286 320.814 258.951C319.8 256.486 320.311 254.153 321.935 252.184C322.924 250.986 324.228 249.996 325.532 249.125C326.503 248.476 326.394 247.971 325.769 247.033C323.273 248.478 320.87 248.514 318.502 246.595C320.523 246.375 322.496 246.518 324.179 245.885C325.962 245.218 327.856 244.11 328.987 242.641C330.028 241.293 330.128 239.212 330.689 237.284C331.653 236.994 331.783 237.884 331.896 238.686C332.24 241.151 331.358 243.225 329.504 244.763C327.863 246.125 327.663 247.585 328.439 249.44C328.647 249.938 328.445 250.613 328.429 251.206C329.705 251.603 330.981 252 332.37 252.434C332.192 253.803 331.315 253.924 330.484 253.626C329.371 253.228 328.037 252.821 328.557 251.101L328.551 251.103ZM402.726 230.106C402.204 229.586 401.68 229.07 401.141 228.533C400.528 228.908 399.762 229.378 398.996 229.848L398.46 229.422C398.914 228.711 399.315 227.956 399.837 227.301C400.234 226.801 400.922 226.499 401.246 225.969C403.254 222.676 405.747 219.841 408.768 217.429C409.962 216.476 411.059 215.34 412.002 214.138C414.512 210.944 413.423 207.663 409.536 206.419C404.786 204.897 400.834 206.413 398.377 210.804C396.154 214.771 392.547 217.126 388.742 219.264C387.905 219.734 387.353 219.501 387.268 218.392C388.139 217.769 388.998 217.151 390.261 216.249C386.527 216.427 383.345 216.215 380.535 214.412C376.128 215.959 375.858 215.968 374.878 214.521C375.162 214.326 375.439 213.982 375.738 213.96C380.243 213.642 381.806 210.802 382.197 206.741C382.448 204.122 383.095 201.572 384.454 199.235C385.077 198.165 385.496 196.965 385.926 195.797C386.503 194.218 386.09 192.91 384.663 191.97C383.772 191.386 382.874 190.819 381.978 190.247L382.074 189.658C382.595 189.616 383.164 189.409 383.627 189.558C387.417 190.759 388.722 193.589 387.199 197.33C386.343 199.433 385.152 201.425 384.525 203.587C383.621 206.704 383.091 209.928 382.379 213.217C387.032 216.389 393.998 214.679 397.301 209.337C400.282 204.521 405.86 202.83 411.045 205.17C413.679 206.359 415.554 208.768 415.052 211.138C414.693 212.848 413.767 214.595 412.645 215.958C411.117 217.809 409.012 219.178 407.429 220.997C406.064 222.562 404.972 224.403 403.976 226.241C403.336 227.423 403.091 228.817 402.664 230.119C402.349 232.142 402.059 234.165 401.719 236.182C400.819 241.498 395.211 243.838 389.837 241.131C388.675 240.547 387.543 239.899 386.489 239.329C381.158 243.066 375.817 242.442 373.876 238.008C374.677 237.856 375.54 238.126 376.465 238.818C379.392 241.001 382.675 240.645 385.068 237.903C385.386 237.542 385.771 237.236 386.018 237.003C387.977 238.062 389.702 239.207 391.582 239.968C395.539 241.568 398.504 240.247 400.07 236.319C400.606 234.971 400.819 233.492 401.338 232.137C401.624 231.396 402.246 230.787 402.717 230.117L402.726 230.106ZM344.958 178.947L344.472 179.43C342.446 179.253 341.121 177.837 339.826 176.499C336.915 173.49 333.348 171.467 329.331 170.86C322.879 169.89 317.994 166.421 313.433 162.187C313.121 161.899 312.868 161.55 312.589 161.228L313.19 160.671C313.791 160.867 314.477 160.935 314.969 161.282C315.926 161.95 316.85 162.699 317.662 163.537C320.404 166.378 323.769 167.901 327.6 168.637C332.967 169.667 337.811 171.769 341.629 175.864C342.319 176.604 343.255 177.111 344.026 177.78C344.396 178.101 344.647 178.55 344.954 178.945L344.958 178.947ZM372.914 230.722L373.107 229.915C373.872 229.849 374.637 229.744 375.401 229.725C382.535 229.515 388.684 226.908 393.817 221.993C396.194 219.715 398.366 217.226 400.665 214.86C401.164 214.343 401.791 213.946 402.359 213.495L403.002 213.998C402.645 214.657 402.394 215.407 401.916 215.965C398.574 219.864 394.946 223.401 390.714 226.417C385.811 229.908 380.467 231.299 374.63 231.383C374.061 231.39 373.487 230.953 372.91 230.72L372.914 230.722ZM385.115 173.193C384.998 173.389 384.875 173.586 384.758 173.782C384.042 173.601 383.292 173.502 382.617 173.22C379.77 172.025 376.979 170.706 374.111 169.564C369.782 167.837 365.357 166.536 360.593 167.259C360.238 167.315 359.834 167.066 359.454 166.959L359.292 166.371C359.994 166.084 360.701 165.547 361.402 165.555C363.734 165.585 366.213 165.361 368.371 166.058C373.599 167.75 378.681 169.886 383.799 171.909C384.323 172.117 384.683 172.757 385.119 173.195L385.115 173.193ZM352.427 262.537L352.443 263.428C351.748 263.546 351.04 263.826 350.364 263.757C346.742 263.386 343.322 262.292 340.166 260.487C337.964 259.23 336.034 257.627 335.422 254.977C335.129 253.702 334.949 252.397 336.376 251.01C336.663 251.711 337.051 252.187 336.999 252.609C336.597 255.895 338.578 257.852 341.096 258.989C344.067 260.334 347.315 261.077 350.445 262.063C351.091 262.267 351.766 262.384 352.427 262.537ZM390.416 210L389.824 209.736C389.92 209.109 389.846 208.376 390.149 207.875C391.332 205.937 392.394 203.841 393.959 202.253C395.508 200.682 397.564 199.587 399.488 198.43C400.052 198.092 400.922 198.258 401.647 198.195C401.73 198.414 401.816 198.634 401.899 198.853C401.395 199.206 400.938 199.725 400.377 199.888C398.012 200.572 396.175 201.974 394.743 203.902C393.649 205.372 392.729 206.964 391.694 208.476C391.322 209.02 390.845 209.493 390.416 210ZM388.296 184.707C387.557 185.088 387.324 185.299 387.068 185.333C381.602 186.028 379.345 188.173 378.292 193.679C378.235 193.984 378.014 194.261 377.806 194.681C376.766 194.089 376.544 193.381 376.765 192.409C377.52 189.109 379.189 186.383 382.174 184.742C383.393 184.07 384.937 183.909 386.361 183.729C386.852 183.666 387.422 184.244 388.3 184.709L388.296 184.707ZM372.622 257.969L372.384 258.557C371.928 258.615 371.44 258.808 371.019 258.709C368.864 258.204 367.004 255.9 366.808 253.599C366.616 251.358 368.213 248.303 370.088 247.573C370.512 247.407 371.134 247.739 371.662 247.843C369.886 249.67 368.351 251.113 368.536 253.547C368.724 256.011 371.066 256.654 372.618 257.967L372.622 257.969ZM363.439 185.938L363.918 186.389C363.651 186.766 363.44 187.418 363.113 187.485C360.159 188.074 357.122 188.724 354.254 187.383C353.35 186.961 352.775 185.738 352.214 184.784C352.095 184.584 352.712 183.953 353.309 183.029C353.976 186.401 356.08 186.481 358.193 186.394C359.944 186.322 361.691 186.097 363.439 185.938ZM316.638 257.718L316.105 258.283C314.42 258.31 313.229 257.538 312.703 255.874C312.053 253.813 313.194 251.216 315.72 249.403C315.973 251.86 313.338 253.658 314.457 255.666C315.321 256.481 315.979 257.1 316.638 257.718ZM345.421 157.415C344.969 159.52 343.478 158.513 342.524 158.697C342.245 158.751 341.814 158.03 341.45 157.659L341.749 157.19C342.934 157.26 344.121 157.336 345.417 157.413L345.421 157.415ZM340.87 158.528C339.561 158.602 338.355 158.595 337.601 157.238C339.455 156.243 340.365 156.602 340.87 158.528Z" fill="#99CD70"/>
<path d="M260.133 158.562C263.188 157.229 266.37 156.124 269.265 154.508C272.191 152.871 274.84 150.722 277.862 148.625C277.065 148.302 276.411 147.943 275.711 147.769C271.613 146.763 267.545 147.095 263.508 148.15C261.518 148.672 259.547 149.263 257.567 149.808C256.785 150.025 255.954 150.326 255.657 149.026C255.852 148.839 256.025 148.552 256.264 148.468C264.628 145.559 272.905 144.065 281.568 147.87C285.817 149.736 290.58 150.426 295.095 151.706C296.516 152.109 297.654 151.752 298.769 150.866C300.087 149.82 301.47 148.858 303.231 147.563C301.967 147.489 301.14 147.511 300.34 147.383C298.332 147.055 296.828 145.847 295.697 144.267C293.828 141.656 291.321 140.294 288.212 139.703C277.919 137.736 267.864 138.382 258.2 142.554C256.31 143.368 254.579 144.789 253.112 146.265C251.551 147.841 251.774 149.772 253.405 151.335C255.726 153.559 256.29 156.208 256.046 159.329C255.87 161.598 255.556 164.102 257.535 165.688C260.564 165.433 263.391 165.193 266.217 164.957C269.068 164.717 271.914 164.36 274.771 164.27C277.549 164.176 280.387 164.04 283 165.178L283.029 165.903C282.419 166.037 281.807 166.279 281.195 166.288C275.862 166.348 270.528 166.363 264.806 166.398C265.726 169.991 268.257 170.872 270.852 171.712C271.008 172.879 271.146 174.019 271.317 175.159C271.897 179.075 276.971 181.865 281.072 182.782C282.21 181.673 283.396 180.517 284.621 179.324C286.119 180.548 284.952 181.198 284.363 181.902C283.757 182.622 283.103 183.3 282.349 184.127C283.812 186.274 285.058 188.448 286.629 190.349C289.708 194.073 295.121 194.355 298.775 191.191C299.551 190.52 300.379 189.885 301.272 189.404C301.697 189.176 302.342 189.357 302.886 189.353L303.071 189.956C302.067 190.744 301.059 191.53 300.059 192.319C298.669 193.417 297.736 194.771 297.786 196.622C297.863 199.664 299.643 201.474 302.714 201.76C303.36 201.822 303.986 202.118 305.026 202.429C301.965 204.292 299.408 203.3 296.439 199.588C294.037 202.421 291.318 204.813 287.827 206.259C287.009 206.599 286.348 207.468 285.779 208.218C284.497 209.892 284.829 211.353 286.664 212.438C287.463 212.909 288.293 213.326 289.502 213.981C288.659 214.525 288.176 214.838 287.66 215.172C287.669 215.328 287.608 215.584 287.706 215.752C288.744 217.585 289.629 219.536 290.894 221.194C295.007 226.583 295.21 228.996 291.676 234.744C291.524 234.991 291.421 235.269 291.27 235.583C292.378 237.125 293.577 238.605 294.558 240.214C296.298 243.073 297.104 246.22 296.201 249.498C295.754 251.12 294.727 252.588 293.923 254.104C293.622 254.672 293.213 255.177 292.857 255.704C295.763 259.786 299.788 260.629 304.556 260.261C301.833 255.116 301.774 250.512 307.034 246.812C304.528 242.731 304.73 239.197 309.392 236.655C308.225 235.355 307.24 234.215 306.208 233.122C302.666 229.367 303.165 225.593 306.057 222.372C306.984 221.339 307.965 220.348 309.001 219.259C308.731 218.973 308.52 218.683 308.244 218.472C305.644 216.492 305.218 213.852 306.203 210.972C306.816 209.185 307.715 207.47 308.662 205.822C310.877 201.957 311.226 199.344 309.902 194.822C308.689 195.326 307.489 195.848 306.268 196.315C305.12 196.754 303.943 197.134 302.773 197.546C301.912 196.218 302.76 195.838 303.593 195.495C304.951 194.936 306.349 194.469 307.681 193.857C308.398 193.529 309.012 192.987 309.742 192.488C309.236 189.296 309.696 186.405 312.342 184.017C308.653 181.907 305.188 179.924 301.609 177.872C299.139 179.332 296.452 179.872 293.649 178.971L293.499 178.107C295.581 177.769 297.661 177.436 299.739 177.097L299.815 176.581C299.207 176.097 298.575 175.636 298 175.118C296.206 173.508 294.281 172.011 292.676 170.229C288.267 165.325 288.588 159.571 293.358 154.989C293.775 154.592 294.18 154.18 294.785 153.578C291.645 152.755 288.709 151.995 285.78 151.215C284.998 151.008 284.181 150.853 283.47 150.494C281.056 149.265 278.93 149.923 276.887 151.351C273.344 153.832 270.024 156.675 265.841 158.103C264.522 158.554 263.223 159.084 261.874 159.419C261.351 159.549 260.715 159.24 260.127 159.13L260.133 158.562ZM302.874 221.104L302.244 220.863C302.014 219.809 301.912 218.698 301.524 217.704C300.047 213.9 297.194 211.771 293.2 211.097C292.438 210.969 291.3 211.313 291.42 209.901C291.569 209.766 291.662 209.608 291.786 209.583C296.845 208.471 303.943 214.511 303.595 219.664C303.561 220.159 303.125 220.625 302.878 221.105L302.874 221.104ZM291.367 184.436C289.596 184.462 289.964 183.54 290.024 182.77C290.218 180.28 289.701 177.959 288.226 175.926C286.909 174.104 285.519 173.765 283.447 174.63C282.892 174.862 282.317 175.048 281.748 175.255L281.316 174.747C281.665 174.261 281.912 173.628 282.377 173.312C284.689 171.736 287.903 172.28 289.466 174.872C290.564 176.686 291.146 178.867 291.645 180.962C291.903 182.051 291.478 183.301 291.365 184.44L291.367 184.436ZM295.109 254.641C299.494 253.937 300.164 250.683 300.672 247.088C301.299 247.584 301.818 248.089 301.823 248.605C301.87 251.145 301.063 253.387 298.831 254.8C297.803 255.45 296.572 256.198 295.104 254.643L295.109 254.641ZM301.5 240.654C300.867 241.644 300.209 241.059 299.587 240.517C297.976 239.114 297.142 237.364 297.654 235.231C297.994 233.813 298.586 232.445 300.918 232.347C300.291 233.896 299.24 235.259 299.374 236.493C299.529 237.921 300.729 239.234 301.504 240.656L301.5 240.654Z" fill="#99CD70"/>
<path d="M277.964 214.595C276.692 215.916 276.088 214.987 275.447 214.49C272.972 212.566 270.513 210.615 267.985 208.622C265.988 210.63 264.82 212.764 265.397 215.442C266.025 218.379 269.005 218.258 271.595 219.543C270.736 219.999 270.32 220.402 269.905 220.406C265.465 220.436 262.492 216.508 263.858 212.251C264.408 210.538 265.427 208.971 266.199 207.404C265.825 206.107 265.445 204.788 265.071 203.466C264.597 201.805 263.201 201.283 261.76 200.928C260.626 200.65 259.433 200.614 258.286 200.369C257.642 200.232 257.039 199.888 256.111 199.513C256.887 198.876 257.351 198.493 257.571 198.315C257.961 196.727 258.292 195.392 258.654 193.921C256.163 191.976 253.59 189.965 250.977 187.923C249.519 188.869 248.644 190.199 249.157 191.824C250.454 195.964 250.495 200.214 250.649 204.467C250.671 205.047 250.78 205.623 250.895 206.574C253.145 207.808 255.536 209.117 258.263 210.606C258.305 211.784 257.07 211.698 256.105 211.331C254.486 210.714 252.97 209.815 250.891 208.77C251.593 210.633 252.021 212.209 252.762 213.622C253.849 215.698 255.139 217.671 256.387 219.665C258.485 223.015 259.506 226.606 258.954 230.578C258.877 231.146 258.921 231.73 259.079 232.574C262.983 228.027 267.467 225.056 273.683 226.634C275.301 227.045 277.154 227.015 278.317 228.466L278.222 229.055C277.591 229.061 276.942 229.16 276.332 229.047C275.253 228.843 274.209 228.473 273.134 228.238C267.941 227.107 262.991 229.5 260.47 234.345C260.52 234.479 260.526 234.677 260.624 234.74C264.773 237.489 268.754 240.546 273.124 242.889C278.256 245.641 283.784 246.65 289.413 243.942C289.59 243.857 289.844 243.936 290.095 243.938C290.952 245.112 289.979 245.622 289.21 245.844C287.318 246.382 285.355 247.129 283.452 247.049C280.629 246.924 277.836 246.175 275.035 245.655C274.42 245.54 273.835 245.27 273.147 245.044C274.116 248.256 275.723 249.692 278.748 249.788C282.736 249.912 286.459 250.762 289.754 253.094C290.401 253.551 291.007 254.077 291.632 254.577C293.897 252.035 295.328 249.133 294.713 245.54C294.163 242.325 292.612 239.657 290.029 237.152C289.34 238.419 288.752 239.499 288.164 240.574L287.496 240.522C287.437 239.856 287.156 239.105 287.374 238.542C287.815 237.393 288.486 236.323 289.131 235.257C289.588 234.505 290.165 233.83 290.659 233.102C293.104 229.492 293.066 226.836 290.407 223.439C288.274 220.716 285.965 218.122 285.676 214.428C285.646 214.055 285.249 213.684 284.964 213.365C282.415 210.531 283.093 207.314 286.419 205.42C289.526 203.652 292.655 201.797 294.761 198.778C295.509 197.705 295.913 196.389 296.654 194.805C295.468 194.868 294.903 194.877 294.343 194.932C290.074 195.35 286.741 193.759 284.329 190.233C283.622 189.205 282.981 188.132 282.306 187.084C281.077 185.184 279.421 183.833 277.324 182.928C274.178 181.569 271.416 179.729 270.15 176.31C269.83 175.444 269.535 174.563 269.212 173.643C267.205 174.149 265.058 174.693 262.504 175.339C263.629 172.935 265.978 173.548 267.44 172.251C265.451 170.794 263.204 169.624 263.12 166.75C262.124 166.861 261.401 166.896 260.697 167.025C257.713 167.583 256.712 169.704 258.494 172.118C261.606 176.326 263.439 180.954 264.347 186.116C265.37 191.924 268.722 194.502 274.601 194.783C275.418 194.823 276.619 194.382 276.75 196.257C271.653 196.944 267.529 195.523 264.351 191.374C262.36 192.333 260.982 193.821 259.993 195.632C258.987 197.471 259.641 198.653 261.658 199.193C262.984 199.549 264.267 200.082 265.62 200.558C266.201 199.78 266.858 198.909 267.511 198.037L268.234 198.329C268.088 199.079 268.05 199.877 267.772 200.578C266.306 204.247 266.546 205.276 269.642 207.737C271.827 209.472 274.035 211.174 276.213 212.916C276.813 213.397 277.338 213.98 277.974 214.594L277.964 214.595ZM275.332 234.293L275.665 233.376C276.642 233.677 277.623 233.978 278.602 234.275C281.645 235.196 283.658 233.794 283.316 230.631C283.129 228.905 282.14 227.258 281.491 225.583C281.247 224.951 280.95 224.346 280.518 223.367C281.373 223.523 281.709 223.492 281.916 223.638C284.536 225.487 285.938 230.688 284.596 233.603C283.829 235.276 282.505 236.267 280.647 236.253C278.631 236.237 276.671 235.933 275.332 234.293ZM278.151 191.301L278.487 190.705C278.886 190.647 279.308 190.475 279.677 190.549C282.48 191.088 284.842 193.656 285.322 196.372C285.856 199.38 282.977 203.651 281.296 204.456C280.937 204.624 280.385 204.391 279.92 204.341L279.695 203.827C281.833 201.928 283.797 199.954 283.645 196.849C283.478 193.475 280.237 192.916 278.151 191.301Z" fill="#99CD70"/>
<path d="M394.966 127.485C397.513 122.508 400.041 117.575 402.526 112.716C401.334 109.641 396.541 106.732 392.678 106.781C392.471 107.292 392.217 107.874 391.997 108.465C391.269 110.464 390.662 112.516 389.81 114.459C388.2 118.131 385.522 120.506 381.376 121.007C379.486 121.236 377.594 121.551 375.737 121.979C372.739 122.674 371.831 123.814 371.611 126.85C371.51 128.241 371.486 129.64 371.291 131.016C370.755 134.809 368.785 137.033 364.98 137.596C362.542 137.956 359.952 138.126 357.549 137.705C350.981 136.551 346.566 139.797 342.733 144.392C341.579 145.776 340.734 147.417 339.729 148.961C341.095 150.617 342.753 150.893 344.423 150.503C348.824 149.477 352.629 150.513 356.225 153.171C358.568 154.904 361.204 156.218 363.78 156.436C366.762 154.133 369.37 152.001 372.092 150.034C375.224 147.772 376.603 144.562 377.446 140.974C377.931 138.906 378.402 136.814 379.159 134.837C381.472 128.766 387.072 125.823 393.476 127.158C393.897 127.248 394.32 127.343 394.958 127.482L394.966 127.485Z" fill="#99CD70"/>
<path d="M250.541 151.605C249.949 152.764 249.317 153.902 248.77 155.079C246.445 160.084 245.963 165.378 246.387 170.796C246.521 172.477 246.805 174.148 247.119 175.806C248.571 183.434 253.136 188.681 259.954 192.382C261.031 191.528 262.165 190.631 263.551 189.532C262.464 185.672 261.352 181.741 260.257 177.806C259.827 176.258 258.991 176.043 257.439 176.447C255.433 176.972 253.318 177.12 251.237 177.268C250.35 177.332 249.475 176.931 249.616 175.442C252.364 175.621 255.241 176.4 257.797 174.456C257.242 172.101 254.873 170.044 256.603 167.238C254.008 164.823 254.115 161.817 254.461 158.765C254.778 155.935 253.112 152.94 250.461 151.639L250.541 151.605Z" fill="#99CD70"/>
<path d="M367.623 156.728C368.233 156.409 368.915 156.18 369.445 155.762C374.339 151.896 379.988 149.725 385.97 148.273C391.674 146.884 397.378 145.482 403.09 144.121C404.443 143.798 405.828 143.597 407.207 143.384C412.64 142.548 418.087 146.369 420.167 150.892C422.044 154.976 422.142 159.273 421.819 163.633C421.735 164.745 421.711 165.863 421.924 166.995C423.836 163.773 424.554 160.235 423.625 156.748C422.666 153.168 421.237 149.646 419.531 146.349C417.743 142.89 414.503 141.118 410.615 140.663C405.589 140.071 400.836 140.792 396.394 143.4C393.617 145.031 390.521 145.795 387.306 145.641C382.264 145.394 377.937 146.731 374.35 150.459C372.944 151.922 371.085 152.944 369.46 154.198C368.679 154.8 367.951 155.481 367.205 156.126L367.639 156.735L367.623 156.728Z" fill="#99CD70"/>
<path d="M371.565 157.486C372.499 157.374 373.502 157.447 374.357 157.122C377.298 156 380.279 154.923 383.076 153.5C388.711 150.633 394.937 149.908 400.919 148.313C402.465 147.902 404.105 147.704 405.707 147.682C411.894 147.593 416.179 150.886 417.368 156.742C417.628 158.027 417.727 159.357 417.78 160.672C417.833 161.987 417.742 163.306 417.706 164.794C418.231 165.059 418.79 165.337 419.292 165.588C419.521 165.4 419.708 165.324 419.722 165.22C420.393 160.74 420.479 156.294 418.67 152.018C416.644 147.231 412.76 144.804 407.567 145.2C406.258 145.298 404.943 145.537 403.666 145.848C397.319 147.381 390.916 148.747 384.659 150.597C380.614 151.79 376.768 153.678 372.863 155.333C372.249 155.594 371.811 156.277 371.29 156.766L371.566 157.482L371.565 157.486Z" fill="#99CD70"/>
<path d="M413.371 164.409C414.138 164.477 414.779 164.537 415.399 164.592C417.163 158.728 414.773 152.514 411.372 150.762C408.793 149.434 405.91 148.895 403.283 149.44C394.231 151.32 385.332 153.812 376.963 157.885C376.591 158.063 376.262 158.324 375.767 158.643C376.143 158.923 376.339 159.121 376.582 159.239C377.04 159.457 377.523 159.629 378.083 159.855C383.437 155.943 389.713 154.481 395.987 152.872C404.389 150.715 412.173 155.153 413.375 164.411L413.371 164.409Z" fill="#99CD70"/>
<path d="M380.166 160.924C381.292 162.173 382.257 161.456 383.286 161.087C387.205 159.667 391.101 158.16 395.092 156.973C396.947 156.421 399.014 156.296 400.963 156.395C406.02 156.652 408.807 159.649 409.315 165.015C409.353 165.074 409.406 165.19 409.427 165.184C409.987 165.045 410.545 164.89 411.106 164.737C411.174 164.464 411.278 164.254 411.264 164.053C410.929 158.709 406.413 154 401.054 154.229C393.803 154.54 386.92 156.574 380.644 160.365C380.472 160.472 380.364 160.68 380.163 160.918L380.166 160.924Z" fill="#99CD70"/>
<path d="M384.07 163.211C385.182 163.518 386.294 163.826 387.309 164.103C388.819 163.182 390.107 162.138 391.578 161.559C393.464 160.814 395.468 160.15 397.468 159.97C402.505 159.51 404.722 161.473 405.625 167.061C406.21 166.779 406.713 166.535 407.057 166.365C407.951 161.347 405.256 158.178 400.223 158.178C398.411 158.178 396.539 158.419 394.797 158.918C391.16 159.958 387.591 161.244 383.996 162.43C384.02 162.687 384.043 162.948 384.067 163.205L384.07 163.211Z" fill="#99CD70"/>
<path d="M390.974 164.564C391.399 164.536 391.838 164.557 392.254 164.468C394.66 163.943 396.731 164.514 398.516 166.226C399.876 167.533 401.445 168.077 403.234 167.44C404.407 164.847 402.25 162.148 400.071 161.856C396.695 161.404 393.588 162.159 390.818 164.092L390.978 164.565L390.974 164.564Z" fill="#99CD70"/>
<path d="M385.277 143.579C386.557 144.097 387.439 143.916 388.13 142.912C390.913 138.891 393.709 134.884 396.559 130.791C395.477 129.644 394.458 130.469 393.847 131.226C391.472 134.17 389.198 137.203 386.979 140.267C386.269 141.245 385.855 142.433 385.277 143.579Z" fill="#99CD70"/>
<path d="M393.18 129.205C391.729 128.371 390.516 128.418 389.436 129.431C388.585 130.229 387.725 131.051 387.058 131.994C384.536 135.559 383.454 139.749 381.727 143.665C381.912 143.806 382.094 143.946 382.279 144.088C382.688 143.735 383.272 143.467 383.482 143.019C385.89 137.89 388.849 133.151 393.182 129.201L393.18 129.205Z" fill="#99CD70"/>
<path d="M378.983 145.151C381.242 140.038 383.498 134.919 385.758 129.802C379.609 132.975 380.17 139.524 378.288 144.846L378.983 145.151Z" fill="#99CD70"/>
<path d="M389.875 143.403C391.805 143.218 397.507 137.049 399.608 133.314C399.512 133.127 399.423 132.853 399.247 132.654C399.067 132.453 398.8 132.325 398.184 131.896C395.477 135.647 392.811 139.344 389.879 143.405L389.875 143.403Z" fill="#99CD70"/>
<path d="M395.559 141.508C399.12 140.737 400.493 137.673 403.04 135.668C402.44 135.198 401.97 134.832 401.443 134.418C399.478 136.782 397.622 139.018 395.555 141.507L395.559 141.508Z" fill="#99CD70"/>
<path d="M402.086 139.006C404.103 138.842 405.579 138.721 407.059 138.601L407.246 138.301C406.456 137.844 405.666 137.386 404.715 136.835C403.929 137.483 403.202 138.083 402.088 139.002L402.086 139.006Z" fill="#99CD70"/>
<path d="M402.667 230.111C403.092 228.813 403.339 227.415 403.979 226.232C404.975 224.395 406.067 222.553 407.432 220.989C409.013 219.174 411.118 217.804 412.648 215.95C413.769 214.591 414.694 212.844 415.055 211.13C415.553 208.758 413.683 206.351 411.048 205.161C405.86 202.82 400.281 204.511 397.304 209.328C394.001 214.671 387.035 216.381 382.382 213.209C383.094 209.92 383.624 206.695 384.528 203.579C385.155 201.417 386.346 199.425 387.202 197.322C388.725 193.581 387.42 190.751 383.63 189.55C383.169 189.407 382.598 189.608 382.077 189.65L381.981 190.239C382.876 190.815 383.779 191.38 384.666 191.962C386.094 192.901 386.506 194.21 385.929 195.789C385.498 196.96 385.081 198.157 384.457 199.227C383.104 201.562 382.456 204.116 382.201 206.733C381.809 210.794 380.248 213.63 375.741 213.952C375.442 213.974 375.169 214.32 374.882 214.513C375.861 215.96 376.133 215.946 380.538 214.404C383.347 216.211 386.528 216.423 390.265 216.241C389.005 217.144 388.142 217.761 387.272 218.384C387.354 219.497 387.908 219.726 388.745 219.256C392.55 217.118 396.157 214.763 398.38 210.796C400.841 206.407 404.789 204.889 409.539 206.411C413.426 207.655 414.51 210.938 412.005 214.13C411.061 215.336 409.965 216.468 408.771 217.421C405.75 219.833 403.261 222.669 401.249 225.96C400.926 226.491 400.237 226.792 399.84 227.293C399.317 227.952 398.917 228.703 398.463 229.414L399 229.84C399.765 229.37 400.53 228.904 401.144 228.525C401.683 229.061 402.207 229.578 402.729 230.098L402.674 230.104L402.667 230.111Z" fill="black"/>
<path d="M328.419 251.208C328.435 250.615 328.637 249.941 328.429 249.443C327.654 247.583 327.853 246.128 329.494 244.765C331.348 243.227 332.23 241.153 331.886 238.688C331.773 237.886 331.643 236.996 330.679 237.286C330.118 239.214 330.022 241.297 328.977 242.644C327.846 244.112 325.953 245.216 324.169 245.888C322.486 246.52 320.513 246.378 318.492 246.598C320.86 248.516 323.263 248.48 325.759 247.036C326.384 247.973 326.493 248.479 325.522 249.128C324.214 249.997 322.914 250.988 321.925 252.186C320.301 254.155 319.788 256.492 320.805 258.954C321.767 261.289 323.595 262.437 326.09 262.643C328.571 262.847 331.063 263.014 333.522 263.39C334.858 263.593 336.13 264.198 337.438 264.622C338.193 263.439 337.527 262.898 336.726 262.703C334.249 262.1 331.75 261.574 329.239 261.115C328.237 260.933 327.184 261.068 326.165 260.942C323.721 260.633 322.385 259.327 322.068 257.053C321.742 254.695 322.933 252.199 324.81 251.322C325.273 251.106 325.749 250.918 326.111 250.764L328.541 251.105L328.413 251.211L328.419 251.208Z" fill="black"/>
<path d="M344.95 178.945C344.642 178.554 344.392 178.101 344.022 177.78C343.247 177.11 342.315 176.604 341.625 175.864C337.807 171.769 332.962 169.671 327.596 168.637C323.765 167.901 320.4 166.378 317.658 163.537C316.848 162.695 315.924 161.946 314.965 161.282C314.467 160.938 313.783 160.865 313.186 160.671L312.585 161.227C312.864 161.55 313.117 161.899 313.429 162.187C317.99 166.42 322.875 169.89 329.327 170.86C333.339 171.465 336.906 173.488 339.822 176.499C341.117 177.837 342.442 179.253 344.468 179.43L344.954 178.946L344.95 178.945Z" fill="black"/>
<path d="M402.718 230.108C402.247 230.779 401.625 231.388 401.339 232.129C400.82 233.483 400.607 234.962 400.071 236.31C398.505 240.239 395.542 241.556 391.583 239.959C389.703 239.198 387.978 238.053 386.019 236.994C385.774 237.223 385.389 237.529 385.069 237.895C382.676 240.636 379.393 240.992 376.466 238.809C375.54 238.118 374.678 237.848 373.877 238C375.818 242.433 381.161 243.053 386.49 239.321C387.544 239.89 388.676 240.538 389.838 241.122C395.208 243.828 400.82 241.489 401.72 236.173C402.06 234.156 402.35 232.133 402.665 230.11L402.72 230.104L402.718 230.108Z" fill="black"/>
<path d="M372.908 230.724C373.481 230.956 374.059 231.394 374.629 231.387C380.461 231.302 385.809 229.912 390.713 226.421C394.95 223.402 398.572 219.869 401.914 215.969C402.392 215.411 402.643 214.661 403 214.002L402.357 213.499C401.79 213.95 401.162 214.348 400.663 214.864C398.37 217.228 396.192 219.719 393.815 221.997C388.686 226.914 382.533 229.519 375.399 229.729C374.633 229.753 373.868 229.857 373.106 229.919L372.912 230.726L372.908 230.724Z" fill="black"/>
<path d="M385.11 173.192C384.674 172.753 384.319 172.115 383.79 171.906C378.676 169.884 373.589 167.75 368.362 166.054C366.204 165.357 363.725 165.582 361.393 165.551C360.693 165.539 359.989 166.082 359.283 166.367L359.445 166.956C359.825 167.062 360.229 167.311 360.584 167.255C365.35 166.529 369.773 167.834 374.102 169.561C376.966 170.701 379.761 172.022 382.608 173.216C383.283 173.499 384.033 173.598 384.749 173.778C384.866 173.583 384.989 173.385 385.106 173.19L385.11 173.192Z" fill="black"/>
<path d="M352.417 262.539C351.756 262.386 351.08 262.27 350.435 262.066C347.304 261.08 344.056 260.337 341.085 258.992C338.568 257.854 336.588 255.893 336.988 252.611C337.04 252.189 336.652 251.714 336.365 251.013C334.944 252.397 335.119 253.705 335.412 254.979C336.024 257.629 337.953 259.233 340.156 260.49C343.312 262.295 346.732 263.388 350.353 263.759C351.029 263.828 351.737 263.549 352.432 263.43L352.417 262.539Z" fill="black"/>
<path d="M390.406 210.003C390.835 209.496 391.312 209.023 391.684 208.479C392.719 206.967 393.645 205.372 394.733 203.905C396.165 201.977 398.002 200.575 400.367 199.891C400.928 199.728 401.383 199.213 401.889 198.856C401.806 198.637 401.72 198.417 401.637 198.198C400.908 198.26 400.038 198.093 399.478 198.432C397.554 199.59 395.498 200.685 393.949 202.256C392.384 203.844 391.322 205.94 390.139 207.878C389.832 208.377 389.91 209.112 389.814 209.739L390.406 210.003Z" fill="black"/>
<path d="M388.285 184.709C387.407 184.245 386.837 183.667 386.346 183.73C384.922 183.91 383.378 184.07 382.159 184.743C379.178 186.386 377.505 189.11 376.75 192.41C376.529 193.381 376.755 194.091 377.791 194.682C377.999 194.262 378.22 193.985 378.277 193.68C379.326 188.172 381.583 186.027 387.053 185.333C387.309 185.299 387.546 185.091 388.281 184.708L388.285 184.709Z" fill="black"/>
<path d="M372.616 257.971C371.064 256.659 368.718 256.014 368.535 253.552C368.349 251.118 369.883 249.678 371.66 247.848C371.132 247.743 370.51 247.411 370.086 247.577C368.211 248.308 366.614 251.362 366.806 253.604C366.998 255.903 368.863 258.208 371.017 258.714C371.435 258.811 371.926 258.62 372.378 258.56L372.616 257.971Z" fill="black"/>
<path d="M363.433 185.941C361.685 186.1 359.937 186.329 358.188 186.397C356.074 186.484 353.972 186.399 353.303 183.032C352.71 183.957 352.094 184.588 352.208 184.787C352.769 185.741 353.346 186.959 354.248 187.386C357.115 188.731 360.149 188.075 363.107 187.488C363.434 187.421 363.648 186.775 363.912 186.392L363.433 185.941Z" fill="black"/>
<path d="M316.618 257.723C315.96 257.104 315.305 256.488 314.437 255.67C313.32 253.658 315.955 251.861 315.701 249.408C313.174 251.221 312.033 253.818 312.683 255.879C313.209 257.542 314.398 258.318 316.085 258.287L316.618 257.723Z" fill="black"/>
<path d="M328.421 251.208L328.549 251.103C328.025 252.822 329.361 253.234 330.476 253.629C331.307 253.927 332.184 253.806 332.362 252.436C330.972 252.003 329.696 251.606 328.421 251.208Z" fill="black"/>
<path d="M345.402 157.42C344.106 157.343 342.919 157.267 341.735 157.197L341.436 157.665C341.797 158.03 342.226 158.756 342.509 158.704C343.464 158.519 344.954 159.527 345.406 157.421L345.402 157.42Z" fill="black"/>
<path d="M340.859 158.529C340.354 156.602 339.444 156.244 337.59 157.239C338.345 158.596 339.55 158.603 340.859 158.529Z" fill="black"/>
<path d="M302.873 221.104C303.123 220.625 303.561 220.156 303.589 219.663C303.938 214.51 296.833 208.472 291.78 209.582C291.66 209.609 291.563 209.765 291.414 209.9C291.293 211.316 292.436 210.97 293.194 211.095C297.188 211.769 300.047 213.897 301.518 217.703C301.904 218.701 302.004 219.806 302.238 220.862L302.868 221.103L302.873 221.104Z" fill="black"/>
<path d="M291.368 184.436C291.481 183.298 291.906 182.047 291.648 180.958C291.153 178.865 290.567 176.682 289.469 174.868C287.902 172.275 284.688 171.731 282.38 173.308C281.915 173.624 281.668 174.257 281.319 174.744L281.751 175.251C282.316 175.042 282.891 174.856 283.45 174.626C285.52 173.765 286.908 174.098 288.229 175.922C289.703 177.959 290.219 180.28 290.027 182.766C289.967 183.537 289.603 184.46 291.37 184.432L291.368 184.436Z" fill="black"/>
<path d="M295.113 254.641C296.58 256.2 297.806 255.45 298.84 254.799C301.071 253.389 301.879 251.143 301.832 248.603C301.821 248.089 301.302 247.585 300.681 247.086C300.169 250.679 299.5 253.933 295.119 254.639L295.113 254.641Z" fill="black"/>
<path d="M301.503 240.651C300.728 239.229 299.528 237.916 299.373 236.488C299.239 235.254 300.29 233.891 300.917 232.342C298.585 232.44 297.993 233.808 297.652 235.226C297.141 237.359 297.974 239.109 299.585 240.512C300.208 241.054 300.866 241.639 301.499 240.649L301.503 240.651Z" fill="black"/>
<path d="M275.329 234.292C276.668 235.932 278.633 236.237 280.644 236.251C282.502 236.266 283.826 235.275 284.593 233.602C285.931 230.685 284.533 225.486 281.913 223.637C281.706 223.491 281.37 223.522 280.515 223.366C280.947 224.345 281.246 224.956 281.488 225.581C282.133 227.255 283.122 228.902 283.313 230.629C283.655 233.793 281.646 235.197 278.599 234.273C277.62 233.977 276.639 233.675 275.662 233.375L275.329 234.292Z" fill="black"/>
<path d="M278.144 191.303C280.231 192.918 283.472 193.478 283.639 196.851C283.794 199.958 281.828 201.926 279.688 203.829L279.913 204.343C280.378 204.394 280.931 204.627 281.289 204.458C282.97 203.654 285.849 199.382 285.316 196.374C284.835 193.658 282.473 191.09 279.671 190.551C279.295 190.48 278.88 190.649 278.481 190.707L278.144 191.303Z" fill="black"/>
<path d="M326.327 387.117C325.652 387.968 325.033 388.799 324.351 389.575C324.117 389.837 323.721 390.107 323.395 390.107C321.845 390.112 320.298 390.025 318.634 389.967C319.982 388.183 321.169 386.618 322.4 384.994C323.444 385.526 324.572 386.1 325.698 386.682C325.887 386.779 326.057 386.925 326.327 387.117Z" fill="black"/>
<path d="M317.974 389.068L317.621 388.978C316.839 382.54 316.052 376.099 315.271 369.661L315.586 369.583C317.491 374.483 319.397 379.387 321.341 384.384C320.212 385.956 319.095 387.512 317.974 389.068Z" fill="black"/>
<path d="M331.552 375.99C328.375 378.562 325.331 381.025 322.113 383.629C319.844 377.865 317.659 372.299 315.595 366.687L315.881 366.504L315.888 366.508C321.05 369.633 326.211 372.758 331.552 375.99Z" fill="black"/>
<path d="M327.084 386.391C325.654 385.637 324.353 384.956 322.887 384.184C325.993 381.716 328.923 379.386 332.053 376.899C332.483 378.646 332.851 380.135 333.227 381.656C331.157 383.254 329.185 384.774 327.088 386.394L327.084 386.391Z" fill="black"/>
<path d="M335.109 381.67C333.455 384.347 329.032 387.961 326.549 388.766C327.702 387.118 332.686 382.936 335.109 381.67Z" fill="black"/>
<path d="M337.346 373.589C337.505 373.819 337.564 373.864 337.558 373.906C337.5 374.674 337.435 375.444 337.369 376.21C337.202 378.135 336.298 379.59 334.657 380.573C334.567 380.627 334.453 380.643 334.185 380.733C333.809 379.238 333.435 377.761 333.051 376.233C333.52 375.916 333.914 375.628 334.329 375.378C335.313 374.782 336.308 374.207 337.342 373.593L337.346 373.589Z" fill="black"/>
<path d="M332.382 375.471C327.659 372.607 323.038 369.805 318.417 366.999L318.549 366.683C321.581 367.64 324.619 368.588 327.645 369.56C330.699 370.544 333.801 371.393 337.129 372.651C335.366 373.698 333.951 374.538 332.382 375.471Z" fill="black"/>
<path d="M140.994 130.624C144.027 133.246 146.912 135.738 150.047 138.447C146.426 140.151 143.045 141.74 139.553 143.386C136.35 140.878 133.157 138.38 129.701 135.675C133.551 133.953 137.215 132.314 140.993 130.628L140.994 130.624ZM140.721 131.775C137.618 133.141 134.701 134.43 131.514 135.833C134.343 138.081 136.907 140.114 139.517 142.186C142.324 140.871 145.051 139.595 147.986 138.222C145.474 135.993 143.161 133.937 140.721 131.775Z" fill="black"/>
<path d="M140.721 131.775C137.618 133.141 134.701 134.43 131.514 135.833C134.343 138.081 136.907 140.114 139.517 142.186C142.324 140.871 145.051 139.595 147.986 138.222C145.474 135.993 143.161 133.937 140.721 131.775Z" fill="black"/>
</svg>
