<svg width="481" height="550" viewBox="0 0 481 550" fill="none" xmlns="http://www.w3.org/2000/svg">
<g clip-path="url(#clip0_518_4760)">
<path fill-rule="evenodd" clip-rule="evenodd" d="M132.272 207.889C129.576 210.315 125.522 210.442 122.679 208.188L83.0971 176.814C79.2367 173.754 79.3642 167.854 83.3534 164.964L96.6802 155.309C119.839 138.53 141.229 122.409 160.102 108.013L153.112 104.064C149.253 101.885 148.145 96.8341 150.737 93.239L200.263 24.568C202.836 20.9996 207.928 20.4336 211.223 23.3495L221.545 32.4848C221.547 32.4866 221.559 32.4972 221.581 32.516C221.607 32.5378 221.643 32.5687 221.691 32.6094C221.79 32.6914 221.922 32.8007 222.093 32.9386C222.44 33.2176 222.888 33.5697 223.447 34.0005C223.593 34.1125 223.743 34.2271 223.898 34.3462C245.645 4.04745 267.252 -26.4277 274.65 -37.1909L281.877 -47.7084C284.24 -51.1478 288.971 -51.9693 292.356 -49.5279L333.223 -20.0542C336.664 -17.5724 337.335 -12.7189 334.696 -9.39701L326.568 0.835359C318.794 10.6224 296.892 40.8332 274.894 71.3096C274.963 71.3548 275.03 71.3996 275.096 71.4433C275.851 71.9419 276.208 72.147 276.261 72.1796L289.588 78.5345C293.776 80.5314 295.132 85.834 292.418 89.597L242.435 158.903C239.89 162.432 234.873 163.032 231.567 160.202L224.788 154.399C216.277 179.387 206.748 207.7 199.425 229.754L194.307 245.166C192.767 249.804 187.25 251.721 183.166 249.037L140.31 220.876C137.295 218.895 136.137 215.037 137.562 211.723L141.695 202.114C142.289 200.733 142.91 199.277 143.557 197.754C142.366 198.814 141.215 199.844 140.106 200.841L132.272 207.889Z" fill="black" stroke="black" stroke-width="3" stroke-miterlimit="10"/>
<path d="M127.344 186.155C143.588 171.541 170.918 148.249 191.648 129.849L193.668 131.306C182.881 155.999 169.615 188.996 160.54 210.096L181.083 223.595C191.193 193.149 205.495 150.806 215.558 121.642C224.506 128.096 231.515 133.589 234.771 136.376L247.886 118.191C244.006 116.269 236.708 110.568 227.76 104.114C229.97 100.442 232.468 96.9783 235.174 93.2252C244.412 99.8874 251.917 105.3 254.964 108.376L268.081 90.1898C264.488 88.4769 256.903 82.5671 247.665 75.9052C272.856 40.9769 302.002 0.563739 311.532 -11.4329L291.613 -25.7978C282.742 -12.8879 254.093 27.4445 228.902 62.3732C219.665 55.7113 211.582 49.8818 208.904 47.5117L195.788 65.6974C198.883 67.4907 206.965 73.3196 216.411 79.6934C213.705 83.4458 211.206 86.9097 208.708 90.374C199.471 83.7118 191.388 77.8823 188.71 75.5122L175.594 93.6982C178.4 95.2831 186.194 100.904 195.062 106.861C171.479 124.958 142.001 147.579 108.916 171.549L127.344 186.155Z" fill="black" stroke="white" stroke-width="3" stroke-miterlimit="10"/>
<path d="M254.77 161.89C261.906 180.084 278.415 189.003 296.12 192.008C309.242 194.236 324.585 193.622 341.473 190.755L345.536 201.112C347.036 204.935 351.351 206.819 355.175 205.319L418.914 180.316C422.738 178.816 424.621 174.501 423.122 170.677L421.4 166.289C455.506 152.345 483.923 137.064 503.3 120.961C522.95 104.631 540.473 80.9001 529.907 53.9648C524.893 41.1823 514.828 33.0418 502.801 28.992C491.498 25.1858 478.441 24.8996 465.056 26.4501C438.198 29.5617 403.576 40.8947 363.622 58.3959L353.135 62.9898C349.476 64.5921 347.737 68.7988 349.196 72.5169L355.019 87.3629L341.018 92.8554L336.824 82.1635C335.374 78.4681 331.278 76.5629 327.518 77.835L316.765 81.4726C309.395 83.9659 294.195 89.8633 281.317 98.3244L281.258 98.3634L281.199 98.4023C271.864 104.634 262.7 112.895 257.041 123.531C251.004 134.878 249.412 148.231 254.77 161.89Z" fill="black" stroke="white" stroke-width="3" stroke-miterlimit="10"/>
<path d="M379.313 98.1419C446.787 68.7887 489.551 61.0313 493.597 71.3466C497.153 80.4114 465.442 104.392 397.299 131.122C393.861 132.471 390.422 133.82 387.297 135.045C381.657 120.667 380.297 116.457 378.892 111.958L362.326 118.457C364.355 122.71 365.904 126.485 371.422 140.551C367.861 141.587 364.423 142.936 361.174 143.85C355.779 130.096 354.584 126.048 353.302 121.861L336.735 128.359C338.642 132.3 339.782 135.289 344.932 148.417C311.957 156.302 294.636 154.441 292.429 148.815C291.183 147.051 289.984 142.077 298.871 137.148C306.508 132.709 316.578 128.038 326.893 123.992L319.169 104.299C312.482 106.561 299.041 111.834 288.144 118.994C272.423 129.489 267.304 139.891 272.736 156.539C280.338 175.919 308.987 180.912 353.827 170.176C356.09 176.862 358.174 182.176 359.155 184.677L375.097 178.424C374.239 176.236 372.087 171.669 369.757 165.73C373.006 164.817 376.567 163.781 380.44 162.622C382.212 168.059 383.929 172.435 384.787 174.623L400.729 168.369C399.993 166.494 397.964 162.24 396.002 157.239C399.128 156.013 402.566 154.664 406.005 153.315C480.087 124.256 523.019 91.1847 511.862 62.7391C501.439 36.17 450.138 43.3089 371.343 77.8236L379.313 98.1419Z" fill="black" stroke="white" stroke-width="3" stroke-miterlimit="10"/>
<path d="M550.025 160.38L527.208 178.33C529.76 186.373 531.315 194.699 531.838 203.121C532.555 213.966 526.723 222.852 517.318 225.27C513.697 226.155 499.449 229.795 485.746 233.247C472.506 236.575 457.604 223.464 457.742 208.583L457.805 202.894C457.789 201.556 457.848 200.318 457.898 199.087C457.932 198.095 457.982 196.797 457.957 196.124C456.497 197.334 455.145 198.668 453.918 200.113C442.535 213.314 432.576 228.32 422.953 242.822C415.483 254.08 407.958 265.642 400.669 276.801C393.741 287.429 386.602 298.416 379.47 309.195C370.892 322.339 361.448 334.897 351.201 346.787C341.981 357.372 332.646 364.21 321.849 368.284C308.349 373.377 294.134 372.829 280.114 366.807C277.965 368.483 266.421 377.575 256.643 385.268C248.728 391.501 236.118 388.681 228.478 378.965L203.566 347.336C195.966 337.662 196.145 324.794 204 318.532C212.913 311.426 223.062 303.33 224.908 301.84C224.073 299.132 223.108 290.813 222.318 282.845C221.334 272.946 227.116 265.049 236.188 264.036L268.313 260.343C279.027 259.128 290.407 267.736 293.422 279.484L294.197 282.445C306.45 267.332 317.107 250.856 328.36 233.447C330.364 230.413 332.348 227.349 334.315 224.257C337.473 219.422 340.618 214.582 343.751 209.736C354.41 193.287 365.433 176.289 376.663 159.758C383.389 150.004 390.773 140.721 398.764 131.973C408.746 120.541 422.25 112.759 437.146 109.854C448.845 107.701 460.919 109.099 471.816 113.869C474.367 111.796 486.961 101.759 497.313 93.5107C505.247 87.2663 517.881 90.0168 525.55 99.7563L550.551 131.532C558.17 141.234 557.939 154.148 550.025 160.38Z" fill="black" stroke="#99CD70" stroke-width="3" stroke-miterlimit="10"/>
<path d="M550.95 170.347L528.134 188.297C530.686 196.34 532.24 204.666 532.763 213.087C533.481 223.933 527.648 232.819 518.244 235.236C514.623 236.122 500.375 239.762 486.672 243.214C473.432 246.542 458.53 233.43 458.668 218.55L458.731 212.861C458.715 211.522 458.774 210.285 458.824 209.054C458.858 208.062 458.907 206.764 458.883 206.091C457.423 207.3 456.071 208.635 454.844 210.08C443.461 223.281 433.502 238.286 423.879 252.788C416.409 264.046 408.883 275.608 401.595 286.768C394.666 297.395 387.528 308.382 380.396 319.162C371.818 332.306 362.374 344.864 352.127 356.753C342.906 367.339 333.572 374.177 322.774 378.251C309.275 383.343 295.059 382.796 281.04 376.773C278.891 378.45 267.347 387.542 257.568 395.235C249.654 401.467 237.044 398.647 229.403 388.932L204.492 357.303C196.892 347.629 197.07 334.761 204.925 328.498C213.839 321.393 223.988 313.296 225.834 311.807C224.999 309.099 224.033 300.78 223.243 292.811C222.26 282.912 228.042 275.016 237.113 274.003L269.239 270.31C279.952 269.094 291.333 277.703 294.347 289.451L295.122 292.411C307.375 277.298 318.032 260.823 329.286 243.414C331.289 240.379 333.274 237.316 335.241 234.223C338.398 229.389 341.544 224.549 344.677 219.703C355.336 203.253 366.359 186.256 377.588 169.724C384.314 159.971 391.699 150.688 399.689 141.939C409.671 130.508 423.176 122.725 438.072 119.821C449.77 117.667 461.845 119.066 472.742 123.836C475.293 121.763 487.886 111.726 498.238 103.477C506.173 97.2329 518.807 99.9837 526.476 109.723L551.477 141.499C559.096 151.201 558.865 164.115 550.95 170.347Z" fill="#99CD70" stroke="black" stroke-width="3" stroke-miterlimit="10"/>
<path d="M482.211 217.913C482.245 214.493 482.53 211.458 482.254 208.365C481.492 199.194 477.27 190.657 470.445 184.484C464.48 178.927 458.28 177.884 452.014 180.078C445.517 182.334 440.487 186.597 436.094 191.695C424.159 205.532 413.931 220.866 403.74 236.218C389.122 258.252 374.867 280.588 360.271 302.636C352.122 315.108 343.16 327.031 333.445 338.326C327.235 345.463 320.194 351.493 311.206 354.894C300.548 358.909 289.517 357.489 278.243 349.907C274.546 347.413 275.741 347.404 272.87 349.701C263.772 356.812 254.661 364.013 245.557 371.181L243.857 372.513L223.984 347.257C224.537 346.82 225.087 346.4 225.621 345.976C234.851 338.487 244.065 330.995 253.325 323.555C254.229 322.835 254.132 322.22 253.514 321.064C248.777 312.295 246.674 305.608 246.27 298.265C255.164 297.227 264.1 296.19 272.777 295.193C273.819 299.067 274.473 302.926 275.789 306.632C277.691 311.859 281.033 316.441 285.428 319.849C290.63 323.908 295.643 324.12 300.569 322.05C306.237 319.672 310.216 315.302 313.991 310.667C329.271 291.892 342.17 271.093 355.477 250.651C369.45 229.189 383.266 207.582 397.623 186.437C403.863 177.387 410.715 168.775 418.131 160.661C425.625 152.327 434.941 146.377 446.496 144.142C456.622 142.17 466.638 144.634 476.506 151.249C478.299 152.449 479.372 152.528 480.788 151.304C490.18 143.554 499.643 135.962 509.16 128.282C510.064 127.562 510.922 126.898 511.885 126.142L531.974 151.683L499.798 176.932C501.56 181.078 503.42 184.987 504.881 188.995C507.333 195.743 508.792 202.811 509.211 209.978C509.217 210.232 509.155 210.482 509.029 210.703C508.903 210.923 508.72 211.104 508.498 211.228C499.869 213.504 491.177 215.657 482.211 217.913Z" fill="#99CD70" stroke="black" stroke-width="3" stroke-miterlimit="10"/>
<path d="M415 343L451 365.5" stroke="black" stroke-width="2"/>
<path d="M385.643 374L424.5 443" stroke="black" stroke-width="2"/>
<path d="M345 399L337.5 449" stroke="black" stroke-width="2"/>
</g>
<defs>
<clipPath id="clip0_518_4760">
<rect width="480" height="550" fill="white" transform="translate(0.5)"/>
</clipPath>
</defs>
</svg>
