<svg width="481" height="550" viewBox="0 0 481 550" fill="none" xmlns="http://www.w3.org/2000/svg">
<g clip-path="url(#clip0_518_5181)">
<path d="M263.246 45.0003C228.046 29.4003 178.913 38.5003 158.746 45.0003L259.746 114.5L491.246 244C507.246 209 525.946 128 472.746 84.0001C406.246 29.0001 339.746 51.5001 330.746 56.0001C323.546 59.6001 312.079 61.5001 307.246 62.0001C307.246 62.8335 298.446 60.6002 263.246 45.0003Z" fill="#99CD70" stroke="black"/>
<path d="M337.657 255.631C316.654 243.506 295.804 231.097 274.576 219.36C262.993 212.955 255.125 202.65 249.919 189.294C247.26 182.458 245.47 174.965 243.086 167.916C242.356 165.742 241.145 163.84 239.875 162.112C212.077 124.412 184.245 86.751 156.419 49.0793C156.025 48.5401 155.606 48.0455 155.233 47.4888C153.59 44.9809 154.503 42.4788 157.671 41.5754C164.2 39.7166 170.77 37.7481 177.239 36.6123C208.338 31.1194 237.218 33.9976 264.284 42.9274C276.14 46.8321 287.394 52.1561 298.674 57.3024C304.161 59.8022 309.84 60.1852 316.453 57.8409C333.288 51.864 350.043 47.564 366.615 46.2318C387.966 44.5108 408.08 46.7536 426.892 53.3379C447.678 60.6165 465.601 72.479 480.578 89.0113C500.932 111.484 513.755 140.182 519.754 174.37C521.223 182.777 525.381 187.88 531.391 191.766C563.619 212.57 589.806 240.475 605.883 279.918C608.908 287.322 610.903 295.512 613.171 303.475C613.565 304.86 613.425 307.244 612.617 308.53C612.038 309.458 609.775 309.77 608.485 309.619C565.416 304.831 522.368 299.95 479.313 295.08C474.332 294.521 469.383 293.831 464.366 293.43C462.904 293.313 461.228 293.905 459.642 294.341C444.465 298.631 429.507 301.415 415.571 298.314C411.701 297.446 407.93 296.07 404.549 294.148C382.178 281.425 359.928 268.49 337.64 255.622L337.657 255.631ZM181.864 54.2809L181.086 55.703C191.344 61.6251 201.654 67.4739 211.86 73.485C231.507 85.0659 251.026 96.8695 270.724 108.361C310.054 131.291 349.412 154.193 388.878 176.889C426.043 198.272 463.351 219.426 500.638 240.597C523.081 253.347 545.621 265.93 568.096 278.623C574.245 282.099 580.33 285.687 586.439 289.214L587.011 288.222C582.667 285.715 578.291 283.262 573.98 280.699C566.227 276.074 558.473 271.434 550.81 266.653C549.656 265.928 548.51 264.702 548.153 263.234C547.587 260.946 546.524 259.575 544.783 258.57C506.585 236.591 468.425 214.545 430.251 192.505C367.739 156.413 305.235 120.327 242.73 84.2245C241.965 83.7831 241.209 83.3463 240.444 82.9049C252.807 89.3889 264.801 96.4919 276.977 103.299C291.376 111.345 305.949 119.091 320.413 127.026C332.081 133.435 343.718 139.916 355.347 146.393C370.651 154.902 385.948 163.422 401.254 171.947C416.315 180.331 431.362 188.721 446.423 197.105C461.706 205.631 477.01 214.14 492.28 222.689C506.291 230.526 520.29 238.4 534.275 246.282C537.63 248.174 540.937 250.128 544.272 252.053C544.258 248.021 543.201 245.569 540.575 244.068C502.263 222.097 464.03 200.009 425.783 177.926C379.393 151.143 333.018 124.354 286.635 97.5595C282.137 94.9624 277.638 92.3654 273.148 89.773L273.669 88.8709C279.794 92.4072 285.895 96.0039 292.061 99.4893C305.728 107.187 319.407 114.847 333.114 122.479C349.059 131.343 365.048 140.129 380.978 148.999C396.276 157.519 411.51 166.167 426.82 174.664C450.253 187.673 473.736 200.593 497.189 213.584C510.274 220.827 523.328 228.141 536.4 235.406C537.196 235.85 538.088 236.128 538.935 236.483C529.138 211.804 513.784 193.539 494.902 179.074C508.592 187.26 522.347 195.35 535.431 204.493C553.018 216.786 567.744 232.757 580.053 251.639C588.561 264.704 595.563 279.008 600.392 295.102C601.295 298.103 603.531 298.889 606.633 299.922C605.97 297.52 605.623 295.998 605.148 294.566C597.313 270.96 585.368 251.13 570.611 233.878C557.103 218.089 541.808 204.7 524.351 194.547C451.694 152.302 378.812 110.446 306.066 68.3566C290.161 59.1594 273.497 51.5427 255.459 46.6976C229.488 39.7217 202.268 37.594 173.063 43.2447C170.745 43.6889 168.41 44.3154 165.262 45.0522C167.883 47.4265 169.875 48.7846 173.133 48.0074C187.038 44.6609 200.628 43.5525 214.007 43.748C234.683 44.0427 254.111 47.9241 272.575 54.5298C279.351 56.9571 285.863 59.9741 291.004 62.096C281.397 59.9502 270.508 56.7374 259.089 55.1193C239.397 52.3332 218.792 54.3959 197.48 61.4408C196.22 61.8569 194.742 61.6566 193.707 61.1188C189.672 58.997 185.779 56.6302 181.833 54.3524L181.864 54.2809ZM359.45 86.1248L359.458 85.8475C401.726 108.217 443.996 130.601 486.49 153.086C487.19 149.451 486.356 147.796 484.332 146.717C479.427 144.093 474.661 141.208 469.837 138.423C443.604 123.277 417.379 108.136 391.146 92.9906C383.02 88.2989 374.894 83.6073 366.768 78.9157L366.845 78.782C406.057 99.268 445.261 119.749 484.472 140.219C479.577 110.188 467.365 87.0256 447.082 71.098C452.462 74.8725 457.809 78.6868 462.891 82.8834C477.806 95.2218 489.319 111.254 498.114 130.172C504.933 144.83 509.091 161.205 512.366 178.168C512.671 179.725 513.847 180.805 514.621 182.114C514.965 181.763 515.309 181.411 515.667 181.054C505.453 121.801 477.766 80.6012 429.76 60.9933C394.362 46.5256 355.304 48.671 313.237 64.7454C314.664 67.4402 316.882 66.3597 318.944 65.6052C343.497 56.5552 367.521 52.1754 390.863 53.9201C392.67 54.0579 394.476 54.1799 396.26 54.378C397.905 54.5708 399.524 54.8668 401.152 55.1089C400.707 55.5794 400.399 55.6989 400.115 55.6834C379.072 54.8051 357.641 60.3851 335.968 70.8156C331.572 72.9256 327.625 74.2401 324.394 71.2316C324.283 71.123 324.052 71.1675 323.873 71.1386C382.6 108.846 442.883 143.725 504.928 175.552C500.156 172.039 495.024 169.151 489.988 166.095C489.139 165.575 488.163 164.521 488.177 163.445C488.218 160.632 486.848 159.604 485.116 158.604C468.024 148.796 450.957 138.927 433.891 129.074C409.082 114.75 384.272 100.426 359.462 86.1026L359.45 86.1248ZM432.975 268.846L433.508 267.922C432.825 267.527 432.134 267.128 431.442 266.729C412.521 255.731 393.605 244.706 374.665 233.741C350.666 219.855 326.633 206.009 302.62 192.146C287.214 183.251 271.799 174.351 256.419 165.412C255.101 164.651 253.855 163.635 252.884 162.405C247.109 155.106 241.423 147.71 235.709 140.343C213.89 112.198 192.071 84.0527 170.246 55.9189C169.926 55.4965 169.47 55.2335 169.074 54.8861C169.13 55.9728 169.521 56.6292 169.959 57.2235C194.57 90.5445 219.182 123.866 243.812 157.153C246.079 160.214 247.813 163.562 248.842 167.734C252.424 182.381 257.626 195.764 266.732 205.877C267.088 206.276 267.593 206.508 268.023 206.816C267.472 204.745 266.36 203.272 265.833 201.423C264.68 197.371 263.368 193.332 262.933 188.938C262.334 182.875 265.362 179.752 270.376 181.118C274.015 182.105 277.463 183.665 280.749 185.413C297.485 194.334 314.164 203.354 330.81 212.43C346.5 220.984 362.126 229.649 377.805 238.241C391.076 245.517 404.401 252.72 417.653 260.03C422.811 262.874 427.874 265.901 432.975 268.846V268.846ZM227.015 88.1305L226.418 89.3152C329.548 150.446 433.346 210.419 537.876 269.106C538.095 268.727 538.307 268.36 538.525 267.981L227.015 88.1305ZM581.214 300.498L581.465 299.781C580.705 299.595 579.961 299.344 579.179 299.233C541.033 293.619 502.873 288.011 464.703 282.457C463.346 282.253 461.792 282.484 460.316 282.879C451.592 285.253 442.837 288.039 434.131 290.081C428.684 291.361 423.297 291.563 417.887 292.255C418.286 292.709 418.777 292.873 419.305 292.955C432.045 295.009 445.474 292.62 459.123 288.873C461.39 288.252 463.82 287.442 465.89 287.672C497.429 291.09 528.917 294.673 560.409 298.212C567.343 298.994 574.281 299.732 581.214 300.498V300.498ZM267.496 121.392L266.179 122.132C269.823 137.987 274.161 153.41 279.538 168.142L280.801 167.327L267.481 121.398L267.496 121.392ZM487.373 251.813L487.406 250.273C472.709 253.92 458.018 257.555 443.312 261.197C443.287 261.673 443.264 262.164 443.239 262.64C457.948 259.029 472.656 255.419 487.359 251.82L487.373 251.813ZM360.913 214.975L361.661 215.407L378.328 186.539L377.58 186.107L360.913 214.975Z" fill="black"/>
<path d="M254.168 78.3379L270.518 87.7775L270.434 87.9223L254.084 78.4827L254.168 78.3379Z" fill="black"/>
</g>
<path d="M308.254 375.059C302.103 375.433 297.14 372.75 293.822 367.442L293.822 367.442C289.106 359.886 285.862 351.714 283.405 343.232C283.13 342.282 282.891 341.31 282.657 340.357C282.555 339.942 282.454 339.531 282.351 339.128L282.347 339.109L282.343 339.09L281.319 333.992L281.318 333.99C280.911 331.94 280.502 329.89 280.094 327.839L280.093 327.837L280.093 327.834C279.684 325.784 279.275 323.733 278.868 321.682L278.69 320.786H279.286C280.441 319.501 281.594 318.214 282.747 316.927C285.717 313.612 288.689 310.296 291.685 307.003C293.823 304.654 295.569 302.21 296.485 299.203C297.767 294.994 297.311 290.98 295.076 287.354L295.076 287.354C292.905 283.828 290.217 280.703 286.813 278.224L286.813 278.224C279.977 273.244 272.751 269.18 264.634 266.858C260.903 265.792 258.243 265.91 254.433 266.864C254.205 266.921 253.924 266.931 253.689 266.93C253.433 266.93 253.146 266.916 252.872 266.901C252.718 266.892 252.573 266.883 252.438 266.874C252.054 266.85 251.756 266.832 251.598 266.84L249.471 266.952L251.059 265.532C255.421 261.63 260.333 258.983 265.175 256.373C266.738 255.531 268.293 254.693 269.82 253.817C277.753 249.269 285.987 245.236 294.639 242.117L294.894 242.822L294.638 242.117C294.654 242.111 294.683 242.098 294.744 242.056C294.683 241.906 294.629 241.788 294.568 241.687C294.568 241.686 294.568 241.686 294.568 241.686L295.211 241.3C290.344 233.236 287.724 224.323 285.404 215.303L308.254 375.059ZM308.254 375.059C311.664 374.854 314.627 373.853 317.045 372.048C319.463 370.243 321.293 367.665 322.489 364.376C322.747 363.672 323.004 362.965 323.262 362.259C323.516 361.563 323.769 360.867 324.023 360.173C324.108 359.989 324.191 359.805 324.273 359.624L324.273 359.623C324.308 359.545 324.343 359.468 324.378 359.391C324.429 359.279 324.48 359.168 324.531 359.058L324.597 358.915L324.6 358.758C324.602 358.661 324.598 358.567 324.594 358.492C324.593 358.476 324.592 358.461 324.591 358.446C324.588 358.387 324.586 358.342 324.584 358.293C324.581 358.181 324.589 358.146 324.59 358.143C324.59 358.143 324.59 358.143 324.59 358.143L323.878 357.905M308.254 375.059L313.401 321.263M313.401 321.263C313.616 320.914 313.807 320.584 313.97 320.221L313.971 320.22C314.599 318.83 315.211 317.417 315.826 315.998C316.975 313.345 318.134 310.671 319.421 308.085C320.269 306.38 321.365 304.761 322.426 303.192C322.893 302.501 323.354 301.82 323.784 301.146L324.076 300.688L324.602 300.823C324.75 300.861 324.897 300.914 325.016 300.959C325.05 300.972 325.083 300.984 325.114 300.996C325.199 301.028 325.27 301.055 325.342 301.079C325.361 301.085 325.378 301.091 325.393 301.096C326.952 300.096 328.686 300.188 330.119 300.264C330.362 300.277 330.597 300.289 330.821 300.296C335.289 300.425 338.868 303.478 339.882 307.819M313.401 321.263C313.036 318.855 312.663 316.449 312.29 314.045C311.264 307.42 310.239 300.806 309.377 294.165C308.412 286.692 306.341 279.667 301.31 273.724C302.438 272.692 303.578 271.66 304.721 270.624C307.503 268.104 310.309 265.563 313.039 262.95C318.167 258.051 319.938 251.839 317.977 245.135L317.977 245.135C315.876 237.953 313.505 230.841 311.139 223.745C310.144 220.758 309.149 217.774 308.175 214.788L308.161 214.744L308.141 214.702C307.856 214.094 307.576 213.561 307.299 213.036C307.221 212.888 307.144 212.741 307.067 212.593C306.713 211.914 306.348 211.185 305.943 210.212C304.962 207.857 303.93 204.313 302.924 200.858C302.668 199.982 302.415 199.111 302.164 198.268C301.551 196.203 300.955 194.297 300.401 192.904C300.126 192.213 299.846 191.61 299.563 191.171C299.423 190.953 299.259 190.74 299.069 190.576C298.882 190.416 298.595 190.239 298.228 190.25L313.401 321.263ZM339.882 307.819L339.151 307.989L339.882 307.818C339.882 307.818 339.882 307.818 339.882 307.819ZM339.882 307.819C339.954 308.125 340.061 308.384 340.19 308.696C340.261 308.867 340.338 309.053 340.42 309.271L340.494 309.471L340.453 309.68C340.387 310.013 340.325 310.361 340.261 310.716C340.112 311.546 339.956 312.418 339.728 313.246M339.728 313.246L339.004 313.048L339.727 313.247C339.727 313.247 339.728 313.246 339.728 313.246ZM339.728 313.246C339.105 315.525 338.447 317.798 337.791 320.065C337.521 320.995 337.252 321.924 336.986 322.852L336.965 322.928L336.928 322.997C336.798 323.242 336.647 323.499 336.506 323.739C336.433 323.862 336.364 323.981 336.301 324.091C336.104 324.437 335.942 324.753 335.831 325.068C332.063 336.084 328.323 347.118 324.589 358.146L323.878 357.905M323.878 357.905C327.613 346.876 331.354 335.842 335.122 324.824L323.842 358.475C323.831 358.278 323.82 358.08 323.878 357.905ZM284.066 213.094C284.347 214.222 284.64 215.348 284.678 215.493L298.228 190.25C297.043 190.286 295.627 190.883 294.201 191.643C292.796 192.392 291.262 193.367 289.754 194.325L289.598 194.424C288.027 195.423 286.49 196.394 285.102 197.116C283.684 197.852 282.55 198.257 281.757 198.25C281.488 198.248 281.265 198.375 281.124 198.545C281.006 198.688 280.961 198.838 280.941 198.922C280.9 199.094 280.902 199.275 280.91 199.411C280.926 199.704 280.988 200.09 281.072 200.518C281.243 201.385 281.533 202.56 281.853 203.809C281.983 204.316 282.117 204.834 282.251 205.35C282.78 207.388 283.301 209.4 283.502 210.574C283.506 210.632 283.513 210.68 283.516 210.703L283.517 210.707C283.526 210.771 283.54 210.844 283.555 210.922C283.585 211.077 283.629 211.277 283.681 211.502C283.784 211.953 283.924 212.526 284.066 213.094Z" fill="#FDFCF7" stroke="black" stroke-width="1.5"/>
<path d="M190.752 394.5C191.152 392.5 197.417 380.333 200.75 374.5L235.75 372C237.417 375.5 240.65 383.4 240.25 387C239.75 391.5 234.25 409 229.25 421.5C224.25 434 216.25 443.5 213.75 446C211.25 448.5 208.75 450.5 200.75 458C190.75 462.5 193.25 450 193.75 448.5C194.25 447 198.75 438.5 203.25 437C206.85 435.8 208.75 432.833 209.25 431.5C209.917 427.333 211.65 417 213.25 409C214.85 401 213.917 401.333 213.25 402.5C209.75 408 203.25 413 194.25 415.5C187.05 417.5 166.917 414 157.75 412C148.917 409.833 130.35 404.2 126.75 399C122.25 392.5 123.25 394.5 114.754 391.5C107.954 386.3 110.254 382.333 112.254 381C114.087 379.833 119.354 377.5 125.754 377.5C133.754 377.5 136.254 385 138.254 389C139.854 392.2 142.587 393.333 143.754 393.5C144.754 393.667 148.854 394.2 157.254 395C170.254 397.5 181.254 395.5 185.254 396C188.498 396.406 189.44 396.811 190.747 399.085C190.302 397.684 190.41 396.209 190.752 394.5Z" fill="#FDFCF7"/>
<path d="M200.75 374.5C197.417 380.333 191.152 392.5 190.752 394.5C190.252 397 190.252 399 191.752 401C189.754 397 189.254 396.5 185.254 396C181.254 395.5 170.254 397.5 157.254 395C148.854 394.2 144.754 393.667 143.754 393.5C142.587 393.333 139.854 392.2 138.254 389C136.254 385 133.754 377.5 125.754 377.5C119.354 377.5 114.087 379.833 112.254 381C110.254 382.333 107.954 386.3 114.754 391.5C123.25 394.5 122.25 392.5 126.75 399C130.35 404.2 148.917 409.833 157.75 412C166.917 414 187.05 417.5 194.25 415.5C203.25 413 209.75 408 213.25 402.5C213.917 401.333 214.85 401 213.25 409C211.65 417 209.917 427.333 209.25 431.5C208.75 432.833 206.85 435.8 203.25 437C198.75 438.5 194.25 447 193.75 448.5C193.25 450 190.75 462.5 200.75 458C208.75 450.5 211.25 448.5 213.75 446C216.25 443.5 224.25 434 229.25 421.5C234.25 409 239.75 391.5 240.25 387C240.65 383.4 237.417 375.5 235.75 372L200.75 374.5Z" stroke="black" stroke-width="1.5"/>
<path d="M237.857 373.388C238.055 373.713 238.031 374.071 238.02 374.222C238.014 374.291 238.006 374.367 237.999 374.424C237.997 374.442 237.996 374.457 237.994 374.47C237.987 374.541 237.984 374.582 237.984 374.61V376.04L236.807 375.227C236.449 374.98 236.182 374.971 235.927 375.039C235.612 375.122 235.278 375.335 234.843 375.648C233.451 376.655 232.071 377.675 230.768 378.639C230.37 378.934 229.98 379.223 229.598 379.505C229.504 379.817 229.429 380.113 229.352 380.418C229.299 380.63 229.244 380.847 229.181 381.075C229.019 381.664 228.812 382.288 228.435 382.834L228.434 382.836C226.603 385.477 224.626 388.011 222.645 390.518M237.857 373.388L222.645 390.518M237.857 373.388C237.311 372.493 237.24 371.821 237.394 371.227C237.561 370.585 238.019 369.918 238.777 369.108L237.857 373.388ZM222.645 390.518C221.949 391.401 221.212 392.133 220.253 392.171C219.769 392.191 219.325 392.029 218.914 391.787C218.509 391.547 218.093 391.202 217.651 390.787M222.645 390.518L217.651 390.787M217.651 390.787C216.544 389.751 215.449 388.709 214.358 387.671C212.184 385.602 210.02 383.543 207.784 381.547M217.651 390.787L207.784 381.547M200.077 375.319L200.424 374.755C201.617 372.815 202.81 370.878 204.023 368.909C204.722 367.774 205.428 366.629 206.143 365.466C204.738 363.43 203.254 361.273 201.77 359.116L201.763 359.106L201.474 358.686L201.758 358.263C201.88 358.082 202.044 357.87 202.182 357.692C202.253 357.601 202.317 357.519 202.365 357.453C202.544 357.21 202.649 357.029 202.696 356.866L202.696 356.866C203.592 353.763 205.44 351.191 207.179 348.77C207.326 348.566 207.472 348.363 207.616 348.161C209.654 345.298 210.954 342.493 210.565 339.067C210.434 337.908 210.369 336.647 210.733 335.507C211.115 334.313 211.943 333.318 213.434 332.67M200.077 375.319L287.699 277.023C280.773 271.977 273.388 267.807 265.049 265.427C261.035 264.28 257.02 264.27 252.99 265.278C252.814 265.32 252.612 265.336 252.36 265.341C252.287 265.342 252.202 265.342 252.11 265.342C251.924 265.343 251.71 265.344 251.522 265.354L251.261 265.367L251.065 265.541C250.342 266.181 249.602 266.777 248.847 267.386C248.368 267.773 247.882 268.164 247.391 268.575C246.155 269.609 244.943 270.718 243.944 272.017C241.084 275.734 238.562 279.719 236.068 283.663C235.653 284.318 235.239 284.973 234.824 285.625L235.457 286.027L234.824 285.625C229.997 293.212 223.799 299.264 215.807 303.389C215.455 303.568 215.067 303.711 214.641 303.851C214.497 303.898 214.342 303.947 214.182 303.997C213.894 304.087 213.59 304.183 213.308 304.283L212.579 304.54L212.858 305.261C214.494 309.486 214.344 313.789 213.226 318.194L213.226 318.195C213.116 318.632 213.02 319.081 212.926 319.516C212.883 319.718 212.84 319.918 212.797 320.111L212.683 320.621L213.122 320.905C216.666 323.19 217.312 328.124 214.349 331.702L214.927 332.181L214.349 331.702C214.261 331.809 214.188 331.901 214.121 331.986C214.02 332.114 213.931 332.226 213.82 332.349C213.652 332.534 213.529 332.628 213.434 332.67M200.077 375.319L200.594 375.733M200.077 375.319L200.594 375.733M213.434 332.67L213.733 333.358L213.433 332.67C213.433 332.67 213.433 332.67 213.434 332.67ZM200.594 375.733C201.326 376.32 202.059 376.893 202.788 377.463C204.495 378.798 206.179 380.116 207.784 381.547M200.594 375.733L207.784 381.547M279.54 322.764L280.182 322.049C281.413 320.678 282.642 319.306 283.871 317.935C286.84 314.622 289.805 311.313 292.798 308.024C295.013 305.596 296.915 302.954 297.923 299.652L297.923 299.652C299.324 295.055 298.829 290.592 296.356 286.579L296.356 286.579C294.102 282.924 291.289 279.638 287.699 277.023L279.54 322.764Z" fill="black" stroke="black" stroke-width="1.5"/>
<path d="M214.197 304.566L214.254 304.713C216.036 309.315 215.852 313.959 214.677 318.558C214.574 318.968 214.488 319.371 214.398 319.79C214.353 319.999 214.307 320.212 214.258 320.432L214.124 321.033L213.508 321.018C212.946 321.005 212.788 321.163 212.731 321.245C212.639 321.376 212.561 321.661 212.624 322.201L212.625 322.203C212.654 322.463 212.713 322.71 212.783 323.002C212.812 323.121 212.842 323.249 212.873 323.388C212.969 323.819 213.065 324.348 212.983 324.89L212.983 324.893C212.911 325.359 212.65 325.837 212.368 326.194C212.22 326.38 212.046 326.56 211.853 326.706C211.667 326.846 211.418 326.99 211.125 327.036M214.197 304.566L211.008 326.295M214.197 304.566L214.183 304.552C212.568 300.767 209.749 298.202 206.163 296.424L206.163 296.424C205.282 295.987 204.472 295.467 203.623 294.921C203.221 294.663 202.811 294.399 202.379 294.136C198.186 291.565 193.665 291.071 189.307 293.619C186.581 295.212 183.891 295.635 180.909 295.063L180.908 295.063C177.342 294.384 173.811 295.381 171.335 297.638C168.847 299.907 167.471 303.407 168.149 307.621M214.197 304.566L168.889 307.502M211.125 327.036L211.008 326.295M211.125 327.036C211.125 327.036 211.126 327.036 211.126 327.036L211.008 326.295M211.125 327.036C210.572 327.124 210.048 326.861 209.709 326.647C209.333 326.41 208.984 326.101 208.723 325.841C208.37 325.488 208.33 324.989 208.315 324.757C208.308 324.655 208.304 324.541 208.301 324.446C208.3 324.412 208.299 324.38 208.297 324.352C208.293 324.228 208.286 324.139 208.275 324.07L209.016 323.953L208.276 324.071C208.235 323.818 208.186 323.545 208.135 323.263C208.049 322.791 207.959 322.294 207.899 321.824L207.899 321.823C207.512 318.786 206.448 317.433 205.16 316.838C203.785 316.202 201.931 316.307 199.701 316.733L199.701 316.733C197.088 317.232 194.495 317.827 191.887 318.426C191.287 318.563 190.686 318.701 190.084 318.838L190.084 318.838C186.562 319.639 183.111 319.429 179.667 318.533L179.666 318.533C177.81 318.047 176.877 318.22 176.419 318.622C175.954 319.03 175.659 319.951 175.849 321.846L175.849 321.846C175.903 322.39 175.885 322.925 175.851 323.427C175.838 323.625 175.823 323.811 175.809 323.991C175.785 324.291 175.762 324.576 175.75 324.877L175.712 325.823L174.8 325.569C172.725 324.991 171.073 324.023 169.982 322.603C168.884 321.174 168.417 319.369 168.566 317.245L168.566 317.245C168.794 313.996 168.666 310.856 168.149 307.621M211.008 326.295C210.476 326.38 209.729 325.786 209.254 325.311C209.074 325.13 209.062 324.784 209.051 324.435C209.045 324.269 209.04 324.102 209.016 323.953C208.97 323.665 208.918 323.379 208.866 323.093C208.784 322.64 208.702 322.186 208.643 321.729C207.833 315.368 204.031 315.142 199.56 315.996C196.932 316.498 194.323 317.097 191.714 317.696C191.115 317.833 190.516 317.971 189.918 318.107C186.534 318.877 183.206 318.679 179.856 317.807C176.093 316.822 174.718 318.09 175.103 321.921C175.168 322.576 175.116 323.242 175.063 323.909C175.058 323.966 175.054 324.023 175.05 324.081C175.1 324.095 175.151 324.11 175.202 324.124L175.001 324.847L174.252 324.816C174.254 324.75 174.257 324.683 174.261 324.616C170.81 323.421 169.054 321.003 169.314 317.298C169.546 313.993 169.416 310.796 168.889 307.502M168.149 307.621C168.149 307.621 168.149 307.621 168.149 307.621L168.889 307.502M168.149 307.621C168.149 307.621 168.149 307.621 168.149 307.621L168.889 307.502" fill="black" stroke="black" stroke-width="1.5"/>
<mask id="path-9-outside-1_518_5181" maskUnits="userSpaceOnUse" x="173.012" y="313.637" width="46" height="48" fill="black">
<rect fill="white" x="173.012" y="313.637" width="46" height="48"/>
<path d="M175.012 324.846C175.051 323.873 175.21 322.883 175.114 321.921C174.729 318.09 176.104 316.822 179.867 317.807C183.211 318.684 186.544 318.876 189.928 318.107C193.137 317.377 196.34 316.618 199.571 315.996C204.041 315.141 207.844 315.368 208.653 321.728C208.75 322.475 208.902 323.211 209.027 323.952C209.1 324.416 208.999 325.044 209.265 325.31C209.74 325.786 210.487 326.38 211.019 326.295C211.517 326.216 212.162 325.361 212.252 324.778C212.377 323.986 211.992 323.126 211.89 322.289C211.749 321.078 212.117 320.229 213.537 320.268C217.498 322.826 218.143 328.293 214.935 332.175C214.578 332.605 214.222 333.142 213.741 333.352C211.143 334.483 211.058 336.685 211.319 338.976C211.743 342.666 210.323 345.665 208.235 348.591C206.356 351.228 204.353 353.853 203.425 357.068C203.255 357.656 202.74 358.137 202.389 358.675C200.657 356.134 198.92 353.588 197.189 351.047C198.92 349.36 200.697 347.714 202.361 345.959C202.785 345.507 202.853 344.714 203.085 344.081C202.327 344.041 201.552 343.9 200.816 344.013C200.431 344.075 200.131 344.601 199.78 344.907C197.964 346.503 196.147 348.098 194.325 349.694C189.798 349.23 185.899 347.521 182.634 344.239C179.997 341.585 178.696 338.382 177.949 334.845C177.405 332.282 176.924 329.707 176.285 327.172C176.076 326.346 175.453 325.622 175.017 324.852L175.012 324.846ZM188.887 344.211C191.909 343.735 194.591 343.362 197.257 342.864C197.811 342.762 198.666 342.247 198.7 341.862C198.756 341.246 198.4 340.408 197.941 339.955C195.123 337.183 189.781 337.828 187.62 341.217C187.223 341.834 187.042 342.853 187.269 343.509C187.416 343.939 188.485 344.052 188.893 344.211H188.887ZM196.147 329.753C198.309 329.481 200.148 329.249 202.417 328.96C201.286 327.053 199.95 326.923 198.569 327.161C197.398 327.359 196.176 327.687 196.147 329.753ZM186.211 331.088C184.615 328.609 181.729 328.655 180.371 331.179C182.357 331.807 184.236 331.829 186.211 331.088Z"/>
</mask>
<path d="M175.012 324.846C175.051 323.873 175.21 322.883 175.114 321.921C174.729 318.09 176.104 316.822 179.867 317.807C183.211 318.684 186.544 318.876 189.928 318.107C193.137 317.377 196.34 316.618 199.571 315.996C204.041 315.141 207.844 315.368 208.653 321.728C208.75 322.475 208.902 323.211 209.027 323.952C209.1 324.416 208.999 325.044 209.265 325.31C209.74 325.786 210.487 326.38 211.019 326.295C211.517 326.216 212.162 325.361 212.252 324.778C212.377 323.986 211.992 323.126 211.89 322.289C211.749 321.078 212.117 320.229 213.537 320.268C217.498 322.826 218.143 328.293 214.935 332.175C214.578 332.605 214.222 333.142 213.741 333.352C211.143 334.483 211.058 336.685 211.319 338.976C211.743 342.666 210.323 345.665 208.235 348.591C206.356 351.228 204.353 353.853 203.425 357.068C203.255 357.656 202.74 358.137 202.389 358.675C200.657 356.134 198.92 353.588 197.189 351.047C198.92 349.36 200.697 347.714 202.361 345.959C202.785 345.507 202.853 344.714 203.085 344.081C202.327 344.041 201.552 343.9 200.816 344.013C200.431 344.075 200.131 344.601 199.78 344.907C197.964 346.503 196.147 348.098 194.325 349.694C189.798 349.23 185.899 347.521 182.634 344.239C179.997 341.585 178.696 338.382 177.949 334.845C177.405 332.282 176.924 329.707 176.285 327.172C176.076 326.346 175.453 325.622 175.017 324.852L175.012 324.846ZM188.887 344.211C191.909 343.735 194.591 343.362 197.257 342.864C197.811 342.762 198.666 342.247 198.7 341.862C198.756 341.246 198.4 340.408 197.941 339.955C195.123 337.183 189.781 337.828 187.62 341.217C187.223 341.834 187.042 342.853 187.269 343.509C187.416 343.939 188.485 344.052 188.893 344.211H188.887ZM196.147 329.753C198.309 329.481 200.148 329.249 202.417 328.96C201.286 327.053 199.95 326.923 198.569 327.161C197.398 327.359 196.176 327.687 196.147 329.753ZM186.211 331.088C184.615 328.609 181.729 328.655 180.371 331.179C182.357 331.807 184.236 331.829 186.211 331.088Z" fill="#FDFCF7"/>
<path d="M175.012 324.846L173.513 324.785L173.486 325.442L173.951 325.907L175.012 324.846ZM175.114 321.921L176.606 321.771L176.606 321.771L175.114 321.921ZM179.867 317.807L180.248 316.356L180.247 316.356L179.867 317.807ZM189.928 318.107L190.261 319.569L190.261 319.569L189.928 318.107ZM199.571 315.996L199.289 314.523L199.287 314.523L199.571 315.996ZM208.653 321.728L207.165 321.918L207.166 321.92L208.653 321.728ZM209.027 323.952L210.508 323.717L210.506 323.704L209.027 323.952ZM209.265 325.31L208.204 326.371L209.265 325.31ZM211.019 326.295L210.783 324.814L210.782 324.814L211.019 326.295ZM212.252 324.778L210.771 324.546L210.77 324.548L212.252 324.778ZM211.89 322.289L210.4 322.463L210.401 322.47L211.89 322.289ZM213.537 320.268L214.351 319.008L213.998 318.781L213.579 318.769L213.537 320.268ZM214.935 332.175L216.09 333.132L216.091 333.13L214.935 332.175ZM213.741 333.352L213.142 331.976L213.141 331.976L213.741 333.352ZM211.319 338.976L209.828 339.146L209.829 339.148L211.319 338.976ZM208.235 348.591L207.014 347.719L207.013 347.72L208.235 348.591ZM203.425 357.068L201.984 356.652L201.983 356.652L203.425 357.068ZM202.389 358.675L201.15 359.52L202.416 361.378L203.645 359.495L202.389 358.675ZM197.189 351.047L196.142 349.972L195.24 350.851L195.949 351.891L197.189 351.047ZM202.361 345.959L203.449 346.992L203.455 346.985L202.361 345.959ZM203.085 344.081L204.494 344.596L205.192 342.689L203.163 342.583L203.085 344.081ZM200.816 344.013L200.588 342.53L200.576 342.532L200.816 344.013ZM199.78 344.907L198.795 343.776L198.79 343.78L199.78 344.907ZM194.325 349.694L194.172 351.186L194.822 351.253L195.314 350.823L194.325 349.694ZM182.634 344.239L181.57 345.296L181.571 345.297L182.634 344.239ZM177.949 334.845L179.416 334.536L179.416 334.535L177.949 334.845ZM176.285 327.172L177.739 326.805L177.739 326.804L176.285 327.172ZM175.017 324.852L176.323 324.113L176.222 323.936L176.078 323.791L175.017 324.852ZM188.887 344.211L188.654 342.729L188.887 345.711V344.211ZM197.257 342.864L196.986 341.389L196.981 341.39L197.257 342.864ZM198.7 341.862L197.206 341.725L197.205 341.731L198.7 341.862ZM197.941 339.955L198.995 338.888L198.993 338.886L197.941 339.955ZM187.62 341.217L188.882 342.028L188.884 342.024L187.62 341.217ZM187.269 343.509L188.688 343.024L188.687 343.02L187.269 343.509ZM188.893 344.211V345.711L189.436 342.813L188.893 344.211ZM196.147 329.753L194.648 329.732L194.624 331.456L196.334 331.241L196.147 329.753ZM202.417 328.96L202.607 330.448L204.874 330.16L203.707 328.195L202.417 328.96ZM198.569 327.161L198.819 328.64L198.824 328.639L198.569 327.161ZM186.211 331.088L186.738 332.492L188.478 331.839L187.472 330.276L186.211 331.088ZM180.371 331.179L179.05 330.468L178.191 332.063L179.918 332.609L180.371 331.179ZM176.51 324.907C176.53 324.437 176.573 324.046 176.61 323.479C176.645 322.963 176.667 322.377 176.606 321.771L173.621 322.07C173.657 322.426 173.648 322.817 173.617 323.28C173.59 323.692 173.533 324.282 173.513 324.785L176.51 324.907ZM176.606 321.771C176.418 319.896 176.761 319.329 176.925 319.185C177.074 319.054 177.656 318.779 179.487 319.258L180.247 316.356C178.315 315.85 176.328 315.716 174.945 316.931C173.577 318.132 173.425 320.114 173.621 322.071L176.606 321.771ZM179.486 319.258C183.022 320.185 186.603 320.401 190.261 319.569L189.596 316.644C186.486 317.351 183.401 317.183 180.248 316.356L179.486 319.258ZM190.261 319.569C193.488 318.835 196.655 318.085 199.855 317.469L199.287 314.523C196.024 315.152 192.786 315.918 189.596 316.644L190.261 319.569ZM199.853 317.469C202.078 317.044 203.717 316.992 204.856 317.518C205.821 317.965 206.797 319.022 207.165 321.918L210.141 321.539C209.701 318.074 208.37 315.838 206.115 314.795C204.032 313.832 201.535 314.093 199.289 314.523L199.853 317.469ZM207.166 321.92C207.266 322.7 207.437 323.54 207.548 324.201L210.506 323.704C210.368 322.882 210.233 322.25 210.141 321.537L207.166 321.92ZM207.545 324.187C207.549 324.21 207.554 324.262 207.559 324.381C207.562 324.468 207.567 324.655 207.577 324.808C207.588 324.97 207.611 325.206 207.681 325.456C207.751 325.706 207.893 326.06 208.204 326.371L210.325 324.25C210.503 324.427 210.558 324.603 210.57 324.647C210.582 324.689 210.576 324.69 210.57 324.603C210.564 324.508 210.563 324.434 210.557 324.265C210.551 324.127 210.542 323.926 210.508 323.717L207.545 324.187ZM208.204 326.371C208.487 326.654 208.88 327.004 209.32 327.281C209.685 327.512 210.414 327.911 211.255 327.776L210.782 324.814C210.877 324.799 210.952 324.803 210.997 324.808C211.041 324.814 211.065 324.822 211.065 324.822C211.066 324.822 211.053 324.818 211.026 324.804C210.999 324.791 210.964 324.771 210.921 324.744C210.736 324.627 210.518 324.442 210.325 324.25L208.204 326.371ZM211.254 327.776C211.718 327.703 212.081 327.48 212.317 327.3C212.569 327.108 212.787 326.881 212.964 326.657C213.292 326.243 213.636 325.646 213.735 325.009L210.77 324.548C210.775 324.518 210.78 324.508 210.775 324.52C210.772 324.531 210.763 324.552 210.748 324.584C210.716 324.649 210.668 324.724 210.613 324.794C210.555 324.867 210.512 324.904 210.501 324.913C210.496 324.916 210.513 324.903 210.551 324.884C210.588 324.866 210.667 324.832 210.783 324.814L211.254 327.776ZM213.734 325.011C213.843 324.319 213.72 323.672 213.62 323.224C213.5 322.683 213.418 322.429 213.379 322.107L210.401 322.47C210.464 322.985 210.626 323.581 210.692 323.877C210.779 324.266 210.786 324.445 210.771 324.546L213.734 325.011ZM213.38 322.115C213.355 321.899 213.36 321.757 213.372 321.675C213.384 321.597 213.395 321.615 213.356 321.671C213.335 321.7 213.309 321.729 213.278 321.753C213.248 321.776 213.225 321.787 213.218 321.789C213.21 321.793 213.284 321.762 213.495 321.768L213.579 318.769C212.572 318.741 211.543 319.032 210.9 319.948C210.329 320.761 210.315 321.735 210.4 322.463L213.38 322.115ZM212.723 321.528C215.84 323.541 216.486 327.944 213.778 331.219L216.091 333.13C219.801 328.642 219.157 322.111 214.351 319.008L212.723 321.528ZM213.78 331.217C213.679 331.339 213.57 331.478 213.493 331.575C213.406 331.684 213.337 331.768 213.272 331.84C213.129 331.997 213.092 331.998 213.142 331.976L214.339 334.727C214.871 334.496 215.252 334.123 215.497 333.852C215.709 333.618 215.997 333.244 216.09 333.132L213.78 331.217ZM213.141 331.976C211.465 332.707 210.48 333.864 210.03 335.271C209.612 336.574 209.695 337.972 209.828 339.146L212.809 338.807C212.682 337.689 212.677 336.84 212.887 336.187C213.063 335.637 213.419 335.128 214.34 334.727L213.141 331.976ZM209.829 339.148C210.191 342.299 209.012 344.92 207.014 347.719L209.456 349.462C211.634 346.41 213.295 343.033 212.809 338.805L209.829 339.148ZM207.013 347.72C205.189 350.281 202.998 353.137 201.984 356.652L204.866 357.484C205.707 354.57 207.523 352.174 209.456 349.461L207.013 347.72ZM201.983 356.652C201.976 356.679 201.939 356.769 201.77 356.996C201.664 357.139 201.335 357.545 201.133 357.855L203.645 359.495C203.794 359.267 203.898 359.163 204.179 358.785C204.398 358.49 204.704 358.045 204.866 357.483L201.983 356.652ZM203.629 357.83C202.763 356.559 201.895 355.287 201.028 354.016C200.161 352.744 199.294 351.472 198.428 350.202L195.949 351.891C196.815 353.162 197.682 354.434 198.55 355.706C199.417 356.978 200.284 358.249 201.15 359.52L203.629 357.83ZM198.235 352.121C199.931 350.47 201.758 348.774 203.449 346.992L201.272 344.927C199.636 346.653 197.909 348.251 196.142 349.972L198.235 352.121ZM203.455 346.985C203.921 346.489 204.123 345.887 204.233 345.515C204.387 344.996 204.391 344.876 204.494 344.596L201.677 343.565C201.594 343.79 201.532 344.012 201.485 344.19C201.431 344.389 201.399 344.52 201.357 344.661C201.27 344.956 201.225 344.977 201.266 344.934L203.455 346.985ZM203.163 342.583C202.75 342.561 202.575 342.529 202.045 342.493C201.625 342.464 201.118 342.449 200.588 342.53L201.044 345.495C201.249 345.464 201.498 345.462 201.839 345.486C202.07 345.502 202.662 345.561 203.007 345.579L203.163 342.583ZM200.576 342.532C200.18 342.596 199.874 342.769 199.667 342.917C199.463 343.063 199.302 343.225 199.193 343.341C199.094 343.446 198.969 343.59 198.918 343.647C198.844 343.73 198.81 343.763 198.795 343.776L200.766 346.038C200.926 345.898 201.062 345.75 201.154 345.647C201.199 345.597 201.251 345.537 201.284 345.5C201.323 345.457 201.352 345.424 201.378 345.396C201.436 345.335 201.443 345.335 201.415 345.355C201.384 345.377 201.26 345.46 201.055 345.494L200.576 342.532ZM198.79 343.78C196.974 345.376 195.158 346.971 193.337 348.566L195.314 350.823C197.137 349.226 198.954 347.629 200.77 346.034L198.79 343.78ZM194.478 348.202C190.265 347.77 186.697 346.197 183.698 343.181L181.571 345.297C185.101 348.846 189.332 350.69 194.172 351.186L194.478 348.202ZM183.698 343.182C181.334 340.802 180.128 337.904 179.416 334.536L176.481 335.155C177.264 338.861 178.66 342.368 181.57 345.296L183.698 343.182ZM179.416 334.535C178.883 332.019 178.388 329.377 177.739 326.805L174.831 327.539C175.461 330.037 175.928 332.545 176.481 335.156L179.416 334.535ZM177.739 326.804C177.576 326.162 177.269 325.617 177.01 325.2C176.697 324.695 176.531 324.481 176.323 324.113L173.712 325.591C173.939 325.992 174.302 326.525 174.462 326.782C174.675 327.126 174.784 327.356 174.831 327.541L177.739 326.804ZM176.078 323.791L176.072 323.786L173.951 325.907L173.957 325.913L176.078 323.791ZM189.12 345.693C192.107 345.223 194.839 344.842 197.532 344.339L196.981 341.39C194.344 341.882 191.711 342.248 188.654 342.729L189.12 345.693ZM197.528 344.339C198.051 344.243 198.591 343.991 199 343.721C199.212 343.581 199.448 343.397 199.653 343.17C199.827 342.977 200.143 342.572 200.194 341.994L197.205 341.731C197.224 341.522 197.29 341.373 197.332 341.297C197.374 341.219 197.412 341.175 197.423 341.164C197.44 341.144 197.422 341.168 197.347 341.217C197.279 341.262 197.196 341.307 197.116 341.342C197.03 341.379 196.983 341.389 196.986 341.389L197.528 344.339ZM200.193 341.999C200.25 341.377 200.099 340.766 199.903 340.283C199.704 339.791 199.397 339.285 198.995 338.888L196.887 341.023C196.944 341.078 197.045 341.217 197.124 341.412C197.16 341.502 197.183 341.583 197.196 341.647C197.208 341.714 197.205 341.739 197.206 341.725L200.193 341.999ZM198.993 338.886C197.199 337.121 194.674 336.504 192.353 336.786C190.03 337.069 187.717 338.275 186.355 340.411L188.884 342.024C189.684 340.77 191.122 339.958 192.716 339.764C194.31 339.57 195.866 340.017 196.889 341.025L198.993 338.886ZM186.357 340.407C186.027 340.922 185.822 341.536 185.73 342.11C185.639 342.674 185.631 343.361 185.851 343.998L188.687 343.02C188.687 343.022 188.675 342.983 188.671 342.895C188.667 342.81 188.673 342.705 188.692 342.586C188.732 342.334 188.817 342.129 188.882 342.028L186.357 340.407ZM185.849 343.995C186.059 344.608 186.527 344.932 186.777 345.077C187.053 345.236 187.342 345.335 187.549 345.398C187.763 345.462 187.984 345.515 188.127 345.551C188.312 345.597 188.355 345.611 188.349 345.609L189.436 342.813C189.318 342.767 189.203 342.732 189.115 342.708C189.023 342.682 188.929 342.659 188.849 342.639C188.672 342.595 188.54 342.563 188.417 342.526C188.287 342.487 188.256 342.467 188.278 342.479C188.293 342.488 188.354 342.525 188.43 342.601C188.509 342.68 188.618 342.819 188.688 343.024L185.849 343.995ZM188.893 342.711H188.887V345.711H188.893V342.711ZM196.334 331.241C198.497 330.969 200.336 330.737 202.607 330.448L202.228 327.472C199.96 327.761 198.122 327.993 195.96 328.264L196.334 331.241ZM203.707 328.195C203.012 327.022 202.153 326.239 201.11 325.851C200.099 325.474 199.111 325.545 198.315 325.683L198.824 328.639C199.408 328.539 199.778 328.556 200.063 328.662C200.316 328.756 200.691 328.991 201.127 329.726L203.707 328.195ZM198.319 325.682C197.745 325.779 196.784 325.951 195.992 326.586C195.097 327.303 194.666 328.38 194.648 329.732L197.647 329.773C197.652 329.4 197.711 329.193 197.755 329.087C197.794 328.994 197.833 328.955 197.868 328.927C197.987 328.831 198.222 328.741 198.819 328.64L198.319 325.682ZM187.472 330.276C186.447 328.685 184.879 327.731 183.178 327.758C181.463 327.784 179.945 328.803 179.05 330.468L181.692 331.889C182.154 331.03 182.759 330.764 183.225 330.757C183.705 330.75 184.378 331.013 184.949 331.9L187.472 330.276ZM179.918 332.609C182.188 333.327 184.414 333.364 186.738 332.492L185.683 329.684C184.057 330.294 182.525 330.287 180.823 329.748L179.918 332.609Z" fill="black" mask="url(#path-9-outside-1_518_5181)"/>
<path d="M335.529 322.527L335.406 322.954L335.721 323.267L335.727 323.272L335.74 323.285L335.754 323.298C337.117 324.526 338.478 325.763 339.84 327.003C342.851 329.743 345.872 332.491 348.957 335.158L348.957 335.159C350.716 336.677 352.832 337.083 354.684 336.487C356.532 335.893 358.027 334.331 358.616 332.102C359.269 329.633 359.145 327.072 357.809 324.761L357.809 324.76C357.325 323.926 356.845 323.083 356.363 322.239C354.444 318.875 352.499 315.467 350.219 312.312C349.151 310.828 347.895 309.497 346.612 308.229C346.106 307.728 345.601 307.243 345.102 306.762C344.316 306.006 343.54 305.26 342.782 304.478L342.394 304.078L341.899 304.334C340.964 304.818 340.135 305.439 339.602 306.287C339.077 307.12 338.879 308.106 339.054 309.249C338.977 309.639 338.909 310.016 338.843 310.385C338.701 311.17 338.567 311.917 338.357 312.673L338.357 312.674C337.716 315.005 337.041 317.324 336.364 319.65C336.085 320.607 335.806 321.566 335.529 322.527Z" fill="black" stroke="black" stroke-width="1.5"/>
<path d="M279.233 193.596L279.043 193.129C278.549 191.916 278.386 190.725 278.579 189.564C278.772 188.406 279.31 187.33 280.14 186.334C284.034 181.645 286.7 176.357 288.452 170.472C289.384 167.34 290.969 164.979 293.16 163.427C295.349 161.876 298.073 161.182 301.196 161.255L279.233 193.596ZM279.233 193.596H279.738H279.755H280.339L280.482 193.029L280.671 192.279M279.233 193.596L280.671 192.279M280.671 192.279C280.719 192.29 280.767 192.301 280.814 192.312C281.311 192.423 281.756 192.522 282.204 192.638L282.205 192.638C284.147 193.138 286.058 192.803 287.657 191.697L287.657 191.696C290.417 189.781 292.873 187.468 294.668 184.49L294.669 184.49C295.688 182.798 296.732 181.119 297.78 179.434C297.843 179.333 297.906 179.231 297.969 179.13C299.079 177.345 300.192 175.553 301.274 173.741L301.274 173.741C301.992 172.535 302.654 171.263 303.305 170.013C303.645 169.359 303.982 168.712 304.322 168.083L304.934 169.433L305.508 167.511C306.07 165.626 306.205 164.013 305.418 162.859C304.619 161.687 303.088 161.298 301.196 161.255L280.671 192.279ZM304.714 167.324C304.714 167.324 304.714 167.325 304.713 167.326C304.714 167.325 304.714 167.324 304.714 167.324ZM303.969 167.355C303.968 167.354 303.968 167.354 303.968 167.353C303.968 167.353 303.968 167.354 303.969 167.355Z" fill="#FDFCF7" stroke="black" stroke-width="1.5"/>
<path d="M164.774 354.972L164.84 354.931L164.896 354.877L167.484 352.398L170.073 349.92L170.625 349.392L170.087 348.85C169.663 348.423 169.296 348.068 168.965 347.809C168.638 347.554 168.274 347.333 167.854 347.269C167.404 347.2 167.008 347.328 166.661 347.53C166.334 347.721 166.003 348.005 165.658 348.322L165.657 348.323C164.044 349.811 162.453 351.331 160.867 352.845C160.155 353.525 159.445 354.203 158.734 354.878L157.841 355.724L159.003 356.13C161.285 356.926 163.175 355.969 164.774 354.972Z" fill="#FDFCF7" stroke="black" stroke-width="1.5"/>
<path d="M279.376 191.203L279.109 192.264L278.66 192.414L279.048 193.188C279.648 194.383 280.246 195.581 280.844 196.779L280.844 196.78C281.443 197.978 282.041 199.177 282.642 200.374L282.681 200.452L282.736 200.519C282.901 200.716 283.073 200.935 283.253 201.163C283.662 201.682 284.109 202.249 284.592 202.723L284.592 202.724C287.245 205.326 291.162 205.434 293.999 203.039L293.999 203.038C295.991 201.354 297.542 199.3 298.235 196.658C298.402 196.025 298.57 195.391 298.739 194.755C298.907 194.12 299.076 193.485 299.243 192.85L299.256 192.798L299.262 192.745C299.912 187.139 300.736 181.682 302.867 176.476C303.687 174.477 304.235 172.326 304.767 170.237C305.004 169.307 305.238 168.389 305.491 167.502L305.567 167.239L305.455 166.989C305.32 166.689 305.14 166.363 304.863 166.168C304.699 166.053 304.477 165.965 304.218 165.991C303.971 166.015 303.789 166.132 303.676 166.231C303.475 166.405 303.352 166.646 303.292 166.766C303.241 166.867 303.215 166.925 303.195 166.97C303.174 167.014 303.16 167.046 303.133 167.096C302.719 167.854 302.329 168.604 301.943 169.346C301.304 170.575 300.676 171.783 299.967 172.973L299.967 172.973C298.788 174.953 297.588 176.881 296.383 178.816C295.377 180.433 294.368 182.054 293.365 183.715L293.365 183.716C291.708 186.465 289.422 188.633 286.783 190.464L286.783 190.465C285.554 191.32 284.099 191.58 282.56 191.186C282.089 191.064 281.605 190.956 281.091 190.841C280.827 190.781 280.555 190.721 280.273 190.655L279.556 190.489L279.376 191.203Z" fill="black" stroke="black" stroke-width="1.5"/>
<path d="M194.351 348.667L194.314 348.63L193.784 349.156C193.138 349.798 192.489 350.441 191.865 351.06C191.089 351.829 190.351 352.561 189.702 353.206C189.255 353.076 188.839 352.937 188.426 352.798C188.137 352.702 187.849 352.605 187.552 352.512C186.745 352.26 185.907 352.05 185.048 352.091L185.046 352.091C183.699 352.158 182.369 352.363 181.069 352.593C180.676 352.662 180.289 352.734 179.904 352.804C179 352.971 178.111 353.134 177.213 353.263C175.578 353.496 173.968 354.013 172.959 355.805L173.613 356.173M194.351 348.667L189.922 354.045C189.291 353.879 188.707 353.683 188.154 353.499C187.036 353.124 186.049 352.795 185.083 352.84C183.401 352.924 181.729 353.232 180.055 353.539C179.144 353.707 178.233 353.874 177.319 354.006C175.769 354.226 174.45 354.685 173.613 356.173M194.351 348.667C195.083 348.024 195.816 347.381 196.549 346.739L196.552 346.736L196.556 346.732C197.464 345.936 198.372 345.139 199.279 344.343L199.281 344.341C199.331 344.297 199.39 344.236 199.469 344.147C199.489 344.125 199.512 344.099 199.536 344.071C199.596 344.003 199.667 343.922 199.731 343.853C199.894 343.679 200.222 343.343 200.694 343.271C201.145 343.199 201.589 343.21 201.988 343.239C202.192 343.253 202.36 343.269 202.519 343.284C202.716 343.303 202.899 343.32 203.118 343.331L204.132 343.384L203.783 344.338C203.719 344.513 203.678 344.668 203.631 344.852C203.597 344.981 203.56 345.125 203.507 345.301C203.403 345.654 203.24 346.11 202.901 346.472L202.898 346.475C201.646 347.795 200.329 349.06 199.026 350.311C198.583 350.737 198.141 351.16 197.704 351.584L197.698 351.591L197.691 351.597C196.968 352.267 196.244 352.935 195.521 353.603L195.518 353.606C194.793 354.275 194.069 354.944 193.345 355.614M194.351 348.667L172.729 360.54M173.613 356.173C172.866 357.497 171.514 357.588 170.501 356.79C169.097 355.692 167.716 355.42 166.053 355.8C165.837 355.85 165.729 355.779 165.578 355.68C165.492 355.623 165.392 355.557 165.25 355.499C165.03 355.499 164.819 355.498 164.615 355.497C162.845 355.484 161.618 355.476 159.755 356.45C159.676 356.491 159.599 356.539 159.522 356.588C159.353 356.693 159.184 356.798 159.002 356.829C157.027 357.186 155.969 358.222 154.933 360.123C153.63 362.521 154.718 363.591 156.099 364.95L156.11 364.961M173.613 356.173L172.96 355.805C172.683 356.294 172.342 356.488 172.039 356.536C171.721 356.587 171.336 356.493 170.965 356.201L170.963 356.199C170.188 355.593 169.391 355.194 168.533 355.008C167.706 354.829 166.862 354.857 165.981 355.047M156.11 364.961L155.58 365.492C155.57 365.482 155.565 365.475 155.565 365.475C155.565 365.475 155.567 365.477 155.569 365.481M156.11 364.961L155.584 365.496C155.579 365.491 155.574 365.486 155.569 365.481M156.11 364.961C156.163 365.014 156.203 365.078 156.242 365.141C156.253 365.159 156.263 365.176 156.274 365.193C158.583 368.639 161.916 368.871 165.549 368.13M155.569 365.481C155.551 365.464 155.533 365.446 155.515 365.428C154.873 364.797 154.154 364.09 153.812 363.202C153.425 362.198 153.551 361.095 154.274 359.765L154.275 359.764C154.813 358.776 155.389 357.95 156.131 357.324C156.886 356.687 157.77 356.29 158.869 356.091L158.875 356.09M155.569 365.481C155.57 365.483 155.572 365.484 155.573 365.486C155.579 365.496 155.587 365.508 155.599 365.528L155.603 365.535C155.614 365.552 155.628 365.575 155.643 365.599L155.647 365.605L155.651 365.611C156.905 367.483 158.47 368.516 160.232 368.959C161.966 369.395 163.835 369.245 165.699 368.865M158.875 356.09C158.875 356.09 158.875 356.09 158.875 356.09C158.875 356.09 158.876 356.09 158.876 356.09L158.876 356.09L158.875 356.09ZM158.875 356.09C158.877 356.09 158.911 356.08 159.004 356.025C159.041 356.004 159.075 355.982 159.118 355.956C159.135 355.945 159.153 355.934 159.174 355.921C159.238 355.881 159.319 355.832 159.407 355.786C161.442 354.722 162.84 354.733 164.619 354.746C164.824 354.748 165.034 354.749 165.25 354.749H165.396L165.532 354.804C165.681 354.865 165.797 354.931 165.889 354.988C165.924 355.009 165.956 355.031 165.981 355.047M165.981 355.047C165.95 355.054 165.918 355.061 165.886 355.068L165.886 355.068L165.882 355.069C165.882 355.069 165.883 355.069 165.886 355.069C165.891 355.068 165.899 355.067 165.911 355.066C165.932 355.066 165.957 355.067 165.985 355.073C166.03 355.082 166.059 355.097 166.059 355.097C166.059 355.097 166.058 355.096 166.054 355.094C166.043 355.088 166.029 355.078 165.999 355.058L165.99 355.053C165.987 355.051 165.984 355.049 165.981 355.047ZM165.699 368.865L165.549 368.13M165.699 368.865C167.55 368.488 169.036 367.701 170.148 366.513C171.257 365.329 171.949 363.796 172.301 361.998L172.301 361.998C172.38 361.589 172.503 361.221 172.641 360.805C172.642 360.804 172.642 360.803 172.642 360.802M165.699 368.865C165.699 368.865 165.699 368.865 165.699 368.865L165.549 368.13M165.549 368.13C168.995 367.428 170.902 365.244 171.564 361.855C171.653 361.399 171.8 360.956 171.947 360.512C172.016 360.306 172.084 360.099 172.147 359.891M172.642 360.802C172.589 360.732 172.536 360.661 172.482 360.589L172.293 360.627L172.213 360.225C172.207 360.216 172.201 360.207 172.194 360.198L172.207 360.189L172.147 359.891M172.642 360.802C172.67 360.717 172.699 360.63 172.729 360.54M172.642 360.802C172.669 360.837 172.695 360.871 172.721 360.905C173.065 361.359 173.377 361.77 173.646 362.242L173.646 362.242C174.598 363.919 175.834 365.051 177.325 365.697C178.804 366.338 180.473 366.474 182.258 366.272M172.147 359.891L172.482 359.992L172.804 359.761M172.147 359.891L172.804 359.761M172.729 360.54L172.95 360.496L172.804 359.761M172.729 360.54L174.298 361.871M182.258 366.272C184.034 366.074 185.763 365.638 187.171 364.732C188.603 363.811 189.662 362.426 190.105 360.433L190.105 360.432C190.572 358.326 191.789 357.058 193.345 355.614M182.258 366.272L182.175 365.527M182.258 366.272C182.258 366.272 182.259 366.272 182.259 366.272L182.175 365.527M193.345 355.614C193.346 355.614 193.346 355.614 193.346 355.614L192.836 355.064M193.345 355.614L192.836 355.064M192.836 355.064C191.268 356.518 189.893 357.922 189.373 360.27M192.836 355.064C193.56 354.393 194.285 353.724 195.009 353.055C195.733 352.386 196.458 351.717 197.182 351.046C197.625 350.616 198.071 350.188 198.516 349.76C199.816 348.512 201.115 347.265 202.354 345.959C202.623 345.673 202.748 345.25 202.863 344.818C202.924 344.822 202.983 344.826 203.039 344.829L203.078 344.08L202.374 343.822C202.352 343.884 202.33 343.95 202.308 344.018C201.802 343.972 201.297 343.933 200.809 344.012L189.373 360.27M189.373 360.27C188.575 363.863 185.615 365.142 182.175 365.527M189.373 360.27L174.298 361.871M182.175 365.527C178.774 365.912 176.063 364.978 174.298 361.871M174.298 361.871C174.005 361.356 173.644 360.88 173.283 360.405C173.122 360.191 172.96 359.978 172.804 359.761M166.285 365.006C163.027 366.696 159.743 365.707 158.12 362.463L158.542 362.786L158.548 362.781L166.285 365.006ZM166.285 365.006C168.86 363.671 169.482 361.045 167.767 358.272L166.285 365.006ZM183.686 361.621L183.684 361.622C182.532 361.96 181.256 362.107 180.068 362.029C178.964 361.955 178.223 361.508 177.754 360.759C177.319 360.063 177.072 359.03 177.109 357.621C177.62 357.533 178.131 357.443 178.643 357.354C180.881 356.964 183.131 356.571 185.402 356.285C185.413 356.289 185.426 356.295 185.444 356.303C185.521 356.34 185.623 356.406 185.734 356.5C185.844 356.593 185.944 356.697 186.02 356.797C186.102 356.903 186.133 356.972 186.139 356.993L186.14 356.994C186.766 358.968 185.67 361.044 183.686 361.621ZM185.382 356.278C185.38 356.278 185.38 356.278 185.38 356.278L185.382 356.278ZM158.872 362.286C159.878 360.744 161.183 360.117 162.661 359.787C163.45 359.61 164.275 359.522 165.148 359.428C165.174 359.425 165.201 359.422 165.227 359.419C165.931 359.344 166.666 359.263 167.389 359.123C167.955 360.208 168.087 361.195 167.903 362.014C167.696 362.934 167.064 363.758 165.939 364.341L165.939 364.341C164.425 365.126 162.964 365.248 161.732 364.843C160.599 364.47 159.586 363.626 158.872 362.286Z" fill="#FDFCF7" stroke="black" stroke-width="1.5"/>
<path d="M343.486 304.862L342.602 305.331C341.812 305.751 341.246 306.224 340.911 306.772C340.587 307.301 340.437 307.967 340.594 308.871L339.15 309.257C339.106 309.135 339.05 308.996 338.989 308.845C338.834 308.458 338.648 307.995 338.547 307.554L338.547 307.554C337.659 303.666 334.566 301 330.738 300.886L330.737 300.886C330.45 300.878 330.172 300.865 329.902 300.852C328.372 300.78 327.117 300.721 325.945 301.562L325.508 300.952M343.486 304.862L335.69 298.277C333.507 296.691 331.381 295.989 329.299 296.337C327.229 296.683 325.374 298.04 323.663 300.196L322.938 301.109L324.069 301.39C324.128 301.405 324.209 301.433 324.326 301.478C324.353 301.488 324.382 301.499 324.413 301.511C324.502 301.546 324.608 301.587 324.704 301.62C324.833 301.665 325.007 301.719 325.188 301.739C325.355 301.758 325.665 301.765 325.948 301.56L325.508 300.952M343.486 304.862L342.787 304.145M343.486 304.862L342.787 304.145M325.508 300.952C325.398 301.032 325.211 300.998 324.999 300.928L340.009 307.22C340.083 307.543 340.195 307.819 340.328 308.148C340.4 308.326 340.478 308.518 340.56 308.743L339.855 309L339.116 309.129C339.01 308.519 339.005 307.953 339.093 307.429C339.093 307.429 339.093 307.429 339.093 307.429C339.117 307.288 339.148 307.149 339.186 307.014C338.118 303.019 334.83 300.257 330.76 300.137C330.502 300.129 330.243 300.116 329.983 300.103C328.457 300.026 326.909 299.947 325.508 300.952ZM342.787 304.145L342.781 304.139L342.754 304.111M342.787 304.145L342.754 304.111M342.754 304.111L342.724 304.087M342.754 304.111L342.724 304.087M342.724 304.087C342.026 303.505 341.328 302.903 340.624 302.297M342.724 304.087L340.624 302.297M340.624 302.297C339.027 300.921 337.403 299.521 335.69 298.277L340.624 302.297Z" fill="black" stroke="black" stroke-width="1.5"/>
<path d="M188.886 344.211C188.479 344.053 187.409 343.94 187.262 343.51C187.036 342.853 187.222 341.835 187.613 341.218C189.774 337.823 195.116 337.177 197.934 339.956C198.398 340.414 198.749 341.246 198.693 341.863C198.659 342.248 197.804 342.757 197.25 342.865C194.584 343.363 191.902 343.742 188.88 344.211H188.886Z" fill="black"/>
<path d="M196.152 329.753C196.181 327.687 197.403 327.359 198.574 327.161C199.955 326.923 201.291 327.059 202.422 328.961C200.153 329.249 198.32 329.481 196.152 329.753Z" fill="black"/>
<path d="M186.211 331.089C184.236 331.83 182.352 331.807 180.371 331.179C181.735 328.655 184.615 328.61 186.211 331.089Z" fill="black"/>
<path d="M175.692 356.342L176.27 356.243C176.962 356.126 177.66 356.004 178.364 355.881C180.628 355.486 182.947 355.081 185.277 354.79C185.6 354.75 185.896 354.856 186.095 354.952C186.313 355.056 186.521 355.201 186.704 355.355C187.045 355.643 187.427 356.077 187.573 356.542L175.692 356.342ZM175.692 356.342L175.647 356.926M175.692 356.342L175.647 356.926M175.647 356.926C175.506 358.798 175.755 360.386 176.487 361.556C177.243 362.765 178.452 363.424 179.973 363.526L179.973 363.526C181.345 363.617 182.796 363.441 184.107 363.062L184.108 363.062M175.647 356.926L184.108 363.062M184.108 363.062C186.911 362.247 188.452 359.31 187.574 356.542L184.108 363.062Z" fill="#FDFCF7" stroke="black" stroke-width="1.5"/>
<path d="M157.393 362.657L157.397 362.664C158.266 364.478 159.629 365.724 161.275 366.265C162.949 366.815 164.829 366.608 166.642 365.667C168.072 364.925 169.046 363.837 169.363 362.46C169.677 361.097 169.312 359.603 168.388 358.106L168.102 357.642L167.572 357.772C166.771 357.968 165.672 358.128 164.45 358.306L164.426 358.309C163.231 358.483 161.936 358.671 160.796 358.921C159.68 359.167 158.582 359.497 157.876 360.017C157.511 360.286 157.174 360.662 157.061 361.173C156.946 361.697 157.101 362.204 157.393 362.657Z" fill="#FDFCF7" stroke="black" stroke-width="1.5"/>
<path d="M195.242 214L160.387 218.73" stroke="black" stroke-width="2" stroke-linecap="round"/>
<path d="M204.387 236L145.117 267.641" stroke="black" stroke-width="2" stroke-linecap="round"/>
<path d="M374.931 350L385.668 378.817" stroke="black" stroke-width="2" stroke-linecap="round"/>
<path d="M380.586 342L397.906 352" stroke="black" stroke-width="2" stroke-linecap="round"/>
<path d="M89.9422 331.947L114.511 302.269C98.3861 294.375 87.6868 282.675 83.515 264.938C71.4165 271.053 60.1884 277.349 48.3205 283.939C57.1054 304.362 72.5325 318.481 89.9422 331.947ZM52.0131 285.131C52.0303 285.122 52.0475 285.113 52.0647 285.104C62.1486 279.657 71.7274 274.472 81.7272 269.083C86.2216 285.066 96.1587 295.766 110.09 303.24C103.015 311.744 96.3929 319.67 89.4585 327.926C74.2444 316.023 60.602 303.195 52.0647 285.104C52.063 285.1 52.0612 285.096 52.0595 285.093L52.0131 285.131Z" fill="black"/>
<path d="M52.0647 285.104C62.1486 279.657 71.7274 274.472 81.7272 269.083C86.2216 285.066 96.1587 295.766 110.09 303.24C103.015 311.744 96.3929 319.67 89.4585 327.926C74.2444 316.023 60.602 303.195 52.0647 285.104Z" fill="white"/>
<path d="M89.9422 331.947L90.3273 332.266L90.0189 332.638L89.6362 332.342L89.9422 331.947ZM114.511 302.269L114.73 301.82L115.3 302.099L114.896 302.588L114.511 302.269ZM83.515 264.938L83.2894 264.492L83.8563 264.205L84.0017 264.823L83.515 264.938ZM48.3205 283.939L47.8612 284.137L47.6826 283.722L48.0777 283.502L48.3205 283.939ZM52.0131 285.131L52.2508 285.571L51.6922 284.748L52.0131 285.131ZM81.7272 269.083L81.49 268.642L82.0395 268.346L82.2085 268.947L81.7272 269.083ZM110.09 303.24L110.327 302.8L110.866 303.089L110.475 303.56L110.09 303.24ZM89.4585 327.926L89.8414 328.248L89.5308 328.617L89.1504 328.32L89.4585 327.926ZM52.0595 285.093L51.7386 284.709L52.2353 284.293L52.5117 284.879L52.0595 285.093ZM89.557 331.628L114.125 301.95L114.896 302.588L90.3273 332.266L89.557 331.628ZM114.291 302.718C98.0532 294.769 87.2395 282.957 83.0283 265.052L84.0017 264.823C88.1341 282.393 98.7191 293.982 114.73 301.82L114.291 302.718ZM83.7405 265.384C71.6527 271.494 60.4342 277.785 48.5632 284.377L48.0777 283.502C59.9427 276.914 71.1803 270.612 83.2894 264.492L83.7405 265.384ZM48.7798 283.742C57.5122 304.043 72.8527 318.096 90.2481 331.551L89.6362 332.342C72.2123 318.865 56.6986 304.682 47.8612 284.137L48.7798 283.742ZM82.2085 268.947C86.6604 284.779 96.4946 295.379 110.327 302.8L109.854 303.681C95.8227 296.153 85.7828 285.352 81.2458 269.218L82.2085 268.947ZM110.475 303.56C103.399 312.065 96.7763 319.991 89.8414 328.248L89.0757 327.604C96.0095 319.349 102.631 311.424 109.706 302.92L110.475 303.56ZM52.3805 285.476L52.3341 285.515L51.6922 284.748L51.7386 284.709L52.3805 285.476ZM51.8271 284.664C61.9104 279.218 71.49 274.032 81.49 268.642L81.9644 269.523C71.9649 274.912 62.3867 280.097 52.3023 285.544L51.8271 284.664ZM89.1504 328.32C73.9169 316.402 60.2002 303.515 51.6125 285.317L52.5169 284.89C61.0038 302.875 74.5718 315.645 89.7666 327.532L89.1504 328.32ZM51.6125 285.317C51.6112 285.314 51.6089 285.309 51.6073 285.306L52.5117 284.879C52.5136 284.883 52.5148 284.886 52.5169 284.89L51.6125 285.317ZM51.7755 284.691C51.7928 284.682 51.8098 284.673 51.8271 284.664L52.3023 285.544C52.2852 285.553 52.2678 285.562 52.2508 285.571L51.7755 284.691Z" fill="white"/>
<path fill-rule="evenodd" clip-rule="evenodd" d="M331.854 482.575C331.19 482.209 330.516 481.838 329.827 481.459C330.528 479.817 331.224 478.264 331.896 476.764C333.272 473.695 334.55 470.844 335.573 467.895C338.567 459.216 339.309 450.154 340.051 441.081C340.093 440.567 340.135 440.053 340.177 439.538C340.346 437.525 340.066 435.5 339.357 433.608C338.648 431.716 337.528 430.006 336.078 428.599C330.145 422.136 322.573 418.564 314.296 416.374C308.601 414.66 302.675 413.838 296.729 413.939L278.008 449.872C289.803 447.829 299.281 451.247 306.333 460.654C313.072 469.67 316.593 479.418 312.688 490.772C320.747 489.729 333.39 486.285 335.517 484.587C334.306 483.926 333.098 483.26 331.854 482.575ZM345.271 455.625C344.86 451.598 344.208 447.599 343.315 443.651L342.6 443.926C341.373 456.561 339.541 469.034 332.733 480.783C336.665 481.814 340.039 482.707 343.768 483.698C343.936 482.387 344.113 481.146 344.284 479.955C344.654 477.366 344.992 475.007 345.127 472.647C345.46 466.979 345.508 461.298 345.271 455.625Z" fill="#99CD70"/>
<path d="M295.287 411.073C307.065 411.344 318.331 413.42 328.554 419.332C336.203 423.49 341.969 430.42 344.667 438.698C349.69 454.109 348.5 469.68 345.824 485.7L309.007 494.671C308.682 494.512 308.399 494.269 308.099 494.063C311.525 486.911 312.761 479.7 309.721 472.286C306.85 465.254 302.785 459.08 296.215 455.045C289.349 450.821 281.814 451.555 274.259 453.514C274.55 449.637 288.588 421.565 295.287 411.073ZM342.373 443.902C341.146 456.537 339.314 469.01 332.506 480.759C336.462 481.802 339.812 482.683 343.54 483.674C344.103 479.483 344.738 476.087 344.9 472.623C345.248 466.964 345.312 461.29 345.092 455.625C344.681 451.598 344.028 447.599 343.136 443.651L342.586 442.92L342.373 443.902ZM329.647 481.459C331.782 476.459 333.87 472.285 335.393 467.895C338.557 458.724 339.206 449.126 339.998 439.539C340.166 437.525 339.886 435.5 339.177 433.608C338.468 431.717 337.349 430.006 335.898 428.599C329.965 422.137 322.394 418.564 314.116 416.374C308.426 414.653 302.504 413.824 296.561 413.915L277.841 449.848C289.635 447.805 299.124 451.199 306.165 460.63C312.904 469.646 316.425 479.394 312.52 490.748C320.579 489.705 333.222 486.261 335.349 484.563C333.481 483.574 331.63 482.549 329.647 481.459Z" fill="black" stroke="#99CD70"/>
<path d="M329.649 481.459C331.631 482.549 333.482 483.574 335.338 484.587C333.212 486.285 320.568 489.729 312.51 490.772C316.415 479.418 312.893 469.67 306.155 460.654C299.102 451.247 289.624 447.829 277.83 449.872L296.55 413.939C302.497 413.839 308.423 414.66 314.117 416.374C322.395 418.564 329.966 422.137 335.9 428.599C337.35 430.006 338.47 431.716 339.179 433.608C339.888 435.5 340.168 437.525 339.999 439.539C339.207 449.126 338.559 458.724 335.395 467.895C333.871 472.285 331.783 476.459 329.649 481.459Z" fill="#99CD70"/>
<path d="M343.137 443.651C344.029 447.599 344.682 451.598 345.092 455.625C345.329 461.298 345.282 466.979 344.949 472.647C344.751 476.093 344.122 479.537 343.589 483.698C339.861 482.707 336.487 481.814 332.555 480.783C339.363 469.034 341.195 456.561 342.422 443.926L343.137 443.651Z" fill="#99CD70"/>
<defs>
<clipPath id="clip0_518_5181">
<rect width="556.345" height="264.923" fill="white" transform="translate(214.711 -102) rotate(30)"/>
</clipPath>
</defs>
</svg>
