<svg width="480" height="550" viewBox="0 0 480 550" fill="none" xmlns="http://www.w3.org/2000/svg">
<path d="M276.095 -71.1174C299.548 -62.9755 320.812 -51.5435 337.506 -33.0888C350.168 -19.812 357.265 -2.19023 357.339 16.1564C357.473 50.3125 344.7 78.0905 328.999 108.503L291.998 107.503L254.998 103.003C254.45 102.476 254.039 101.806 253.569 101.197C265.056 89.06 270.316 75.8381 268.998 59.0032C267.777 43.0432 262.577 28.3367 251.998 16.0032C240.95 3.10062 227.418 -0.554705 210.998 -1.49683C214.082 -9.08894 255.888 -54.3897 276.095 -71.1174ZM349.379 25.1171C338.767 49.6731 327.045 73.513 305.808 92.6917C313.071 97.3361 319.224 101.264 326.064 105.658C329.897 97.6129 333.362 91.2092 335.921 84.3645C340.27 73.2356 344.057 61.8958 347.27 50.3877C349.045 42.0442 350.315 33.6012 351.072 25.1047L350.44 23.2833L349.379 25.1171ZM299.621 92.2518C307.129 83.5987 314.01 76.5719 319.899 68.7468C332.162 52.39 339.655 33.5534 347.429 14.831C349.065 10.9011 349.81 6.65702 349.608 2.40469C349.406 -1.84764 348.263 -6.00221 346.262 -9.75937C338.527 -26.5516 325.642 -38.6019 310.45 -48.3363C300.145 -55.4588 288.8 -60.9431 276.818 -64.5944L216.083 -4.58403C241.062 -1.07497 257.909 11.8564 265.95 35.319C273.653 57.7518 274.428 79.5794 259.27 99.8378C276.11 102.944 303.696 104.191 309.058 102.156C305.948 98.9668 302.896 95.7168 299.621 92.2518Z" fill="black"/>
<path d="M69.2416 385.477L53.5936 350.271C71.25 347.021 84.7099 338.642 93.5136 322.689C103.513 331.842 112.625 340.934 122.274 350.483C108.304 367.778 89.6393 377.209 69.2416 385.477ZM118.397 350.634C110.142 342.654 102.305 335.064 94.1165 327.162C85.4756 341.339 73.0196 348.961 57.588 352.398C62.1057 362.496 66.3433 371.915 70.7924 381.736C88.6577 374.379 105.259 365.707 118.363 350.584L118.397 350.634Z" fill="black" stroke="white"/>
<path d="M157.053 164.745L137.745 189.553C131.913 185.009 126.686 180.363 120.903 176.587C115.121 172.812 107.979 172.331 100.503 171.344L109.76 139.186C128.25 142.657 142.781 152.763 157.053 164.745ZM111.493 141.937C108.891 150.981 106.286 159.95 103.854 168.389C110.163 170.45 116.569 171.649 122.059 174.507C127.55 177.365 132.354 181.994 137.51 185.911L153.627 165.069C140.901 154.504 127.786 145.722 111.493 141.937Z" fill="black"/>
<path d="M527.477 -9.34166C483.368 77.6868 425.764 150.428 332.595 189.581C346.56 212.219 364.925 230.997 366.83 260.587L228.081 144.875C299.123 91.215 340.942 21.6354 347.984 -68.3008L527.477 -9.34166Z" fill="black"/>
<path d="M521.999 5.00341C493.499 115.847 435.837 186.326 368.998 263.003C368.998 237.003 353.498 212.003 335.744 191.166C377.363 173.195 413.505 146.62 445.498 114.503C477.709 82.8753 496.976 42.2232 521.999 5.00341Z" fill="black"/>
<path d="M299.622 92.2525C302.896 95.7175 305.498 98.0029 309.498 101.503C304.136 103.538 276.071 102.986 259.231 99.8792C274.389 79.6208 273.614 57.7931 265.911 35.3603C257.831 11.9383 241.023 -1.03365 216.044 -4.54271L276.779 -64.553C288.773 -60.9181 300.131 -55.4474 310.45 -48.3356C325.643 -38.6012 338.528 -26.5508 346.262 -9.75863C348.264 -6.00146 350.296 -1.7494 350.498 2.50293C350.7 6.75526 349.635 10.5731 347.998 14.5029C340.224 33.2254 331.998 51.5029 319.899 68.7476C311.652 80.5029 308.998 84.0029 299.622 92.2525Z" fill="#99CD70"/>
<path fill-rule="evenodd" clip-rule="evenodd" d="M367.321 467.804C366.412 467.701 365.49 467.596 364.545 467.49C364.574 465.334 364.637 463.281 364.698 461.296C364.824 457.236 364.94 453.465 364.727 449.702C364.082 438.633 360.744 428.173 357.403 417.7C357.213 417.107 357.024 416.513 356.835 415.92C356.098 413.594 354.854 411.461 353.193 409.674C351.532 407.888 349.495 406.492 347.229 405.588C337.633 401.099 327.536 400.59 317.285 401.948C310.138 402.652 303.143 404.459 296.549 407.304L292.161 456.035C304.392 448.332 316.547 447.793 328.747 455.056C340.416 462.026 348.829 471.294 349.687 485.768C358.207 480.899 370.743 471.241 372.337 468.367C370.681 468.186 369.026 467.998 367.321 467.804ZM369.919 431.542C367.61 427.234 365.043 423.068 362.231 419.069L361.559 419.705C365.997 434.379 369.684 449.149 367.482 465.399C372.347 464.743 376.525 464.189 381.144 463.582C380.729 462.04 380.357 460.573 380 459.164C379.223 456.103 378.516 453.314 377.583 450.616C375.349 444.134 372.791 437.768 369.919 431.542Z" fill="#FDFCF7"/>
<path d="M293.822 404.687C307.099 399.576 320.635 396.715 334.768 398.618C345.221 399.746 354.845 404.834 361.664 412.837C374.356 427.738 380.184 445.673 384.56 464.793L347.57 491.734C347.135 491.706 346.707 491.565 346.276 491.472C346.815 481.911 344.881 473.29 338.078 466.409C331.64 459.875 324.263 454.849 315.071 453.364C305.463 451.803 297.385 456.085 289.85 461.746C288.391 457.282 291.164 419.483 293.822 404.687ZM361.494 419.704C365.931 434.377 369.619 449.147 367.417 465.397C372.314 464.744 376.46 464.187 381.079 463.58C379.781 458.641 378.929 454.557 377.517 450.614C375.304 444.135 372.768 437.77 369.918 431.545C367.609 427.236 365.042 423.071 362.23 419.072L361.28 418.508L361.494 419.704ZM364.546 467.493C364.632 460.928 365.044 455.308 364.728 449.704C364.046 438.009 360.358 426.993 356.836 415.923C356.098 413.597 354.855 411.464 353.193 409.677C351.532 407.891 349.495 406.495 347.229 405.591C337.633 401.101 327.536 400.593 317.286 401.951C310.141 402.645 303.147 404.441 296.551 407.275L292.164 456.006C304.395 448.303 316.552 447.731 328.75 455.027C340.419 461.997 348.832 471.264 349.69 485.738C358.21 480.869 370.745 471.212 372.34 468.338C369.799 468.092 367.261 467.798 364.546 467.493Z" fill="black" stroke="#FDFCF7"/>
<path d="M364.547 467.492C367.262 467.798 369.8 468.092 372.339 468.37C370.744 471.244 358.209 480.901 349.689 485.77C348.83 471.296 340.418 462.029 328.749 455.059C316.549 447.795 304.394 448.335 292.163 456.038L296.55 407.306C303.144 404.461 310.14 402.655 317.287 401.951C327.537 400.592 337.634 401.101 347.231 405.59C349.496 406.495 351.533 407.89 353.194 409.677C354.856 411.464 356.1 413.597 356.837 415.922C360.359 426.992 364.047 438.009 364.729 449.704C365.045 455.307 364.633 460.928 364.547 467.492Z" fill="#FDFCF7"/>
<path d="M362.233 419.072C365.044 423.071 367.611 427.236 369.92 431.544C372.793 437.77 375.35 444.136 377.584 450.618C378.947 454.558 379.828 458.693 381.146 463.584C376.527 464.191 372.348 464.746 367.484 465.401C369.685 449.152 365.998 434.381 361.561 419.708L362.233 419.072Z" fill="#FDFCF7"/>
<path d="M350 15C349.242 23.4965 348.499 37 345.498 50.5C342.902 62.1793 339.741 72.9999 333.007 84.4428C326.499 95.5 324.998 98.4999 316.499 106C312.999 102 308.999 97.9999 302.893 92.77C324.13 73.5913 340 40.5 350 15Z" fill="#99CD70"/>
<path d="M275.782 424.286L275.042 422.968L276.39 423.241L275.782 424.286Z" fill="white"/>
<path d="M111.494 141.932C127.824 145.704 140.901 154.488 153.678 165.062L137.561 185.917C132.405 182 127.642 177.443 122.11 174.513C116.579 171.583 110.264 170.454 103.905 168.395C106.287 159.958 108.892 150.989 111.494 141.932Z" fill="#99CD70"/>
<path d="M415.814 256.027L460.499 335.003" stroke="black" stroke-width="2" stroke-linecap="round"/>
<path d="M389.575 337.742L404 399.503" stroke="black" stroke-width="2" stroke-linecap="round"/>
<path d="M309.998 295.504L298.998 347.004" stroke="black" stroke-width="2" stroke-linecap="round"/>
<path d="M229.012 299.65L185 375.654" stroke="black" stroke-width="2" stroke-linecap="round"/>
<path d="M147.509 211.333L90 229.476" stroke="black" stroke-width="2" stroke-linecap="round"/>
<path d="M173.5 217.438L65 268.182" stroke="black" stroke-width="2" stroke-linecap="round"/>
<path d="M203.762 233.351C203.824 229.927 203.877 226.681 203.958 223.434C203.97 223.052 204.073 222.618 204.277 222.307C205.984 219.739 207.588 217.085 209.485 214.657C212.745 210.474 216.917 207.308 221.528 204.716C222.056 204.417 222.68 204.152 223.273 204.125C226.367 203.973 229.461 203.896 232.681 203.79C235.657 215.816 238.621 227.791 241.559 239.68C241.448 239.858 241.415 239.938 241.361 239.992C241.307 240.041 241.224 240.105 241.16 240.098C228.775 237.871 216.397 235.634 203.761 233.356L203.762 233.351ZM226.448 213.724C222.503 218.04 218.725 222.173 214.73 226.544C222.765 230.279 230.523 233.876 238.359 237.306L238.644 236.914C234.625 229.272 230.605 221.631 226.448 213.724ZM206.609 231.986L206.708 232.498C215.832 234.168 224.961 235.844 234.085 237.514L234.223 237.071C227.39 233.929 220.553 230.787 213.586 227.58C211.244 229.058 208.927 230.519 206.609 231.986ZM227.26 212.583C230.942 219.572 234.547 226.411 238.156 233.25L238.618 233.088C237.513 228.678 236.42 224.26 235.292 219.856C234.15 215.411 233.204 210.908 231.694 206.049C230.048 208.478 228.726 210.426 227.259 212.588L227.26 212.583ZM211.215 219.209C212.168 221.316 213.029 223.232 214.004 225.392C217.795 221.169 221.374 217.186 225.193 212.931C222.736 212.167 220.642 211.514 218.502 210.846C216.043 213.664 213.704 216.349 211.21 219.203L211.215 219.209ZM210.113 220.227C208.84 221.119 207.6 221.93 206.433 222.838C206.039 223.148 205.62 223.692 205.592 224.157C205.452 226.369 205.442 228.586 205.383 230.966C208.045 229.195 210.382 227.635 212.807 226.017C212.136 224.481 211.414 222.821 210.681 221.164C210.557 220.885 210.364 220.629 210.113 220.227ZM230.374 205.659C230.059 205.412 230.001 205.325 229.94 205.329C228.838 205.346 227.734 205.373 226.635 205.401C223.871 205.474 221.717 206.639 220.172 208.898C220.087 209.021 220.055 209.182 219.903 209.558C222.005 210.223 224.081 210.884 226.229 211.564C226.723 210.922 227.168 210.384 227.56 209.813C228.496 208.459 229.402 207.088 230.368 205.664L230.374 205.659ZM218.645 208.158C214.681 210.29 209.14 216.293 207.778 219.769C210.229 218.265 216.628 211.509 218.645 208.158Z" fill="black"/>
<path d="M175.305 454.224C176.143 455.279 176.91 456.31 177.756 457.273C178.045 457.598 178.538 457.932 178.942 457.932C180.864 457.938 182.783 457.831 184.846 457.758C183.174 455.546 181.702 453.605 180.176 451.591C178.881 452.251 177.482 452.963 176.086 453.684C175.851 453.805 175.64 453.986 175.305 454.224Z" fill="black"/>
<path d="M185.665 456.644L186.103 456.532C187.073 448.547 188.047 440.559 189.017 432.574L188.627 432.478C186.264 438.556 183.9 444.638 181.488 450.834C182.889 452.785 184.275 454.714 185.665 456.644Z" fill="black"/>
<path d="M168.824 440.424C172.766 443.614 176.54 446.669 180.531 449.899C183.345 442.749 186.055 435.847 188.615 428.886L188.261 428.66L188.252 428.665C181.85 432.541 175.449 436.416 168.824 440.424Z" fill="black"/>
<path d="M174.366 453.324C176.14 452.389 177.753 451.544 179.572 450.587C175.72 447.526 172.085 444.635 168.203 441.552C167.67 443.719 167.214 445.565 166.748 447.452C169.315 449.433 171.761 451.318 174.361 453.327L174.366 453.324Z" fill="black"/>
<path d="M164.414 447.468C166.465 450.788 171.95 455.271 175.03 456.268C173.6 454.226 167.419 449.039 164.414 447.468Z" fill="black"/>
<path d="M161.64 437.446C161.442 437.732 161.37 437.787 161.376 437.839C161.448 438.792 161.529 439.747 161.611 440.697C161.818 443.085 162.939 444.889 164.974 446.108C165.086 446.175 165.227 446.195 165.56 446.306C166.026 444.452 166.49 442.621 166.967 440.726C166.385 440.333 165.896 439.975 165.382 439.666C164.161 438.926 162.927 438.213 161.644 437.452L161.64 437.446Z" fill="black"/>
<path d="M167.796 439.78C173.653 436.229 179.384 432.753 185.115 429.273L184.951 428.881C181.191 430.068 177.424 431.244 173.671 432.45C169.883 433.67 166.036 434.723 161.908 436.284C164.095 437.582 165.85 438.623 167.796 439.78Z" fill="black"/>
<path d="M256.295 381.656C260.24 382.73 263.615 383.65 266.995 384.577L267.072 385.123C263.536 386.499 260.006 387.87 256.356 389.286C256.353 393.026 256.358 396.616 256.357 400.21L255.766 400.514L249.179 392.014C245.298 393.417 241.798 394.678 237.498 396.233C240.003 392.524 242.104 389.406 244.344 386.085L237.705 377.518L238.021 376.898C241.568 377.792 245.114 378.685 248.901 379.642C251.223 376.401 253.498 373.225 256.104 369.582C256.176 373.965 256.235 377.772 256.295 381.656ZM253.741 395.012L254.386 394.704C254.432 392.469 254.475 390.244 254.519 388.106C256.795 387.187 258.85 386.354 261.486 385.291C258.733 384.504 256.607 383.893 254.476 383.277C254.422 380.926 254.374 378.83 254.309 376.056C252.579 378.386 251.255 380.162 249.956 381.908C247.552 382.128 245.481 380.274 242.587 380.979L246.714 386.304C245.373 388.343 244.205 390.122 242.732 392.35C245.403 391.519 247.601 390.834 249.94 390.107L253.746 395.018L253.741 395.012Z" fill="black"/>
<path d="M253.751 395.007L249.945 390.096C247.606 390.823 245.408 391.508 242.737 392.338C244.206 390.105 245.378 388.332 246.719 386.293L242.592 380.968C245.486 380.263 247.563 382.112 249.961 381.897C251.266 380.146 252.584 378.375 254.314 376.045C254.377 378.83 254.426 380.925 254.481 383.266C256.618 383.877 258.737 384.493 261.49 385.28C258.855 386.343 256.8 387.176 254.524 388.094C254.48 390.233 254.441 392.463 254.391 394.693L253.746 395.001L253.751 395.007Z" fill="#99CD70"/>
<path d="M386.906 302.072C385.652 305.881 384.461 309.502 383.165 313.437C380.2 310.75 377.434 308.241 374.571 305.65C375.655 301.728 376.733 297.821 377.901 293.59C380.972 296.482 383.893 299.234 386.903 302.073L386.906 302.072ZM385.739 302.263C383.285 299.924 380.973 297.726 378.452 295.324C377.465 298.801 376.574 301.949 375.665 305.155C377.958 307.241 380.185 309.267 382.58 311.448C383.672 308.273 384.681 305.347 385.739 302.263Z" fill="black"/>
<path d="M385.739 302.263C383.285 299.924 380.973 297.726 378.452 295.324C377.465 298.801 376.574 301.949 375.665 305.155C377.958 307.241 380.185 309.267 382.58 311.448C383.672 308.273 384.681 305.347 385.739 302.263Z" fill="black"/>
</svg>
