<svg width="398" height="405" viewBox="0 0 398 405" fill="none" xmlns="http://www.w3.org/2000/svg">
<path d="M215.946 62.9865C228.988 63.052 241.607 60.4216 249.651 57.7987C226.249 67.8962 205.23 69.2185 197.646 68.6174H41.3338L51.922 63.208L215.946 62.9865Z" fill="black"/>
<path d="M392.666 27.506L381.29 38.8658C369.011 47.1602 340.552 68.4011 324.951 87.0094L317.791 95.6644L314.658 99.451C313.875 98.9819 312.529 98.2281 310.866 97.3836C308.694 96.2802 305.982 95.0221 303.282 94.0416C299.385 93.3261 293.996 92.5395 287.572 91.8669C281.359 91.2164 274.179 90.6724 266.445 90.4021C249.93 89.8249 230.89 90.4956 213.356 94.0416C244.559 85.3866 293.892 83.5834 314.658 83.7638C332.427 67.7519 374.067 39.587 392.666 27.506Z" fill="black"/>
<path d="M381.29 106.483V116.22L213.356 181.133V187.083V189.788H28.6279V174.101L197.646 173.56V170.314L381.29 106.483Z" fill="black"/>
<path d="M381.29 404H213.356V255.783V253.078V243.882V204.934V197.361V189.788V187.083L381.29 122.17V133.53V145.431V198.443V404Z" fill="#FBFFE1"/>
<path d="M28.6279 189.788H213.356V197.361V204.934V243.882V253.078V255.783V404H28.6279V264.979V257.946V231.981V197.361V189.788Z" fill="#FBFFE1"/>
<path d="M213.356 181.133L381.29 116.22V122.17L213.356 187.083V181.133Z" fill="#FBFFE1"/>
<path d="M397 99.451L381.29 106.483L197.646 170.314V167.068V158.954V140.021L310.866 97.3836C312.529 98.2281 313.875 98.9819 314.658 99.451L317.791 95.6644L397 65.9128V78.3544V85.9275V92.6893V99.451Z" fill="#FBFFE1"/>
<path d="M303.282 94.0416L213.356 127.58V118.384V109.188L266.445 90.4021C274.179 90.6724 281.359 91.2164 287.572 91.8669C293.996 92.5395 299.385 93.3261 303.282 94.0416Z" fill="#FBFFE1"/>
<path d="M1 140.021L8.58414 135.694H1L28.6279 122.17V127.58H213.356L303.282 94.0416C305.982 95.0221 308.694 96.2802 310.866 97.3836L197.646 140.021H1Z" fill="#FBFFE1"/>
<path d="M213.356 118.384V127.58H28.6279V122.17V117.302V107.024V84.3047V77.5429H213.356V81.0591V84.3047V87.5503V90.796V94.0416V95.6644V101.615V109.188V118.384Z" fill="#FBFFE1"/>
<path d="M213.356 94.0416C230.89 90.4956 249.93 89.8249 266.445 90.4021L213.356 109.188V101.615V95.6644V94.0416Z" fill="#FBFFE1"/>
<path d="M381.29 27.506H392.666C374.067 39.587 332.427 67.7519 314.658 83.7638C293.892 83.5834 244.559 85.3866 213.356 94.0416L381.29 27.506Z" fill="#FBFFE1"/>
<path d="M381.29 1V2.08188V7.49127V15.0644V27.506L213.356 94.0416V90.796V87.5503V84.3047V81.0591V77.5429V74.0268L231.503 65.9128L249.651 57.7987L381.29 1Z" fill="#FBFFE1"/>
<path d="M197.646 1H381.29L249.651 57.7987C241.607 60.4216 228.988 63.052 215.946 62.9865C200.299 62.908 184.043 58.9486 174.352 46.4389H98.2674L197.646 1Z" fill="#FBFFE1"/>
<path d="M51.922 63.208C44.1573 61.0443 28.6279 54.9858 28.6279 48.0617L98.2674 46.4389H174.352C184.043 58.9486 200.299 62.908 215.946 62.9865L51.922 63.208Z" fill="#FBFFE1"/>
<path d="M213.356 74.0268H30.7456L41.3338 68.6174H197.646C205.23 69.2185 226.249 67.8962 249.651 57.7987L231.503 65.9128L213.356 74.0268Z" fill="#FBFFE1"/>
<path d="M28.6279 75.1087L30.7456 74.0268H213.356V77.5429H28.6279V75.1087Z" fill="#FBFFE1"/>
<path d="M381.29 65.9128L324.951 87.0094C340.552 68.4011 369.011 47.1602 381.29 38.8658V47.2503V55.6349V65.9128Z" fill="#FBFFE1"/>
<path d="M381.29 65.9128H397L317.791 95.6644L324.951 87.0094L381.29 65.9128Z" fill="#FBFFE1"/>
<path d="M28.6279 174.101H1V167.068V156.791V146.513V140.021H197.646V158.954V167.068V170.314V173.56L28.6279 174.101Z" fill="#FBFFE1"/>
<path d="M392.666 27.506V26.756H394.479L393.196 28.0368L392.666 27.506ZM397 65.9128V65.1628H397.75V65.9128H397ZM397 99.451H397.75V99.937L397.306 100.136L397 99.451ZM381.29 404H382.04V404.75H381.29V404ZM213.356 181.133H212.606V180.619L213.085 180.433L213.356 181.133ZM28.6279 404V404.75H27.8779V404H28.6279ZM1 174.101V174.851H0.25V174.101H1ZM1 140.021H0.25V139.586L0.628296 139.37L1 140.021ZM8.58414 135.694V134.944H11.4119L8.95584 136.345L8.58414 135.694ZM1 135.694V136.444L0.670258 135.02L1 135.694ZM28.6279 75.1087H27.8779V74.6497L28.2867 74.4408L28.6279 75.1087ZM28.6279 48.0617H27.8779V47.329L28.6104 47.3119L28.6279 48.0617ZM197.646 1L197.334 0.317917L197.482 0.25H197.646V1ZM381.29 1V0.25H382.04V1H381.29ZM174.352 46.4389V45.6889H174.719L174.944 45.9796L174.352 46.4389ZM231.503 65.9128L231.197 65.2281L231.503 65.9128ZM197.646 68.6174V67.8674H197.675L197.705 67.8698L197.646 68.6174ZM213.356 127.58L213.618 128.283L213.491 128.33H213.356V127.58ZM303.282 94.0416L303.417 93.3039L303.479 93.3153L303.538 93.3366L303.282 94.0416ZM324.951 87.0094L324.373 86.5313L324.376 86.5275L324.951 87.0094ZM314.658 99.451L315.236 99.9291L314.825 100.425L314.273 100.094L314.658 99.451ZM314.658 83.7638L315.16 84.3209L314.943 84.5163L314.651 84.5137L314.658 83.7638ZM266.445 90.4021L266.471 89.6526L266.445 90.4021ZM317.791 95.6644L317.213 95.1863L317.791 95.6644ZM197.646 173.56H198.396V174.307L197.648 174.31L197.646 173.56ZM28.6279 127.58V128.33H27.8779V127.58H28.6279ZM381.29 26.756H392.666V28.256H381.29V26.756ZM393.196 28.0368L381.82 39.3965L380.76 38.3351L392.136 26.9753L393.196 28.0368ZM381.29 65.1628H397V66.6628H381.29V65.1628ZM397.306 100.136L381.596 107.168L380.984 105.799L396.694 98.7665L397.306 100.136ZM381.29 404.75H213.356V403.25H381.29V404.75ZM382.04 106.483V116.22H380.54V106.483H382.04ZM213.085 180.433L381.02 115.521L381.56 116.92L213.626 181.832L213.085 180.433ZM382.04 116.22V122.17H380.54V116.22H382.04ZM212.606 187.083V181.133H214.106V187.083H212.606ZM381.56 122.87L213.626 187.783L213.085 186.384L381.02 121.471L381.56 122.87ZM212.606 189.788V187.083H214.106V189.788H212.606ZM213.356 190.538H28.6279V189.038H213.356V190.538ZM28.6279 403.25H213.356V404.75H28.6279V403.25ZM27.8779 189.788V174.101H29.3779V189.788H27.8779ZM28.6279 174.851H1V173.351H28.6279V174.851ZM0.628296 139.37L8.21243 135.043L8.95584 136.345L1.3717 140.673L0.628296 139.37ZM8.58414 136.444H1V134.944H8.58414V136.444ZM0.670258 135.02L28.2982 121.497L28.9576 122.844L1.32974 136.368L0.670258 135.02ZM51.7207 63.9305C47.8027 62.8387 41.9218 60.7644 37.0037 58.0782C34.5467 56.7363 32.294 55.2223 30.6457 53.5758C29.0067 51.9387 27.8779 50.0811 27.8779 48.0617H29.3779C29.3779 49.5044 30.1902 51.0007 31.7057 52.5145C33.2119 54.019 35.3268 55.4531 37.7227 56.7618C42.5105 59.3768 48.2766 61.4136 52.1234 62.4856L51.7207 63.9305ZM28.6104 47.3119L98.2499 45.6891L98.2849 47.1887L28.6454 48.8115L28.6104 47.3119ZM197.646 0.25H381.29V1.75H197.646V0.25ZM382.04 1V2.08188H380.54V1H382.04ZM381.587 1.68863L249.948 58.4873L249.354 57.11L380.993 0.311367L381.587 1.68863ZM97.9555 45.7568L197.334 0.317917L197.958 1.68208L98.5793 47.121L97.9555 45.7568ZM174.352 47.1889H98.2674V45.6889H174.352V47.1889ZM249.884 58.5117C241.775 61.1556 229.076 63.8024 215.943 63.7365L215.95 62.2365C228.899 62.3015 241.438 59.6876 249.419 57.0856L249.884 58.5117ZM215.943 63.7365C200.211 63.6576 183.662 59.681 173.759 46.8982L174.944 45.9796C184.424 58.2162 200.387 62.1585 215.95 62.2365L215.943 63.7365ZM51.921 62.458L215.945 62.2365L215.947 63.7365L51.923 63.958L51.921 62.458ZM28.2867 74.4408L30.4044 73.359L31.0868 74.6947L28.9691 75.7766L28.2867 74.4408ZM213.356 74.7768H30.7456V73.2768H213.356V74.7768ZM249.957 58.4833L231.81 66.5974L231.197 65.2281L249.345 57.114L249.957 58.4833ZM231.81 66.5974L213.662 74.7115L213.05 73.3422L231.197 65.2281L231.81 66.5974ZM30.4044 73.359L40.9926 67.9496L41.675 69.2853L31.0868 74.6947L30.4044 73.359ZM40.9926 67.9496L51.5808 62.5402L52.2632 63.8759L41.675 69.2853L40.9926 67.9496ZM41.3338 67.8674H197.646V69.3674H41.3338V67.8674ZM197.705 67.8698C205.167 68.4611 226.063 67.1594 249.354 57.11L249.948 58.4873C226.434 68.633 205.293 69.9759 197.586 69.3651L197.705 67.8698ZM382.04 2.08188V7.49127H380.54V2.08188H382.04ZM381.595 8.17636L311.171 39.5509L310.561 38.1807L380.985 6.80619L381.595 8.17636ZM305.748 41.7174L213.655 81.7469L213.057 80.3712L305.15 40.3417L305.748 41.7174ZM213.094 126.877L303.02 93.3389L303.544 94.7443L213.618 128.283L213.094 126.877ZM381.553 66.6151L325.214 87.7118L324.688 86.307L381.027 65.2104L381.553 66.6151ZM382.04 55.6349V65.9128H380.54V55.6349H382.04ZM381.608 56.3142L365.898 63.6658L365.262 62.3072L380.972 54.9556L381.608 56.3142ZM360.473 66.5957L354.514 69.3004L353.894 67.9345L359.853 65.2298L360.473 66.5957ZM382.04 38.8658V47.2503H380.54V38.8658H382.04ZM382.04 47.2503V55.6349H380.54V47.2503H382.04ZM381.567 47.9474L360.439 56.332L359.886 54.9378L381.013 46.5532L381.567 47.9474ZM381.71 39.4873C369.442 47.7742 341.057 68.9671 325.525 87.4913L324.376 86.5275C340.048 67.835 368.58 46.5462 380.87 38.2443L381.71 39.4873ZM213.051 86.865L268.307 62.3012L268.916 63.6719L213.66 88.2357L213.051 86.865ZM273.726 59.817L292.145 51.7029L292.75 53.0756L274.331 61.1897L273.726 59.817ZM301.371 47.3681L310.581 43.5815L311.151 44.9688L301.942 48.7554L301.371 47.3681ZM382.04 7.49127V15.0644H380.54V7.49127H382.04ZM382.04 15.0644V27.506H380.54V15.0644H382.04ZM326.277 38.178L380.991 14.3767L381.589 15.7522L326.875 39.5535L326.277 38.178ZM393.075 28.135C374.466 40.2222 332.877 68.3556 315.16 84.3209L314.156 83.2066C331.976 67.1483 373.668 38.9519 392.258 26.8771L393.075 28.135ZM314.651 84.5137C293.895 84.3335 244.651 86.1392 213.556 94.7643L213.155 93.3189C244.466 84.6339 293.889 82.8334 314.665 83.0138L314.651 84.5137ZM213.079 93.3443L381.014 26.8088L381.566 28.2033L213.632 94.7389L213.079 93.3443ZM303.146 94.7793C299.272 94.0678 293.902 93.2838 287.494 92.6128L287.65 91.121C294.09 91.7952 299.499 92.5843 303.417 93.3039L303.146 94.7793ZM287.796 92.5827L270.46 98.0031L270.013 96.5714L287.348 91.1511L287.796 92.5827ZM251.423 105.596L243.297 107.219L243.004 105.748L251.129 104.125L251.423 105.596ZM214.106 118.384V127.58H212.606V118.384H214.106ZM236.925 109.886L213.631 119.081L213.08 117.686L236.374 108.49L236.925 109.886ZM214.106 109.188V118.384H212.606V109.188H214.106ZM287.494 92.6128C281.297 91.964 274.134 91.4213 266.418 91.1517L266.471 89.6526C274.224 89.9235 281.421 90.4688 287.65 91.121L287.494 92.6128ZM266.418 91.1517C249.937 90.5757 230.961 91.2464 213.504 94.7767L213.207 93.3065C230.819 89.7447 249.922 89.0742 266.471 89.6526L266.418 91.1517ZM213.105 108.481L266.194 89.6951L266.695 91.1092L213.606 109.895L213.105 108.481ZM214.106 101.615V109.188H212.606V101.615H214.106ZM213.122 100.902L231.27 94.9518L231.737 96.3771L213.589 102.327L213.122 100.902ZM325.529 87.4875L318.368 96.1425L317.213 95.1863L324.373 86.5313L325.529 87.4875ZM318.368 96.1425L315.236 99.9291L314.08 98.9729L317.213 95.1863L318.368 96.1425ZM397.264 66.6149L318.054 96.3665L317.527 94.9623L396.736 65.2106L397.264 66.6149ZM314.273 100.094C313.507 99.6356 312.176 98.8902 310.526 98.0522L311.206 96.7149C312.881 97.566 314.243 98.3282 315.043 98.8076L314.273 100.094ZM310.526 98.0522C308.371 96.9572 305.688 95.7132 303.026 94.7466L303.538 93.3366C306.276 94.3309 309.017 95.6032 311.206 96.7149L310.526 98.0522ZM311.13 98.0854L197.91 140.723L197.381 139.32L310.602 96.6817L311.13 98.0854ZM197.399 169.606L381.044 105.775L381.536 107.192L197.892 171.023L197.399 169.606ZM397.75 65.9128V78.3544H396.25V65.9128H397.75ZM397.254 79.0601L315.995 108.271L315.488 106.859L396.746 77.6486L397.254 79.0601ZM308.977 110.966L298.143 115.294L297.586 113.901L308.421 109.573L308.977 110.966ZM285.126 119.086L267.791 125.578L267.265 124.173L284.6 117.682L285.126 119.086ZM198.396 140.021V158.954H196.896V140.021H198.396ZM298.12 123.417L197.901 159.66L197.391 158.249L297.61 122.006L298.12 123.417ZM397.75 78.3544V85.9275H396.25V78.3544H397.75ZM397.249 86.6349L369.621 96.3718L369.123 94.9571L396.751 85.2202L397.249 86.6349ZM363.64 98.0983L357.14 100.166L356.685 98.7363L363.186 96.6688L363.64 98.0983ZM352.838 109.351L342.545 113.137L342.027 111.73L352.32 107.943L352.838 109.351ZM397.75 85.9275V92.6893H396.25V85.9275H397.75ZM397.75 92.6893V99.451H396.25V92.6893H397.75ZM397.258 93.3935L389.132 96.3687L388.616 94.9601L396.742 91.985L397.258 93.3935ZM384.777 97.9989L381.527 99.0807L381.053 97.6575L384.303 96.5756L384.777 97.9989ZM382.04 122.17V133.53H380.54V122.17H382.04ZM381.604 134.211L360.477 143.948L359.849 142.586L380.976 132.849L381.604 134.211ZM351.235 147.208L331.191 155.322L330.628 153.932L350.672 145.818L351.235 147.208ZM382.04 133.53V145.431H380.54V133.53H382.04ZM381.562 146.13L339.849 162.358L339.305 160.96L381.018 144.732L381.562 146.13ZM333.355 165.06L325.229 168.306L324.673 166.913L332.798 163.667L333.355 165.06ZM318.079 160.188L308.987 163.974L308.411 162.59L317.502 158.803L318.079 160.188ZM295.935 168.321L291.059 169.944L290.585 168.521L295.461 166.898L295.935 168.321ZM275.366 175.888L248.28 185.625L247.772 184.214L274.858 174.477L275.366 175.888ZM237.985 187.79L230.401 190.494L229.897 189.081L237.481 186.377L237.985 187.79ZM340.913 177.512L239.611 213.754L239.106 212.342L340.408 176.099L340.913 177.512ZM283.486 182.923L252.608 193.741L252.112 192.326L282.99 181.507L283.486 182.923ZM245.608 195.889L235.315 200.216L234.734 198.833L245.027 194.506L245.608 195.889ZM382.04 145.431V198.443H380.54V145.431H382.04ZM382.04 198.443V404H380.54V198.443H382.04ZM381.625 199.114L362.123 208.851L361.453 207.509L380.955 197.772L381.625 199.114ZM356.139 211.567L344.221 216.977L343.601 215.611L355.519 210.202L356.139 211.567ZM254.244 228.898L243.951 232.685L243.433 231.277L253.726 227.491L254.244 228.898ZM239.634 234.302L213.631 244.579L213.08 243.184L239.083 232.907L239.634 234.302ZM212.606 404V255.783H214.106V404H212.606ZM235.303 247.824L213.634 256.479L213.077 255.086L234.746 246.431L235.303 247.824ZM212.606 197.361V189.788H214.106V197.361H212.606ZM213.356 198.111H135.889V196.611H213.356V198.111ZM123.43 198.111H102.844V196.611H123.43V198.111ZM97.9685 198.111H85.5089V196.611H97.9685V198.111ZM67.632 198.111H64.3817V196.611H67.632V198.111ZM29.3779 189.788V197.361H27.8779V189.788H29.3779ZM60.0479 198.111H28.6279V196.611H60.0479V198.111ZM212.606 243.882V204.934H214.106V243.882H212.606ZM212.606 204.934V197.361H214.106V204.934H212.606ZM213.356 205.684H149.432V204.184H213.356V205.684ZM193.854 217.585H183.019V216.085H193.854V217.585ZM161.35 217.585H115.304V216.085H161.35V217.585ZM92.5513 210.553H60.0479V209.053H92.5513V210.553ZM101.761 220.831H74.6744V219.331H101.761V220.831ZM29.3779 197.361V231.981H27.8779V197.361H29.3779ZM88.7592 232.731H28.6279V231.231H88.7592V232.731ZM186.811 232.731H155.391V231.231H186.811V232.731ZM144.557 231.649H139.681V230.149H144.557V231.649ZM125.596 226.781H116.929V225.281H125.596V226.781ZM115.304 212.175H107.178V210.675H115.304V212.175ZM139.681 207.848H129.93V206.348H139.681V207.848ZM110.428 245.714H79.0082V244.214H110.428V245.714ZM69.7989 247.878H62.7565V246.378H69.7989V247.878ZM29.3779 231.981V257.946H27.8779V231.981H29.3779ZM61.673 258.696H28.6279V257.196H61.673V258.696ZM29.3779 257.946V264.979H27.8779V257.946H29.3779ZM29.3779 264.979V404H27.8779V264.979H29.3779ZM42.171 265.729H28.6279V264.229H42.171V265.729ZM110.428 258.696H94.7182V257.196H110.428V258.696ZM110.428 264.647H101.761V263.147H110.428V264.647ZM158.1 258.696H145.64V257.196H158.1V258.696ZM212.606 255.783V253.078H214.106V255.783H212.606ZM212.606 253.078V243.882H214.106V253.078H212.606ZM213.356 253.828H165.142V252.328H213.356V253.828ZM213.356 244.632H121.804V243.132H213.356V244.632ZM198.396 170.314V173.56H196.896V170.314H198.396ZM197.648 174.31L28.6303 174.851L28.6255 173.351L197.643 172.81L197.648 174.31ZM198.396 158.954V167.068H196.896V158.954H198.396ZM198.396 167.068V170.314H196.896V167.068H198.396ZM197.646 167.818H139.681V166.318H197.646V167.818ZM133.181 167.818H51.922V166.318H133.181V167.818ZM42.171 167.818H12.9179V166.318H42.171V167.818ZM0.25 174.101V167.068H1.75V174.101H0.25ZM7.50067 167.818H1V166.318H7.50067V167.818ZM197.646 159.704H175.435V158.204H197.646V159.704ZM161.35 157.541H39.4624V156.041H161.35V157.541ZM28.6279 157.541H16.71V156.041H28.6279V157.541ZM0.25 167.068V156.791H1.75V167.068H0.25ZM8.58414 157.541H1V156.041H8.58414V157.541ZM186.811 152.672H16.71V151.172H186.811V152.672ZM189.52 147.263H161.35V145.763H189.52V147.263ZM142.39 147.263H132.097V145.763H142.39V147.263ZM110.428 147.263H76.8413V145.763H110.428V147.263ZM0.25 156.791V146.513H1.75V156.791H0.25ZM0.25 146.513V140.021H1.75V146.513H0.25ZM69.7989 147.263H1V145.763H69.7989V147.263ZM197.646 140.771H1V139.271H197.646V140.771ZM213.356 128.33H28.6279V126.83H213.356V128.33ZM27.8779 127.58V122.17H29.3779V127.58H27.8779ZM206.313 119.134H200.896V117.634H206.313V119.134ZM193.854 116.429H53.5472V114.929H193.854V116.429ZM27.8779 122.17V117.302H29.3779V122.17H27.8779ZM41.3338 118.052H28.6279V116.552H41.3338V118.052ZM213.356 109.938H86.5923V108.438H213.356V109.938ZM79.0082 109.938H53.5472V108.438H79.0082V109.938ZM27.8779 117.302V107.024H29.3779V117.302H27.8779ZM46.5048 107.774H28.6279V106.274H46.5048V107.774ZM214.106 94.0416V95.6644H212.606V94.0416H214.106ZM214.106 95.6644V101.615H212.606V95.6644H214.106ZM213.356 96.4144H171.643V94.9144H213.356V96.4144ZM214.106 87.5503V90.796H212.606V87.5503H214.106ZM214.106 90.796V94.0416H212.606V90.796H214.106ZM213.356 91.546H155.391V90.046H213.356V91.546ZM214.106 81.0591V84.3047H212.606V81.0591H214.106ZM214.106 84.3047V87.5503H212.606V84.3047H214.106ZM213.356 85.0547H139.681V83.5547H213.356V85.0547ZM135.889 85.0547H129.93V83.5547H135.889V85.0547ZM125.596 85.0547H121.804V83.5547H125.596V85.0547ZM116.929 85.0547H74.6744V83.5547H116.929V85.0547ZM27.8779 107.024V84.3047H29.3779V107.024H27.8779ZM64.3817 85.0547H28.6279V83.5547H64.3817V85.0547ZM214.106 74.0268V77.5429H212.606V74.0268H214.106ZM214.106 77.5429V81.0591H212.606V77.5429H214.106ZM27.8779 84.3047V77.5429H29.3779V84.3047H27.8779ZM27.8779 77.5429V75.1087H29.3779V77.5429H27.8779ZM213.356 78.2929H28.6279V76.7929H213.356V78.2929ZM46.5048 210.553H41.3338V209.053H46.5048V210.553ZM53.5472 220.831H48.6717V219.331H53.5472V220.831ZM100.135 234.354H94.7182V232.854H100.135V234.354Z" fill="black"/>
</svg>
