<svg width="269" height="274" viewBox="0 0 269 274" fill="none" xmlns="http://www.w3.org/2000/svg">
<path d="M123.074 42.8371C114.281 42.8812 105.773 41.1059 100.349 39.3356C116.128 46.1508 130.3 47.0433 135.413 46.6376H240.805L233.666 42.9866L123.074 42.8371Z" fill="black"/>
<path d="M3.92202 18.8899L11.5923 26.557C19.8714 32.1553 39.0594 46.4915 49.5787 59.051L54.4063 64.8926L56.5185 67.4483C57.0464 67.1317 57.9542 66.6229 59.0752 66.0529C60.5398 65.3083 62.3682 64.4591 64.1888 63.7973C66.8159 63.3144 70.4496 62.7835 74.7811 62.3295C78.9699 61.8905 83.8112 61.5233 89.026 61.3409C100.161 60.9513 112.999 61.404 124.821 63.7973C103.782 57.9557 70.5198 56.7387 56.5185 56.8604C44.5382 46.0534 16.4624 27.0438 3.92202 18.8899Z" fill="black"/>
<path d="M11.5923 72.1946V78.7664L124.821 122.579V126.595V128.42H249.372V117.832L135.413 117.467V115.277L11.5923 72.1946Z" fill="black"/>
<path d="M11.5923 273H124.821V172.962V171.137V164.93V138.643V133.532V128.42V126.595L11.5923 82.7826V90.4497V98.4819V134.262V273Z" fill="#EDF8AC"/>
<path d="M249.372 128.42H124.821V133.532V138.643V164.93V171.137V172.962V273H249.372V179.169V174.423V156.898V133.532V128.42Z" fill="#EDF8AC"/>
<path d="M124.821 122.579L11.5923 78.7664V82.7826L124.821 126.595V122.579Z" fill="#EDF8AC"/>
<path d="M1 67.4483L11.5923 72.1946L135.413 115.277V113.086V107.609V94.8309L59.0752 66.0529C57.9542 66.6229 57.0464 67.1317 56.5185 67.4483L54.4063 64.8926L1 44.8121V53.2094V58.3208V62.8846V67.4483Z" fill="#EDF8AC"/>
<path d="M64.1888 63.7973L124.821 86.4336V80.2269V74.0201L89.026 61.3409C83.8112 61.5233 78.9699 61.8905 74.7811 62.3295C70.4496 62.7835 66.8159 63.3144 64.1888 63.7973Z" fill="#EDF8AC"/>
<path d="M268 94.8309L262.886 91.9101H268L249.372 82.7826V86.4336H124.821L64.1888 63.7973C62.3682 64.4591 60.5398 65.3083 59.0752 66.0529L135.413 94.8309H268Z" fill="#EDF8AC"/>
<path d="M124.821 80.2269V86.4336H249.372V82.7826V79.4967V72.5597V57.2255V52.6618H124.821V55.0349V57.2255V59.4161V61.6067V63.7973V64.8926V68.9087V74.0201V80.2269Z" fill="#EDF8AC"/>
<path d="M124.821 63.7973C112.999 61.404 100.161 60.9513 89.026 61.3409L124.821 74.0201V68.9087V64.8926V63.7973Z" fill="#EDF8AC"/>
<path d="M11.5923 18.8899H3.92202C16.4624 27.0438 44.5382 46.0534 56.5185 56.8604C70.5198 56.7387 103.782 57.9557 124.821 63.7973L11.5923 18.8899Z" fill="#EDF8AC"/>
<path d="M11.5923 1V1.7302V5.38121V10.4926V18.8899L124.821 63.7973V61.6067V59.4161V57.2255V55.0349V52.6618V50.2886L112.585 44.8121L100.349 39.3356L11.5923 1Z" fill="#EDF8AC"/>
<path d="M135.413 1H11.5923L100.349 39.3356C105.773 41.1059 114.281 42.8812 123.074 42.8371C133.624 42.7841 144.585 40.1117 151.119 31.6685H202.418L135.413 1Z" fill="#EDF8AC"/>
<path d="M233.666 42.9866C238.901 41.5262 249.372 37.437 249.372 32.7638L202.418 31.6685H151.119C144.585 40.1117 133.624 42.7841 123.074 42.8371L233.666 42.9866Z" fill="#EDF8AC"/>
<path d="M124.821 50.2886H247.944L240.805 46.6376H135.413C130.3 47.0433 116.128 46.1508 100.349 39.3356L112.585 44.8121L124.821 50.2886Z" fill="#EDF8AC"/>
<path d="M249.372 51.0188L247.944 50.2886H124.821V52.6618H249.372V51.0188Z" fill="#EDF8AC"/>
<path d="M11.5923 44.8121L49.5787 59.051C39.0594 46.4915 19.8714 32.1553 11.5923 26.557V32.2161V37.8752V44.8121Z" fill="#EDF8AC"/>
<path d="M11.5923 44.8121H1L54.4063 64.8926L49.5787 59.051L11.5923 44.8121Z" fill="#EDF8AC"/>
<path d="M249.372 117.832H268V113.086V106.149V99.2121V94.8309H135.413V107.609V113.086V115.277V117.467L249.372 117.832Z" fill="#EDF8AC"/>
<path d="M3.92202 18.8899V18.1399H2.11083L3.39181 19.4204L3.92202 18.8899ZM1 44.8121V44.0621H0.25V44.8121H1ZM1 67.4483H0.25V67.9341L0.693315 68.1328L1 67.4483ZM11.5923 273H10.8423V273.75H11.5923V273ZM124.821 122.579H125.571V122.065L125.091 121.879L124.821 122.579ZM249.372 273V273.75H250.122V273H249.372ZM268 117.832V118.582H268.75V117.832H268ZM268 94.8309H268.75V94.3955L268.372 94.1796L268 94.8309ZM262.886 91.9101V91.1601H260.061L262.514 92.5613L262.886 91.9101ZM268 91.9101V92.6601L268.33 91.2366L268 91.9101ZM249.372 51.0188H250.122V50.56L249.714 50.351L249.372 51.0188ZM249.372 32.7638H250.122V32.0311L249.39 32.014L249.372 32.7638ZM135.413 1L135.725 0.318039L135.577 0.25H135.413V1ZM11.5923 1V0.25H10.8423V1H11.5923ZM151.119 31.6685V30.9185H150.751L150.526 31.2094L151.119 31.6685ZM112.585 44.8121L112.278 45.4966L112.585 44.8121ZM135.413 46.6376V45.8876H135.383L135.354 45.8899L135.413 46.6376ZM124.821 86.4336L124.558 87.1362L124.685 87.1836H124.821V86.4336ZM64.1888 63.7973L64.0532 63.0597L63.9915 63.071L63.9326 63.0924L64.1888 63.7973ZM49.5787 59.051L50.1568 58.5732L50.1536 58.5694L49.5787 59.051ZM56.5185 67.4483L55.9403 67.9261L56.3512 68.4232L56.9042 68.0915L56.5185 67.4483ZM56.5185 56.8604L56.0161 57.4173L56.233 57.6129L56.525 57.6104L56.5185 56.8604ZM74.7811 62.3295L74.7029 61.5836L74.7811 62.3295ZM54.4063 64.8926L54.9845 64.4148L54.4063 64.8926ZM135.413 117.467H134.663V118.215L135.411 118.217L135.413 117.467ZM249.372 86.4336V87.1836H250.122V86.4336H249.372ZM11.5923 18.1399H3.92202V19.6399H11.5923V18.1399ZM3.39181 19.4204L11.0621 27.0875L12.1226 26.0266L4.45224 18.3595L3.39181 19.4204ZM11.5923 44.0621H1V45.5621H11.5923V44.0621ZM0.693315 68.1328L11.2857 72.8791L11.899 71.5102L1.30669 66.7639L0.693315 68.1328ZM11.5923 273.75H124.821V272.25H11.5923V273.75ZM10.8423 72.1946V78.7664H12.3423V72.1946H10.8423ZM125.091 121.879L11.863 78.067L11.3217 79.4659L124.55 123.278L125.091 121.879ZM10.8423 78.7664V82.7826H12.3423V78.7664H10.8423ZM125.571 126.595V122.579H124.071V126.595H125.571ZM11.3217 83.482L124.55 127.294L125.091 125.895L11.863 82.0831L11.3217 83.482ZM125.571 128.42V126.595H124.071V128.42H125.571ZM124.821 129.17H249.372V127.67H124.821V129.17ZM249.372 272.25H124.821V273.75H249.372V272.25ZM250.122 128.42V117.832H248.622V128.42H250.122ZM249.372 118.582H268V117.082H249.372V118.582ZM268.372 94.1796L263.258 91.2588L262.514 92.5613L267.628 95.4821L268.372 94.1796ZM262.886 92.6601H268V91.1601H262.886V92.6601ZM268.33 91.2366L249.702 82.1091L249.042 83.456L267.67 92.5836L268.33 91.2366ZM233.868 43.709C236.521 42.9688 240.505 41.5627 243.842 39.7381C245.509 38.8269 247.05 37.792 248.185 36.6576C249.31 35.5325 250.122 34.2201 250.122 32.7638H248.622C248.622 33.6441 248.126 34.5953 247.124 35.5969C246.132 36.5892 244.728 37.5441 243.123 38.4219C239.916 40.1753 236.047 41.5439 233.465 42.2642L233.868 43.709ZM249.39 32.014L202.436 30.9187L202.401 32.4183L249.355 33.5136L249.39 32.014ZM135.413 0.25H11.5923V1.75H135.413V0.25ZM10.8423 1V1.7302H12.3423V1H10.8423ZM11.295 1.68852L100.051 40.0241L100.646 38.647L11.8897 0.311478L11.295 1.68852ZM202.73 30.9865L135.725 0.318039L135.101 1.68196L202.106 32.3504L202.73 30.9865ZM151.119 32.4185H202.418V30.9185H151.119V32.4185ZM100.116 40.0486C105.604 41.8398 114.193 43.6317 123.078 43.5871L123.07 42.0871C114.369 42.1308 105.941 40.3719 100.582 38.6226L100.116 40.0486ZM123.078 43.5871C133.713 43.5337 144.966 40.844 151.712 32.1275L150.526 31.2094C144.203 39.3795 133.536 42.0345 123.07 42.0871L123.078 43.5871ZM233.667 42.2366L123.075 42.0871L123.073 43.5871L233.665 43.7366L233.667 42.2366ZM249.714 50.351L248.286 49.6208L247.603 50.9563L249.031 51.6865L249.714 50.351ZM124.821 51.0386H247.944V49.5386H124.821V51.0386ZM100.042 40.0201L112.278 45.4966L112.891 44.1275L100.655 38.651L100.042 40.0201ZM112.278 45.4966L124.514 50.9732L125.127 49.604L112.891 44.1275L112.278 45.4966ZM248.286 49.6208L241.147 45.9698L240.464 47.3053L247.603 50.9563L248.286 49.6208ZM241.147 45.9698L234.008 42.3188L233.325 43.6543L240.464 47.3053L241.147 45.9698ZM240.805 45.8876H135.413V47.3876H240.805V45.8876ZM135.354 45.8899C130.363 46.2859 116.313 45.414 100.646 38.647L100.051 40.0241C115.942 46.8875 130.236 47.8006 135.472 47.3852L135.354 45.8899ZM10.8423 1.7302V5.38121H12.3423V1.7302H10.8423ZM11.2869 6.06618L58.7698 27.242L59.3807 25.8721L11.8978 4.69624L11.2869 6.06618ZM62.4285 28.7052L124.522 55.7226L125.12 54.3472L63.027 27.3297L62.4285 28.7052ZM125.083 85.7309L64.4511 63.0947L63.9265 64.4999L124.558 87.1362L125.083 85.7309ZM11.3291 45.5144L49.3154 59.7533L49.8419 58.3487L11.8556 44.1098L11.3291 45.5144ZM10.8423 37.8752V44.8121H12.3423V37.8752H10.8423ZM11.2742 38.5543L21.8665 43.5162L22.5028 42.1579L11.9105 37.196L11.2742 38.5543ZM25.527 45.4949L29.5447 47.3204L30.1652 45.9548L26.1475 44.1293L25.527 45.4949ZM10.8423 26.557V32.2161H12.3423V26.557H10.8423ZM10.8423 32.2161V37.8752H12.3423V32.2161H10.8423ZM11.3154 32.9131L25.5603 38.5722L26.1141 37.1782L11.8692 31.5191L11.3154 32.9131ZM11.1722 27.1783C19.4402 32.769 38.555 47.0574 49.0037 59.5326L50.1536 58.5694C39.5638 45.9257 20.3026 31.5415 12.0125 25.9358L11.1722 27.1783ZM125.126 58.7309L87.8699 42.1519L87.26 43.5223L124.516 60.1013L125.126 58.7309ZM84.2151 40.4748L71.7965 34.9983L71.1912 36.3708L83.6098 41.8473L84.2151 40.4748ZM65.57 32.0702L59.3607 29.5145L58.7898 30.9016L64.9991 33.4573L65.57 32.0702ZM10.8423 5.38121V10.4926H12.3423V5.38121H10.8423ZM10.8423 10.4926V18.8899H12.3423V10.4926H10.8423ZM48.7823 25.8694L11.8918 9.80499L11.2929 11.1802L48.1835 27.2447L48.7823 25.8694ZM3.51319 19.5187C16.0631 27.6788 44.0874 46.6568 56.0161 57.4173L57.0208 56.3035C44.9889 45.45 16.8617 26.4089 4.33086 18.2612L3.51319 19.5187ZM56.525 57.6104C70.5171 57.4888 103.69 58.7084 124.62 64.52L125.021 63.0747C103.875 57.203 70.5225 55.9887 56.5119 56.1104L56.525 57.6104ZM125.097 63.1001L11.8688 18.1928L11.3158 19.5871L124.544 64.4945L125.097 63.1001ZM64.3244 64.535C66.9291 64.0561 70.5433 63.5278 74.8593 63.0754L74.7029 61.5836C70.3558 62.0392 66.7026 62.5726 64.0532 63.0597L64.3244 64.535ZM74.5571 63.0453L86.2452 66.7037L86.6933 65.2722L75.0052 61.6138L74.5571 63.0453ZM99.106 71.8348L104.585 72.9301L104.879 71.4592L99.4001 70.3639L99.106 71.8348ZM124.071 80.2269V86.4336H125.571V80.2269H124.071ZM108.839 74.7176L124.545 80.9244L125.096 79.5293L109.391 73.3226L108.839 74.7176ZM124.071 74.0201V80.2269H125.571V74.0201H124.071ZM74.8593 63.0754C79.032 62.6381 83.856 62.2722 89.0522 62.0904L88.9998 60.5914C83.7664 60.7744 78.9077 61.1429 74.7029 61.5836L74.8593 63.0754ZM89.0522 62.0904C100.154 61.7021 112.928 62.1548 124.672 64.5324L124.97 63.0622C113.07 60.6531 100.169 60.2006 88.9998 60.5914L89.0522 62.0904ZM125.071 73.3132L89.2764 60.6339L88.7756 62.0479L124.57 74.7271L125.071 73.3132ZM124.071 68.9087V74.0201H125.571V68.9087H124.071ZM125.055 68.1961L112.819 64.18L112.351 65.6052L124.587 69.6213L125.055 68.1961ZM49.0005 59.5288L53.8282 65.3704L54.9845 64.4148L50.1568 58.5732L49.0005 59.5288ZM53.8282 65.3704L55.9403 67.9261L57.0966 66.9706L54.9845 64.4148L53.8282 65.3704ZM0.736045 45.5141L54.1424 65.5946L54.6703 64.1906L1.26395 44.1101L0.736045 45.5141ZM56.9042 68.0915C57.4148 67.7853 58.3071 67.2849 59.4152 66.7215L58.7353 65.3844C57.6013 65.961 56.6779 66.4782 56.1327 66.8051L56.9042 68.0915ZM59.4152 66.7215C60.8633 65.9851 62.6625 65.1501 64.445 64.5022L63.9326 63.0924C62.0739 63.768 60.2162 64.6314 58.7353 65.3844L59.4152 66.7215ZM58.8107 66.7547L135.149 95.5327L135.678 94.1291L59.3398 65.3511L58.8107 66.7547ZM135.66 114.568L11.8388 71.4863L11.3459 72.903L135.167 115.985L135.66 114.568ZM0.25 44.8121V53.2094H1.75V44.8121H0.25ZM0.746054 53.9151L55.534 73.6305L56.0419 72.2191L1.25395 52.5037L0.746054 53.9151ZM60.2578 75.4467L67.5629 78.3675L68.1198 76.9747L60.8147 74.0539L60.2578 75.4467ZM76.3441 80.9291L88.0322 85.3103L88.5587 83.9058L76.8706 79.5246L76.3441 80.9291ZM134.663 94.8309V107.609H136.163V94.8309H134.663ZM67.586 83.8529L135.158 108.315L135.668 106.904L68.0966 82.4424L67.586 83.8529ZM0.25 53.2094V58.3208H1.75V53.2094H0.25ZM0.750478 59.0281L19.3784 65.5999L19.8774 64.1853L1.24952 57.6135L0.750478 59.0281ZM23.4182 66.7676L27.8012 68.163L28.2562 66.7337L23.8732 65.3383L23.4182 66.7676ZM30.6916 74.3588L37.6314 76.9145L38.1497 75.507L31.2099 72.9512L30.6916 74.3588ZM0.25 58.3208V62.8846H1.75V58.3208H0.25ZM0.25 62.8846V67.4483H1.75V62.8846H0.25ZM0.741904 63.5888L6.2207 65.5968L6.73689 64.1884L1.2581 62.1804L0.741904 63.5888ZM9.16374 66.6995L11.3553 67.4297L11.8294 66.0066L9.6379 65.2764L9.16374 66.6995ZM10.8423 82.7826V90.4497H12.3423V82.7826H10.8423ZM11.2782 91.1307L25.523 97.7025L26.1514 96.3405L11.9065 89.7686L11.2782 91.1307ZM31.7648 99.9072L45.2792 105.384L45.8426 103.993L32.3282 98.517L31.7648 99.9072ZM10.8423 90.4497V98.4819H12.3423V90.4497H10.8423ZM11.3202 99.1807L39.4447 110.134L39.989 108.736L11.8645 97.783L11.3202 99.1807ZM43.8214 111.957L49.3002 114.147L49.8571 112.755L44.3783 110.564L43.8214 111.957ZM54.1177 108.667L60.2476 111.222L60.8249 109.838L54.695 107.282L54.1177 108.667ZM69.0652 114.163L72.3525 115.258L72.8267 113.835L69.5394 112.739L69.0652 114.163ZM82.928 119.268L101.191 125.84L101.699 124.429L83.4359 117.857L82.928 119.268ZM108.132 127.301L113.246 129.126L113.75 127.714L108.637 125.888L108.132 127.301ZM38.7334 120.364L107.036 144.826L107.542 143.413L39.2392 118.952L38.7334 120.364ZM77.4549 124.016L98.2743 131.318L98.7708 129.903L77.9514 122.601L77.4549 124.016ZM102.98 132.762L109.92 135.683L110.502 134.301L103.562 131.38L102.98 132.762ZM10.8423 98.4819V134.262H12.3423V98.4819H10.8423ZM10.8423 134.262V273H12.3423V134.262H10.8423ZM11.257 134.933L24.4062 141.504L25.0767 140.163L11.9276 133.591L11.257 134.933ZM28.449 143.342L36.4846 146.993L37.105 145.627L29.0695 141.976L28.449 143.342ZM97.1676 155.046L104.107 157.602L104.626 156.194L97.686 153.638L97.1676 155.046ZM107.013 158.691L124.545 165.628L125.097 164.233L107.565 157.296L107.013 158.691ZM125.571 273V172.962H124.071V273H125.571ZM109.932 167.817L124.542 173.659L125.099 172.266L110.489 166.424L109.932 167.817ZM125.571 133.532V128.42H124.071V133.532H125.571ZM124.821 134.282H177.052V132.782H124.821V134.282ZM185.453 134.282H199.332V132.782H185.453V134.282ZM202.62 134.282H211.021V132.782H202.62V134.282ZM223.074 134.282H225.265V132.782H223.074V134.282ZM248.622 128.42V133.532H250.122V128.42H248.622ZM228.187 134.282H249.372V132.782H228.187V134.282ZM125.571 164.93V138.643H124.071V164.93H125.571ZM125.571 138.643V133.532H124.071V138.643H125.571ZM124.821 139.393H167.921V137.893H124.821V139.393ZM137.97 147.425H145.275V145.925H137.97V147.425ZM159.885 147.425H190.932V145.925H159.885V147.425ZM206.272 142.679H228.187V141.179H206.272V142.679ZM200.063 149.616H218.326V148.116H200.063V149.616ZM248.622 133.532V156.898H250.122V133.532H248.622ZM208.829 157.648H249.372V156.148H208.829V157.648ZM142.718 157.648H163.903V156.148H142.718V157.648ZM171.208 156.918H174.495V155.418H171.208V156.918ZM183.992 153.632H189.836V152.132H183.992V153.632ZM190.932 143.774H196.41V142.274H190.932V143.774ZM174.495 140.853H181.07V139.353H174.495V140.853ZM194.219 166.41H215.404V164.91H194.219V166.41ZM221.613 167.871H226.361V166.371H221.613V167.871ZM248.622 156.898V174.423H250.122V156.898H248.622ZM227.092 175.173H249.372V173.673H227.092V175.173ZM248.622 174.423V179.169H250.122V174.423H248.622ZM248.622 179.169V273H250.122V179.169H248.622ZM240.241 179.919H249.372V178.419H240.241V179.919ZM194.219 175.173H204.811V173.673H194.219V175.173ZM194.219 179.189H200.063V177.689H194.219V179.189ZM162.077 175.173H170.477V173.673H162.077V175.173ZM125.571 172.962V171.137H124.071V172.962H125.571ZM125.571 171.137V164.93H124.071V171.137H125.571ZM124.821 171.887H157.328V170.387H124.821V171.887ZM124.821 165.68H186.549V164.18H124.821V165.68ZM134.663 115.277V117.467H136.163V115.277H134.663ZM135.411 118.217L249.37 118.582L249.374 117.082L135.416 116.717L135.411 118.217ZM134.663 107.609V113.086H136.163V107.609H134.663ZM134.663 113.086V115.277H136.163V113.086H134.663ZM135.413 113.836H174.495V112.336H135.413V113.836ZM178.878 113.836H233.666V112.336H178.878V113.836ZM240.241 113.836H259.964V112.336H240.241V113.836ZM268.75 117.832V113.086H267.25V117.832H268.75ZM263.617 113.836H268V112.336H263.617V113.836ZM135.413 108.359H150.389V106.859H135.413V108.359ZM159.885 106.899H242.067V105.399H159.885V106.899ZM249.372 106.899H257.408V105.399H249.372V106.899ZM268.75 113.086V106.149H267.25V113.086H268.75ZM262.886 106.899H268V105.399H262.886V106.899ZM142.718 103.613H257.408V102.113H142.718V103.613ZM140.892 99.9621H159.885V98.4621H140.892V99.9621ZM172.669 99.9621H179.609V98.4621H172.669V99.9621ZM194.219 99.9621H216.865V98.4621H194.219V99.9621ZM268.75 106.149V99.2121H267.25V106.149H268.75ZM268.75 99.2121V94.8309H267.25V99.2121H268.75ZM221.613 99.9621H268V98.4621H221.613V99.9621ZM135.413 95.5809H268V94.0809H135.413V95.5809ZM124.821 87.1836H249.372V85.6836H124.821V87.1836ZM250.122 86.4336V82.7826H248.622V86.4336H250.122ZM129.569 80.9769H133.222V79.4769H129.569V80.9769ZM137.97 79.1513H232.57V77.6513H137.97V79.1513ZM250.122 82.7826V79.4967H248.622V82.7826H250.122ZM240.805 80.2467H249.372V78.7467H240.805V80.2467ZM124.821 74.7701H210.29V73.2701H124.821V74.7701ZM215.404 74.7701H232.57V73.2701H215.404V74.7701ZM250.122 79.4967V72.5597H248.622V79.4967H250.122ZM237.319 73.3097H249.372V71.8097H237.319V73.3097ZM124.071 63.7973V64.8926H125.571V63.7973H124.071ZM124.071 64.8926V68.9087H125.571V64.8926H124.071ZM124.821 65.6426H152.945V64.1426H124.821V65.6426ZM124.071 59.4161V61.6067H125.571V59.4161H124.071ZM124.071 61.6067V63.7973H125.571V61.6067H124.071ZM124.821 62.3567H163.903V60.8567H124.821V62.3567ZM124.071 55.0349V57.2255H125.571V55.0349H124.071ZM124.071 57.2255V59.4161H125.571V57.2255H124.071ZM124.821 57.9755H174.495V56.4755H124.821V57.9755ZM177.052 57.9755H181.07V56.4755H177.052V57.9755ZM183.992 57.9755H186.549V56.4755H183.992V57.9755ZM189.836 57.9755H218.326V56.4755H189.836V57.9755ZM250.122 72.5597V57.2255H248.622V72.5597H250.122ZM225.265 57.9755H249.372V56.4755H225.265V57.9755ZM124.071 50.2886V52.6618H125.571V50.2886H124.071ZM124.071 52.6618V55.0349H125.571V52.6618H124.071ZM250.122 57.2255V52.6618H248.622V57.2255H250.122ZM250.122 52.6618V51.0188H248.622V52.6618H250.122ZM124.821 53.4118H249.372V51.9118H124.821V53.4118ZM237.319 142.679H240.805V141.179H237.319V142.679ZM232.57 149.616H235.858V148.116H232.57V149.616ZM201.159 158.743H204.811V157.243H201.159V158.743Z" fill="black"/>
</svg>
