<svg width="259" height="305" viewBox="0 0 259 305" fill="none" xmlns="http://www.w3.org/2000/svg">
<path d="M237.1 11.8442V9.79012V17.4815H35.5918V13.0864L50.6274 11.8442H237.1Z" fill="#EDF8AC"/>
<path d="M56.8432 65.0947C123.827 56.3045 204.925 63.6296 237.1 68.3909C197.003 65.7051 102.694 62.4576 46.2399 70.9547C44.5038 65.583 39.9436 54.6198 35.5918 53.7407C43.7462 54.6198 53.1571 61.6763 56.8432 65.0947Z" fill="black"/>
<path d="M29.4207 81.5761C54.7713 80.5994 108.763 78.6461 121.926 78.6461C96.941 79.6228 44.9236 82.8214 36.7334 87.8025C33.2233 86.3375 31.127 85.4828 30.5176 85.2387L26.4957 87.8025L9.31091 78.6461V69.4897L29.4207 81.5761Z" fill="black"/>
<path d="M237.1 53.7407H35.5918V46.0494V42.2037V38.358V32.4979V21.8765V17.4815H237.1V22.9753V29.9342V38.358V46.0494V53.7407Z" fill="#EDF8AC"/>
<path d="M237.1 53.7407C244.047 57.1591 257.941 65.7539 257.941 72.786C252.701 70.4664 241.195 66.3399 237.1 68.3909C204.925 63.6296 123.827 56.3045 56.8432 65.0947C53.1571 61.6763 43.7462 54.6198 35.5918 53.7407H237.1Z" fill="#EDF8AC"/>
<path d="M121.926 78.6461C135.089 78.6461 69.8543 76.9369 35.5918 76.0823V64.9115V59.3261V53.7407C39.9436 54.6198 44.5038 65.583 46.2399 70.9547C102.694 62.4576 197.003 65.7051 237.1 68.3909V78.6461V85.2387V90.7325V96.2263V102.453V135.049V140.543V186.325V191.819V197.313V203.539V218.556V224.049V229.543V235.77V304.626H36.7334V229.543V224.049V197.313V191.819V146.77V140.543V135.049V129.556V119.667V108.679V96.2263V90.7325V87.8025C44.9236 82.8214 96.941 79.6228 121.926 78.6461Z" fill="#EDF8AC"/>
<path d="M9.31091 61.0658L35.5918 76.0823C69.8543 76.9369 135.089 78.6461 121.926 78.6461C108.763 78.6461 54.7713 80.5994 29.4207 81.5761L9.31091 69.4897L1.99826 65.0947L9.31091 61.0658Z" fill="#EDF8AC"/>
<path d="M30.5176 85.2387C31.127 85.4828 33.2233 86.3375 36.7334 87.8025V90.7325V96.2263V108.679V119.667L9.31091 104.65V78.6461L26.4957 87.8025L30.5176 85.2387Z" fill="#EDF8AC"/>
<path d="M36.7334 119.667V129.556V135.049V140.543V146.77V191.819V197.313V224.049V229.543V304.626H9.31091V104.65L36.7334 119.667Z" fill="#EDF8AC"/>
<path d="M9.31091 1L35.5918 13.0864V17.4815V21.8765V32.4979V38.358V42.2037V46.0494V53.7407V59.3261V64.9115V76.0823L9.31091 61.0658V50.4444V38.358V1Z" fill="#EDF8AC"/>
<path d="M35.5918 13.0864L9.31091 1H22.4514L50.6274 11.8442L35.5918 13.0864Z" fill="#EDF8AC"/>
<path d="M237.1 9.79012V11.8442H50.6274L22.4514 1H35.5918H212.237L237.1 9.79012Z" fill="#EDF8AC"/>
<path d="M237.1 11.8442H237.85V12.5942H237.1V11.8442ZM237.1 9.79012L237.35 9.08301L237.85 9.25979V9.79012H237.1ZM9.31091 1H8.56091V0.25H9.31091V1ZM257.941 72.786H258.691V73.9381L257.638 73.4718L257.941 72.786ZM237.1 304.626H237.85V305.376H237.1V304.626ZM35.5918 76.0823L35.5731 76.8321L35.3839 76.8274L35.2197 76.7335L35.5918 76.0823ZM1.99826 65.0947L1.61191 65.7375L0.495331 65.0664L1.63635 64.4377L1.99826 65.0947ZM29.4207 81.5761L29.4496 82.3256L29.2261 82.3342L29.0344 82.219L29.4207 81.5761ZM30.5176 85.2387L30.1145 84.6062L30.4392 84.3993L30.7966 84.5425L30.5176 85.2387ZM26.4957 87.8025L26.8988 88.4349L26.5295 88.6703L26.143 88.4644L26.4957 87.8025ZM9.31091 304.626V305.376H8.56091V304.626H9.31091ZM56.8432 65.0947L56.9408 65.8383L56.5915 65.8841L56.3333 65.6446L56.8432 65.0947ZM46.2399 70.9547L46.3515 71.6964L45.722 71.7911L45.5262 71.1854L46.2399 70.9547ZM212.237 1V0.25H212.366L212.487 0.292891L212.237 1ZM236.35 11.8442V9.79012H237.85V11.8442H236.35ZM9.62428 0.318605L35.9051 12.405L35.2784 13.7678L8.99754 1.6814L9.62428 0.318605ZM35.5918 1.75H22.4514V0.25H35.5918V1.75ZM22.4514 1.75H9.31091V0.25H22.4514V1.75ZM35.53 12.339L50.5657 11.0968L50.6892 12.5917L35.6535 13.8339L35.53 12.339ZM50.6274 11.0942H237.1V12.5942H50.6274V11.0942ZM22.7207 0.300051L50.8968 11.1443L50.358 12.5442L22.182 1.69995L22.7207 0.300051ZM237.431 53.0678C240.939 54.7936 246.198 57.8241 250.593 61.3214C252.79 63.0694 254.795 64.9534 256.258 66.8691C257.712 68.7727 258.691 70.789 258.691 72.786H257.191C257.191 71.267 256.435 69.5719 255.066 67.7794C253.706 65.9989 251.804 64.2021 249.659 62.4951C245.37 59.0824 240.209 56.1063 236.769 54.4137L237.431 53.0678ZM257.638 73.4718C255.044 72.3236 250.896 70.7273 246.9 69.6747C244.902 69.1482 242.964 68.7638 241.289 68.634C239.589 68.5021 238.272 68.6428 237.436 69.0615L236.764 67.7204C237.976 67.1135 239.633 67.001 241.405 67.1384C243.204 67.2779 245.238 67.6856 247.282 68.2242C251.374 69.3021 255.598 70.9288 258.245 72.1002L257.638 73.4718ZM35.2197 76.7335L8.93883 61.717L9.683 60.4146L35.9639 75.4311L35.2197 76.7335ZM9.67282 61.7227L2.36017 65.7515L1.63635 64.4377L8.94901 60.4089L9.67282 61.7227ZM29.3919 80.8267C54.7329 79.8504 108.745 77.8961 121.926 77.8961V79.3961C108.782 79.3961 54.8098 81.3485 29.4496 82.3256L29.3919 80.8267ZM121.926 77.8961C122.753 77.8961 123.249 77.8892 123.462 77.8778C123.52 77.8746 123.527 77.8725 123.51 77.8753C123.503 77.8764 123.484 77.8795 123.458 77.8861C123.445 77.8896 123.372 77.9073 123.288 77.9538C123.241 77.9823 123.13 78.072 123.071 78.1367C122.995 78.2496 122.907 78.5427 122.912 78.7138C122.948 78.859 123.07 79.0764 123.138 79.1497C123.185 79.1908 123.271 79.2497 123.306 79.2692C123.372 79.303 123.426 79.3181 123.439 79.3219C123.46 79.3277 123.475 79.3308 123.481 79.3318C123.491 79.3339 123.492 79.3337 123.479 79.332C123.454 79.3288 123.409 79.3242 123.339 79.3185C122.77 79.2718 121.188 79.2023 118.78 79.1152C113.984 78.9417 105.995 78.7014 96.5222 78.4344C77.5773 77.9003 52.704 77.2594 35.5731 76.8321L35.6105 75.3325C52.7421 75.7598 77.6172 76.4008 96.5645 76.935C106.037 77.202 114.031 77.4425 118.835 77.6162C121.227 77.7027 122.85 77.7733 123.462 77.8235C123.54 77.8299 123.611 77.8367 123.67 77.8442C123.698 77.8478 123.734 77.8529 123.77 77.8599C123.776 77.8612 123.884 77.8793 123.996 77.9371C124.033 77.9578 124.12 78.0178 124.169 78.0601C124.238 78.1345 124.361 78.353 124.397 78.4993C124.402 78.6715 124.313 78.9657 124.237 79.0797C124.177 79.1455 124.064 79.2364 124.015 79.2659C123.928 79.3145 123.849 79.3344 123.827 79.3399C123.794 79.3486 123.764 79.3537 123.745 79.3567C123.678 79.3673 123.602 79.3724 123.542 79.3756C123.281 79.3896 122.744 79.3961 121.926 79.3961V77.8961ZM121.955 79.3955C109.471 79.8835 90.2338 80.9267 73.0989 82.4696C64.5302 83.2412 56.4984 84.1367 50.1037 85.1485C46.9057 85.6545 44.1283 86.1879 41.9033 86.7464C39.6578 87.3101 38.0438 87.8833 37.1231 88.4433L36.3437 87.1617C37.4706 86.4763 39.2737 85.86 41.5381 85.2916C43.8231 84.718 46.6485 84.1766 49.8692 83.667C56.312 82.6476 64.3818 81.7485 72.9644 80.9757C90.1319 79.4298 109.396 78.3853 121.897 77.8967L121.955 79.3955ZM36.4445 88.4946C32.9357 87.0301 30.8432 86.1771 30.2387 85.9349L30.7966 84.5425C31.4108 84.7886 33.5109 85.6448 37.0223 87.1103L36.4445 88.4946ZM30.9208 85.8711L26.8988 88.4349L26.0925 87.17L30.1145 84.6062L30.9208 85.8711ZM26.143 88.4644L8.95824 79.308L9.66359 77.9842L26.8483 87.1406L26.143 88.4644ZM2.38461 64.4518L9.69727 68.8469L8.92456 70.1325L1.61191 65.7375L2.38461 64.4518ZM9.69727 68.8469L29.8071 80.9333L29.0344 82.219L8.92456 70.1325L9.69727 68.8469ZM8.56091 78.6461V69.4897H10.0609V78.6461H8.56091ZM236.991 69.1329C204.847 64.3764 123.827 57.061 56.9408 65.8383L56.7457 64.351C123.827 55.5481 205.002 62.8829 237.21 67.649L236.991 69.1329ZM56.3333 65.6446C54.5256 63.9682 51.2925 61.3813 47.507 59.1084C43.7098 56.8285 39.4292 54.9087 35.5114 54.4864L35.6721 52.9951C39.9088 53.4518 44.4108 55.4998 48.2792 57.8224C52.1593 60.1521 55.4747 62.8027 57.3532 64.5447L56.3333 65.6446ZM35.5918 52.9907H237.1V54.4907H35.5918V52.9907ZM237.05 69.1393C196.954 66.4535 102.717 63.2125 46.3515 71.6964L46.1282 70.2131C102.67 61.7027 197.051 64.9567 237.15 67.6426L237.05 69.1393ZM45.5262 71.1854C44.6678 68.5293 43.1102 64.4903 41.2367 61.0192C40.2992 59.2822 39.2966 57.7138 38.2796 56.536C37.2446 55.3372 36.2815 54.6452 35.4433 54.4759L35.7403 53.0056C37.078 53.2758 38.3168 54.2838 39.415 55.5557C40.5313 56.8486 41.5932 58.5216 42.5567 60.3067C44.4853 63.8799 46.0758 68.0084 46.9535 70.7241L45.5262 71.1854ZM237.85 9.79012V17.4815H236.35V9.79012H237.85ZM36.3418 13.0864V17.4815H34.8418V13.0864H36.3418ZM237.1 18.2315H35.5918V16.7315H237.1V18.2315ZM237.85 17.4815V22.9753H236.35V17.4815H237.85ZM237.1 23.7253H141.67V22.2253H237.1V23.7253ZM128.873 23.7253H71.8342V22.2253H128.873V23.7253ZM67.0809 23.7253H56.8432V22.2253H67.0809V23.7253ZM237.85 22.9753V29.9342H236.35V22.9753H237.85ZM237.1 30.6842H182.621V29.1842H237.1V30.6842ZM152.639 30.6842H87.5564V29.1842H152.639V30.6842ZM76.953 30.6842H73.2967V29.1842H76.953V30.6842ZM237.85 29.9342V38.358H236.35V29.9342H237.85ZM237.1 39.108H174.211V37.608H237.1V39.108ZM162.511 39.108H159.22V37.608H162.511V39.108ZM148.251 39.108H119.001V37.608H148.251V39.108ZM113.882 39.108H90.1158V37.608H113.882V39.108ZM82.8032 39.108H80.2437V37.608H82.8032V39.108ZM75.4905 39.108H71.8342V37.608H75.4905V39.108ZM62.6934 39.108H60.4995V37.608H62.6934V39.108ZM56.8432 39.108H54.6494V37.608H56.8432V39.108ZM50.6274 39.108H48.7993V37.608H50.6274V39.108ZM46.2399 39.108H35.5918V37.608H46.2399V39.108ZM237.85 38.358V46.0494H236.35V38.358H237.85ZM237.85 46.0494V53.7407H236.35V46.0494H237.85ZM237.1 46.7994H203.096V45.2994H237.1V46.7994ZM191.031 46.7994H85.3626V45.2994H191.031V46.7994ZM62.6934 46.7994H60.4995V45.2994H62.6934V46.7994ZM56.8432 46.7994H53.1869V45.2994H56.8432V46.7994ZM36.3418 46.0494V53.7407H34.8418V46.0494H36.3418ZM46.2399 46.7994H35.5918V45.2994H46.2399V46.7994ZM223.938 71.7047H162.511V70.2047H223.938V71.7047ZM141.67 71.7047H123.754V70.2047H141.67V71.7047ZM120.463 71.7047H117.538V70.2047H120.463V71.7047ZM237.85 68.3909V78.6461H236.35V68.3909H237.85ZM237.1 79.3961H212.237V77.8961H237.1V79.3961ZM208.581 79.3961H200.171V77.8961H208.581V79.3961ZM197.246 79.3961H195.418V77.8961H197.246V79.3961ZM191.031 79.3961H188.837V77.8961H191.031V79.3961ZM154.467 79.3961H152.639V77.8961H154.467V79.3961ZM150.08 79.3961H146.423V77.8961H150.08V79.3961ZM143.133 79.3961H125.948V77.8961H143.133V79.3961ZM237.85 78.6461V85.2387H236.35V78.6461H237.85ZM237.1 85.9887H173.115V84.4887H237.1V85.9887ZM167.63 85.9887H160.683V84.4887H167.63V85.9887ZM157.027 85.9887H154.467V84.4887H157.027V85.9887ZM237.85 85.2387V90.7325H236.35V85.2387H237.85ZM237.1 91.4825H228.691V89.9825H237.1V91.4825ZM223.938 91.4825H210.775V89.9825H223.938V91.4825ZM195.418 91.4825H191.031V89.9825H195.418V91.4825ZM191.031 91.4825H186.643V89.9825H191.031V91.4825ZM186.643 91.4825H169.458V89.9825H186.643V91.4825ZM163.974 91.4825H148.251V89.9825H163.974V91.4825ZM136.917 91.4825H134.357V89.9825H136.917V91.4825ZM123.754 91.4825H116.441V89.9825H123.754V91.4825ZM105.107 91.4825H60.4995V89.9825H105.107V91.4825ZM37.4834 87.8025V90.7325H35.9834V87.8025H37.4834ZM50.6274 91.4825H36.7334V89.9825H50.6274V91.4825ZM237.85 90.7325V96.2263H236.35V90.7325H237.85ZM237.1 96.9763H215.528V95.4763H237.1V96.9763ZM210.775 96.9763H152.639V95.4763H210.775V96.9763ZM143.133 96.9763H140.208V95.4763H143.133V96.9763ZM37.4834 90.7325V96.2263H35.9834V90.7325H37.4834ZM102.182 96.9763H36.7334V95.4763H102.182V96.9763ZM237.85 96.2263V102.453H236.35V96.2263H237.85ZM237.85 102.453V304.626H236.35V102.453H237.85ZM237.1 103.203H191.031V101.703H237.1V103.203ZM128.873 103.203H119.001V101.703H128.873V103.203ZM113.882 103.203H111.323V101.703H113.882V103.203ZM102.182 103.203H85.3626V101.703H102.182V103.203ZM75.4905 103.203H71.8342V101.703H75.4905V103.203ZM123.754 116.022H42.2179V114.522H123.754V116.022ZM146.423 110.528H136.917V109.028H146.423V110.528ZM36.3418 64.9115V76.0823H34.8418V64.9115H36.3418ZM35.254 65.5811L29.0829 62.468L29.7586 61.1287L35.9296 64.2419L35.254 65.5811ZM26.1093 60.6099L24.2812 59.5111L25.0539 58.2255L26.882 59.3242L26.1093 60.6099ZM8.56091 61.0658V50.4444H10.0609V61.0658H8.56091ZM15.8817 55.122L8.93466 51.0932L9.68716 49.7956L16.6342 53.8245L15.8817 55.122ZM36.3418 53.7407V59.3261H34.8418V53.7407H36.3418ZM36.3418 59.3261V64.9115H34.8418V59.3261H36.3418ZM35.2259 59.9808L20.6453 51.8316L21.3771 50.5223L35.9577 58.6714L35.2259 59.9808ZM18.4527 51.0998L15.162 49.2685L15.8914 47.9578L19.1821 49.7891L18.4527 51.0998ZM18.5215 43.4423L15.9621 42.3435L16.5538 40.9651L19.1133 42.0639L18.5215 43.4423ZM8.56091 50.4444V38.358H10.0609V50.4444H8.56091ZM8.56091 38.358V1H10.0609V38.358H8.56091ZM13.7945 40.8892L9.04128 39.0579L9.58055 37.6582L14.3338 39.4894L13.7945 40.8892ZM36.3418 32.4979V38.358H34.8418V32.4979H36.3418ZM35.2921 33.1855L24.3678 28.4242L24.9672 27.0491L35.8914 31.8104L35.2921 33.1855ZM20.6753 26.9422L18.4815 25.8434L19.1532 24.5022L21.347 25.601L20.6753 26.9422ZM16.0204 24.4192L13.8266 23.6867L14.3017 22.2639L16.4955 22.9964L16.0204 24.4192ZM36.3418 17.4815V21.8765H34.8418V17.4815H36.3418ZM36.3418 21.8765V32.4979H34.8418V21.8765H36.3418ZM35.2937 22.5648L30.2196 20.3672L30.8157 18.9908L35.8898 21.1883L35.2937 22.5648ZM27.6435 19.261L22.8903 17.0635L23.5197 15.702L28.2729 17.8995L27.6435 19.261ZM19.944 15.9545L18.4815 15.222L19.1532 13.8808L20.6158 14.6134L19.944 15.9545ZM17.0274 13.7612L14.4679 12.519L15.1229 11.1695L17.6823 12.4117L17.0274 13.7612ZM36.3418 38.358V42.2037H34.8418V38.358H36.3418ZM36.3418 42.2037V46.0494H34.8418V42.2037H36.3418ZM36.4638 91.4324L31.7105 89.6011L32.2498 88.2014L37.003 90.0327L36.4638 91.4324ZM37.4834 96.2263V108.679H35.9834V96.2263H37.4834ZM36.3849 109.343L28.7066 105.314L29.4036 103.986L37.0819 108.015L36.3849 109.343ZM25.3781 104.194L23.5499 103.096L24.3226 101.81L26.1508 102.909L25.3781 104.194ZM18.0654 100.165L16.2372 99.0667L17.0099 97.781L18.8381 98.8798L18.0654 100.165ZM37.4834 108.679V119.667H35.9834V108.679H37.4834ZM37.4834 119.667V304.626H35.9834V119.667H37.4834ZM8.56091 304.626V104.65H10.0609V304.626H8.56091ZM8.56091 104.65V78.6461H10.0609V104.65H8.56091ZM36.3732 120.325L8.95068 105.308L9.67114 103.992L37.0936 119.009L36.3732 120.325ZM36.7334 128.806H100.719V130.306H36.7334V128.806ZM106.204 128.806H113.151V130.306H106.204V128.806ZM116.807 128.806H119.366V130.306H116.807V128.806ZM37.4834 129.556V135.049H35.9834V129.556H37.4834ZM36.7334 134.299H45.1429V135.799H36.7334V134.299ZM49.8962 134.299H63.059V135.799H49.8962V134.299ZM78.4156 134.299H82.8032V135.799H78.4156V134.299ZM82.8032 134.299H87.1908V135.799H82.8032V134.299ZM87.1908 134.299H104.376V135.799H87.1908V134.299ZM109.86 134.299H125.582V135.799H109.86V134.299ZM136.917 134.299H139.476V135.799H136.917V134.299ZM150.08 134.299H157.392V135.799H150.08V134.299ZM168.727 134.299H213.334V135.799H168.727V134.299ZM223.206 134.299H237.1V135.799H223.206V134.299ZM37.4834 135.049V140.543H35.9834V135.049H37.4834ZM36.7334 139.793H58.3058V141.293H36.7334V139.793ZM63.059 139.793H121.195V141.293H63.059V139.793ZM130.701 139.793H133.626V141.293H130.701V139.793ZM237.85 135.049V140.543H236.35V135.049H237.85ZM171.652 139.793H237.1V141.293H171.652V139.793ZM37.4834 140.543V146.77H35.9834V140.543H37.4834ZM36.7334 146.02H82.8032V147.52H36.7334V146.02ZM144.961 146.02H154.833V147.52H144.961V146.02ZM159.952 146.02H162.511V147.52H159.952V146.02ZM171.652 146.02H188.471V147.52H171.652V146.02ZM198.343 146.02H202V147.52H198.343V146.02ZM150.08 158.838H231.616V160.338H150.08V158.838ZM127.41 153.345H136.917V154.845H127.41V153.345ZM237.1 187.075H173.115V185.575H237.1V187.075ZM167.63 187.075H160.683V185.575H167.63V187.075ZM157.027 187.075H154.467V185.575H157.027V187.075ZM237.85 186.325V191.819H236.35V186.325H237.85ZM237.1 192.569H228.691V191.069H237.1V192.569ZM223.938 192.569H210.775V191.069H223.938V192.569ZM195.418 192.569H191.031V191.069H195.418V192.569ZM191.031 192.569H186.643V191.069H191.031V192.569ZM186.643 192.569H169.458V191.069H186.643V192.569ZM163.974 192.569H148.251V191.069H163.974V192.569ZM136.917 192.569H134.357V191.069H136.917V192.569ZM123.754 192.569H116.441V191.069H123.754V192.569ZM105.107 192.569H60.4995V191.069H105.107V192.569ZM50.6274 192.569H36.7334V191.069H50.6274V192.569ZM237.85 191.819V197.313H236.35V191.819H237.85ZM237.1 198.063H215.528V196.563H237.1V198.063ZM210.775 198.063H152.639V196.563H210.775V198.063ZM143.133 198.063H140.208V196.563H143.133V198.063ZM37.4834 191.819V197.313H35.9834V191.819H37.4834ZM102.182 198.063H36.7334V196.563H102.182V198.063ZM237.85 197.313V203.539H236.35V197.313H237.85ZM237.1 204.289H191.031V202.789H237.1V204.289ZM128.873 204.289H119.001V202.789H128.873V204.289ZM113.882 204.289H111.323V202.789H113.882V204.289ZM102.182 204.289H85.3626V202.789H102.182V204.289ZM75.4905 204.289H71.8342V202.789H75.4905V204.289ZM146.423 211.614H136.917V210.114H146.423V211.614ZM237.1 219.306H173.115V217.806H237.1V219.306ZM167.63 219.306H160.683V217.806H167.63V219.306ZM157.027 219.306H154.467V217.806H157.027V219.306ZM237.85 218.556V224.049H236.35V218.556H237.85ZM237.1 224.799H228.691V223.299H237.1V224.799ZM195.418 224.799H191.031V223.299H195.418V224.799ZM191.031 224.799H186.643V223.299H191.031V224.799ZM186.643 224.799H169.458V223.299H186.643V224.799ZM163.974 224.799H148.251V223.299H163.974V224.799ZM136.917 224.799H134.357V223.299H136.917V224.799ZM123.754 224.799H116.441V223.299H123.754V224.799ZM105.107 224.799H60.4995V223.299H105.107V224.799ZM50.6274 224.799H36.7334V223.299H50.6274V224.799ZM237.85 224.049V229.543H236.35V224.049H237.85ZM237.1 230.293H215.528V228.793H237.1V230.293ZM143.133 230.293H140.208V228.793H143.133V230.293ZM37.4834 224.049V229.543H35.9834V224.049H37.4834ZM102.182 230.293H36.7334V228.793H102.182V230.293ZM237.85 229.543V235.77H236.35V229.543H237.85ZM237.1 236.52H191.031V235.02H237.1V236.52ZM128.873 236.52H119.001V235.02H128.873V236.52ZM113.882 236.52H111.323V235.02H113.882V236.52ZM102.182 236.52H85.3626V235.02H102.182V236.52ZM75.4905 236.52H71.8342V235.02H75.4905V236.52ZM146.423 243.845H136.917V242.345H146.423V243.845ZM36.3849 147.434L28.7066 143.405L29.4036 142.077L37.0819 146.105L36.3849 147.434ZM25.3781 142.285L23.5499 141.186L24.3226 139.9L26.1508 140.999L25.3781 142.285ZM18.0654 138.256L16.2372 137.157L17.0099 135.872L18.8381 136.97L18.0654 138.256ZM36.3849 197.977L28.7066 193.948L29.4036 192.62L37.0819 196.649L36.3849 197.977ZM25.3781 192.828L23.5499 191.729L24.3226 190.444L26.1508 191.542L25.3781 192.828ZM18.0654 188.799L16.2372 187.7L17.0099 186.415L18.8381 187.514L18.0654 188.799ZM237.1 305.376H36.7334V303.876H237.1V305.376ZM9.31091 303.876H36.7334V305.376H9.31091V303.876ZM237.85 102.453V135.049H236.35V102.453H237.85ZM237.85 140.543V186.325H236.35V140.543H237.85ZM237.85 203.539V218.556H236.35V203.539H237.85ZM237.85 235.77V304.626H236.35V235.77H237.85ZM35.9834 304.626V229.543H37.4834V304.626H35.9834ZM35.9834 224.049V197.313H37.4834V224.049H35.9834ZM35.9834 191.819V146.77H37.4834V191.819H35.9834ZM35.9834 129.556V119.667H37.4834V129.556H35.9834ZM35.5918 0.25H212.237V1.75H35.5918V0.25ZM212.487 0.292891L237.35 9.08301L236.85 10.4972L211.987 1.70711L212.487 0.292891Z" fill="black"/>
</svg>
