<svg width="259" height="305" viewBox="0 0 259 305" fill="none" xmlns="http://www.w3.org/2000/svg">
<path d="M237.104 11.8442V9.79012V17.4815H35.5957V13.0864L50.6313 11.8442H237.104Z" fill="#FBFFE1"/>
<path d="M56.8471 65.0947C123.831 56.3045 204.929 63.6296 237.104 68.3909C197.006 65.7051 102.698 62.4576 46.2438 70.9547C44.5077 65.583 39.9475 54.6198 35.5957 53.7407C43.7501 54.6198 53.161 61.6763 56.8471 65.0947Z" fill="black"/>
<path d="M29.4247 81.5761C54.7752 80.5994 108.767 78.6461 121.93 78.6461C96.9449 79.6228 44.9275 82.8214 36.7373 87.8025C33.2272 86.3375 31.1309 85.4828 30.5215 85.2387L26.4996 87.8025L9.31482 78.6461V69.4897L29.4247 81.5761Z" fill="black"/>
<path d="M237.104 53.7407H35.5957V46.0494V42.2037V38.358V32.4979V21.8765V17.4815H237.104V22.9753V29.9342V38.358V46.0494V53.7407Z" fill="#FBFFE1"/>
<path d="M237.104 53.7407C244.051 57.1591 257.945 65.7539 257.945 72.786C252.705 70.4664 241.199 66.3399 237.104 68.3909C204.929 63.6296 123.831 56.3045 56.8471 65.0947C53.161 61.6763 43.7501 54.6198 35.5957 53.7407H237.104Z" fill="#FBFFE1"/>
<path d="M121.93 78.6461C135.093 78.6461 69.8582 76.9369 35.5957 76.0823V64.9115V59.3261V53.7407C39.9475 54.6198 44.5077 65.583 46.2438 70.9547C102.698 62.4576 197.006 65.7051 237.104 68.3909V78.6461V85.2387V90.7325V96.2263V102.453V135.049V140.543V186.325V191.819V197.313V203.539V218.556V224.049V229.543V235.77V304.626H36.7373V229.543V224.049V197.313V191.819V146.77V140.543V135.049V129.556V119.667V108.679V96.2263V90.7325V87.8025C44.9275 82.8214 96.9449 79.6228 121.93 78.6461Z" fill="#FBFFE1"/>
<path d="M9.31482 61.0658L35.5957 76.0823C69.8582 76.9369 135.093 78.6461 121.93 78.6461C108.767 78.6461 54.7752 80.5994 29.4247 81.5761L9.31482 69.4897L2.00217 65.0947L9.31482 61.0658Z" fill="#FBFFE1"/>
<path d="M30.5215 85.2387C31.1309 85.4828 33.2272 86.3375 36.7373 87.8025V90.7325V96.2263V108.679V119.667L9.31482 104.65V78.6461L26.4996 87.8025L30.5215 85.2387Z" fill="#FBFFE1"/>
<path d="M36.7373 119.667V129.556V135.049V140.543V146.77V191.819V197.313V224.049V229.543V304.626H9.31482V104.65L36.7373 119.667Z" fill="#FBFFE1"/>
<path d="M9.31482 1L35.5957 13.0864V17.4815V21.8765V32.4979V38.358V42.2037V46.0494V53.7407V59.3261V64.9115V76.0823L9.31482 61.0658V50.4444V38.358V1Z" fill="#FBFFE1"/>
<path d="M35.5957 13.0864L9.31482 1H22.4553L50.6313 11.8442L35.5957 13.0864Z" fill="#FBFFE1"/>
<path d="M237.104 9.79012V11.8442H50.6313L22.4553 1H35.5957H212.241L237.104 9.79012Z" fill="#FBFFE1"/>
<path d="M237.104 11.8442H237.854V12.5942H237.104V11.8442ZM237.104 9.79012L237.354 9.08301L237.854 9.25979V9.79012H237.104ZM9.31482 1H8.56482V0.25H9.31482V1ZM257.945 72.786H258.695V73.9381L257.642 73.4718L257.945 72.786ZM237.104 304.626H237.854V305.376H237.104V304.626ZM35.5957 76.0823L35.577 76.8321L35.3878 76.8274L35.2236 76.7335L35.5957 76.0823ZM2.00217 65.0947L1.61581 65.7375L0.499237 65.0664L1.64026 64.4377L2.00217 65.0947ZM29.4247 81.5761L29.4535 82.3256L29.23 82.3342L29.0383 82.219L29.4247 81.5761ZM30.5215 85.2387L30.1184 84.6062L30.4431 84.3993L30.8005 84.5425L30.5215 85.2387ZM26.4996 87.8025L26.9027 88.4349L26.5334 88.6703L26.1469 88.4644L26.4996 87.8025ZM9.31482 304.626V305.376H8.56482V304.626H9.31482ZM56.8471 65.0947L56.9447 65.8383L56.5954 65.8841L56.3372 65.6446L56.8471 65.0947ZM46.2438 70.9547L46.3554 71.6964L45.7259 71.7911L45.5301 71.1854L46.2438 70.9547ZM212.241 1V0.25H212.37L212.491 0.292891L212.241 1ZM236.354 11.8442V9.79012H237.854V11.8442H236.354ZM9.62819 0.318605L35.909 12.405L35.2823 13.7678L9.00145 1.6814L9.62819 0.318605ZM35.5957 1.75H22.4553V0.25H35.5957V1.75ZM22.4553 1.75H9.31482V0.25H22.4553V1.75ZM35.5339 12.339L50.5696 11.0968L50.6931 12.5917L35.6574 13.8339L35.5339 12.339ZM50.6313 11.0942H237.104V12.5942H50.6313V11.0942ZM22.7247 0.300051L50.9007 11.1443L50.362 12.5442L22.1859 1.69995L22.7247 0.300051ZM237.435 53.0678C240.943 54.7936 246.202 57.8241 250.597 61.3214C252.794 63.0694 254.799 64.9534 256.262 66.8691C257.715 68.7727 258.695 70.789 258.695 72.786H257.195C257.195 71.267 256.438 69.5719 255.07 67.7794C253.71 65.9989 251.808 64.2021 249.663 62.4951C245.374 59.0824 240.213 56.1063 236.773 54.4137L237.435 53.0678ZM257.642 73.4718C255.048 72.3236 250.899 70.7273 246.904 69.6747C244.906 69.1482 242.968 68.7638 241.293 68.634C239.593 68.5021 238.276 68.6428 237.44 69.0615L236.768 67.7204C237.98 67.1135 239.637 67.001 241.409 67.1384C243.208 67.2779 245.241 67.6856 247.286 68.2242C251.377 69.3021 255.602 70.9288 258.249 72.1002L257.642 73.4718ZM35.2236 76.7335L8.94273 61.717L9.6869 60.4146L35.9678 75.4311L35.2236 76.7335ZM9.67673 61.7227L2.36407 65.7515L1.64026 64.4377L8.95291 60.4089L9.67673 61.7227ZM29.3958 80.8267C54.7368 79.8504 108.748 77.8961 121.93 77.8961V79.3961C108.786 79.3961 54.8137 81.3485 29.4535 82.3256L29.3958 80.8267ZM121.93 77.8961C122.757 77.8961 123.253 77.8892 123.466 77.8778C123.524 77.8746 123.531 77.8725 123.514 77.8753C123.507 77.8764 123.488 77.8795 123.462 77.8861C123.448 77.8896 123.376 77.9073 123.292 77.9538C123.245 77.9823 123.134 78.072 123.075 78.1367C122.999 78.2496 122.911 78.5427 122.916 78.7138C122.952 78.859 123.074 79.0764 123.142 79.1497C123.189 79.1908 123.275 79.2497 123.31 79.2692C123.375 79.303 123.43 79.3181 123.443 79.3219C123.464 79.3277 123.479 79.3308 123.484 79.3318C123.495 79.3339 123.496 79.3337 123.483 79.332C123.458 79.3288 123.413 79.3242 123.343 79.3185C122.774 79.2718 121.192 79.2023 118.784 79.1152C113.988 78.9417 105.999 78.7014 96.5261 78.4344C77.5812 77.9003 52.7079 77.2594 35.577 76.8321L35.6144 75.3325C52.746 75.7598 77.6211 76.4008 96.5684 76.935C106.041 77.202 114.035 77.4425 118.838 77.6162C121.231 77.7027 122.854 77.7733 123.466 77.8235C123.544 77.8299 123.615 77.8367 123.674 77.8442C123.702 77.8478 123.737 77.8529 123.773 77.8599C123.78 77.8612 123.888 77.8793 124 77.9371C124.037 77.9578 124.124 78.0178 124.173 78.0601C124.242 78.1345 124.364 78.353 124.401 78.4993C124.406 78.6715 124.317 78.9657 124.241 79.0797C124.181 79.1455 124.068 79.2364 124.019 79.2659C123.931 79.3145 123.853 79.3344 123.831 79.3399C123.797 79.3486 123.768 79.3537 123.749 79.3567C123.682 79.3673 123.606 79.3724 123.546 79.3756C123.285 79.3896 122.748 79.3961 121.93 79.3961V77.8961ZM121.959 79.3955C109.475 79.8835 90.2377 80.9267 73.1028 82.4696C64.5341 83.2412 56.5023 84.1367 50.1076 85.1485C46.9096 85.6545 44.1322 86.1879 41.9072 86.7464C39.6617 87.3101 38.0477 87.8833 37.127 88.4433L36.3476 87.1617C37.4745 86.4763 39.2776 85.86 41.542 85.2916C43.827 84.718 46.6524 84.1766 49.8732 83.667C56.3159 82.6476 64.3857 81.7485 72.9683 80.9757C90.1358 79.4298 109.4 78.3853 121.901 77.8967L121.959 79.3955ZM36.4484 88.4946C32.9396 87.0301 30.8471 86.1771 30.2426 85.9349L30.8005 84.5425C31.4147 84.7886 33.5148 85.6448 37.0262 87.1103L36.4484 88.4946ZM30.9247 85.8711L26.9027 88.4349L26.0964 87.17L30.1184 84.6062L30.9247 85.8711ZM26.1469 88.4644L8.96214 79.308L9.6675 77.9842L26.8522 87.1406L26.1469 88.4644ZM2.38852 64.4518L9.70117 68.8469L8.92847 70.1325L1.61581 65.7375L2.38852 64.4518ZM9.70117 68.8469L29.811 80.9333L29.0383 82.219L8.92847 70.1325L9.70117 68.8469ZM8.56482 78.6461V69.4897H10.0648V78.6461H8.56482ZM236.994 69.1329C204.851 64.3764 123.831 57.061 56.9447 65.8383L56.7496 64.351C123.831 55.5481 205.006 62.8829 237.214 67.649L236.994 69.1329ZM56.3372 65.6446C54.5295 63.9682 51.2964 61.3813 47.5109 59.1084C43.7137 56.8285 39.4331 54.9087 35.5153 54.4864L35.6761 52.9951C39.9127 53.4518 44.4147 55.4998 48.2831 57.8224C52.1632 60.1521 55.4786 62.8027 57.3571 64.5447L56.3372 65.6446ZM35.5957 52.9907H237.104V54.4907H35.5957V52.9907ZM237.054 69.1393C196.958 66.4535 102.721 63.2125 46.3554 71.6964L46.1321 70.2131C102.674 61.7027 197.055 64.9567 237.154 67.6426L237.054 69.1393ZM45.5301 71.1854C44.6717 68.5293 43.1141 64.4903 41.2406 61.0192C40.3031 59.2822 39.3005 57.7138 38.2835 56.536C37.2485 55.3372 36.2854 54.6452 35.4472 54.4759L35.7442 53.0056C37.0819 53.2758 38.3207 54.2838 39.4189 55.5557C40.5352 56.8486 41.5971 58.5216 42.5606 60.3067C44.4892 63.8799 46.0797 68.0084 46.9574 70.7241L45.5301 71.1854ZM237.854 9.79012V17.4815H236.354V9.79012H237.854ZM36.3457 13.0864V17.4815H34.8457V13.0864H36.3457ZM237.104 18.2315H35.5957V16.7315H237.104V18.2315ZM237.854 17.4815V22.9753H236.354V17.4815H237.854ZM237.104 23.7253H141.674V22.2253H237.104V23.7253ZM128.877 23.7253H71.8381V22.2253H128.877V23.7253ZM67.0848 23.7253H56.8471V22.2253H67.0848V23.7253ZM237.854 22.9753V29.9342H236.354V22.9753H237.854ZM237.104 30.6842H182.625V29.1842H237.104V30.6842ZM152.643 30.6842H87.5603V29.1842H152.643V30.6842ZM76.9569 30.6842H73.3006V29.1842H76.9569V30.6842ZM237.854 29.9342V38.358H236.354V29.9342H237.854ZM237.104 39.108H174.215V37.608H237.104V39.108ZM162.515 39.108H159.224V37.608H162.515V39.108ZM148.255 39.108H119.005V37.608H148.255V39.108ZM113.886 39.108H90.1197V37.608H113.886V39.108ZM82.8071 39.108H80.2477V37.608H82.8071V39.108ZM75.4944 39.108H71.8381V37.608H75.4944V39.108ZM62.6973 39.108H60.5034V37.608H62.6973V39.108ZM56.8471 39.108H54.6533V37.608H56.8471V39.108ZM50.6313 39.108H48.8032V37.608H50.6313V39.108ZM46.2438 39.108H35.5957V37.608H46.2438V39.108ZM237.854 38.358V46.0494H236.354V38.358H237.854ZM237.854 46.0494V53.7407H236.354V46.0494H237.854ZM237.104 46.7994H203.1V45.2994H237.104V46.7994ZM191.034 46.7994H85.3665V45.2994H191.034V46.7994ZM62.6973 46.7994H60.5034V45.2994H62.6973V46.7994ZM56.8471 46.7994H53.1908V45.2994H56.8471V46.7994ZM36.3457 46.0494V53.7407H34.8457V46.0494H36.3457ZM46.2438 46.7994H35.5957V45.2994H46.2438V46.7994ZM223.941 71.7047H162.515V70.2047H223.941V71.7047ZM141.674 71.7047H123.758V70.2047H141.674V71.7047ZM120.467 71.7047H117.542V70.2047H120.467V71.7047ZM237.854 68.3909V78.6461H236.354V68.3909H237.854ZM237.104 79.3961H212.241V77.8961H237.104V79.3961ZM208.585 79.3961H200.175V77.8961H208.585V79.3961ZM197.25 79.3961H195.422V77.8961H197.25V79.3961ZM191.034 79.3961H188.841V77.8961H191.034V79.3961ZM154.471 79.3961H152.643V77.8961H154.471V79.3961ZM150.084 79.3961H146.427V77.8961H150.084V79.3961ZM143.137 79.3961H125.952V77.8961H143.137V79.3961ZM237.854 78.6461V85.2387H236.354V78.6461H237.854ZM237.104 85.9887H173.118V84.4887H237.104V85.9887ZM167.634 85.9887H160.687V84.4887H167.634V85.9887ZM157.031 85.9887H154.471V84.4887H157.031V85.9887ZM237.854 85.2387V90.7325H236.354V85.2387H237.854ZM237.104 91.4825H228.695V89.9825H237.104V91.4825ZM223.941 91.4825H210.779V89.9825H223.941V91.4825ZM195.422 91.4825H191.034V89.9825H195.422V91.4825ZM191.034 91.4825H186.647V89.9825H191.034V91.4825ZM186.647 91.4825H169.462V89.9825H186.647V91.4825ZM163.978 91.4825H148.255V89.9825H163.978V91.4825ZM136.921 91.4825H134.361V89.9825H136.921V91.4825ZM123.758 91.4825H116.445V89.9825H123.758V91.4825ZM105.111 91.4825H60.5034V89.9825H105.111V91.4825ZM37.4873 87.8025V90.7325H35.9873V87.8025H37.4873ZM50.6313 91.4825H36.7373V89.9825H50.6313V91.4825ZM237.854 90.7325V96.2263H236.354V90.7325H237.854ZM237.104 96.9763H215.532V95.4763H237.104V96.9763ZM210.779 96.9763H152.643V95.4763H210.779V96.9763ZM143.137 96.9763H140.211V95.4763H143.137V96.9763ZM37.4873 90.7325V96.2263H35.9873V90.7325H37.4873ZM102.186 96.9763H36.7373V95.4763H102.186V96.9763ZM237.854 96.2263V102.453H236.354V96.2263H237.854ZM237.854 102.453V304.626H236.354V102.453H237.854ZM237.104 103.203H191.034V101.703H237.104V103.203ZM128.877 103.203H119.005V101.703H128.877V103.203ZM113.886 103.203H111.326V101.703H113.886V103.203ZM102.186 103.203H85.3665V101.703H102.186V103.203ZM75.4944 103.203H71.8381V101.703H75.4944V103.203ZM123.758 116.022H42.2218V114.522H123.758V116.022ZM146.427 110.528H136.921V109.028H146.427V110.528ZM36.3457 64.9115V76.0823H34.8457V64.9115H36.3457ZM35.2579 65.5811L29.0868 62.468L29.7625 61.1287L35.9335 64.2419L35.2579 65.5811ZM26.1132 60.6099L24.2851 59.5111L25.0578 58.2255L26.8859 59.3242L26.1132 60.6099ZM8.56482 61.0658V50.4444H10.0648V61.0658H8.56482ZM15.8856 55.122L8.93857 51.0932L9.69107 49.7956L16.6381 53.8245L15.8856 55.122ZM36.3457 53.7407V59.3261H34.8457V53.7407H36.3457ZM36.3457 59.3261V64.9115H34.8457V59.3261H36.3457ZM35.2298 59.9808L20.6492 51.8316L21.381 50.5223L35.9616 58.6714L35.2298 59.9808ZM18.4566 51.0998L15.1659 49.2685L15.8953 47.9578L19.186 49.7891L18.4566 51.0998ZM18.5254 43.4423L15.966 42.3435L16.5577 40.9651L19.1172 42.0639L18.5254 43.4423ZM8.56482 50.4444V38.358H10.0648V50.4444H8.56482ZM8.56482 38.358V1H10.0648V38.358H8.56482ZM13.7984 40.8892L9.04518 39.0579L9.58446 37.6582L14.3377 39.4894L13.7984 40.8892ZM36.3457 32.4979V38.358H34.8457V32.4979H36.3457ZM35.296 33.1855L24.3717 28.4242L24.9711 27.0491L35.8953 31.8104L35.296 33.1855ZM20.6792 26.9422L18.4854 25.8434L19.1572 24.5022L21.3509 25.601L20.6792 26.9422ZM16.0243 24.4192L13.8305 23.6867L14.3056 22.2639L16.4994 22.9964L16.0243 24.4192ZM36.3457 17.4815V21.8765H34.8457V17.4815H36.3457ZM36.3457 21.8765V32.4979H34.8457V21.8765H36.3457ZM35.2976 22.5648L30.2235 20.3672L30.8196 18.9908L35.8937 21.1883L35.2976 22.5648ZM27.6474 19.261L22.8942 17.0635L23.5236 15.702L28.2769 17.8995L27.6474 19.261ZM19.948 15.9545L18.4854 15.222L19.1572 13.8808L20.6197 14.6134L19.948 15.9545ZM17.0313 13.7612L14.4718 12.519L15.1268 11.1695L17.6862 12.4117L17.0313 13.7612ZM36.3457 38.358V42.2037H34.8457V38.358H36.3457ZM36.3457 42.2037V46.0494H34.8457V42.2037H36.3457ZM36.4677 91.4324L31.7144 89.6011L32.2537 88.2014L37.0069 90.0327L36.4677 91.4324ZM37.4873 96.2263V108.679H35.9873V96.2263H37.4873ZM36.3888 109.343L28.7106 105.314L29.4075 103.986L37.0858 108.015L36.3888 109.343ZM25.382 104.194L23.5538 103.096L24.3265 101.81L26.1547 102.909L25.382 104.194ZM18.0693 100.165L16.2411 99.0667L17.0139 97.781L18.842 98.8798L18.0693 100.165ZM37.4873 108.679V119.667H35.9873V108.679H37.4873ZM37.4873 119.667V304.626H35.9873V119.667H37.4873ZM8.56482 304.626V104.65H10.0648V304.626H8.56482ZM8.56482 104.65V78.6461H10.0648V104.65H8.56482ZM36.3771 120.325L8.95459 105.308L9.67505 103.992L37.0975 119.009L36.3771 120.325ZM36.7373 128.806H100.723V130.306H36.7373V128.806ZM106.208 128.806H113.155V130.306H106.208V128.806ZM116.811 128.806H119.37V130.306H116.811V128.806ZM37.4873 129.556V135.049H35.9873V129.556H37.4873ZM36.7373 134.299H45.1469V135.799H36.7373V134.299ZM49.9001 134.299H63.0629V135.799H49.9001V134.299ZM78.4195 134.299H82.8071V135.799H78.4195V134.299ZM82.8071 134.299H87.1947V135.799H82.8071V134.299ZM87.1947 134.299H104.379V135.799H87.1947V134.299ZM109.864 134.299H125.586V135.799H109.864V134.299ZM136.921 134.299H139.48V135.799H136.921V134.299ZM150.084 134.299H157.396V135.799H150.084V134.299ZM168.731 134.299H213.338V135.799H168.731V134.299ZM223.21 134.299H237.104V135.799H223.21V134.299ZM37.4873 135.049V140.543H35.9873V135.049H37.4873ZM36.7373 139.793H58.3097V141.293H36.7373V139.793ZM63.0629 139.793H121.199V141.293H63.0629V139.793ZM130.705 139.793H133.63V141.293H130.705V139.793ZM237.854 135.049V140.543H236.354V135.049H237.854ZM171.656 139.793H237.104V141.293H171.656V139.793ZM37.4873 140.543V146.77H35.9873V140.543H37.4873ZM36.7373 146.02H82.8071V147.52H36.7373V146.02ZM144.965 146.02H154.837V147.52H144.965V146.02ZM159.956 146.02H162.515V147.52H159.956V146.02ZM171.656 146.02H188.475V147.52H171.656V146.02ZM198.347 146.02H202.003V147.52H198.347V146.02ZM150.084 158.838H231.62V160.338H150.084V158.838ZM127.414 153.345H136.921V154.845H127.414V153.345ZM237.104 187.075H173.118V185.575H237.104V187.075ZM167.634 187.075H160.687V185.575H167.634V187.075ZM157.031 187.075H154.471V185.575H157.031V187.075ZM237.854 186.325V191.819H236.354V186.325H237.854ZM237.104 192.569H228.695V191.069H237.104V192.569ZM223.941 192.569H210.779V191.069H223.941V192.569ZM195.422 192.569H191.034V191.069H195.422V192.569ZM191.034 192.569H186.647V191.069H191.034V192.569ZM186.647 192.569H169.462V191.069H186.647V192.569ZM163.978 192.569H148.255V191.069H163.978V192.569ZM136.921 192.569H134.361V191.069H136.921V192.569ZM123.758 192.569H116.445V191.069H123.758V192.569ZM105.111 192.569H60.5034V191.069H105.111V192.569ZM50.6313 192.569H36.7373V191.069H50.6313V192.569ZM237.854 191.819V197.313H236.354V191.819H237.854ZM237.104 198.063H215.532V196.563H237.104V198.063ZM210.779 198.063H152.643V196.563H210.779V198.063ZM143.137 198.063H140.211V196.563H143.137V198.063ZM37.4873 191.819V197.313H35.9873V191.819H37.4873ZM102.186 198.063H36.7373V196.563H102.186V198.063ZM237.854 197.313V203.539H236.354V197.313H237.854ZM237.104 204.289H191.034V202.789H237.104V204.289ZM128.877 204.289H119.005V202.789H128.877V204.289ZM113.886 204.289H111.326V202.789H113.886V204.289ZM102.186 204.289H85.3665V202.789H102.186V204.289ZM75.4944 204.289H71.8381V202.789H75.4944V204.289ZM146.427 211.614H136.921V210.114H146.427V211.614ZM237.104 219.306H173.118V217.806H237.104V219.306ZM167.634 219.306H160.687V217.806H167.634V219.306ZM157.031 219.306H154.471V217.806H157.031V219.306ZM237.854 218.556V224.049H236.354V218.556H237.854ZM237.104 224.799H228.695V223.299H237.104V224.799ZM195.422 224.799H191.034V223.299H195.422V224.799ZM191.034 224.799H186.647V223.299H191.034V224.799ZM186.647 224.799H169.462V223.299H186.647V224.799ZM163.978 224.799H148.255V223.299H163.978V224.799ZM136.921 224.799H134.361V223.299H136.921V224.799ZM123.758 224.799H116.445V223.299H123.758V224.799ZM105.111 224.799H60.5034V223.299H105.111V224.799ZM50.6313 224.799H36.7373V223.299H50.6313V224.799ZM237.854 224.049V229.543H236.354V224.049H237.854ZM237.104 230.293H215.532V228.793H237.104V230.293ZM143.137 230.293H140.211V228.793H143.137V230.293ZM37.4873 224.049V229.543H35.9873V224.049H37.4873ZM102.186 230.293H36.7373V228.793H102.186V230.293ZM237.854 229.543V235.77H236.354V229.543H237.854ZM237.104 236.52H191.034V235.02H237.104V236.52ZM128.877 236.52H119.005V235.02H128.877V236.52ZM113.886 236.52H111.326V235.02H113.886V236.52ZM102.186 236.52H85.3665V235.02H102.186V236.52ZM75.4944 236.52H71.8381V235.02H75.4944V236.52ZM146.427 243.845H136.921V242.345H146.427V243.845ZM36.3888 147.434L28.7106 143.405L29.4075 142.077L37.0858 146.105L36.3888 147.434ZM25.382 142.285L23.5538 141.186L24.3265 139.9L26.1547 140.999L25.382 142.285ZM18.0693 138.256L16.2411 137.157L17.0139 135.872L18.842 136.97L18.0693 138.256ZM36.3888 197.977L28.7106 193.948L29.4075 192.62L37.0858 196.649L36.3888 197.977ZM25.382 192.828L23.5538 191.729L24.3265 190.444L26.1547 191.542L25.382 192.828ZM18.0693 188.799L16.2411 187.7L17.0139 186.415L18.842 187.514L18.0693 188.799ZM237.104 305.376H36.7373V303.876H237.104V305.376ZM9.31482 303.876H36.7373V305.376H9.31482V303.876ZM237.854 102.453V135.049H236.354V102.453H237.854ZM237.854 140.543V186.325H236.354V140.543H237.854ZM237.854 203.539V218.556H236.354V203.539H237.854ZM237.854 235.77V304.626H236.354V235.77H237.854ZM35.9873 304.626V229.543H37.4873V304.626H35.9873ZM35.9873 224.049V197.313H37.4873V224.049H35.9873ZM35.9873 191.819V146.77H37.4873V191.819H35.9873ZM35.9873 129.556V119.667H37.4873V129.556H35.9873ZM35.5957 0.25H212.241V1.75H35.5957V0.25ZM212.491 0.292891L237.354 9.08301L236.854 10.4972L211.991 1.70711L212.491 0.292891Z" fill="black"/>
</svg>
