<svg width="2559" height="691" viewBox="0 0 2559 691" fill="none" xmlns="http://www.w3.org/2000/svg">
<path d="M2135 316.5C2149 242.1 2210.5 193.167 2239.5 178C2271.57 104.889 2377.89 -21.5919 2560.5 5.25748V879H2239.5H1L-135 166.5C67.5 50.5 164.5 166.207 173 166.5C289 170.495 322 218 349.5 269C387.5 277 406.333 313.667 411 331C437 337.4 451.167 360.667 455 371.5C480.2 372.7 493.167 389 496.5 397C502.1 382.6 518.833 382 526.5 383.5C542.9 364.3 574.333 365.5 588 368.5C612.8 356.1 641.333 363.333 652.5 368.5C687.3 363.3 708.667 382 715 392C760.6 386 785 415.5 791.5 431C802.3 432.6 810.333 442.333 813 447C817.8 447 822.333 451.667 824 454C832.8 451.2 843.333 456.833 847.5 460C901.9 445.6 929.5 479.667 936.5 498.5C948.9 502.1 952.667 513.333 953 518.5C958.6 518.1 961.667 522.667 962.5 525C970.1 523.8 976.667 528.5 979 531C1035.4 504.6 1070.5 509.5 1104.5 531C1133.3 525 1166.17 531.333 1173 539C1210.2 529.4 1234.5 543 1242 551C1272 552.2 1279.17 566.5 1284 577.5C1312.4 566.7 1342.83 582 1354.5 591C1378.5 574.6 1412.5 580.833 1426.5 586C1435.3 576.4 1449.5 576.333 1455.5 577.5C1457.5 563 1470.83 560.333 1476.5 560C1485.7 548.4 1499.83 549 1507.5 551C1551.1 503.8 1605 523.667 1626.5 539.5C1649.3 524.3 1677.33 529.167 1688.5 533.5C1700.5 521.9 1723.5 522.667 1733.5 524.5C1750.3 463.3 1799.17 458.667 1821.5 464C1842.7 448.8 1869.67 451.333 1880.5 454.5C1890.5 444.1 1908.33 444.5 1916 446C1923.6 439.6 1938.17 440.667 1944.5 442C1947.7 412.8 1974.5 404.5 1987.5 404C2011.5 366 2041.5 369.167 2053.5 375.5C2062.7 357.9 2081.33 357.167 2089.5 359C2093.1 340.6 2108 337.667 2115 338.5C2115 321.7 2128.33 316.833 2135 316.5Z" fill="#FBFFE1"/>
<path d="M2560.5 5.25748C2377.89 -21.5919 2271.57 104.889 2239.5 178C2210.5 193.167 2149 242.1 2135 316.5C2128.33 316.833 2115 321.7 2115 338.5C2108 337.667 2093.1 340.6 2089.5 359C2081.33 357.167 2062.7 357.9 2053.5 375.5C2041.5 369.167 2011.5 366 1987.5 404C1974.5 404.5 1947.7 412.8 1944.5 442C1938.17 440.667 1923.6 439.6 1916 446C1908.33 444.5 1890.5 444.1 1880.5 454.5C1869.67 451.333 1842.7 448.8 1821.5 464C1799.17 458.667 1750.3 463.3 1733.5 524.5C1723.5 522.667 1700.5 521.9 1688.5 533.5C1677.33 529.167 1649.3 524.3 1626.5 539.5C1605 523.667 1551.1 503.8 1507.5 551C1499.83 549 1485.7 548.4 1476.5 560C1470.83 560.333 1457.5 563 1455.5 577.5C1449.5 576.333 1435.3 576.4 1426.5 586C1412.5 580.833 1378.5 574.6 1354.5 591C1342.83 582 1312.4 566.7 1284 577.5C1279.17 566.5 1272 552.2 1242 551C1234.5 543 1210.2 529.4 1173 539C1166.17 531.333 1133.3 525 1104.5 531C1070.5 509.5 1035.4 504.6 979 531C976.667 528.5 970.1 523.8 962.5 525C961.667 522.667 958.6 518.1 953 518.5C952.667 513.333 948.9 502.1 936.5 498.5C929.5 479.667 901.9 445.6 847.5 460C843.333 456.833 832.8 451.2 824 454C822.333 451.667 817.8 447 813 447C810.333 442.333 802.3 432.6 791.5 431C785 415.5 760.6 386 715 392C708.667 382 687.3 363.3 652.5 368.5C641.333 363.333 612.8 356.1 588 368.5C574.333 365.5 542.9 364.3 526.5 383.5C518.833 382 502.1 382.6 496.5 397C493.167 389 480.2 372.7 455 371.5C451.167 360.667 437 337.4 411 331C406.333 313.667 387.5 277 349.5 269C322 218 289 170.495 173 166.5C164.5 166.207 67.5 50.5 -135 166.5L1 879H2239.5H2560.5M2560.5 5.25748C2578.12 7.84849 2596.45 11.8674 2615.5 17.4999V879H2560.5M2560.5 5.25748V879" stroke="black" stroke-width="1.5"/>
</svg>
