<svg width="3300" height="52" viewBox="0 0 3300 52" fill="none" xmlns="http://www.w3.org/2000/svg">
<g clip-path="url(#clip0_323_10311)">
<path fill-rule="evenodd" clip-rule="evenodd" d="M97.3654 3.5C120.057 17.1 135.763 7.83333 140.78 1.5C158.377 13.9 174.74 6.66667 180.722 1.5C205.728 18.7 226.645 9.66667 233.977 3C259.447 23.8 282.931 11 292 3C314.691 20.2 330 13.5 341.645 5C364.337 18.6 380.043 9.33333 385.06 3C402.657 15.4 419.02 8.16667 425.002 3C450.008 20.2 470.925 11.1667 478.257 4.5C503.727 25.3 524.431 13 533.5 5C556.191 22.2 579.172 13.6667 585.925 6.5C608.617 20.1 624.323 10.8333 629.34 4.5C646.938 16.9 663.3 9.66667 669.282 4.5C694.289 21.7 715.205 12.6667 722.537 6C748.007 26.8 772.512 16 781.581 8C804.272 25.2 823.452 15.1667 830.206 8C851.21 20.5889 866.229 13.5848 872.325 7.45062L873.5 5.5C891.097 17.9 920.518 8.16667 926.5 3C951.507 20.2 972.865 8.16667 980.197 1.5C1005.67 22.3 1030.17 11.5 1039.24 3.5C1061.93 20.7 1081.11 10.6667 1087.87 3.5C1110.56 17.1 1126.26 7.83333 1131.28 1.5C1148.88 13.9 1165.24 6.66667 1171.22 1.5C1196.23 18.7 1217.14 9.66667 1224.48 3C1249.95 23.8 1274.45 13 1283.52 5C1306.21 22.2 1325.39 12.1667 1332.15 5C1354.84 18.6 1370.54 9.33333 1375.56 3C1393.16 15.4 1409.52 8.16667 1415.5 3C1440.51 20.2 1461.42 11.1667 1468.76 4.5C1494.23 25.3 1518.73 14.5 1527.8 6.5C1550.49 23.7 1569.67 13.6667 1576.43 6.5C1599.12 20.1 1614.82 10.8333 1619.84 4.5C1637.44 16.9 1653.8 9.66667 1659.78 4.5C1684.79 21.7 1705.7 12.6667 1713.04 6C1738.51 26.8 1763.01 16 1772.08 8C1794.77 25.2 1813.95 15.1667 1820.71 8L1820.92 8.12925L1821 8C1821.89 8.62906 1822.82 9.20118 1823.76 9.7198C1824.41 10.0584 1825.05 10.3785 1825.68 10.6806C1834.52 14.729 1845.21 14.6238 1854.38 12.9144C1858.96 11.0749 1862.27 8.33764 1864.12 6L1866.64 9.4411C1870.04 8.10143 1872.63 6.68134 1874 5.5C1899.01 22.7 1920.36 10.6667 1927.7 4C1953.17 24.8 1977.67 14 1986.74 6C2009.43 23.2 2028.61 13.1667 2035.37 6C2058.06 19.6 2073.76 10.3333 2078.78 4C2096.38 16.4 2112.74 9.16667 2118.72 4C2143.73 21.2 2164.64 12.1667 2171.98 5.5C2197.45 26.3 2221.95 15.5 2231.02 7.5C2253.71 24.7 2272.89 14.6667 2279.65 7.5C2302.34 21.1 2318.04 11.8333 2323.06 5.5C2340.66 17.9 2357.02 10.6667 2363 5.5C2388.01 22.7 2408.92 13.6667 2416.26 7C2441.73 27.8 2466.23 17 2475.3 9C2497.99 26.2 2517.17 16.1667 2523.93 9C2546.62 22.6 2562.32 13.3333 2567.34 7C2584.94 19.4 2601.3 12.1667 2607.28 7C2632.29 24.2 2653.2 15.1667 2660.54 8.5C2686.01 29.3 2710.51 18.5 2719.58 10.5C2742.27 27.7 2761.45 17.6667 2768.21 10.5C2790.9 24.1 2806.6 14.8333 2811.62 8.5L2811.66 8.55903L2812 8C2829.6 20.4 2859.02 10.6667 2865 5.5C2890.01 22.7 2911.36 10.6667 2918.7 4C2944.17 24.8 2968.67 14 2977.74 6C3000.43 23.2 3019.61 13.1667 3026.37 6C3049.06 19.6 3064.76 10.3333 3069.78 4C3087.38 16.4 3103.74 9.16667 3109.72 4C3134.73 21.2 3155.64 12.1667 3162.98 5.5C3188.45 26.3 3212.95 15.5 3222.02 7.5C3244.71 24.7 3263.89 14.6667 3270.65 7.5C3293.34 21.1 3309.04 11.8333 3314.06 5.5C3331.66 17.9 3348.02 10.6667 3354 5.5C3379.01 22.7 3399.92 13.6667 3407.26 7C3432.73 27.8 3457.23 17 3466.3 9C3488.99 26.2 3508.17 16.1667 3514.93 9C3537.62 22.6 3553.32 13.3333 3558.34 7C3575.94 19.4 3592.3 12.1667 3598.28 7C3623.29 24.2 3644.2 15.1667 3651.54 8.5C3677.01 29.3 3701.51 18.5 3710.58 10.5C3733.27 27.7 3752.45 17.6667 3759.21 10.5C3781.9 24.1 3797.6 14.8333 3802.62 8.5L3904.5 147.5H2913.5H2728H1737L1738.51 145H975.5H789.5H-201L-106 0C-88.4026 12.4 -69.5401 5.16667 -63.5585 0C-38.5516 17.2 -17.6354 8.16667 -10.3031 1.5C15.1669 22.3 39.672 11.5 48.7409 3.5C71.4323 20.7 90.612 10.6667 97.3654 3.5Z" fill="black"/>
<path d="M140.78 1.5L141.212 0.886918L140.632 0.478484L140.192 1.03431L140.78 1.5ZM97.3654 3.5L97.7509 2.85669L97.2333 2.54649L96.8195 2.98564L97.3654 3.5ZM180.722 1.5L181.147 0.882058L180.669 0.553916L180.231 0.932419L180.722 1.5ZM233.977 3L234.451 2.4191L233.951 2.01023L233.472 2.44508L233.977 3ZM292 3L292.453 2.4023L291.964 2.03162L291.504 2.43756L292 3ZM341.645 5L342.031 4.35669L341.605 4.1012L341.203 4.39421L341.645 5ZM385.06 3L385.492 2.38692L384.912 1.97848L384.472 2.53431L385.06 3ZM425.002 3L425.427 2.38206L424.95 2.05392L424.511 2.43242L425.002 3ZM478.257 4.5L478.731 3.9191L478.231 3.51023L477.752 3.94508L478.257 4.5ZM533.5 5L533.953 4.4023L533.464 4.03162L533.004 4.43756L533.5 5ZM585.925 6.5L586.311 5.85669L585.793 5.54649L585.38 5.98564L585.925 6.5ZM629.34 4.5L629.772 3.88692L629.193 3.47848L628.752 4.03431L629.34 4.5ZM669.282 4.5L669.707 3.88206L669.23 3.55392L668.791 3.93242L669.282 4.5ZM722.537 6L723.011 5.4191L722.511 5.01023L722.033 5.44508L722.537 6ZM781.581 8L782.034 7.4023L781.545 7.03162L781.085 7.43756L781.581 8ZM830.206 8L830.591 7.35669L830.074 7.04649L829.66 7.48564L830.206 8ZM872.325 7.45062L872.857 7.9793L872.921 7.91507L872.968 7.8375L872.325 7.45062ZM873.5 5.5L873.932 4.88692L873.273 4.4227L872.858 5.11311L873.5 5.5ZM926.5 3L926.925 2.38206L926.448 2.05392L926.01 2.43242L926.5 3ZM980.197 1.5L980.671 0.919096L980.171 0.510226L979.692 0.945081L980.197 1.5ZM1039.24 3.5L1039.69 2.9023L1039.2 2.53162L1038.74 2.93756L1039.24 3.5ZM1087.87 3.5L1088.25 2.85669L1087.73 2.54649L1087.32 2.98564L1087.87 3.5ZM1131.28 1.5L1131.71 0.886918L1131.13 0.478485L1130.69 1.0343L1131.28 1.5ZM1171.22 1.5L1171.65 0.882059L1171.17 0.553916L1170.73 0.932419L1171.22 1.5ZM1224.48 3L1224.95 2.4191L1224.45 2.01023L1223.97 2.44508L1224.48 3ZM1283.52 5L1283.97 4.4023L1283.48 4.03162L1283.02 4.43756L1283.52 5ZM1332.15 5L1332.53 4.35669L1332.01 4.04649L1331.6 4.48564L1332.15 5ZM1375.56 3L1375.99 2.38692L1375.41 1.97849L1374.97 2.5343L1375.56 3ZM1415.5 3L1415.93 2.38206L1415.45 2.05392L1415.01 2.43242L1415.5 3ZM1468.76 4.5L1469.23 3.9191L1468.73 3.51023L1468.25 3.94508L1468.76 4.5ZM1527.8 6.5L1528.25 5.9023L1527.77 5.53162L1527.3 5.93756L1527.8 6.5ZM1576.43 6.5L1576.81 5.85669L1576.29 5.54649L1575.88 5.98564L1576.43 6.5ZM1619.84 4.5L1620.27 3.88692L1619.69 3.47848L1619.25 4.03431L1619.84 4.5ZM1659.78 4.5L1660.21 3.88206L1659.73 3.55392L1659.29 3.93241L1659.78 4.5ZM1713.04 6L1713.51 5.4191L1713.01 5.01023L1712.53 5.44508L1713.04 6ZM1772.08 8L1772.53 7.4023L1772.05 7.03162L1771.58 7.43756L1772.08 8ZM1820.71 8L1821.09 7.35599L1820.57 7.04731L1820.16 7.48564L1820.71 8ZM1820.92 8.12925L1820.54 8.77326L1821.18 9.15605L1821.56 8.51633L1820.92 8.12925ZM1821 8L1821.43 7.38692L1820.77 6.92283L1820.36 7.61293L1821 8ZM1823.76 9.7198L1823.41 10.378L1823.42 10.3839L1823.76 9.7198ZM1825.68 10.6806L1825.36 11.3575L1825.37 11.3625L1825.68 10.6806ZM1854.38 12.9144L1854.52 13.6517L1854.59 13.6381L1854.66 13.6104L1854.38 12.9144ZM1864.12 6L1864.73 5.55662L1864.14 4.76293L1863.53 5.53429L1864.12 6ZM1866.64 9.4411L1866.04 9.88448L1866.38 10.351L1866.92 10.1388L1866.64 9.4411ZM1874 5.5L1874.43 4.88206L1873.95 4.55392L1873.51 4.93242L1874 5.5ZM1927.7 4L1928.17 3.4191L1927.67 3.01022L1927.19 3.44509L1927.7 4ZM1986.74 6L1987.19 5.4023L1986.71 5.03162L1986.24 5.43756L1986.74 6ZM2035.37 6L2035.75 5.35669L2035.23 5.04649L2034.82 5.48565L2035.37 6ZM2078.78 4L2079.21 3.38692L2078.63 2.97849L2078.19 3.5343L2078.78 4ZM2118.72 4L2119.15 3.38206L2118.67 3.05392L2118.23 3.43241L2118.72 4ZM2171.98 5.5L2172.45 4.9191L2171.95 4.51022L2171.47 4.94508L2171.98 5.5ZM2231.02 7.5L2231.47 6.9023L2230.99 6.53162L2230.52 6.93756L2231.02 7.5ZM2279.65 7.5L2280.03 6.85669L2279.51 6.54649L2279.1 6.98564L2279.65 7.5ZM2323.06 5.5L2323.49 4.88692L2322.91 4.47849L2322.47 5.0343L2323.06 5.5ZM2363 5.5L2363.43 4.88206L2362.95 4.55391L2362.51 4.93242L2363 5.5ZM2416.26 7L2416.73 6.4191L2416.23 6.01022L2415.75 6.44509L2416.26 7ZM2475.3 9L2475.75 8.4023L2475.27 8.03162L2474.8 8.43756L2475.3 9ZM2523.93 9L2524.31 8.35669L2523.79 8.04649L2523.38 8.48565L2523.93 9ZM2567.34 7L2567.77 6.38692L2567.19 5.97849L2566.75 6.5343L2567.34 7ZM2607.28 7L2607.71 6.38206L2607.23 6.05392L2606.79 6.43241L2607.28 7ZM2660.54 8.5L2661.01 7.9191L2660.51 7.51023L2660.03 7.94508L2660.54 8.5ZM2719.58 10.5L2720.03 9.9023L2719.55 9.53162L2719.08 9.93756L2719.58 10.5ZM2768.21 10.5L2768.59 9.8567L2768.07 9.54649L2767.66 9.98564L2768.21 10.5ZM2811.62 8.5L2812.23 8.05697L2811.64 7.26245L2811.03 8.0343L2811.62 8.5ZM2811.66 8.55903L2811.06 9.00206L2811.72 9.91178L2812.31 8.94596L2811.66 8.55903ZM2812 8L2812.43 7.38692L2811.77 6.92274L2811.36 7.61307L2812 8ZM2865 5.5L2865.43 4.88206L2864.95 4.55392L2864.51 4.93241L2865 5.5ZM2918.7 4L2919.17 3.4191L2918.67 3.01022L2918.19 3.44509L2918.7 4ZM2977.74 6L2978.19 5.4023L2977.71 5.03162L2977.24 5.43756L2977.74 6ZM3026.37 6L3026.75 5.35669L3026.23 5.04649L3025.82 5.48565L3026.37 6ZM3069.78 4L3070.21 3.38692L3069.63 2.97849L3069.19 3.5343L3069.78 4ZM3109.72 4L3110.15 3.38206L3109.67 3.05392L3109.23 3.43241L3109.72 4ZM3162.98 5.5L3163.45 4.9191L3162.95 4.51022L3162.47 4.94508L3162.98 5.5ZM3222.02 7.5L3222.47 6.9023L3221.99 6.53162L3221.52 6.93756L3222.02 7.5ZM3270.65 7.5L3271.03 6.85669L3270.51 6.54649L3270.1 6.98564L3270.65 7.5ZM3314.06 5.5L3314.49 4.88692L3313.91 4.47849L3313.47 5.0343L3314.06 5.5ZM3354 5.5L3354.43 4.88206L3353.95 4.55391L3353.51 4.93242L3354 5.5ZM3407.26 7L3407.73 6.4191L3407.23 6.01022L3406.75 6.44509L3407.26 7ZM3466.3 9L3466.75 8.4023L3466.27 8.03162L3465.8 8.43756L3466.3 9ZM3514.93 9L3515.31 8.35669L3514.79 8.04649L3514.38 8.48565L3514.93 9ZM3558.34 7L3558.77 6.38692L3558.19 5.97849L3557.75 6.5343L3558.34 7ZM3598.28 7L3598.71 6.38206L3598.23 6.05392L3597.79 6.43241L3598.28 7ZM3651.54 8.5L3652.01 7.9191L3651.51 7.51023L3651.03 7.94508L3651.54 8.5ZM3710.58 10.5L3711.03 9.9023L3710.55 9.53162L3710.08 9.93756L3710.58 10.5ZM3759.21 10.5L3759.59 9.8567L3759.07 9.54649L3758.66 9.98564L3759.21 10.5ZM3802.62 8.5L3803.23 8.05663L3802.64 7.2629L3802.03 8.0343L3802.62 8.5ZM3904.5 147.5V148.25H3905.98L3905.1 147.057L3904.5 147.5ZM1737 147.5L1736.36 147.113L1735.67 148.25H1737V147.5ZM1738.51 145L1739.15 145.387L1739.83 144.25H1738.51V145ZM-201 145L-201.627 144.589L-202.388 145.75H-201V145ZM-106 0L-105.568 -0.613082L-106.202 -1.05996L-106.627 -0.41102L-106 0ZM-63.5585 0L-63.1334 -0.617942L-63.6105 -0.946084L-64.0487 -0.567582L-63.5585 0ZM-10.3031 1.5L-9.8287 0.919096L-10.3294 0.510226L-10.8076 0.945082L-10.3031 1.5ZM48.7409 3.5L49.1939 2.9023L48.7049 2.53162L48.2447 2.93756L48.7409 3.5ZM140.192 1.03431C135.403 7.08062 120.11 16.2577 97.7509 2.85669L96.9798 4.14331C120.003 17.9423 136.124 8.58604 141.368 1.96569L140.192 1.03431ZM180.231 0.932419C174.431 5.94233 158.451 13.0342 141.212 0.886918L140.348 2.11308C158.304 14.7658 175.049 7.391 181.212 2.06758L180.231 0.932419ZM233.472 2.44508C226.365 8.90687 205.832 17.861 181.147 0.882058L180.297 2.11794C205.625 19.539 226.924 10.4265 234.481 3.55492L233.472 2.44508ZM291.504 2.43756C287.046 6.37037 279.034 11.4868 269.023 13.0591C259.044 14.6261 247.02 12.6836 234.451 2.4191L233.503 3.5809C246.403 14.1164 258.857 16.1739 269.255 14.5409C279.62 12.9132 287.886 7.62963 292.496 3.56244L291.504 2.43756ZM341.203 4.39421C335.423 8.61295 328.823 12.317 320.911 12.8895C313.017 13.4606 303.693 10.9222 292.453 2.4023L291.547 3.5977C302.998 12.2778 312.674 14.9894 321.019 14.3855C329.346 13.783 336.222 9.88705 342.088 5.60579L341.203 4.39421ZM384.472 2.53431C379.683 8.58062 364.39 17.7577 342.031 4.35669L341.26 5.64331C364.283 19.4423 380.404 10.086 385.648 3.46569L384.472 2.53431ZM424.511 2.43242C418.711 7.44233 402.731 14.5342 385.492 2.38692L384.628 3.61308C402.584 16.2658 419.329 8.891 425.492 3.56758L424.511 2.43242ZM477.752 3.94508C470.645 10.4069 450.112 19.361 425.427 2.38206L424.577 3.61794C449.905 21.039 471.204 11.9265 478.761 5.05492L477.752 3.94508ZM533.004 4.43756C528.528 8.38591 521.213 13.3641 511.914 14.8089C502.649 16.2483 491.317 14.1969 478.731 3.9191L477.783 5.0809C490.667 15.6031 502.422 17.8017 512.144 16.2911C521.832 14.7859 529.403 9.61409 533.996 5.56244L533.004 4.43756ZM585.38 5.98564C582.153 9.40993 574.903 13.2748 565.62 14.1407C556.372 15.0033 545.142 12.8838 533.953 4.4023L533.047 5.5977C544.549 14.3162 556.155 16.53 565.759 15.6343C575.327 14.7418 582.945 10.7567 586.471 7.01436L585.38 5.98564ZM628.752 4.03431C623.963 10.0806 608.67 19.2577 586.311 5.85669L585.54 7.14331C608.563 20.9423 624.684 11.586 629.928 4.96569L628.752 4.03431ZM668.791 3.93242C662.991 8.94233 647.011 16.0342 629.772 3.88692L628.908 5.11308C646.864 17.7658 663.609 10.391 669.772 5.06758L668.791 3.93242ZM722.033 5.44508C714.926 11.9069 694.392 20.861 669.707 3.88206L668.857 5.11794C694.185 22.539 715.484 13.4265 723.042 6.55492L722.033 5.44508ZM781.085 7.43756C772.203 15.2729 748.114 25.9192 723.011 5.4191L722.063 6.5809C747.9 27.6808 772.822 16.7271 782.077 8.56244L781.085 7.43756ZM829.66 7.48564C826.387 10.9583 820.053 15.1684 811.76 16.3956C803.496 17.6185 793.229 15.888 782.034 7.4023L781.128 8.5977C792.625 17.312 803.293 19.1648 811.98 17.8794C820.638 16.5983 827.27 12.2084 830.751 8.51436L829.66 7.48564ZM871.793 6.92194C865.934 12.818 851.292 19.7636 830.591 7.35669L829.82 8.64331C851.128 21.4141 866.525 14.3517 872.857 7.9793L871.793 6.92194ZM872.858 5.11311L871.683 7.06373L872.968 7.8375L874.142 5.88689L872.858 5.11311ZM926.01 2.43242C924.617 3.63548 921.758 5.17522 917.908 6.61137C914.081 8.03911 909.343 9.33907 904.246 10.0956C894.023 11.613 882.501 10.9249 873.932 4.88692L873.068 6.11308C882.097 12.4751 894.084 13.1204 904.466 11.5794C909.671 10.8068 914.511 9.47964 918.432 8.01676C922.331 6.56228 925.392 4.94785 926.99 3.56758L926.01 2.43242ZM979.692 0.945081C972.506 7.47895 951.537 19.3104 926.925 2.38206L926.075 3.61794C951.477 21.0896 973.223 8.85439 980.701 2.05492L979.692 0.945081ZM1038.74 2.93756C1029.86 10.7729 1005.77 21.4192 980.671 0.919096L979.723 2.0809C1005.56 23.1808 1030.48 12.2271 1039.74 4.06244L1038.74 2.93756ZM1087.32 2.98564C1084.05 6.45826 1077.71 10.6684 1069.42 11.8956C1061.16 13.1185 1050.89 11.388 1039.69 2.9023L1038.79 4.0977C1050.28 12.812 1060.95 14.6648 1069.64 13.3794C1078.3 12.0983 1084.93 7.70841 1088.41 4.01436L1087.32 2.98564ZM1130.69 1.0343C1125.9 7.08063 1110.61 16.2577 1088.25 2.85669L1087.48 4.14331C1110.5 17.9423 1126.62 8.58604 1131.87 1.9657L1130.69 1.0343ZM1170.73 0.932419C1164.93 5.94233 1148.95 13.0342 1131.71 0.886918L1130.85 2.11308C1148.8 14.7658 1165.55 7.391 1171.71 2.06758L1170.73 0.932419ZM1223.97 2.44508C1216.87 8.90687 1196.33 17.861 1171.65 0.882059L1170.8 2.11794C1196.12 19.539 1217.42 10.4265 1224.98 3.55492L1223.97 2.44508ZM1283.02 4.43756C1274.14 12.2729 1250.05 22.9192 1224.95 2.4191L1224 3.5809C1249.84 24.6808 1274.76 13.7271 1284.02 5.56244L1283.02 4.43756ZM1331.6 4.48564C1328.33 7.95826 1321.99 12.1684 1313.7 13.3956C1305.44 14.6185 1295.17 12.888 1283.97 4.4023L1283.07 5.5977C1294.56 14.312 1305.23 16.1648 1313.92 14.8794C1322.58 13.5983 1329.21 9.2084 1332.69 5.51436L1331.6 4.48564ZM1374.97 2.5343C1370.18 8.58063 1354.89 17.7577 1332.53 4.35669L1331.76 5.64331C1354.78 19.4423 1370.9 10.086 1376.15 3.4657L1374.97 2.5343ZM1415.01 2.43242C1409.21 7.44233 1393.23 14.5342 1375.99 2.38692L1375.13 3.61308C1393.08 16.2658 1409.83 8.891 1415.99 3.56758L1415.01 2.43242ZM1468.25 3.94508C1461.15 10.4069 1440.61 19.361 1415.93 2.38206L1415.08 3.61794C1440.4 21.039 1461.7 11.9265 1469.26 5.05492L1468.25 3.94508ZM1527.3 5.93756C1518.42 13.7729 1494.33 24.4192 1469.23 3.9191L1468.28 5.0809C1494.12 26.1808 1519.04 15.2271 1528.3 7.06244L1527.3 5.93756ZM1575.88 5.98564C1572.61 9.45826 1566.27 13.6684 1557.98 14.8956C1549.72 16.1185 1539.45 14.388 1528.25 5.9023L1527.35 7.0977C1538.84 15.812 1549.51 17.6648 1558.2 16.3794C1566.86 15.0983 1573.49 10.7084 1576.97 7.01436L1575.88 5.98564ZM1619.25 4.03431C1614.46 10.0806 1599.17 19.2577 1576.81 5.85669L1576.04 7.14331C1599.06 20.9423 1615.18 11.586 1620.43 4.96569L1619.25 4.03431ZM1659.29 3.93241C1653.49 8.94233 1637.51 16.0342 1620.27 3.88692L1619.41 5.11308C1637.36 17.7658 1654.11 10.391 1660.27 5.06759L1659.29 3.93241ZM1712.53 5.44508C1705.43 11.9069 1684.89 20.861 1660.21 3.88206L1659.36 5.11794C1684.68 22.539 1705.98 13.4265 1713.54 6.55492L1712.53 5.44508ZM1771.58 7.43756C1762.7 15.2729 1738.61 25.9192 1713.51 5.4191L1712.56 6.5809C1738.4 27.6808 1763.32 16.7271 1772.58 8.56244L1771.58 7.43756ZM1820.16 7.48564C1816.89 10.9583 1810.55 15.1684 1802.26 16.3956C1794 17.6185 1783.73 15.888 1772.53 7.4023L1771.63 8.5977C1783.12 17.312 1793.79 19.1648 1802.48 17.8794C1811.14 16.5983 1817.77 12.2084 1821.25 8.51436L1820.16 7.48564ZM1821.31 7.48525L1821.09 7.35599L1820.32 8.64401L1820.54 8.77326L1821.31 7.48525ZM1820.36 7.61293L1820.28 7.74218L1821.56 8.51633L1821.64 8.38707L1820.36 7.61293ZM1824.12 9.06167C1823.2 8.55622 1822.3 7.99905 1821.43 7.38692L1820.57 8.61308C1821.48 9.25906 1822.43 9.84615 1823.41 10.3779L1824.12 9.06167ZM1826.01 10.0037C1825.38 9.70574 1824.75 9.38995 1824.11 9.05569L1823.42 10.3839C1824.07 10.7269 1824.72 11.0512 1825.36 11.3574L1826.01 10.0037ZM1854.24 12.1771C1845.15 13.8728 1834.64 13.956 1825.99 9.99866L1825.37 11.3625C1834.41 15.502 1845.28 15.3748 1854.52 13.6517L1854.24 12.1771ZM1863.53 5.53429C1861.76 7.76608 1858.56 10.4259 1854.1 12.2185L1854.66 13.6104C1859.36 11.7239 1862.77 8.90919 1864.71 6.46571L1863.53 5.53429ZM1867.25 8.99772L1864.73 5.55662L1863.52 6.44338L1866.04 9.88448L1867.25 8.99772ZM1873.51 4.93242C1872.24 6.0304 1869.74 7.41342 1866.37 8.74339L1866.92 10.1388C1870.34 8.78943 1873.03 7.33229 1874.49 6.06758L1873.51 4.93242ZM1927.19 3.44509C1920.01 9.97894 1899.04 21.8104 1874.43 4.88206L1873.57 6.11794C1898.98 23.5896 1920.72 11.3544 1928.2 4.55491L1927.19 3.44509ZM1986.24 5.43756C1977.36 13.2729 1953.27 23.9192 1928.17 3.4191L1927.22 4.5809C1953.06 25.6808 1977.98 14.7271 1987.24 6.56244L1986.24 5.43756ZM2034.82 5.48565C2031.55 8.95826 2025.21 13.1684 2016.92 14.3956C2008.66 15.6185 1998.39 13.888 1987.19 5.4023L1986.29 6.5977C1997.78 15.312 2008.45 17.1648 2017.14 15.8794C2025.8 14.5983 2032.43 10.2084 2035.91 6.51435L2034.82 5.48565ZM2078.19 3.5343C2073.4 9.58062 2058.11 18.7577 2035.75 5.35669L2034.98 6.64331C2058 20.4423 2074.12 11.086 2079.37 4.4657L2078.19 3.5343ZM2118.23 3.43241C2112.43 8.44233 2096.45 15.5342 2079.21 3.38692L2078.35 4.61308C2096.3 17.2658 2113.05 9.891 2119.21 4.56759L2118.23 3.43241ZM2171.47 4.94508C2164.37 11.4069 2143.83 20.361 2119.15 3.38206L2118.3 4.61794C2143.62 22.039 2164.92 12.9265 2172.48 6.05492L2171.47 4.94508ZM2230.52 6.93756C2221.64 14.7729 2197.55 25.4192 2172.45 4.9191L2171.5 6.0809C2197.34 27.1808 2222.26 16.2271 2231.52 8.06244L2230.52 6.93756ZM2279.1 6.98564C2275.83 10.4583 2269.49 14.6684 2261.2 15.8956C2252.94 17.1185 2242.67 15.388 2231.47 6.9023L2230.57 8.0977C2242.06 16.812 2252.73 18.6648 2261.42 17.3794C2270.08 16.0983 2276.71 11.7084 2280.19 8.01436L2279.1 6.98564ZM2322.47 5.0343C2317.68 11.0806 2302.39 20.2577 2280.03 6.85669L2279.26 8.1433C2302.28 21.9423 2318.4 12.586 2323.65 5.9657L2322.47 5.0343ZM2362.51 4.93242C2356.71 9.94233 2340.73 17.0342 2323.49 4.88692L2322.63 6.11308C2340.58 18.7658 2357.33 11.391 2363.49 6.06758L2362.51 4.93242ZM2415.75 6.44509C2408.65 12.9069 2388.11 21.861 2363.43 4.88206L2362.58 6.11794C2387.91 23.539 2409.2 14.4265 2416.76 7.55491L2415.75 6.44509ZM2474.8 8.43756C2465.92 16.2729 2441.83 26.9192 2416.73 6.4191L2415.78 7.5809C2441.62 28.6808 2466.54 17.7271 2475.8 9.56244L2474.8 8.43756ZM2523.38 8.48565C2520.11 11.9583 2513.77 16.1684 2505.48 17.3956C2497.22 18.6185 2486.95 16.888 2475.75 8.4023L2474.85 9.5977C2486.34 18.312 2497.01 20.1648 2505.7 18.8794C2514.36 17.5983 2520.99 13.2084 2524.47 9.51435L2523.38 8.48565ZM2566.75 6.5343C2561.96 12.5806 2546.67 21.7577 2524.31 8.35669L2523.54 9.64331C2546.56 23.4423 2562.68 14.086 2567.93 7.4657L2566.75 6.5343ZM2606.79 6.43241C2600.99 11.4423 2585.01 18.5342 2567.77 6.38692L2566.91 7.61308C2584.86 20.2658 2601.61 12.891 2607.77 7.56759L2606.79 6.43241ZM2660.03 7.94508C2652.93 14.4069 2632.39 23.361 2607.71 6.38206L2606.86 7.61794C2632.19 25.039 2653.48 15.9265 2661.04 9.05492L2660.03 7.94508ZM2719.08 9.93756C2710.2 17.7729 2686.11 28.4192 2661.01 7.9191L2660.06 9.0809C2685.9 30.1808 2710.82 19.2271 2720.08 11.0624L2719.08 9.93756ZM2767.66 9.98564C2764.39 13.4583 2758.05 17.6684 2749.76 18.8956C2741.5 20.1185 2731.23 18.388 2720.03 9.9023L2719.13 11.0977C2730.62 19.812 2741.29 21.6648 2749.98 20.3794C2758.64 19.0983 2765.27 14.7084 2768.75 11.0144L2767.66 9.98564ZM2811.03 8.0343C2806.24 14.0806 2790.95 23.2577 2768.59 9.8567L2767.82 11.1433C2790.84 24.9423 2806.96 15.586 2812.21 8.9657L2811.03 8.0343ZM2812.27 8.116L2812.23 8.05697L2811.01 8.94303L2811.06 9.00206L2812.27 8.116ZM2811.36 7.61307L2811.02 8.1721L2812.31 8.94596L2812.64 8.38693L2811.36 7.61307ZM2864.51 4.93241C2863.12 6.13548 2860.26 7.67522 2856.41 9.11137C2852.58 10.5391 2847.84 11.8391 2842.75 12.5956C2832.52 14.113 2821 13.4249 2812.43 7.38692L2811.57 8.61308C2820.6 14.9751 2832.58 15.6204 2842.97 14.0794C2848.17 13.3068 2853.01 11.9796 2856.93 10.5168C2860.83 9.06228 2863.89 7.44785 2865.49 6.06759L2864.51 4.93241ZM2918.19 3.44509C2911.01 9.97894 2890.04 21.8104 2865.43 4.88206L2864.57 6.11794C2889.98 23.5896 2911.72 11.3544 2919.2 4.55491L2918.19 3.44509ZM2977.24 5.43756C2968.36 13.2729 2944.27 23.9192 2919.17 3.4191L2918.22 4.5809C2944.06 25.6808 2968.98 14.7271 2978.24 6.56244L2977.24 5.43756ZM3025.82 5.48565C3022.55 8.95826 3016.21 13.1684 3007.92 14.3956C2999.66 15.6185 2989.39 13.888 2978.19 5.4023L2977.29 6.5977C2988.78 15.312 2999.45 17.1648 3008.14 15.8794C3016.8 14.5983 3023.43 10.2084 3026.91 6.51435L3025.82 5.48565ZM3069.19 3.5343C3064.4 9.58062 3049.11 18.7577 3026.75 5.35669L3025.98 6.64331C3049 20.4423 3065.12 11.086 3070.37 4.4657L3069.19 3.5343ZM3109.23 3.43241C3103.43 8.44233 3087.45 15.5342 3070.21 3.38692L3069.35 4.61308C3087.3 17.2658 3104.05 9.891 3110.21 4.56759L3109.23 3.43241ZM3162.47 4.94508C3155.37 11.4069 3134.83 20.361 3110.15 3.38206L3109.3 4.61794C3134.62 22.039 3155.92 12.9265 3163.48 6.05492L3162.47 4.94508ZM3221.52 6.93756C3212.64 14.7729 3188.55 25.4192 3163.45 4.9191L3162.5 6.0809C3188.34 27.1808 3213.26 16.2271 3222.52 8.06244L3221.52 6.93756ZM3270.1 6.98564C3266.83 10.4583 3260.49 14.6684 3252.2 15.8956C3243.94 17.1185 3233.67 15.388 3222.47 6.9023L3221.57 8.0977C3233.06 16.812 3243.73 18.6648 3252.42 17.3794C3261.08 16.0983 3267.71 11.7084 3271.19 8.01436L3270.1 6.98564ZM3313.47 5.0343C3308.68 11.0806 3293.39 20.2577 3271.03 6.85669L3270.26 8.1433C3293.28 21.9423 3309.4 12.586 3314.65 5.9657L3313.47 5.0343ZM3353.51 4.93242C3347.71 9.94233 3331.73 17.0342 3314.49 4.88692L3313.63 6.11308C3331.58 18.7658 3348.33 11.391 3354.49 6.06758L3353.51 4.93242ZM3406.75 6.44509C3399.65 12.9069 3379.11 21.861 3354.43 4.88206L3353.58 6.11794C3378.91 23.539 3400.2 14.4265 3407.76 7.55491L3406.75 6.44509ZM3465.8 8.43756C3456.92 16.2729 3432.83 26.9192 3407.73 6.4191L3406.78 7.5809C3432.62 28.6808 3457.54 17.7271 3466.8 9.56244L3465.8 8.43756ZM3514.38 8.48565C3511.11 11.9583 3504.77 16.1684 3496.48 17.3956C3488.22 18.6185 3477.95 16.888 3466.75 8.4023L3465.85 9.5977C3477.34 18.312 3488.01 20.1648 3496.7 18.8794C3505.36 17.5983 3511.99 13.2084 3515.47 9.51435L3514.38 8.48565ZM3557.75 6.5343C3552.96 12.5806 3537.67 21.7577 3515.31 8.35669L3514.54 9.64331C3537.56 23.4423 3553.68 14.086 3558.93 7.4657L3557.75 6.5343ZM3597.79 6.43241C3591.99 11.4423 3576.01 18.5342 3558.77 6.38692L3557.91 7.61308C3575.86 20.2658 3592.61 12.891 3598.77 7.56759L3597.79 6.43241ZM3651.03 7.94508C3643.93 14.4069 3623.39 23.361 3598.71 6.38206L3597.86 7.61794C3623.19 25.039 3644.48 15.9265 3652.04 9.05492L3651.03 7.94508ZM3710.08 9.93756C3701.2 17.7729 3677.11 28.4192 3652.01 7.9191L3651.06 9.0809C3676.9 30.1808 3701.82 19.2271 3711.08 11.0624L3710.08 9.93756ZM3758.66 9.98564C3755.39 13.4583 3749.05 17.6684 3740.76 18.8956C3732.5 20.1185 3722.23 18.388 3711.03 9.9023L3710.13 11.0977C3721.62 19.812 3732.29 21.6648 3740.98 20.3794C3749.64 19.0983 3756.27 14.7084 3759.75 11.0144L3758.66 9.98564ZM3802.03 8.0343C3797.24 14.0806 3781.95 23.2577 3759.59 9.8567L3758.82 11.1433C3781.84 24.9423 3797.96 15.586 3803.21 8.9657L3802.03 8.0343ZM3905.1 147.057L3803.23 8.05663L3802.02 8.94337L3903.9 147.943L3905.1 147.057ZM2913.5 148.25H3904.5V146.75H2913.5V148.25ZM2728 148.25H2913.5V146.75H2728V148.25ZM1737 148.25H2728V146.75H1737V148.25ZM1737.86 144.613L1736.36 147.113L1737.64 147.887L1739.15 145.387L1737.86 144.613ZM975.5 145.75H1738.51V144.25H975.5V145.75ZM789.5 145.75H975.5V144.25H789.5V145.75ZM-201 145.75H789.5V144.25H-201V145.75ZM-106.627 -0.41102L-201.627 144.589L-200.373 145.411L-105.373 0.41102L-106.627 -0.41102ZM-64.0487 -0.567582C-66.9127 1.90619 -72.9783 4.95386 -80.5112 5.84267C-88.0179 6.72839 -96.9415 5.46559 -105.568 -0.613082L-106.432 0.613082C-97.4611 6.93441 -88.1547 8.25494 -80.3354 7.33233C-72.5423 6.41281 -66.1859 3.26047 -63.0682 0.567582L-64.0487 -0.567582ZM-10.8076 0.945082C-17.9146 7.40687 -38.448 16.361 -63.1334 -0.617942L-63.9835 0.617942C-38.6552 18.039 -17.3562 8.92647 -9.79855 2.05492L-10.8076 0.945082ZM48.2447 2.93756C39.3626 10.7729 15.2741 21.4192 -9.8287 0.919096L-10.7775 2.0809C15.0596 23.1808 39.9815 12.2271 49.237 4.06244L48.2447 2.93756ZM96.8195 2.98564C93.5471 6.45826 87.2132 10.6684 78.9201 11.8956C70.6557 13.1185 60.3888 11.388 49.1939 2.9023L48.2878 4.0977C59.7844 12.812 70.453 14.6648 79.1396 13.3794C87.7976 12.0983 94.4302 7.70841 97.9112 4.01436L96.8195 2.98564Z" fill="black"/>
</g>
<defs>
<clipPath id="clip0_323_10311">
<rect width="3300" height="52" fill="white"/>
</clipPath>
</defs>
</svg>
