<svg width="287" height="358" viewBox="0 0 287 358" fill="none" xmlns="http://www.w3.org/2000/svg">
<path d="M35.5935 53.3745C36.4664 56.1859 38.3521 57.6394 42.2196 59.2346C45.8472 59.4701 49.5158 59.1509 53.1886 58.3705C67.8139 61.4884 86.8269 52.5447 94.5052 47.6832H111.324C99.0552 53.6702 81.8785 61.4538 75.4922 62.1646L50.6292 64.2187L22.4531 53.3745H35.5935Z" fill="#EDF8AC"/>
<path d="M75.4922 62.1646H237.102V69.856H35.5935V65.4609L50.6292 64.2187L75.4922 62.1646Z" fill="#EDF8AC"/>
<path d="M56.845 117.469C123.829 108.679 204.926 116.004 237.102 120.765C197.004 118.08 102.695 114.832 46.2416 123.329C44.5055 117.957 39.9453 106.994 35.5935 106.115C43.7479 106.994 53.1588 114.051 56.845 117.469Z" fill="black"/>
<path d="M29.4225 133.951C54.773 132.974 108.765 131.021 121.928 131.021C96.9427 131.997 44.9253 135.196 36.7351 140.177C33.2251 138.712 31.1288 137.857 30.5194 137.613L26.4974 140.177L9.31265 131.021V121.864L29.4225 133.951Z" fill="black"/>
<path d="M119.003 43.8519H253.19H277.687C267.45 58.7951 246.365 62.2867 237.102 62.1646H75.4922C81.8785 61.4538 99.0552 53.6702 111.324 47.6832C114.228 46.2663 116.857 44.95 119.003 43.8519Z" fill="#EDF8AC"/>
<path d="M237.102 106.115H35.5935V98.4239V94.5782V90.7325V84.8724V74.251V69.856H237.102V75.3498V82.3086V90.7325V98.4239V106.115Z" fill="#EDF8AC"/>
<path d="M237.102 106.115C244.049 109.534 257.943 118.128 257.943 125.16C252.702 122.841 241.197 118.714 237.102 120.765C204.926 116.004 123.829 108.679 56.845 117.469C53.1588 114.051 43.7479 106.994 35.5935 106.115H237.102Z" fill="#EDF8AC"/>
<path d="M121.928 131.021C135.09 131.021 69.8561 129.311 35.5935 128.457V117.286V111.701V106.115C39.9453 106.994 44.5055 117.957 46.2416 123.329C102.695 114.832 197.004 118.08 237.102 120.765V131.021V137.613V143.107V148.601V154.827V187.424V192.918V238.7V244.193V249.687V255.914V270.93V276.424V281.918V288.144V357H36.7351V281.918V276.424V249.687V244.193V199.144V192.918V187.424V181.93V172.041V161.053V148.601V143.107V140.177C44.9253 135.196 96.9427 131.997 121.928 131.021Z" fill="#EDF8AC"/>
<path d="M9.31265 113.44L35.5935 128.457C69.8561 129.311 135.09 131.021 121.928 131.021C108.765 131.021 54.773 132.974 29.4225 133.951L9.31265 121.864L2 117.469L9.31265 113.44Z" fill="#EDF8AC"/>
<path d="M30.5194 137.613C31.1288 137.857 33.2251 138.712 36.7351 140.177V143.107V148.601V161.053V172.041L9.31265 157.025V131.021L26.4974 140.177L30.5194 137.613Z" fill="#EDF8AC"/>
<path d="M36.7351 172.041V181.93V187.424V192.918V199.144V244.193V249.687V276.424V281.918V357H9.31265V157.025L36.7351 172.041Z" fill="#EDF8AC"/>
<path d="M9.31265 53.3745L35.5935 65.4609V69.856V74.251V84.8724V90.7325V94.5782V98.4239V106.115V111.701V117.286V128.457L9.31265 113.44V102.819V90.7325V53.3745Z" fill="#EDF8AC"/>
<path d="M285 1C279.516 10.4005 265.475 32.1317 253.19 43.8519H119.003C116.857 44.95 114.228 46.2663 111.324 47.6832H94.5052C86.8269 52.5447 67.8139 61.4884 53.1886 58.3705C61.8343 56.5337 70.5029 52.1417 78.7123 46.4156C97.3867 33.3901 113.684 13.461 121.928 1H285Z" fill="#EDF8AC"/>
<path d="M34.907 46.4156H78.7123C70.5029 52.1417 61.8343 56.5337 53.1886 58.3705C49.5158 59.1509 45.8472 59.4701 42.2196 59.2346C38.3521 57.6394 36.4664 56.1859 35.5935 53.3745C35.0635 51.6674 34.907 49.4597 34.907 46.4156Z" fill="#EDF8AC"/>
<path d="M35.5935 65.4609L9.31265 53.3745H22.4531L50.6292 64.2187L35.5935 65.4609Z" fill="#EDF8AC"/>
<path d="M285 1V0.25H286.306L285.648 1.37795L285 1ZM119.003 43.8519L118.661 43.1842L118.822 43.1019H119.003V43.8519ZM237.102 62.1646V61.4145L237.112 61.4147L237.102 62.1646ZM277.687 43.8519V43.1019H279.11L278.306 44.2757L277.687 43.8519ZM121.928 1L121.302 0.586204L121.525 0.25H121.928V1ZM42.2196 59.2346L42.1711 59.983L42.0478 59.975L41.9337 59.9279L42.2196 59.2346ZM34.907 46.4156H34.157V45.6656H34.907V46.4156ZM35.5935 53.3745L36.3098 53.1521L35.5935 53.3745ZM9.31265 53.3745H8.56265V52.6245H9.31265V53.3745ZM111.324 47.6832L111.653 48.3572L111.324 47.6832ZM94.5052 47.6832L94.104 47.0495L94.2877 46.9332H94.5052V47.6832ZM53.1886 58.3705L53.0328 57.6369L53.1886 58.3705ZM257.943 125.16H258.693V126.313L257.64 125.846L257.943 125.16ZM237.102 357H237.852V357.75H237.102V357ZM35.5935 128.457L35.5748 129.207L35.3857 129.202L35.2214 129.108L35.5935 128.457ZM2 117.469L1.61365 118.112L0.49707 117.441L1.63809 116.812L2 117.469ZM29.4225 133.951L29.4514 134.7L29.2278 134.709L29.0361 134.593L29.4225 133.951ZM30.5194 137.613L30.1162 136.981L30.4409 136.774L30.7983 136.917L30.5194 137.613ZM26.4974 140.177L26.9005 140.809L26.5312 141.045L26.1447 140.839L26.4974 140.177ZM9.31265 357V357.75H8.56265V357H9.31265ZM56.845 117.469L56.9426 118.213L56.5933 118.259L56.335 118.019L56.845 117.469ZM46.2416 123.329L46.3532 124.071L45.7237 124.166L45.528 123.56L46.2416 123.329ZM285.648 1.37795C280.159 10.7865 266.074 32.5966 253.708 44.3945L252.672 43.3092C264.876 31.6668 278.872 10.0146 284.352 0.622053L285.648 1.37795ZM253.19 44.6019C253.184 44.6019 253.178 44.6019 253.172 44.6019C253.165 44.6019 253.159 44.6019 253.152 44.6019C253.145 44.6019 253.137 44.6019 253.13 44.6019C253.122 44.6019 253.114 44.6019 253.106 44.6019C253.098 44.6019 253.089 44.6019 253.08 44.6019C253.071 44.6019 253.062 44.6019 253.052 44.6019C253.043 44.6019 253.033 44.6019 253.023 44.6019C253.013 44.6019 253.002 44.6019 252.991 44.6019C252.98 44.6019 252.969 44.6019 252.958 44.6019C252.946 44.6019 252.935 44.6019 252.922 44.6019C252.91 44.6019 252.898 44.6019 252.885 44.6019C252.872 44.6019 252.859 44.6019 252.846 44.6019C252.833 44.6019 252.819 44.6019 252.805 44.6019C252.791 44.6019 252.777 44.6019 252.762 44.6019C252.748 44.6019 252.733 44.6019 252.718 44.6019C252.702 44.6019 252.687 44.6019 252.671 44.6019C252.655 44.6019 252.639 44.6019 252.623 44.6019C252.606 44.6019 252.59 44.6019 252.572 44.6019C252.555 44.6019 252.538 44.6019 252.52 44.6019C252.503 44.6019 252.485 44.6019 252.467 44.6019C252.448 44.6019 252.43 44.6019 252.411 44.6019C252.392 44.6019 252.373 44.6019 252.353 44.6019C252.334 44.6019 252.314 44.6019 252.294 44.6019C252.274 44.6019 252.253 44.6019 252.233 44.6019C252.212 44.6019 252.191 44.6019 252.17 44.6019C252.148 44.6019 252.127 44.6019 252.105 44.6019C252.083 44.6019 252.061 44.6019 252.038 44.6019C252.016 44.6019 251.993 44.6019 251.97 44.6019C251.947 44.6019 251.924 44.6019 251.9 44.6019C251.876 44.6019 251.852 44.6019 251.828 44.6019C251.804 44.6019 251.779 44.6019 251.754 44.6019C251.73 44.6019 251.704 44.6019 251.679 44.6019C251.653 44.6019 251.628 44.6019 251.602 44.6019C251.576 44.6019 251.549 44.6019 251.523 44.6019C251.496 44.6019 251.469 44.6019 251.442 44.6019C251.415 44.6019 251.387 44.6019 251.36 44.6019C251.332 44.6019 251.304 44.6019 251.276 44.6019C251.247 44.6019 251.219 44.6019 251.19 44.6019C251.161 44.6019 251.131 44.6019 251.102 44.6019C251.073 44.6019 251.043 44.6019 251.013 44.6019C250.983 44.6019 250.952 44.6019 250.922 44.6019C250.891 44.6019 250.86 44.6019 250.829 44.6019C250.798 44.6019 250.766 44.6019 250.734 44.6019C250.703 44.6019 250.671 44.6019 250.638 44.6019C250.606 44.6019 250.573 44.6019 250.54 44.6019C250.508 44.6019 250.474 44.6019 250.441 44.6019C250.408 44.6019 250.374 44.6019 250.34 44.6019C250.306 44.6019 250.272 44.6019 250.237 44.6019C250.202 44.6019 250.168 44.6019 250.132 44.6019C250.097 44.6019 250.062 44.6019 250.026 44.6019C249.991 44.6019 249.955 44.6019 249.918 44.6019C249.882 44.6019 249.846 44.6019 249.809 44.6019C249.772 44.6019 249.735 44.6019 249.698 44.6019C249.661 44.6019 249.623 44.6019 249.585 44.6019C249.547 44.6019 249.509 44.6019 249.471 44.6019C249.432 44.6019 249.394 44.6019 249.355 44.6019C249.316 44.6019 249.277 44.6019 249.237 44.6019C249.198 44.6019 249.158 44.6019 249.118 44.6019C249.078 44.6019 249.038 44.6019 248.997 44.6019C248.956 44.6019 248.916 44.6019 248.875 44.6019C248.833 44.6019 248.792 44.6019 248.75 44.6019C248.709 44.6019 248.667 44.6019 248.625 44.6019C248.583 44.6019 248.54 44.6019 248.498 44.6019C248.455 44.6019 248.412 44.6019 248.369 44.6019C248.326 44.6019 248.282 44.6019 248.238 44.6019C248.195 44.6019 248.151 44.6019 248.107 44.6019C248.062 44.6019 248.018 44.6019 247.973 44.6019C247.928 44.6019 247.883 44.6019 247.838 44.6019C247.793 44.6019 247.747 44.6019 247.701 44.6019C247.656 44.6019 247.61 44.6019 247.563 44.6019C247.517 44.6019 247.47 44.6019 247.424 44.6019C247.377 44.6019 247.33 44.6019 247.282 44.6019C247.235 44.6019 247.187 44.6019 247.14 44.6019C247.092 44.6019 247.044 44.6019 246.995 44.6019C246.947 44.6019 246.898 44.6019 246.85 44.6019C246.801 44.6019 246.752 44.6019 246.702 44.6019C246.653 44.6019 246.603 44.6019 246.554 44.6019C246.504 44.6019 246.454 44.6019 246.403 44.6019C246.353 44.6019 246.302 44.6019 246.252 44.6019C246.201 44.6019 246.15 44.6019 246.098 44.6019C246.047 44.6019 245.995 44.6019 245.944 44.6019C245.892 44.6019 245.84 44.6019 245.787 44.6019C245.735 44.6019 245.682 44.6019 245.63 44.6019C245.577 44.6019 245.524 44.6019 245.47 44.6019C245.417 44.6019 245.364 44.6019 245.31 44.6019C245.256 44.6019 245.202 44.6019 245.148 44.6019C245.094 44.6019 245.039 44.6019 244.984 44.6019C244.93 44.6019 244.875 44.6019 244.819 44.6019C244.764 44.6019 244.709 44.6019 244.653 44.6019C244.597 44.6019 244.541 44.6019 244.485 44.6019C244.429 44.6019 244.373 44.6019 244.316 44.6019C244.259 44.6019 244.202 44.6019 244.145 44.6019C244.088 44.6019 244.031 44.6019 243.973 44.6019C243.916 44.6019 243.858 44.6019 243.8 44.6019C243.742 44.6019 243.684 44.6019 243.625 44.6019C243.567 44.6019 243.508 44.6019 243.449 44.6019C243.39 44.6019 243.331 44.6019 243.271 44.6019C243.212 44.6019 243.152 44.6019 243.092 44.6019C243.032 44.6019 242.972 44.6019 242.912 44.6019C242.851 44.6019 242.791 44.6019 242.73 44.6019C242.669 44.6019 242.608 44.6019 242.547 44.6019C242.486 44.6019 242.424 44.6019 242.362 44.6019C242.301 44.6019 242.239 44.6019 242.177 44.6019C242.114 44.6019 242.052 44.6019 241.989 44.6019C241.927 44.6019 241.864 44.6019 241.801 44.6019C241.738 44.6019 241.674 44.6019 241.611 44.6019C241.547 44.6019 241.484 44.6019 241.42 44.6019C241.356 44.6019 241.292 44.6019 241.227 44.6019C241.163 44.6019 241.098 44.6019 241.033 44.6019C240.969 44.6019 240.904 44.6019 240.838 44.6019C240.773 44.6019 240.708 44.6019 240.642 44.6019C240.576 44.6019 240.51 44.6019 240.444 44.6019C240.378 44.6019 240.312 44.6019 240.245 44.6019C240.178 44.6019 240.112 44.6019 240.045 44.6019C239.978 44.6019 239.91 44.6019 239.843 44.6019C239.776 44.6019 239.708 44.6019 239.64 44.6019C239.572 44.6019 239.504 44.6019 239.436 44.6019C239.368 44.6019 239.299 44.6019 239.231 44.6019C239.162 44.6019 239.093 44.6019 239.024 44.6019C238.955 44.6019 238.885 44.6019 238.816 44.6019C238.746 44.6019 238.677 44.6019 238.607 44.6019C238.537 44.6019 238.467 44.6019 238.396 44.6019C238.326 44.6019 238.255 44.6019 238.185 44.6019C238.114 44.6019 238.043 44.6019 237.972 44.6019C237.9 44.6019 237.829 44.6019 237.758 44.6019C237.686 44.6019 237.614 44.6019 237.542 44.6019C237.47 44.6019 237.398 44.6019 237.326 44.6019C237.253 44.6019 237.181 44.6019 237.108 44.6019C237.035 44.6019 236.962 44.6019 236.889 44.6019C236.816 44.6019 236.742 44.6019 236.669 44.6019C236.595 44.6019 236.521 44.6019 236.447 44.6019C236.373 44.6019 236.299 44.6019 236.225 44.6019C236.15 44.6019 236.076 44.6019 236.001 44.6019C235.926 44.6019 235.851 44.6019 235.776 44.6019C235.701 44.6019 235.625 44.6019 235.55 44.6019C235.474 44.6019 235.399 44.6019 235.323 44.6019C235.247 44.6019 235.171 44.6019 235.094 44.6019C235.018 44.6019 234.941 44.6019 234.865 44.6019C234.788 44.6019 234.711 44.6019 234.634 44.6019C234.557 44.6019 234.48 44.6019 234.402 44.6019C234.325 44.6019 234.247 44.6019 234.169 44.6019C234.091 44.6019 234.013 44.6019 233.935 44.6019C233.857 44.6019 233.778 44.6019 233.7 44.6019C233.621 44.6019 233.542 44.6019 233.464 44.6019C233.385 44.6019 233.305 44.6019 233.226 44.6019C233.147 44.6019 233.067 44.6019 232.987 44.6019C232.908 44.6019 232.828 44.6019 232.748 44.6019C232.668 44.6019 232.588 44.6019 232.507 44.6019C232.427 44.6019 232.346 44.6019 232.265 44.6019C232.184 44.6019 232.103 44.6019 232.022 44.6019C231.941 44.6019 231.86 44.6019 231.778 44.6019C231.697 44.6019 231.615 44.6019 231.533 44.6019C231.451 44.6019 231.369 44.6019 231.287 44.6019C231.205 44.6019 231.123 44.6019 231.04 44.6019C230.957 44.6019 230.875 44.6019 230.792 44.6019C230.709 44.6019 230.626 44.6019 230.542 44.6019C230.459 44.6019 230.376 44.6019 230.292 44.6019C230.208 44.6019 230.125 44.6019 230.041 44.6019C229.957 44.6019 229.873 44.6019 229.788 44.6019C229.704 44.6019 229.62 44.6019 229.535 44.6019C229.45 44.6019 229.365 44.6019 229.28 44.6019C229.195 44.6019 229.11 44.6019 229.025 44.6019C228.94 44.6019 228.854 44.6019 228.769 44.6019C228.683 44.6019 228.597 44.6019 228.511 44.6019C228.425 44.6019 228.339 44.6019 228.253 44.6019C228.166 44.6019 228.08 44.6019 227.993 44.6019C227.907 44.6019 227.82 44.6019 227.733 44.6019C227.646 44.6019 227.559 44.6019 227.471 44.6019C227.384 44.6019 227.297 44.6019 227.209 44.6019C227.121 44.6019 227.034 44.6019 226.946 44.6019C226.858 44.6019 226.77 44.6019 226.681 44.6019C226.593 44.6019 226.505 44.6019 226.416 44.6019C226.327 44.6019 226.239 44.6019 226.15 44.6019C226.061 44.6019 225.972 44.6019 225.883 44.6019C225.794 44.6019 225.704 44.6019 225.615 44.6019C225.525 44.6019 225.435 44.6019 225.346 44.6019C225.256 44.6019 225.166 44.6019 225.076 44.6019C224.986 44.6019 224.895 44.6019 224.805 44.6019C224.714 44.6019 224.624 44.6019 224.533 44.6019C224.442 44.6019 224.351 44.6019 224.26 44.6019C224.169 44.6019 224.078 44.6019 223.987 44.6019C223.895 44.6019 223.804 44.6019 223.712 44.6019C223.621 44.6019 223.529 44.6019 223.437 44.6019C223.345 44.6019 223.253 44.6019 223.161 44.6019C223.068 44.6019 222.976 44.6019 222.883 44.6019C222.791 44.6019 222.698 44.6019 222.605 44.6019C222.513 44.6019 222.42 44.6019 222.327 44.6019C222.233 44.6019 222.14 44.6019 222.047 44.6019C221.953 44.6019 221.86 44.6019 221.766 44.6019C221.672 44.6019 221.579 44.6019 221.485 44.6019C221.391 44.6019 221.297 44.6019 221.202 44.6019C221.108 44.6019 221.014 44.6019 220.919 44.6019C220.825 44.6019 220.73 44.6019 220.635 44.6019C220.54 44.6019 220.446 44.6019 220.35 44.6019C220.255 44.6019 220.16 44.6019 220.065 44.6019C219.969 44.6019 219.874 44.6019 219.778 44.6019C219.683 44.6019 219.587 44.6019 219.491 44.6019C219.395 44.6019 219.299 44.6019 219.203 44.6019C219.107 44.6019 219.011 44.6019 218.914 44.6019C218.818 44.6019 218.721 44.6019 218.625 44.6019C218.528 44.6019 218.431 44.6019 218.334 44.6019C218.237 44.6019 218.14 44.6019 218.043 44.6019C217.946 44.6019 217.848 44.6019 217.751 44.6019C217.653 44.6019 217.556 44.6019 217.458 44.6019C217.36 44.6019 217.263 44.6019 217.165 44.6019C217.067 44.6019 216.968 44.6019 216.87 44.6019C216.772 44.6019 216.674 44.6019 216.575 44.6019C216.477 44.6019 216.378 44.6019 216.279 44.6019C216.181 44.6019 216.082 44.6019 215.983 44.6019C215.884 44.6019 215.785 44.6019 215.686 44.6019C215.586 44.6019 215.487 44.6019 215.388 44.6019C215.288 44.6019 215.189 44.6019 215.089 44.6019C214.989 44.6019 214.889 44.6019 214.789 44.6019C214.69 44.6019 214.589 44.6019 214.489 44.6019C214.389 44.6019 214.289 44.6019 214.188 44.6019C214.088 44.6019 213.988 44.6019 213.887 44.6019C213.786 44.6019 213.685 44.6019 213.585 44.6019C213.484 44.6019 213.383 44.6019 213.282 44.6019C213.181 44.6019 213.079 44.6019 212.978 44.6019C212.877 44.6019 212.775 44.6019 212.674 44.6019C212.572 44.6019 212.471 44.6019 212.369 44.6019C212.267 44.6019 212.165 44.6019 212.063 44.6019C211.961 44.6019 211.859 44.6019 211.757 44.6019C211.655 44.6019 211.552 44.6019 211.45 44.6019C211.347 44.6019 211.245 44.6019 211.142 44.6019C211.04 44.6019 210.937 44.6019 210.834 44.6019C210.731 44.6019 210.628 44.6019 210.525 44.6019C210.422 44.6019 210.319 44.6019 210.216 44.6019C210.112 44.6019 210.009 44.6019 209.905 44.6019C209.802 44.6019 209.698 44.6019 209.595 44.6019C209.491 44.6019 209.387 44.6019 209.283 44.6019C209.179 44.6019 209.075 44.6019 208.971 44.6019C208.867 44.6019 208.763 44.6019 208.659 44.6019C208.554 44.6019 208.45 44.6019 208.345 44.6019C208.241 44.6019 208.136 44.6019 208.032 44.6019C207.927 44.6019 207.822 44.6019 207.717 44.6019C207.612 44.6019 207.507 44.6019 207.402 44.6019C207.297 44.6019 207.192 44.6019 207.087 44.6019C206.982 44.6019 206.876 44.6019 206.771 44.6019C206.665 44.6019 206.56 44.6019 206.454 44.6019C206.348 44.6019 206.243 44.6019 206.137 44.6019C206.031 44.6019 205.925 44.6019 205.819 44.6019C205.713 44.6019 205.607 44.6019 205.501 44.6019C205.395 44.6019 205.288 44.6019 205.182 44.6019C205.076 44.6019 204.969 44.6019 204.863 44.6019C204.756 44.6019 204.649 44.6019 204.543 44.6019C204.436 44.6019 204.329 44.6019 204.222 44.6019C204.115 44.6019 204.008 44.6019 203.901 44.6019C203.794 44.6019 203.687 44.6019 203.58 44.6019C203.473 44.6019 203.365 44.6019 203.258 44.6019C203.15 44.6019 203.043 44.6019 202.935 44.6019C202.828 44.6019 202.72 44.6019 202.612 44.6019C202.505 44.6019 202.397 44.6019 202.289 44.6019C202.181 44.6019 202.073 44.6019 201.965 44.6019C201.857 44.6019 201.749 44.6019 201.641 44.6019C201.532 44.6019 201.424 44.6019 201.316 44.6019C201.207 44.6019 201.099 44.6019 200.99 44.6019C200.882 44.6019 200.773 44.6019 200.665 44.6019C200.556 44.6019 200.447 44.6019 200.338 44.6019C200.23 44.6019 200.121 44.6019 200.012 44.6019C199.903 44.6019 199.794 44.6019 199.685 44.6019C199.575 44.6019 199.466 44.6019 199.357 44.6019C199.248 44.6019 199.138 44.6019 199.029 44.6019C198.92 44.6019 198.81 44.6019 198.701 44.6019C198.591 44.6019 198.481 44.6019 198.372 44.6019C198.262 44.6019 198.152 44.6019 198.042 44.6019C197.933 44.6019 197.823 44.6019 197.713 44.6019C197.603 44.6019 197.493 44.6019 197.383 44.6019C197.273 44.6019 197.162 44.6019 197.052 44.6019C196.942 44.6019 196.832 44.6019 196.721 44.6019C196.611 44.6019 196.501 44.6019 196.39 44.6019C196.28 44.6019 196.169 44.6019 196.059 44.6019C195.948 44.6019 195.837 44.6019 195.727 44.6019C195.616 44.6019 195.505 44.6019 195.394 44.6019C195.283 44.6019 195.172 44.6019 195.061 44.6019C194.951 44.6019 194.839 44.6019 194.728 44.6019C194.617 44.6019 194.506 44.6019 194.395 44.6019C194.284 44.6019 194.173 44.6019 194.061 44.6019C193.95 44.6019 193.839 44.6019 193.727 44.6019C193.616 44.6019 193.504 44.6019 193.393 44.6019C193.281 44.6019 193.17 44.6019 193.058 44.6019C192.946 44.6019 192.835 44.6019 192.723 44.6019C192.611 44.6019 192.499 44.6019 192.387 44.6019C192.276 44.6019 192.164 44.6019 192.052 44.6019C191.94 44.6019 191.828 44.6019 191.716 44.6019C191.604 44.6019 191.492 44.6019 191.379 44.6019C191.267 44.6019 191.155 44.6019 191.043 44.6019C190.931 44.6019 190.818 44.6019 190.706 44.6019C190.594 44.6019 190.481 44.6019 190.369 44.6019C190.256 44.6019 190.144 44.6019 190.031 44.6019C189.919 44.6019 189.806 44.6019 189.694 44.6019C189.581 44.6019 189.468 44.6019 189.356 44.6019C189.243 44.6019 189.13 44.6019 189.018 44.6019C188.905 44.6019 188.792 44.6019 188.679 44.6019C188.566 44.6019 188.453 44.6019 188.34 44.6019C188.227 44.6019 188.114 44.6019 188.001 44.6019C187.888 44.6019 187.775 44.6019 187.662 44.6019C187.549 44.6019 187.436 44.6019 187.323 44.6019C187.21 44.6019 187.096 44.6019 186.983 44.6019C186.87 44.6019 186.757 44.6019 186.643 44.6019C186.53 44.6019 186.417 44.6019 186.303 44.6019C186.19 44.6019 186.076 44.6019 185.963 44.6019C185.85 44.6019 185.736 44.6019 185.623 44.6019C185.509 44.6019 185.395 44.6019 185.282 44.6019C185.168 44.6019 185.055 44.6019 184.941 44.6019C184.827 44.6019 184.714 44.6019 184.6 44.6019C184.486 44.6019 184.373 44.6019 184.259 44.6019C184.145 44.6019 184.031 44.6019 183.917 44.6019C183.804 44.6019 183.69 44.6019 183.576 44.6019C183.462 44.6019 183.348 44.6019 183.234 44.6019C183.12 44.6019 183.006 44.6019 182.892 44.6019C182.778 44.6019 182.664 44.6019 182.55 44.6019C182.436 44.6019 182.322 44.6019 182.208 44.6019C182.094 44.6019 181.98 44.6019 181.866 44.6019C181.752 44.6019 181.638 44.6019 181.524 44.6019C181.409 44.6019 181.295 44.6019 181.181 44.6019C181.067 44.6019 180.953 44.6019 180.838 44.6019C180.724 44.6019 180.61 44.6019 180.496 44.6019C180.381 44.6019 180.267 44.6019 180.153 44.6019C180.038 44.6019 179.924 44.6019 179.81 44.6019C179.695 44.6019 179.581 44.6019 179.467 44.6019C179.352 44.6019 179.238 44.6019 179.124 44.6019C179.009 44.6019 178.895 44.6019 178.78 44.6019C178.666 44.6019 178.551 44.6019 178.437 44.6019C178.323 44.6019 178.208 44.6019 178.094 44.6019C177.979 44.6019 177.865 44.6019 177.75 44.6019C177.636 44.6019 177.521 44.6019 177.407 44.6019C177.292 44.6019 177.178 44.6019 177.063 44.6019C176.949 44.6019 176.834 44.6019 176.719 44.6019C176.605 44.6019 176.49 44.6019 176.376 44.6019C176.261 44.6019 176.147 44.6019 176.032 44.6019C175.918 44.6019 175.803 44.6019 175.688 44.6019C175.574 44.6019 175.459 44.6019 175.345 44.6019C175.23 44.6019 175.115 44.6019 175.001 44.6019C174.886 44.6019 174.772 44.6019 174.657 44.6019C174.542 44.6019 174.428 44.6019 174.313 44.6019C174.199 44.6019 174.084 44.6019 173.969 44.6019C173.855 44.6019 173.74 44.6019 173.626 44.6019C173.511 44.6019 173.397 44.6019 173.282 44.6019C173.167 44.6019 173.053 44.6019 172.938 44.6019C172.824 44.6019 172.709 44.6019 172.594 44.6019C172.48 44.6019 172.365 44.6019 172.251 44.6019C172.136 44.6019 172.022 44.6019 171.907 44.6019C171.792 44.6019 171.678 44.6019 171.563 44.6019C171.449 44.6019 171.334 44.6019 171.22 44.6019C171.105 44.6019 170.991 44.6019 170.876 44.6019C170.762 44.6019 170.647 44.6019 170.533 44.6019C170.418 44.6019 170.304 44.6019 170.189 44.6019C170.075 44.6019 169.96 44.6019 169.846 44.6019C169.731 44.6019 169.617 44.6019 169.502 44.6019C169.388 44.6019 169.274 44.6019 169.159 44.6019C169.045 44.6019 168.93 44.6019 168.816 44.6019C168.702 44.6019 168.587 44.6019 168.473 44.6019C168.359 44.6019 168.244 44.6019 168.13 44.6019C168.016 44.6019 167.901 44.6019 167.787 44.6019C167.673 44.6019 167.559 44.6019 167.444 44.6019C167.33 44.6019 167.216 44.6019 167.102 44.6019C166.988 44.6019 166.873 44.6019 166.759 44.6019C166.645 44.6019 166.531 44.6019 166.417 44.6019C166.303 44.6019 166.189 44.6019 166.075 44.6019C165.96 44.6019 165.846 44.6019 165.732 44.6019C165.618 44.6019 165.504 44.6019 165.39 44.6019C165.276 44.6019 165.163 44.6019 165.049 44.6019C164.935 44.6019 164.821 44.6019 164.707 44.6019C164.593 44.6019 164.479 44.6019 164.365 44.6019C164.252 44.6019 164.138 44.6019 164.024 44.6019C163.91 44.6019 163.796 44.6019 163.683 44.6019C163.569 44.6019 163.455 44.6019 163.342 44.6019C163.228 44.6019 163.114 44.6019 163.001 44.6019C162.887 44.6019 162.774 44.6019 162.66 44.6019C162.547 44.6019 162.433 44.6019 162.32 44.6019C162.206 44.6019 162.093 44.6019 161.979 44.6019C161.866 44.6019 161.753 44.6019 161.639 44.6019C161.526 44.6019 161.413 44.6019 161.3 44.6019C161.186 44.6019 161.073 44.6019 160.96 44.6019C160.847 44.6019 160.734 44.6019 160.621 44.6019C160.507 44.6019 160.394 44.6019 160.281 44.6019C160.168 44.6019 160.055 44.6019 159.942 44.6019C159.829 44.6019 159.717 44.6019 159.604 44.6019C159.491 44.6019 159.378 44.6019 159.265 44.6019C159.152 44.6019 159.04 44.6019 158.927 44.6019C158.814 44.6019 158.702 44.6019 158.589 44.6019C158.476 44.6019 158.364 44.6019 158.251 44.6019C158.139 44.6019 158.026 44.6019 157.914 44.6019C157.802 44.6019 157.689 44.6019 157.577 44.6019C157.464 44.6019 157.352 44.6019 157.24 44.6019C157.128 44.6019 157.015 44.6019 156.903 44.6019C156.791 44.6019 156.679 44.6019 156.567 44.6019C156.455 44.6019 156.343 44.6019 156.231 44.6019C156.119 44.6019 156.007 44.6019 155.895 44.6019C155.783 44.6019 155.672 44.6019 155.56 44.6019C155.448 44.6019 155.337 44.6019 155.225 44.6019C155.113 44.6019 155.002 44.6019 154.89 44.6019C154.779 44.6019 154.667 44.6019 154.556 44.6019C154.444 44.6019 154.333 44.6019 154.222 44.6019C154.11 44.6019 153.999 44.6019 153.888 44.6019C153.777 44.6019 153.665 44.6019 153.554 44.6019C153.443 44.6019 153.332 44.6019 153.221 44.6019C153.11 44.6019 152.999 44.6019 152.889 44.6019C152.778 44.6019 152.667 44.6019 152.556 44.6019C152.446 44.6019 152.335 44.6019 152.224 44.6019C152.114 44.6019 152.003 44.6019 151.893 44.6019C151.782 44.6019 151.672 44.6019 151.561 44.6019C151.451 44.6019 151.341 44.6019 151.231 44.6019C151.12 44.6019 151.01 44.6019 150.9 44.6019C150.79 44.6019 150.68 44.6019 150.57 44.6019C150.46 44.6019 150.35 44.6019 150.24 44.6019C150.131 44.6019 150.021 44.6019 149.911 44.6019C149.801 44.6019 149.692 44.6019 149.582 44.6019C149.473 44.6019 149.363 44.6019 149.254 44.6019C149.145 44.6019 149.035 44.6019 148.926 44.6019C148.817 44.6019 148.707 44.6019 148.598 44.6019C148.489 44.6019 148.38 44.6019 148.271 44.6019C148.162 44.6019 148.053 44.6019 147.945 44.6019C147.836 44.6019 147.727 44.6019 147.618 44.6019C147.51 44.6019 147.401 44.6019 147.292 44.6019C147.184 44.6019 147.075 44.6019 146.967 44.6019C146.859 44.6019 146.75 44.6019 146.642 44.6019C146.534 44.6019 146.426 44.6019 146.318 44.6019C146.21 44.6019 146.102 44.6019 145.994 44.6019C145.886 44.6019 145.778 44.6019 145.67 44.6019C145.563 44.6019 145.455 44.6019 145.348 44.6019C145.24 44.6019 145.132 44.6019 145.025 44.6019C144.918 44.6019 144.81 44.6019 144.703 44.6019C144.596 44.6019 144.489 44.6019 144.382 44.6019C144.275 44.6019 144.168 44.6019 144.061 44.6019C143.954 44.6019 143.847 44.6019 143.74 44.6019C143.634 44.6019 143.527 44.6019 143.42 44.6019C143.314 44.6019 143.207 44.6019 143.101 44.6019C142.995 44.6019 142.888 44.6019 142.782 44.6019C142.676 44.6019 142.57 44.6019 142.464 44.6019C142.358 44.6019 142.252 44.6019 142.146 44.6019C142.04 44.6019 141.934 44.6019 141.829 44.6019C141.723 44.6019 141.618 44.6019 141.512 44.6019C141.407 44.6019 141.301 44.6019 141.196 44.6019C141.091 44.6019 140.986 44.6019 140.881 44.6019C140.775 44.6019 140.671 44.6019 140.566 44.6019C140.461 44.6019 140.356 44.6019 140.251 44.6019C140.147 44.6019 140.042 44.6019 139.937 44.6019C139.833 44.6019 139.729 44.6019 139.624 44.6019C139.52 44.6019 139.416 44.6019 139.312 44.6019C139.208 44.6019 139.104 44.6019 139 44.6019C138.896 44.6019 138.792 44.6019 138.688 44.6019C138.585 44.6019 138.481 44.6019 138.378 44.6019C138.274 44.6019 138.171 44.6019 138.067 44.6019C137.964 44.6019 137.861 44.6019 137.758 44.6019C137.655 44.6019 137.552 44.6019 137.449 44.6019C137.346 44.6019 137.243 44.6019 137.141 44.6019C137.038 44.6019 136.936 44.6019 136.833 44.6019C136.731 44.6019 136.628 44.6019 136.526 44.6019C136.424 44.6019 136.322 44.6019 136.22 44.6019C136.118 44.6019 136.016 44.6019 135.914 44.6019C135.812 44.6019 135.711 44.6019 135.609 44.6019C135.508 44.6019 135.406 44.6019 135.305 44.6019C135.204 44.6019 135.102 44.6019 135.001 44.6019C134.9 44.6019 134.799 44.6019 134.698 44.6019C134.597 44.6019 134.497 44.6019 134.396 44.6019C134.295 44.6019 134.195 44.6019 134.094 44.6019C133.994 44.6019 133.894 44.6019 133.794 44.6019C133.693 44.6019 133.593 44.6019 133.493 44.6019C133.394 44.6019 133.294 44.6019 133.194 44.6019C133.094 44.6019 132.995 44.6019 132.895 44.6019C132.796 44.6019 132.697 44.6019 132.597 44.6019C132.498 44.6019 132.399 44.6019 132.3 44.6019C132.201 44.6019 132.102 44.6019 132.004 44.6019C131.905 44.6019 131.806 44.6019 131.708 44.6019C131.609 44.6019 131.511 44.6019 131.413 44.6019C131.314 44.6019 131.216 44.6019 131.118 44.6019C131.02 44.6019 130.923 44.6019 130.825 44.6019C130.727 44.6019 130.63 44.6019 130.532 44.6019C130.435 44.6019 130.337 44.6019 130.24 44.6019C130.143 44.6019 130.046 44.6019 129.949 44.6019C129.852 44.6019 129.755 44.6019 129.658 44.6019C129.562 44.6019 129.465 44.6019 129.369 44.6019C129.272 44.6019 129.176 44.6019 129.08 44.6019C128.984 44.6019 128.888 44.6019 128.792 44.6019C128.696 44.6019 128.6 44.6019 128.505 44.6019C128.409 44.6019 128.313 44.6019 128.218 44.6019C128.123 44.6019 128.028 44.6019 127.933 44.6019C127.837 44.6019 127.743 44.6019 127.648 44.6019C127.553 44.6019 127.458 44.6019 127.364 44.6019C127.269 44.6019 127.175 44.6019 127.081 44.6019C126.986 44.6019 126.892 44.6019 126.798 44.6019C126.704 44.6019 126.611 44.6019 126.517 44.6019C126.423 44.6019 126.33 44.6019 126.236 44.6019C126.143 44.6019 126.05 44.6019 125.956 44.6019C125.863 44.6019 125.77 44.6019 125.678 44.6019C125.585 44.6019 125.492 44.6019 125.4 44.6019C125.307 44.6019 125.215 44.6019 125.122 44.6019C125.03 44.6019 124.938 44.6019 124.846 44.6019C124.754 44.6019 124.662 44.6019 124.571 44.6019C124.479 44.6019 124.388 44.6019 124.296 44.6019C124.205 44.6019 124.114 44.6019 124.023 44.6019C123.932 44.6019 123.841 44.6019 123.75 44.6019C123.659 44.6019 123.569 44.6019 123.478 44.6019C123.388 44.6019 123.297 44.6019 123.207 44.6019C123.117 44.6019 123.027 44.6019 122.937 44.6019C122.848 44.6019 122.758 44.6019 122.668 44.6019C122.579 44.6019 122.49 44.6019 122.4 44.6019C122.311 44.6019 122.222 44.6019 122.133 44.6019C122.044 44.6019 121.956 44.6019 121.867 44.6019C121.778 44.6019 121.69 44.6019 121.602 44.6019C121.513 44.6019 121.425 44.6019 121.337 44.6019C121.249 44.6019 121.162 44.6019 121.074 44.6019C120.986 44.6019 120.899 44.6019 120.812 44.6019C120.724 44.6019 120.637 44.6019 120.55 44.6019C120.463 44.6019 120.376 44.6019 120.29 44.6019C120.203 44.6019 120.117 44.6019 120.03 44.6019C119.944 44.6019 119.858 44.6019 119.772 44.6019C119.686 44.6019 119.6 44.6019 119.514 44.6019C119.429 44.6019 119.343 44.6019 119.258 44.6019C119.173 44.6019 119.088 44.6019 119.003 44.6019V43.1019C119.088 43.1019 119.173 43.1019 119.258 43.1019C119.343 43.1019 119.429 43.1019 119.514 43.1019C119.6 43.1019 119.686 43.1019 119.772 43.1019C119.858 43.1019 119.944 43.1019 120.03 43.1019C120.117 43.1019 120.203 43.1019 120.29 43.1019C120.376 43.1019 120.463 43.1019 120.55 43.1019C120.637 43.1019 120.724 43.1019 120.812 43.1019C120.899 43.1019 120.986 43.1019 121.074 43.1019C121.162 43.1019 121.249 43.1019 121.337 43.1019C121.425 43.1019 121.513 43.1019 121.602 43.1019C121.69 43.1019 121.778 43.1019 121.867 43.1019C121.956 43.1019 122.044 43.1019 122.133 43.1019C122.222 43.1019 122.311 43.1019 122.4 43.1019C122.49 43.1019 122.579 43.1019 122.668 43.1019C122.758 43.1019 122.848 43.1019 122.937 43.1019C123.027 43.1019 123.117 43.1019 123.207 43.1019C123.297 43.1019 123.388 43.1019 123.478 43.1019C123.569 43.1019 123.659 43.1019 123.75 43.1019C123.841 43.1019 123.932 43.1019 124.023 43.1019C124.114 43.1019 124.205 43.1019 124.296 43.1019C124.388 43.1019 124.479 43.1019 124.571 43.1019C124.662 43.1019 124.754 43.1019 124.846 43.1019C124.938 43.1019 125.03 43.1019 125.122 43.1019C125.215 43.1019 125.307 43.1019 125.4 43.1019C125.492 43.1019 125.585 43.1019 125.678 43.1019C125.77 43.1019 125.863 43.1019 125.956 43.1019C126.05 43.1019 126.143 43.1019 126.236 43.1019C126.33 43.1019 126.423 43.1019 126.517 43.1019C126.611 43.1019 126.704 43.1019 126.798 43.1019C126.892 43.1019 126.986 43.1019 127.081 43.1019C127.175 43.1019 127.269 43.1019 127.364 43.1019C127.458 43.1019 127.553 43.1019 127.648 43.1019C127.743 43.1019 127.837 43.1019 127.933 43.1019C128.028 43.1019 128.123 43.1019 128.218 43.1019C128.313 43.1019 128.409 43.1019 128.505 43.1019C128.6 43.1019 128.696 43.1019 128.792 43.1019C128.888 43.1019 128.984 43.1019 129.08 43.1019C129.176 43.1019 129.272 43.1019 129.369 43.1019C129.465 43.1019 129.562 43.1019 129.658 43.1019C129.755 43.1019 129.852 43.1019 129.949 43.1019C130.046 43.1019 130.143 43.1019 130.24 43.1019C130.337 43.1019 130.435 43.1019 130.532 43.1019C130.63 43.1019 130.727 43.1019 130.825 43.1019C130.923 43.1019 131.02 43.1019 131.118 43.1019C131.216 43.1019 131.314 43.1019 131.413 43.1019C131.511 43.1019 131.609 43.1019 131.708 43.1019C131.806 43.1019 131.905 43.1019 132.004 43.1019C132.102 43.1019 132.201 43.1019 132.3 43.1019C132.399 43.1019 132.498 43.1019 132.597 43.1019C132.697 43.1019 132.796 43.1019 132.895 43.1019C132.995 43.1019 133.094 43.1019 133.194 43.1019C133.294 43.1019 133.394 43.1019 133.493 43.1019C133.593 43.1019 133.693 43.1019 133.794 43.1019C133.894 43.1019 133.994 43.1019 134.094 43.1019C134.195 43.1019 134.295 43.1019 134.396 43.1019C134.497 43.1019 134.597 43.1019 134.698 43.1019C134.799 43.1019 134.9 43.1019 135.001 43.1019C135.102 43.1019 135.204 43.1019 135.305 43.1019C135.406 43.1019 135.508 43.1019 135.609 43.1019C135.711 43.1019 135.812 43.1019 135.914 43.1019C136.016 43.1019 136.118 43.1019 136.22 43.1019C136.322 43.1019 136.424 43.1019 136.526 43.1019C136.628 43.1019 136.731 43.1019 136.833 43.1019C136.936 43.1019 137.038 43.1019 137.141 43.1019C137.243 43.1019 137.346 43.1019 137.449 43.1019C137.552 43.1019 137.655 43.1019 137.758 43.1019C137.861 43.1019 137.964 43.1019 138.067 43.1019C138.171 43.1019 138.274 43.1019 138.378 43.1019C138.481 43.1019 138.585 43.1019 138.688 43.1019C138.792 43.1019 138.896 43.1019 139 43.1019C139.104 43.1019 139.208 43.1019 139.312 43.1019C139.416 43.1019 139.52 43.1019 139.624 43.1019C139.729 43.1019 139.833 43.1019 139.937 43.1019C140.042 43.1019 140.147 43.1019 140.251 43.1019C140.356 43.1019 140.461 43.1019 140.566 43.1019C140.671 43.1019 140.775 43.1019 140.881 43.1019C140.986 43.1019 141.091 43.1019 141.196 43.1019C141.301 43.1019 141.407 43.1019 141.512 43.1019C141.618 43.1019 141.723 43.1019 141.829 43.1019C141.934 43.1019 142.04 43.1019 142.146 43.1019C142.252 43.1019 142.358 43.1019 142.464 43.1019C142.57 43.1019 142.676 43.1019 142.782 43.1019C142.888 43.1019 142.995 43.1019 143.101 43.1019C143.207 43.1019 143.314 43.1019 143.42 43.1019C143.527 43.1019 143.634 43.1019 143.74 43.1019C143.847 43.1019 143.954 43.1019 144.061 43.1019C144.168 43.1019 144.275 43.1019 144.382 43.1019C144.489 43.1019 144.596 43.1019 144.703 43.1019C144.81 43.1019 144.918 43.1019 145.025 43.1019C145.132 43.1019 145.24 43.1019 145.348 43.1019C145.455 43.1019 145.563 43.1019 145.67 43.1019C145.778 43.1019 145.886 43.1019 145.994 43.1019C146.102 43.1019 146.21 43.1019 146.318 43.1019C146.426 43.1019 146.534 43.1019 146.642 43.1019C146.75 43.1019 146.859 43.1019 146.967 43.1019C147.075 43.1019 147.184 43.1019 147.292 43.1019C147.401 43.1019 147.51 43.1019 147.618 43.1019C147.727 43.1019 147.836 43.1019 147.945 43.1019C148.053 43.1019 148.162 43.1019 148.271 43.1019C148.38 43.1019 148.489 43.1019 148.598 43.1019C148.707 43.1019 148.817 43.1019 148.926 43.1019C149.035 43.1019 149.145 43.1019 149.254 43.1019C149.363 43.1019 149.473 43.1019 149.582 43.1019C149.692 43.1019 149.801 43.1019 149.911 43.1019C150.021 43.1019 150.131 43.1019 150.24 43.1019C150.35 43.1019 150.46 43.1019 150.57 43.1019C150.68 43.1019 150.79 43.1019 150.9 43.1019C151.01 43.1019 151.12 43.1019 151.231 43.1019C151.341 43.1019 151.451 43.1019 151.561 43.1019C151.672 43.1019 151.782 43.1019 151.893 43.1019C152.003 43.1019 152.114 43.1019 152.224 43.1019C152.335 43.1019 152.446 43.1019 152.556 43.1019C152.667 43.1019 152.778 43.1019 152.889 43.1019C152.999 43.1019 153.11 43.1019 153.221 43.1019C153.332 43.1019 153.443 43.1019 153.554 43.1019C153.665 43.1019 153.777 43.1019 153.888 43.1019C153.999 43.1019 154.11 43.1019 154.222 43.1019C154.333 43.1019 154.444 43.1019 154.556 43.1019C154.667 43.1019 154.779 43.1019 154.89 43.1019C155.002 43.1019 155.113 43.1019 155.225 43.1019C155.337 43.1019 155.448 43.1019 155.56 43.1019C155.672 43.1019 155.783 43.1019 155.895 43.1019C156.007 43.1019 156.119 43.1019 156.231 43.1019C156.343 43.1019 156.455 43.1019 156.567 43.1019C156.679 43.1019 156.791 43.1019 156.903 43.1019C157.015 43.1019 157.128 43.1019 157.24 43.1019C157.352 43.1019 157.464 43.1019 157.577 43.1019C157.689 43.1019 157.802 43.1019 157.914 43.1019C158.026 43.1019 158.139 43.1019 158.251 43.1019C158.364 43.1019 158.476 43.1019 158.589 43.1019C158.702 43.1019 158.814 43.1019 158.927 43.1019C159.04 43.1019 159.152 43.1019 159.265 43.1019C159.378 43.1019 159.491 43.1019 159.604 43.1019C159.717 43.1019 159.829 43.1019 159.942 43.1019C160.055 43.1019 160.168 43.1019 160.281 43.1019C160.394 43.1019 160.507 43.1019 160.621 43.1019C160.734 43.1019 160.847 43.1019 160.96 43.1019C161.073 43.1019 161.186 43.1019 161.3 43.1019C161.413 43.1019 161.526 43.1019 161.639 43.1019C161.753 43.1019 161.866 43.1019 161.979 43.1019C162.093 43.1019 162.206 43.1019 162.32 43.1019C162.433 43.1019 162.547 43.1019 162.66 43.1019C162.774 43.1019 162.887 43.1019 163.001 43.1019C163.114 43.1019 163.228 43.1019 163.342 43.1019C163.455 43.1019 163.569 43.1019 163.683 43.1019C163.796 43.1019 163.91 43.1019 164.024 43.1019C164.138 43.1019 164.252 43.1019 164.365 43.1019C164.479 43.1019 164.593 43.1019 164.707 43.1019C164.821 43.1019 164.935 43.1019 165.049 43.1019C165.163 43.1019 165.276 43.1019 165.39 43.1019C165.504 43.1019 165.618 43.1019 165.732 43.1019C165.846 43.1019 165.96 43.1019 166.075 43.1019C166.189 43.1019 166.303 43.1019 166.417 43.1019C166.531 43.1019 166.645 43.1019 166.759 43.1019C166.873 43.1019 166.988 43.1019 167.102 43.1019C167.216 43.1019 167.33 43.1019 167.444 43.1019C167.559 43.1019 167.673 43.1019 167.787 43.1019C167.901 43.1019 168.016 43.1019 168.13 43.1019C168.244 43.1019 168.359 43.1019 168.473 43.1019C168.587 43.1019 168.702 43.1019 168.816 43.1019C168.93 43.1019 169.045 43.1019 169.159 43.1019C169.274 43.1019 169.388 43.1019 169.502 43.1019C169.617 43.1019 169.731 43.1019 169.846 43.1019C169.96 43.1019 170.075 43.1019 170.189 43.1019C170.304 43.1019 170.418 43.1019 170.533 43.1019C170.647 43.1019 170.762 43.1019 170.876 43.1019C170.991 43.1019 171.105 43.1019 171.22 43.1019C171.334 43.1019 171.449 43.1019 171.563 43.1019C171.678 43.1019 171.792 43.1019 171.907 43.1019C172.022 43.1019 172.136 43.1019 172.251 43.1019C172.365 43.1019 172.48 43.1019 172.594 43.1019C172.709 43.1019 172.824 43.1019 172.938 43.1019C173.053 43.1019 173.167 43.1019 173.282 43.1019C173.397 43.1019 173.511 43.1019 173.626 43.1019C173.74 43.1019 173.855 43.1019 173.969 43.1019C174.084 43.1019 174.199 43.1019 174.313 43.1019C174.428 43.1019 174.542 43.1019 174.657 43.1019C174.772 43.1019 174.886 43.1019 175.001 43.1019C175.115 43.1019 175.23 43.1019 175.345 43.1019C175.459 43.1019 175.574 43.1019 175.688 43.1019C175.803 43.1019 175.918 43.1019 176.032 43.1019C176.147 43.1019 176.261 43.1019 176.376 43.1019C176.49 43.1019 176.605 43.1019 176.719 43.1019C176.834 43.1019 176.949 43.1019 177.063 43.1019C177.178 43.1019 177.292 43.1019 177.407 43.1019C177.521 43.1019 177.636 43.1019 177.75 43.1019C177.865 43.1019 177.979 43.1019 178.094 43.1019C178.208 43.1019 178.323 43.1019 178.437 43.1019C178.551 43.1019 178.666 43.1019 178.78 43.1019C178.895 43.1019 179.009 43.1019 179.124 43.1019C179.238 43.1019 179.352 43.1019 179.467 43.1019C179.581 43.1019 179.695 43.1019 179.81 43.1019C179.924 43.1019 180.038 43.1019 180.153 43.1019C180.267 43.1019 180.381 43.1019 180.496 43.1019C180.61 43.1019 180.724 43.1019 180.838 43.1019C180.953 43.1019 181.067 43.1019 181.181 43.1019C181.295 43.1019 181.409 43.1019 181.524 43.1019C181.638 43.1019 181.752 43.1019 181.866 43.1019C181.98 43.1019 182.094 43.1019 182.208 43.1019C182.322 43.1019 182.436 43.1019 182.55 43.1019C182.664 43.1019 182.778 43.1019 182.892 43.1019C183.006 43.1019 183.12 43.1019 183.234 43.1019C183.348 43.1019 183.462 43.1019 183.576 43.1019C183.69 43.1019 183.804 43.1019 183.917 43.1019C184.031 43.1019 184.145 43.1019 184.259 43.1019C184.373 43.1019 184.486 43.1019 184.6 43.1019C184.714 43.1019 184.827 43.1019 184.941 43.1019C185.055 43.1019 185.168 43.1019 185.282 43.1019C185.395 43.1019 185.509 43.1019 185.623 43.1019C185.736 43.1019 185.85 43.1019 185.963 43.1019C186.076 43.1019 186.19 43.1019 186.303 43.1019C186.417 43.1019 186.53 43.1019 186.643 43.1019C186.757 43.1019 186.87 43.1019 186.983 43.1019C187.096 43.1019 187.21 43.1019 187.323 43.1019C187.436 43.1019 187.549 43.1019 187.662 43.1019C187.775 43.1019 187.888 43.1019 188.001 43.1019C188.114 43.1019 188.227 43.1019 188.34 43.1019C188.453 43.1019 188.566 43.1019 188.679 43.1019C188.792 43.1019 188.905 43.1019 189.018 43.1019C189.13 43.1019 189.243 43.1019 189.356 43.1019C189.468 43.1019 189.581 43.1019 189.694 43.1019C189.806 43.1019 189.919 43.1019 190.031 43.1019C190.144 43.1019 190.256 43.1019 190.369 43.1019C190.481 43.1019 190.594 43.1019 190.706 43.1019C190.818 43.1019 190.931 43.1019 191.043 43.1019C191.155 43.1019 191.267 43.1019 191.379 43.1019C191.492 43.1019 191.604 43.1019 191.716 43.1019C191.828 43.1019 191.94 43.1019 192.052 43.1019C192.164 43.1019 192.276 43.1019 192.387 43.1019C192.499 43.1019 192.611 43.1019 192.723 43.1019C192.835 43.1019 192.946 43.1019 193.058 43.1019C193.17 43.1019 193.281 43.1019 193.393 43.1019C193.504 43.1019 193.616 43.1019 193.727 43.1019C193.839 43.1019 193.95 43.1019 194.061 43.1019C194.173 43.1019 194.284 43.1019 194.395 43.1019C194.506 43.1019 194.617 43.1019 194.728 43.1019C194.839 43.1019 194.951 43.1019 195.061 43.1019C195.172 43.1019 195.283 43.1019 195.394 43.1019C195.505 43.1019 195.616 43.1019 195.727 43.1019C195.837 43.1019 195.948 43.1019 196.059 43.1019C196.169 43.1019 196.28 43.1019 196.39 43.1019C196.501 43.1019 196.611 43.1019 196.721 43.1019C196.832 43.1019 196.942 43.1019 197.052 43.1019C197.162 43.1019 197.273 43.1019 197.383 43.1019C197.493 43.1019 197.603 43.1019 197.713 43.1019C197.823 43.1019 197.933 43.1019 198.042 43.1019C198.152 43.1019 198.262 43.1019 198.372 43.1019C198.481 43.1019 198.591 43.1019 198.701 43.1019C198.81 43.1019 198.92 43.1019 199.029 43.1019C199.138 43.1019 199.248 43.1019 199.357 43.1019C199.466 43.1019 199.575 43.1019 199.685 43.1019C199.794 43.1019 199.903 43.1019 200.012 43.1019C200.121 43.1019 200.23 43.1019 200.338 43.1019C200.447 43.1019 200.556 43.1019 200.665 43.1019C200.773 43.1019 200.882 43.1019 200.99 43.1019C201.099 43.1019 201.207 43.1019 201.316 43.1019C201.424 43.1019 201.532 43.1019 201.641 43.1019C201.749 43.1019 201.857 43.1019 201.965 43.1019C202.073 43.1019 202.181 43.1019 202.289 43.1019C202.397 43.1019 202.505 43.1019 202.612 43.1019C202.72 43.1019 202.828 43.1019 202.935 43.1019C203.043 43.1019 203.15 43.1019 203.258 43.1019C203.365 43.1019 203.473 43.1019 203.58 43.1019C203.687 43.1019 203.794 43.1019 203.901 43.1019C204.008 43.1019 204.115 43.1019 204.222 43.1019C204.329 43.1019 204.436 43.1019 204.543 43.1019C204.649 43.1019 204.756 43.1019 204.863 43.1019C204.969 43.1019 205.076 43.1019 205.182 43.1019C205.288 43.1019 205.395 43.1019 205.501 43.1019C205.607 43.1019 205.713 43.1019 205.819 43.1019C205.925 43.1019 206.031 43.1019 206.137 43.1019C206.243 43.1019 206.348 43.1019 206.454 43.1019C206.56 43.1019 206.665 43.1019 206.771 43.1019C206.876 43.1019 206.982 43.1019 207.087 43.1019C207.192 43.1019 207.297 43.1019 207.402 43.1019C207.507 43.1019 207.612 43.1019 207.717 43.1019C207.822 43.1019 207.927 43.1019 208.032 43.1019C208.136 43.1019 208.241 43.1019 208.345 43.1019C208.45 43.1019 208.554 43.1019 208.659 43.1019C208.763 43.1019 208.867 43.1019 208.971 43.1019C209.075 43.1019 209.179 43.1019 209.283 43.1019C209.387 43.1019 209.491 43.1019 209.595 43.1019C209.698 43.1019 209.802 43.1019 209.905 43.1019C210.009 43.1019 210.112 43.1019 210.216 43.1019C210.319 43.1019 210.422 43.1019 210.525 43.1019C210.628 43.1019 210.731 43.1019 210.834 43.1019C210.937 43.1019 211.04 43.1019 211.142 43.1019C211.245 43.1019 211.347 43.1019 211.45 43.1019C211.552 43.1019 211.655 43.1019 211.757 43.1019C211.859 43.1019 211.961 43.1019 212.063 43.1019C212.165 43.1019 212.267 43.1019 212.369 43.1019C212.471 43.1019 212.572 43.1019 212.674 43.1019C212.775 43.1019 212.877 43.1019 212.978 43.1019C213.079 43.1019 213.181 43.1019 213.282 43.1019C213.383 43.1019 213.484 43.1019 213.585 43.1019C213.685 43.1019 213.786 43.1019 213.887 43.1019C213.988 43.1019 214.088 43.1019 214.188 43.1019C214.289 43.1019 214.389 43.1019 214.489 43.1019C214.589 43.1019 214.69 43.1019 214.789 43.1019C214.889 43.1019 214.989 43.1019 215.089 43.1019C215.189 43.1019 215.288 43.1019 215.388 43.1019C215.487 43.1019 215.586 43.1019 215.686 43.1019C215.785 43.1019 215.884 43.1019 215.983 43.1019C216.082 43.1019 216.181 43.1019 216.279 43.1019C216.378 43.1019 216.477 43.1019 216.575 43.1019C216.674 43.1019 216.772 43.1019 216.87 43.1019C216.968 43.1019 217.067 43.1019 217.165 43.1019C217.263 43.1019 217.36 43.1019 217.458 43.1019C217.556 43.1019 217.653 43.1019 217.751 43.1019C217.848 43.1019 217.946 43.1019 218.043 43.1019C218.14 43.1019 218.237 43.1019 218.334 43.1019C218.431 43.1019 218.528 43.1019 218.625 43.1019C218.721 43.1019 218.818 43.1019 218.914 43.1019C219.011 43.1019 219.107 43.1019 219.203 43.1019C219.299 43.1019 219.395 43.1019 219.491 43.1019C219.587 43.1019 219.683 43.1019 219.778 43.1019C219.874 43.1019 219.969 43.1019 220.065 43.1019C220.16 43.1019 220.255 43.1019 220.35 43.1019C220.446 43.1019 220.54 43.1019 220.635 43.1019C220.73 43.1019 220.825 43.1019 220.919 43.1019C221.014 43.1019 221.108 43.1019 221.202 43.1019C221.297 43.1019 221.391 43.1019 221.485 43.1019C221.579 43.1019 221.672 43.1019 221.766 43.1019C221.86 43.1019 221.953 43.1019 222.047 43.1019C222.14 43.1019 222.233 43.1019 222.327 43.1019C222.42 43.1019 222.513 43.1019 222.605 43.1019C222.698 43.1019 222.791 43.1019 222.883 43.1019C222.976 43.1019 223.068 43.1019 223.161 43.1019C223.253 43.1019 223.345 43.1019 223.437 43.1019C223.529 43.1019 223.621 43.1019 223.712 43.1019C223.804 43.1019 223.895 43.1019 223.987 43.1019C224.078 43.1019 224.169 43.1019 224.26 43.1019C224.351 43.1019 224.442 43.1019 224.533 43.1019C224.624 43.1019 224.714 43.1019 224.805 43.1019C224.895 43.1019 224.986 43.1019 225.076 43.1019C225.166 43.1019 225.256 43.1019 225.346 43.1019C225.435 43.1019 225.525 43.1019 225.615 43.1019C225.704 43.1019 225.794 43.1019 225.883 43.1019C225.972 43.1019 226.061 43.1019 226.15 43.1019C226.239 43.1019 226.327 43.1019 226.416 43.1019C226.505 43.1019 226.593 43.1019 226.681 43.1019C226.77 43.1019 226.858 43.1019 226.946 43.1019C227.034 43.1019 227.121 43.1019 227.209 43.1019C227.297 43.1019 227.384 43.1019 227.471 43.1019C227.559 43.1019 227.646 43.1019 227.733 43.1019C227.82 43.1019 227.907 43.1019 227.993 43.1019C228.08 43.1019 228.166 43.1019 228.253 43.1019C228.339 43.1019 228.425 43.1019 228.511 43.1019C228.597 43.1019 228.683 43.1019 228.769 43.1019C228.854 43.1019 228.94 43.1019 229.025 43.1019C229.11 43.1019 229.195 43.1019 229.28 43.1019C229.365 43.1019 229.45 43.1019 229.535 43.1019C229.62 43.1019 229.704 43.1019 229.788 43.1019C229.873 43.1019 229.957 43.1019 230.041 43.1019C230.125 43.1019 230.208 43.1019 230.292 43.1019C230.376 43.1019 230.459 43.1019 230.542 43.1019C230.626 43.1019 230.709 43.1019 230.792 43.1019C230.875 43.1019 230.957 43.1019 231.04 43.1019C231.123 43.1019 231.205 43.1019 231.287 43.1019C231.369 43.1019 231.451 43.1019 231.533 43.1019C231.615 43.1019 231.697 43.1019 231.778 43.1019C231.86 43.1019 231.941 43.1019 232.022 43.1019C232.103 43.1019 232.184 43.1019 232.265 43.1019C232.346 43.1019 232.427 43.1019 232.507 43.1019C232.588 43.1019 232.668 43.1019 232.748 43.1019C232.828 43.1019 232.908 43.1019 232.987 43.1019C233.067 43.1019 233.147 43.1019 233.226 43.1019C233.305 43.1019 233.385 43.1019 233.464 43.1019C233.542 43.1019 233.621 43.1019 233.7 43.1019C233.778 43.1019 233.857 43.1019 233.935 43.1019C234.013 43.1019 234.091 43.1019 234.169 43.1019C234.247 43.1019 234.325 43.1019 234.402 43.1019C234.48 43.1019 234.557 43.1019 234.634 43.1019C234.711 43.1019 234.788 43.1019 234.865 43.1019C234.941 43.1019 235.018 43.1019 235.094 43.1019C235.171 43.1019 235.247 43.1019 235.323 43.1019C235.399 43.1019 235.474 43.1019 235.55 43.1019C235.625 43.1019 235.701 43.1019 235.776 43.1019C235.851 43.1019 235.926 43.1019 236.001 43.1019C236.076 43.1019 236.15 43.1019 236.225 43.1019C236.299 43.1019 236.373 43.1019 236.447 43.1019C236.521 43.1019 236.595 43.1019 236.669 43.1019C236.742 43.1019 236.816 43.1019 236.889 43.1019C236.962 43.1019 237.035 43.1019 237.108 43.1019C237.181 43.1019 237.253 43.1019 237.326 43.1019C237.398 43.1019 237.47 43.1019 237.542 43.1019C237.614 43.1019 237.686 43.1019 237.758 43.1019C237.829 43.1019 237.9 43.1019 237.972 43.1019C238.043 43.1019 238.114 43.1019 238.185 43.1019C238.255 43.1019 238.326 43.1019 238.396 43.1019C238.467 43.1019 238.537 43.1019 238.607 43.1019C238.677 43.1019 238.746 43.1019 238.816 43.1019C238.885 43.1019 238.955 43.1019 239.024 43.1019C239.093 43.1019 239.162 43.1019 239.231 43.1019C239.299 43.1019 239.368 43.1019 239.436 43.1019C239.504 43.1019 239.572 43.1019 239.64 43.1019C239.708 43.1019 239.776 43.1019 239.843 43.1019C239.91 43.1019 239.978 43.1019 240.045 43.1019C240.112 43.1019 240.178 43.1019 240.245 43.1019C240.312 43.1019 240.378 43.1019 240.444 43.1019C240.51 43.1019 240.576 43.1019 240.642 43.1019C240.708 43.1019 240.773 43.1019 240.838 43.1019C240.904 43.1019 240.969 43.1019 241.033 43.1019C241.098 43.1019 241.163 43.1019 241.227 43.1019C241.292 43.1019 241.356 43.1019 241.42 43.1019C241.484 43.1019 241.547 43.1019 241.611 43.1019C241.674 43.1019 241.738 43.1019 241.801 43.1019C241.864 43.1019 241.927 43.1019 241.989 43.1019C242.052 43.1019 242.114 43.1019 242.177 43.1019C242.239 43.1019 242.301 43.1019 242.362 43.1019C242.424 43.1019 242.486 43.1019 242.547 43.1019C242.608 43.1019 242.669 43.1019 242.73 43.1019C242.791 43.1019 242.851 43.1019 242.912 43.1019C242.972 43.1019 243.032 43.1019 243.092 43.1019C243.152 43.1019 243.212 43.1019 243.271 43.1019C243.331 43.1019 243.39 43.1019 243.449 43.1019C243.508 43.1019 243.567 43.1019 243.625 43.1019C243.684 43.1019 243.742 43.1019 243.8 43.1019C243.858 43.1019 243.916 43.1019 243.973 43.1019C244.031 43.1019 244.088 43.1019 244.145 43.1019C244.202 43.1019 244.259 43.1019 244.316 43.1019C244.373 43.1019 244.429 43.1019 244.485 43.1019C244.541 43.1019 244.597 43.1019 244.653 43.1019C244.709 43.1019 244.764 43.1019 244.819 43.1019C244.875 43.1019 244.93 43.1019 244.984 43.1019C245.039 43.1019 245.094 43.1019 245.148 43.1019C245.202 43.1019 245.256 43.1019 245.31 43.1019C245.364 43.1019 245.417 43.1019 245.47 43.1019C245.524 43.1019 245.577 43.1019 245.63 43.1019C245.682 43.1019 245.735 43.1019 245.787 43.1019C245.84 43.1019 245.892 43.1019 245.944 43.1019C245.995 43.1019 246.047 43.1019 246.098 43.1019C246.15 43.1019 246.201 43.1019 246.252 43.1019C246.302 43.1019 246.353 43.1019 246.403 43.1019C246.454 43.1019 246.504 43.1019 246.554 43.1019C246.603 43.1019 246.653 43.1019 246.702 43.1019C246.752 43.1019 246.801 43.1019 246.85 43.1019C246.898 43.1019 246.947 43.1019 246.995 43.1019C247.044 43.1019 247.092 43.1019 247.14 43.1019C247.187 43.1019 247.235 43.1019 247.282 43.1019C247.33 43.1019 247.377 43.1019 247.424 43.1019C247.47 43.1019 247.517 43.1019 247.563 43.1019C247.61 43.1019 247.656 43.1019 247.701 43.1019C247.747 43.1019 247.793 43.1019 247.838 43.1019C247.883 43.1019 247.928 43.1019 247.973 43.1019C248.018 43.1019 248.062 43.1019 248.107 43.1019C248.151 43.1019 248.195 43.1019 248.238 43.1019C248.282 43.1019 248.326 43.1019 248.369 43.1019C248.412 43.1019 248.455 43.1019 248.498 43.1019C248.54 43.1019 248.583 43.1019 248.625 43.1019C248.667 43.1019 248.709 43.1019 248.75 43.1019C248.792 43.1019 248.833 43.1019 248.875 43.1019C248.916 43.1019 248.956 43.1019 248.997 43.1019C249.038 43.1019 249.078 43.1019 249.118 43.1019C249.158 43.1019 249.198 43.1019 249.237 43.1019C249.277 43.1019 249.316 43.1019 249.355 43.1019C249.394 43.1019 249.432 43.1019 249.471 43.1019C249.509 43.1019 249.547 43.1019 249.585 43.1019C249.623 43.1019 249.661 43.1019 249.698 43.1019C249.735 43.1019 249.772 43.1019 249.809 43.1019C249.846 43.1019 249.882 43.1019 249.918 43.1019C249.955 43.1019 249.991 43.1019 250.026 43.1019C250.062 43.1019 250.097 43.1019 250.132 43.1019C250.168 43.1019 250.202 43.1019 250.237 43.1019C250.272 43.1019 250.306 43.1019 250.34 43.1019C250.374 43.1019 250.408 43.1019 250.441 43.1019C250.474 43.1019 250.508 43.1019 250.54 43.1019C250.573 43.1019 250.606 43.1019 250.638 43.1019C250.671 43.1019 250.703 43.1019 250.734 43.1019C250.766 43.1019 250.798 43.1019 250.829 43.1019C250.86 43.1019 250.891 43.1019 250.922 43.1019C250.952 43.1019 250.983 43.1019 251.013 43.1019C251.043 43.1019 251.073 43.1019 251.102 43.1019C251.131 43.1019 251.161 43.1019 251.19 43.1019C251.219 43.1019 251.247 43.1019 251.276 43.1019C251.304 43.1019 251.332 43.1019 251.36 43.1019C251.387 43.1019 251.415 43.1019 251.442 43.1019C251.469 43.1019 251.496 43.1019 251.523 43.1019C251.549 43.1019 251.576 43.1019 251.602 43.1019C251.628 43.1019 251.653 43.1019 251.679 43.1019C251.704 43.1019 251.73 43.1019 251.754 43.1019C251.779 43.1019 251.804 43.1019 251.828 43.1019C251.852 43.1019 251.876 43.1019 251.9 43.1019C251.924 43.1019 251.947 43.1019 251.97 43.1019C251.993 43.1019 252.016 43.1019 252.038 43.1019C252.061 43.1019 252.083 43.1019 252.105 43.1019C252.127 43.1019 252.148 43.1019 252.17 43.1019C252.191 43.1019 252.212 43.1019 252.233 43.1019C252.253 43.1019 252.274 43.1019 252.294 43.1019C252.314 43.1019 252.334 43.1019 252.353 43.1019C252.373 43.1019 252.392 43.1019 252.411 43.1019C252.43 43.1019 252.448 43.1019 252.467 43.1019C252.485 43.1019 252.503 43.1019 252.52 43.1019C252.538 43.1019 252.555 43.1019 252.572 43.1019C252.59 43.1019 252.606 43.1019 252.623 43.1019C252.639 43.1019 252.655 43.1019 252.671 43.1019C252.687 43.1019 252.702 43.1019 252.718 43.1019C252.733 43.1019 252.748 43.1019 252.762 43.1019C252.777 43.1019 252.791 43.1019 252.805 43.1019C252.819 43.1019 252.833 43.1019 252.846 43.1019C252.859 43.1019 252.872 43.1019 252.885 43.1019C252.898 43.1019 252.91 43.1019 252.922 43.1019C252.935 43.1019 252.946 43.1019 252.958 43.1019C252.969 43.1019 252.98 43.1019 252.991 43.1019C253.002 43.1019 253.013 43.1019 253.023 43.1019C253.033 43.1019 253.043 43.1019 253.052 43.1019C253.062 43.1019 253.071 43.1019 253.08 43.1019C253.089 43.1019 253.098 43.1019 253.106 43.1019C253.114 43.1019 253.122 43.1019 253.13 43.1019C253.137 43.1019 253.145 43.1019 253.152 43.1019C253.159 43.1019 253.165 43.1019 253.172 43.1019C253.178 43.1019 253.184 43.1019 253.19 43.1019V44.6019ZM75.4922 61.4146H237.102V62.9146H75.4922V61.4146ZM237.112 61.4147C241.662 61.4746 249.16 60.6445 256.779 57.9506C264.399 55.2564 272.07 50.7235 277.069 43.428L278.306 44.2757C273.067 51.9234 265.076 56.6079 257.279 59.3648C249.481 62.122 241.805 62.9767 237.092 62.9145L237.112 61.4147ZM277.687 44.6019H253.19V43.1019H277.687V44.6019ZM285 1.75H121.928V0.25H285V1.75ZM122.553 1.4138C114.279 13.9219 97.9194 33.9329 79.1414 47.0308L78.2832 45.8005C96.8539 32.8473 113.09 13.0001 121.302 0.586204L122.553 1.4138ZM34.907 45.6656H78.7123V47.1656H34.907V45.6656ZM41.9337 59.9279C39.9765 59.1207 38.4501 58.3222 37.2948 57.3295C36.1186 56.3188 35.3533 55.1302 34.8772 53.5969L36.3098 53.1521C36.7066 54.4302 37.3206 55.374 38.2724 56.1918C39.245 57.0275 40.5952 57.7533 42.5056 58.5412L41.9337 59.9279ZM34.8772 53.5969C34.3107 51.772 34.157 49.4642 34.157 46.4156H35.657C35.657 49.4553 35.8164 51.5628 36.3098 53.1521L34.8772 53.5969ZM9.62604 52.6931L35.9069 64.7795L35.2802 66.1423L8.99927 54.0559L9.62604 52.6931ZM119.344 44.5195C117.194 45.6199 114.561 46.9383 111.653 48.3572L110.995 47.0092C113.895 45.5942 116.52 44.28 118.661 43.1842L119.344 44.5195ZM111.653 48.3572C105.512 51.354 98.1366 54.8033 91.4926 57.594C88.1711 58.9891 85.0247 60.2228 82.3025 61.1536C79.594 62.0797 77.258 62.7227 75.5752 62.91L75.4093 61.4192C76.9196 61.2511 79.1256 60.6546 81.8172 59.7343C84.4952 58.8186 87.6073 57.599 90.9118 56.211C97.52 53.4354 104.868 49.9994 110.995 47.0092L111.653 48.3572ZM111.324 48.4332H94.5052V46.9332H111.324V48.4332ZM79.1414 47.0308C70.8833 52.7908 62.1216 57.2394 53.3445 59.1042L53.0328 57.6369C61.547 55.828 70.1225 51.4926 78.2832 45.8005L79.1414 47.0308ZM53.3445 59.1042C49.6131 59.8969 45.8753 60.2235 42.1711 59.983L42.2682 58.4861C45.819 58.7167 49.4185 58.4048 53.0328 57.6369L53.3445 59.1042ZM94.9064 48.3168C91.019 50.7781 84.2898 54.2575 76.6841 56.7323C69.0921 59.2027 60.5336 60.7032 53.0323 59.1041L53.345 57.637C60.469 59.1557 68.7296 57.7433 76.22 55.3059C83.6967 52.873 90.313 49.4498 94.104 47.0495L94.9064 48.3168ZM35.5935 54.1245H22.4531V52.6245H35.5935V54.1245ZM22.4531 54.1245H9.31265V52.6245H22.4531V54.1245ZM35.5318 64.7135L50.5674 63.4713L50.6909 64.9662L35.6553 66.2084L35.5318 64.7135ZM50.5674 63.4713L75.4305 61.4172L75.554 62.9121L50.6909 64.9662L50.5674 63.4713ZM22.7225 52.6745L50.8986 63.5188L50.3598 64.9187L22.1837 54.0744L22.7225 52.6745ZM237.433 105.442C240.94 107.168 246.2 110.199 250.595 113.696C252.791 115.444 254.797 117.328 256.26 119.244C257.713 121.147 258.693 123.163 258.693 125.16H257.193C257.193 123.641 256.436 121.946 255.068 120.154C253.708 118.373 251.806 116.577 249.661 114.87C245.372 111.457 240.211 108.481 236.771 106.788L237.433 105.442ZM257.64 125.846C255.045 124.698 250.897 123.102 246.902 122.049C244.903 121.523 242.965 121.138 241.291 121.008C239.591 120.877 238.274 121.017 237.438 121.436L236.766 120.095C237.978 119.488 239.635 119.375 241.407 119.513C243.206 119.652 245.239 120.06 247.284 120.599C251.375 121.677 255.6 123.303 258.247 124.475L257.64 125.846ZM35.2214 129.108L8.94058 114.092L9.68472 112.789L35.9656 127.806L35.2214 129.108ZM9.67456 114.097L2.36191 118.126L1.63809 116.812L8.95074 112.783L9.67456 114.097ZM29.3936 133.201C54.7346 132.225 108.746 130.271 121.928 130.271V131.771C108.783 131.771 54.8115 133.723 29.4514 134.7L29.3936 133.201ZM121.928 130.271C122.755 130.271 123.25 130.264 123.463 130.252C123.522 130.249 123.529 130.247 123.512 130.25C123.505 130.251 123.486 130.254 123.46 130.261C123.446 130.264 123.374 130.282 123.29 130.328C123.243 130.357 123.132 130.446 123.073 130.511C122.997 130.624 122.909 130.917 122.914 131.088C122.95 131.234 123.072 131.451 123.14 131.524C123.187 131.565 123.273 131.624 123.308 131.644C123.373 131.678 123.428 131.693 123.441 131.696C123.462 131.702 123.477 131.705 123.482 131.706C123.493 131.708 123.494 131.708 123.481 131.706C123.456 131.703 123.411 131.699 123.341 131.693C122.771 131.646 121.19 131.577 118.782 131.49C113.985 131.316 105.997 131.076 96.524 130.809C77.5791 130.275 52.7058 129.634 35.5748 129.207L35.6122 127.707C52.7438 128.134 77.619 128.775 96.5662 129.309C106.039 129.577 114.033 129.817 118.836 129.991C121.229 130.077 122.852 130.148 123.464 130.198C123.542 130.204 123.613 130.211 123.672 130.219C123.7 130.222 123.735 130.227 123.771 130.234C123.777 130.236 123.886 130.254 123.998 130.312C124.035 130.332 124.122 130.392 124.171 130.435C124.24 130.509 124.362 130.727 124.399 130.874C124.404 131.046 124.315 131.34 124.239 131.454C124.179 131.52 124.066 131.611 124.017 131.64C123.929 131.689 123.851 131.709 123.829 131.714C123.795 131.723 123.766 131.728 123.747 131.731C123.68 131.742 123.604 131.747 123.544 131.75C123.283 131.764 122.746 131.771 121.928 131.771V130.271ZM121.957 131.77C109.473 132.258 90.2355 133.301 73.1006 134.844C64.532 135.616 56.5001 136.511 50.1054 137.523C46.9074 138.029 44.1301 138.562 41.9051 139.121C39.6595 139.685 38.0455 140.258 37.1249 140.818L36.3454 139.536C37.4723 138.851 39.2755 138.234 41.5399 137.666C43.8248 137.092 46.6502 136.551 49.871 136.041C56.3138 135.022 64.3835 134.123 72.9661 133.35C90.1337 131.804 109.398 130.76 121.898 130.271L121.957 131.77ZM36.4463 140.869C32.9375 139.405 30.8449 138.552 30.2404 138.309L30.7983 136.917C31.4126 137.163 33.5127 138.019 37.024 139.485L36.4463 140.869ZM30.9225 138.246L26.9005 140.809L26.0943 139.545L30.1162 136.981L30.9225 138.246ZM26.1447 140.839L8.95996 131.682L9.66534 130.359L26.8501 139.515L26.1447 140.839ZM2.38635 116.826L9.69901 121.221L8.9263 122.507L1.61365 118.112L2.38635 116.826ZM9.69901 121.221L29.8088 133.308L29.0361 134.593L8.9263 122.507L9.69901 121.221ZM8.56265 131.021V121.864H10.0627V131.021H8.56265ZM236.992 121.507C204.849 116.751 123.829 109.435 56.9426 118.213L56.7474 116.726C123.829 107.923 205.004 115.257 237.212 120.024L236.992 121.507ZM56.335 118.019C54.5273 116.343 51.2943 113.756 47.5088 111.483C43.7115 109.203 39.4309 107.283 35.5131 106.861L35.6739 105.37C39.9105 105.826 44.4126 107.874 48.2809 110.197C52.161 112.527 55.4765 115.177 57.3549 116.919L56.335 118.019ZM35.5935 105.365H237.102V106.865H35.5935V105.365ZM237.052 121.514C196.956 118.828 102.719 115.587 46.3532 124.071L46.13 122.588C102.672 114.077 197.053 117.331 237.152 120.017L237.052 121.514ZM45.528 123.56C44.6695 120.904 43.112 116.865 41.2384 113.394C40.3009 111.657 39.2983 110.088 38.2814 108.91C37.2463 107.712 36.2832 107.02 35.445 106.85L35.742 105.38C37.0797 105.65 38.3186 106.658 39.4167 107.93C40.533 109.223 41.5949 110.896 42.5585 112.681C44.487 116.254 46.0776 120.383 46.9553 123.099L45.528 123.56ZM237.852 62.1646V69.856H236.352V62.1646H237.852ZM36.3435 65.4609V69.856H34.8435V65.4609H36.3435ZM237.102 70.606H35.5935V69.106H237.102V70.606ZM237.852 69.856V75.3498H236.352V69.856H237.852ZM237.102 76.0998H141.672V74.5998H237.102V76.0998ZM128.875 76.0998H71.8359V74.5998H128.875V76.0998ZM67.0827 76.0998H56.845V74.5998H67.0827V76.0998ZM237.852 75.3498V82.3086H236.352V75.3498H237.852ZM237.102 83.0586H182.623V81.5586H237.102V83.0586ZM152.641 83.0586H87.5581V81.5586H152.641V83.0586ZM76.9548 83.0586H73.2984V81.5586H76.9548V83.0586ZM237.852 82.3086V90.7325H236.352V82.3086H237.852ZM237.102 91.4825H174.213V89.9825H237.102V91.4825ZM162.513 91.4825H159.222V89.9825H162.513V91.4825ZM148.253 91.4825H119.003V89.9825H148.253V91.4825ZM113.884 91.4825H90.1176V89.9825H113.884V91.4825ZM82.8049 91.4825H80.2455V89.9825H82.8049V91.4825ZM75.4922 91.4825H71.8359V89.9825H75.4922V91.4825ZM62.6951 91.4825H60.5013V89.9825H62.6951V91.4825ZM56.845 91.4825H54.6512V89.9825H56.845V91.4825ZM50.6292 91.4825H48.801V89.9825H50.6292V91.4825ZM46.2416 91.4825H35.5935V89.9825H46.2416V91.4825ZM237.852 90.7325V98.4239H236.352V90.7325H237.852ZM237.852 98.4239V106.115H236.352V98.4239H237.852ZM237.102 99.1739H203.098V97.6739H237.102V99.1739ZM191.032 99.1739H85.3643V97.6739H191.032V99.1739ZM62.6951 99.1739H60.5013V97.6739H62.6951V99.1739ZM56.845 99.1739H53.1886V97.6739H56.845V99.1739ZM36.3435 98.4239V106.115H34.8435V98.4239H36.3435ZM46.2416 99.1739H35.5935V97.6739H46.2416V99.1739ZM223.939 124.079H162.513V122.579H223.939V124.079ZM141.672 124.079H123.756V122.579H141.672V124.079ZM120.465 124.079H117.54V122.579H120.465V124.079ZM237.852 120.765V131.021H236.352V120.765H237.852ZM237.102 131.771H212.239V130.271H237.102V131.771ZM208.583 131.771H200.173V130.271H208.583V131.771ZM197.248 131.771H195.42V130.271H197.248V131.771ZM191.032 131.771H188.839V130.271H191.032V131.771ZM154.469 131.771H152.641V130.271H154.469V131.771ZM150.081 131.771H146.425V130.271H150.081V131.771ZM143.134 131.771H125.95V130.271H143.134V131.771ZM237.852 131.021V137.613H236.352V131.021H237.852ZM237.102 138.363H173.116V136.863H237.102V138.363ZM167.632 138.363H160.685V136.863H167.632V138.363ZM157.028 138.363H154.469V136.863H157.028V138.363ZM237.852 137.613V143.107H236.352V137.613H237.852ZM237.102 143.857H228.693V142.357H237.102V143.857ZM223.939 143.857H210.776V142.357H223.939V143.857ZM195.42 143.857H191.032V142.357H195.42V143.857ZM191.032 143.857H186.645V142.357H191.032V143.857ZM186.645 143.857H169.46V142.357H186.645V143.857ZM163.975 143.857H148.253V142.357H163.975V143.857ZM136.919 143.857H134.359V142.357H136.919V143.857ZM123.756 143.857H116.443V142.357H123.756V143.857ZM105.109 143.857H60.5013V142.357H105.109V143.857ZM37.4851 140.177V143.107H35.9851V140.177H37.4851ZM50.6292 143.857H36.7351V142.357H50.6292V143.857ZM237.852 143.107V148.601H236.352V143.107H237.852ZM237.102 149.351H215.53V147.851H237.102V149.351ZM210.776 149.351H152.641V147.851H210.776V149.351ZM143.134 149.351H140.209V147.851H143.134V149.351ZM37.4851 143.107V148.601H35.9851V143.107H37.4851ZM102.183 149.351H36.7351V147.851H102.183V149.351ZM237.852 148.601V154.827H236.352V148.601H237.852ZM237.852 154.827V357H236.352V154.827H237.852ZM237.102 155.577H191.032V154.077H237.102V155.577ZM128.875 155.577H119.003V154.077H128.875V155.577ZM113.884 155.577H111.324V154.077H113.884V155.577ZM102.183 155.577H85.3643V154.077H102.183V155.577ZM75.4922 155.577H71.8359V154.077H75.4922V155.577ZM123.756 168.396H42.2196V166.896H123.756V168.396ZM146.425 162.902H136.919V161.402H146.425V162.902ZM36.3435 117.286V128.457H34.8435V117.286H36.3435ZM35.2557 117.956L29.0847 114.842L29.7603 113.503L35.9313 116.616L35.2557 117.956ZM26.1111 112.984L24.2829 111.886L25.0556 110.6L26.8838 111.699L26.1111 112.984ZM8.56265 113.44V102.819H10.0627V113.44H8.56265ZM15.8835 107.497L8.9364 103.468L9.6889 102.17L16.636 106.199L15.8835 107.497ZM36.3435 106.115V111.701H34.8435V106.115H36.3435ZM36.3435 111.701V117.286H34.8435V111.701H36.3435ZM35.2276 112.355L20.647 104.206L21.3788 102.897L35.9594 111.046L35.2276 112.355ZM18.4544 103.474L15.1637 101.643L15.8931 100.332L19.1838 102.164L18.4544 103.474ZM18.5233 95.8167L15.9638 94.718L16.5556 93.3396L19.115 94.4384L18.5233 95.8167ZM8.56265 102.819V90.7325H10.0627V102.819H8.56265ZM8.56265 90.7325V53.3745H10.0627V90.7325H8.56265ZM13.7963 93.2636L9.04303 91.4324L9.58228 90.0327L14.3355 91.8639L13.7963 93.2636ZM36.3435 84.8724V90.7325H34.8435V84.8724H36.3435ZM35.2939 85.56L24.3696 80.7986L24.9689 79.4236L35.8932 84.1849L35.2939 85.56ZM20.677 79.3167L18.4832 78.2179L19.155 76.8767L21.3488 77.9755L20.677 79.3167ZM16.0222 76.7937L13.8284 76.0612L14.3034 74.6384L16.4972 75.3709L16.0222 76.7937ZM36.3435 69.856V74.251H34.8435V69.856H36.3435ZM36.3435 74.251V84.8724H34.8435V74.251H36.3435ZM35.2955 74.9393L30.2213 72.7417L30.8174 71.3653L35.8916 73.5628L35.2955 74.9393ZM27.6452 71.6355L22.892 69.438L23.5215 68.0764L28.2747 70.274L27.6452 71.6355ZM19.9458 68.329L18.4832 67.5965L19.155 66.2553L20.6175 66.9878L19.9458 68.329ZM17.0291 66.1356L14.4697 64.8934L15.1246 63.544L17.6841 64.7862L17.0291 66.1356ZM36.3435 90.7325V94.5782H34.8435V90.7325H36.3435ZM36.3435 94.5782V98.4239H34.8435V94.5782H36.3435ZM36.4655 143.807L31.7123 141.976L32.2516 140.576L37.0048 142.407L36.4655 143.807ZM37.4851 148.601V161.053H35.9851V148.601H37.4851ZM36.3867 161.718L28.7084 157.689L29.4053 156.361L37.0836 160.389L36.3867 161.718ZM25.3798 156.569L23.5516 155.47L24.3243 154.184L26.1525 155.283L25.3798 156.569ZM18.0671 152.54L16.239 151.441L17.0117 150.156L18.8398 151.254L18.0671 152.54ZM37.4851 161.053V172.041H35.9851V161.053H37.4851ZM37.4851 172.041V357H35.9851V172.041H37.4851ZM8.56265 357V157.025H10.0627V357H8.56265ZM8.56265 157.025V131.021H10.0627V157.025H8.56265ZM36.3749 172.699L8.95242 157.683L9.67288 156.367L37.0954 171.383L36.3749 172.699ZM36.7351 181.18H100.721V182.68H36.7351V181.18ZM106.205 181.18H113.152V182.68H106.205V181.18ZM116.809 181.18H119.368V182.68H116.809V181.18ZM37.4851 181.93V187.424H35.9851V181.93H37.4851ZM36.7351 186.674H45.1447V188.174H36.7351V186.674ZM49.8979 186.674H63.0607V188.174H49.8979V186.674ZM78.4173 186.674H82.8049V188.174H78.4173V186.674ZM82.8049 186.674H87.1925V188.174H82.8049V186.674ZM87.1925 186.674H104.377V188.174H87.1925V186.674ZM109.862 186.674H125.584V188.174H109.862V186.674ZM136.919 186.674H139.478V188.174H136.919V186.674ZM150.081 186.674H157.394V188.174H150.081V186.674ZM168.729 186.674H213.336V188.174H168.729V186.674ZM223.208 186.674H237.102V188.174H223.208V186.674ZM37.4851 187.424V192.918H35.9851V187.424H37.4851ZM36.7351 192.168H58.3075V193.668H36.7351V192.168ZM63.0607 192.168H121.196V193.668H63.0607V192.168ZM130.703 192.168H133.628V193.668H130.703V192.168ZM237.852 187.424V192.918H236.352V187.424H237.852ZM171.654 192.168H237.102V193.668H171.654V192.168ZM37.4851 192.918V199.144H35.9851V192.918H37.4851ZM36.7351 198.394H82.8049V199.894H36.7351V198.394ZM144.963 198.394H154.835V199.894H144.963V198.394ZM159.953 198.394H162.513V199.894H159.953V198.394ZM171.654 198.394H188.473V199.894H171.654V198.394ZM198.345 198.394H202.001V199.894H198.345V198.394ZM150.081 211.213H231.618V212.713H150.081V211.213ZM127.412 205.719H136.919V207.219H127.412V205.719ZM237.102 239.45H173.116V237.95H237.102V239.45ZM167.632 239.45H160.685V237.95H167.632V239.45ZM157.028 239.45H154.469V237.95H157.028V239.45ZM237.852 238.7V244.193H236.352V238.7H237.852ZM237.102 244.943H228.693V243.443H237.102V244.943ZM223.939 244.943H210.776V243.443H223.939V244.943ZM195.42 244.943H191.032V243.443H195.42V244.943ZM191.032 244.943H186.645V243.443H191.032V244.943ZM186.645 244.943H169.46V243.443H186.645V244.943ZM163.975 244.943H148.253V243.443H163.975V244.943ZM136.919 244.943H134.359V243.443H136.919V244.943ZM123.756 244.943H116.443V243.443H123.756V244.943ZM105.109 244.943H60.5013V243.443H105.109V244.943ZM50.6292 244.943H36.7351V243.443H50.6292V244.943ZM237.852 244.193V249.687H236.352V244.193H237.852ZM237.102 250.437H215.53V248.937H237.102V250.437ZM210.776 250.437H152.641V248.937H210.776V250.437ZM143.134 250.437H140.209V248.937H143.134V250.437ZM37.4851 244.193V249.687H35.9851V244.193H37.4851ZM102.183 250.437H36.7351V248.937H102.183V250.437ZM237.852 249.687V255.914H236.352V249.687H237.852ZM237.102 256.664H191.032V255.164H237.102V256.664ZM128.875 256.664H119.003V255.164H128.875V256.664ZM113.884 256.664H111.324V255.164H113.884V256.664ZM102.183 256.664H85.3643V255.164H102.183V256.664ZM75.4922 256.664H71.8359V255.164H75.4922V256.664ZM146.425 263.989H136.919V262.489H146.425V263.989ZM237.102 271.68H173.116V270.18H237.102V271.68ZM167.632 271.68H160.685V270.18H167.632V271.68ZM157.028 271.68H154.469V270.18H157.028V271.68ZM237.852 270.93V276.424H236.352V270.93H237.852ZM237.102 277.174H228.693V275.674H237.102V277.174ZM195.42 277.174H191.032V275.674H195.42V277.174ZM191.032 277.174H186.645V275.674H191.032V277.174ZM186.645 277.174H169.46V275.674H186.645V277.174ZM163.975 277.174H148.253V275.674H163.975V277.174ZM136.919 277.174H134.359V275.674H136.919V277.174ZM123.756 277.174H116.443V275.674H123.756V277.174ZM105.109 277.174H60.5013V275.674H105.109V277.174ZM50.6292 277.174H36.7351V275.674H50.6292V277.174ZM237.852 276.424V281.918H236.352V276.424H237.852ZM237.102 282.668H215.53V281.168H237.102V282.668ZM143.134 282.668H140.209V281.168H143.134V282.668ZM37.4851 276.424V281.918H35.9851V276.424H37.4851ZM102.183 282.668H36.7351V281.168H102.183V282.668ZM237.852 281.918V288.144H236.352V281.918H237.852ZM237.102 288.894H191.032V287.394H237.102V288.894ZM128.875 288.894H119.003V287.394H128.875V288.894ZM113.884 288.894H111.324V287.394H113.884V288.894ZM102.183 288.894H85.3643V287.394H102.183V288.894ZM75.4922 288.894H71.8359V287.394H75.4922V288.894ZM146.425 296.219H136.919V294.719H146.425V296.219ZM36.3867 199.808L28.7084 195.779L29.4053 194.451L37.0836 198.48L36.3867 199.808ZM25.3798 194.659L23.5516 193.561L24.3243 192.275L26.1525 193.374L25.3798 194.659ZM18.0671 190.63L16.239 189.532L17.0117 188.246L18.8398 189.345L18.0671 190.63ZM36.3867 250.351L28.7084 246.323L29.4053 244.994L37.0836 249.023L36.3867 250.351ZM25.3798 245.202L23.5516 244.104L24.3243 242.818L26.1525 243.917L25.3798 245.202ZM18.0671 241.174L16.239 240.075L17.0117 238.789L18.8398 239.888L18.0671 241.174ZM253.19 44.6019H119.003V43.1019H253.19V44.6019ZM237.102 357.75H36.7351V356.25H237.102V357.75ZM9.31265 356.25H36.7351V357.75H9.31265V356.25ZM237.852 154.827V187.424H236.352V154.827H237.852ZM237.852 192.918V238.7H236.352V192.918H237.852ZM237.852 255.914V270.93H236.352V255.914H237.852ZM237.852 288.144V357H236.352V288.144H237.852ZM35.9851 357V281.918H37.4851V357H35.9851ZM35.9851 276.424V249.687H37.4851V276.424H35.9851ZM35.9851 244.193V199.144H37.4851V244.193H35.9851ZM35.9851 181.93V172.041H37.4851V181.93H35.9851Z" fill="black"/>
</svg>
