<svg width="226" height="104" viewBox="0 0 226 104" fill="none" xmlns="http://www.w3.org/2000/svg">
<path d="M43.272 104H173.605L221.348 18.9021H180.121H91.0607L84.1096 34.8043L56.3053 98.4128L43.272 104Z" fill="#99CD70"/>
<path d="M224 14.1745H203.364H182.728L180.121 18.9021H221.348L224 14.1745Z" fill="black"/>
<path d="M2 44.2596L10.2544 56.2077C14.454 57.5257 22.0712 58.0128 18.9432 49.417C18.2309 47.4594 17.5651 45.7471 16.953 44.2596H2Z" fill="black"/>
<path d="M18.9432 49.417C22.0712 58.0128 14.454 57.5257 10.2544 56.2077L25.7537 78.6426C28.4072 65.4624 43.7933 38.2426 84.1096 34.8043L91.0607 18.9021L89.7573 11.166C88.0196 15.6071 83.9358 24.1455 81.5029 22.7702C79.0701 21.3949 77.593 8.58723 75.8552 3C74.5519 8.58723 74.6387 25.7787 69.773 25.7787C64.9072 25.7787 61.6634 14.6043 60.6497 9.01702C60.6497 18.4723 59.3464 30.5064 53.2642 30.5064C48.3984 30.5064 45.1546 22.4837 44.1409 18.4723C45.0098 24.0596 45.0098 36.0936 38.4932 37.8128C33.2798 39.1881 28.7906 33.5149 27.1977 30.5064C29.3699 35.6638 29.8043 45.5489 25.0254 46.8383C21.6389 47.752 16.6387 41.7634 13.8298 37.5957C14.577 38.9177 15.6416 41.0724 16.953 44.2596C17.5651 45.7471 18.2309 47.4594 18.9432 49.417Z" fill="#99CD70"/>
<path d="M43.272 104L56.3053 98.4128L84.1096 34.8043C43.7933 38.2426 28.4072 65.4624 25.7537 78.6426L43.272 104Z" fill="#99CD70"/>
<path d="M2 44.2596V43.5096H0.570282L1.38294 44.6859L2 44.2596ZM43.272 104L42.655 104.426L42.8786 104.75H43.272V104ZM173.605 104V104.75H174.044L174.259 104.367L173.605 104ZM224 14.1745L224.654 14.5414L225.281 13.4245H224V14.1745ZM182.728 14.1745V13.4245H182.285L182.071 13.8123L182.728 14.1745ZM18.9432 49.417L18.2385 49.6735L18.9432 49.417ZM12.8611 36.0936L13.4347 35.6104L12.2218 36.4859L12.8611 36.0936ZM25.0254 46.8383L25.2208 47.5624L25.0254 46.8383ZM27.1977 30.5064L27.8605 30.1554L26.5065 30.7975L27.1977 30.5064ZM38.4932 37.8128L38.6845 38.538L38.4932 37.8128ZM44.1409 18.4723L44.868 18.2886L43.3998 18.5876L44.1409 18.4723ZM60.6497 9.01702L61.3877 8.88313L59.8997 9.01702H60.6497ZM75.8552 3L76.5714 2.77726L75.7517 0.142031L75.1248 2.82962L75.8552 3ZM89.7573 11.166L90.4969 11.0414L90.0466 8.36844L89.0589 10.8927L89.7573 11.166ZM25.7537 78.6426L25.1366 79.0689L25.7537 78.6426ZM221.348 18.9021L222.002 19.2691L221.348 18.9021ZM43.272 104.75H173.605V103.25H43.272V104.75ZM182.071 13.8123L179.465 18.54L180.778 19.2643L183.385 14.5366L182.071 13.8123ZM180.121 18.1521H91.0607V19.6521H180.121V18.1521ZM56.0098 97.7234L42.9765 103.311L43.5675 104.689L56.6008 99.1021L56.0098 97.7234ZM1.38294 44.6859L9.63734 56.634L10.8715 55.7814L2.61706 43.8333L1.38294 44.6859ZM10.0298 56.9232C11.1241 57.2667 12.4441 57.5574 13.766 57.6592C15.0783 57.7603 16.452 57.6799 17.6171 57.2295C18.8107 56.7681 19.7967 55.9087 20.2147 54.5036C20.6198 53.1418 20.4561 51.3812 19.648 49.1605L18.2385 49.6735C18.9944 51.7507 19.0516 53.1526 18.7769 54.0759C18.5152 54.9558 17.9209 55.5039 17.0762 55.8305C16.2031 56.168 15.0806 56.256 13.8812 56.1637C12.6916 56.072 11.4845 55.8076 10.479 55.4921L10.0298 56.9232ZM25.2208 47.5624C26.6779 47.1693 27.693 46.1249 28.3565 44.8045C29.0148 43.4947 29.3542 41.8683 29.4666 40.1725C29.6911 36.7843 29.0223 32.9065 27.8888 30.2153L26.5065 30.7975C27.5452 33.2637 28.1797 36.9072 27.9698 40.0733C27.865 41.6546 27.5527 43.0635 27.0163 44.131C26.4851 45.1879 25.7624 45.8626 24.8301 46.1142L25.2208 47.5624ZM26.5348 30.8573C27.3659 32.4268 28.9442 34.683 31.0114 36.3828C33.0747 38.0794 35.7461 39.3131 38.6845 38.538L38.3018 37.0876C36.0269 37.6877 33.8471 36.7725 31.9641 35.2242C30.0851 33.6791 28.6224 31.5944 27.8605 30.1554L26.5348 30.8573ZM38.6845 38.538C42.4095 37.5553 44.1129 33.6801 44.8247 29.726C45.5492 25.7013 45.3255 21.2091 44.882 18.3571L43.3998 18.5876C43.8252 21.3229 44.0359 25.6412 43.3485 29.4602C42.6483 33.3497 41.0934 36.3511 38.3018 37.0876L38.6845 38.538ZM43.4138 18.6561C43.9335 20.7127 45.0228 23.7975 46.6196 26.3873C48.1829 28.9226 50.4049 31.2564 53.2642 31.2564V29.7564C51.2577 29.7564 49.4249 28.0789 47.8964 25.6C46.4015 23.1755 45.362 20.2433 44.868 18.2886L43.4138 18.6561ZM53.2642 31.2564C55.0749 31.2564 56.4986 30.3453 57.5795 28.9344C58.6446 27.544 59.4096 25.6339 59.9638 23.4956C61.0741 19.2117 61.3997 13.7633 61.3997 9.01702H59.8997C59.8997 13.7261 59.5736 19.0223 58.5118 23.1193C57.9799 25.1714 57.2785 26.8607 56.3887 28.0222C55.5146 29.1632 54.4945 29.7564 53.2642 29.7564V31.2564ZM59.9118 9.15091C60.4252 11.981 61.5035 16.2332 63.081 19.7967C63.8685 21.5756 64.7988 23.2255 65.8756 24.4424C66.9468 25.6531 68.2496 26.5287 69.773 26.5287V25.0287C68.8635 25.0287 67.9361 24.5076 66.999 23.4484C66.0673 22.3955 65.211 20.9026 64.4526 19.1895C62.9384 15.7689 61.8879 11.6402 61.3877 8.88313L59.9118 9.15091ZM69.773 26.5287C70.6297 26.5287 71.3446 26.1415 71.9166 25.5509C72.4757 24.9736 72.9207 24.1827 73.2868 23.2897C74.0192 21.5028 74.5154 19.1044 74.8917 16.5958C75.2695 14.077 75.5349 11.3837 75.7852 8.99444C76.038 6.58141 76.2727 4.51168 76.5856 3.17038L75.1248 2.82962C74.786 4.28194 74.5429 6.45636 74.2933 8.83814C74.0413 11.2437 73.7799 13.8959 73.4083 16.3733C73.0352 18.861 72.5593 21.1097 71.8988 22.7208C71.5684 23.5268 71.2117 24.1227 70.8391 24.5073C70.4795 24.8787 70.1327 25.0287 69.773 25.0287V26.5287ZM75.139 3.22274C75.9954 5.97601 76.782 10.4926 77.6857 14.6248C78.1319 16.6651 78.6064 18.6051 79.129 20.1298C79.39 20.8914 79.6712 21.5737 79.979 22.1222C80.2762 22.6515 80.6484 23.1487 81.1339 23.4231L81.872 22.1173C81.7492 22.0479 81.5431 21.8441 81.287 21.3879C81.0417 20.9508 80.7947 20.3632 80.548 19.6434C80.055 18.2053 79.5955 16.3362 79.1511 14.3043C78.2736 10.2921 77.4528 5.61123 76.5714 2.77726L75.139 3.22274ZM81.1339 23.4231C82.2049 24.0286 83.2902 23.4263 84.0762 22.7194C84.9101 21.9694 85.7482 20.818 86.5304 19.541C88.1045 16.9712 89.5783 13.6817 90.4558 11.4392L89.0589 10.8927C88.1986 13.0914 86.7617 16.2916 85.2513 18.7575C84.4912 19.9984 83.7435 21.0012 83.0731 21.6042C82.3549 22.2502 82.0174 22.1995 81.872 22.1173L81.1339 23.4231ZM89.0178 11.2906L90.3211 19.0267L91.8002 18.7775L90.4969 11.0414L89.0178 11.2906ZM9.63734 56.634L25.1366 79.0689L26.3707 78.2163L10.8715 55.7814L9.63734 56.634ZM25.1366 79.0689L42.655 104.426L43.8891 103.574L26.3707 78.2163L25.1366 79.0689ZM90.3735 18.6017L83.4224 34.5039L84.7968 35.1046L91.7479 19.2025L90.3735 18.6017ZM83.4224 34.5039L55.6181 98.1124L56.9925 98.7132L84.7968 35.1046L83.4224 34.5039ZM26.4889 78.7906C29.0863 65.8892 44.2356 38.9576 84.1733 35.5515L84.0459 34.057C43.351 37.5276 27.7281 65.0357 25.0184 78.4945L26.4889 78.7906ZM174.259 104.367L222.002 19.2691L220.694 18.5352L172.951 103.633L174.259 104.367ZM222.002 19.2691L224.654 14.5414L223.346 13.8075L220.694 18.5352L222.002 19.2691ZM180.121 19.6521H221.348V18.1521H180.121V19.6521ZM56.3053 99.1628H86.7162V97.6628H56.3053V99.1628ZM114.521 99.1628H120.168V97.6628H114.521V99.1628ZM124.947 99.1628H161.44V97.6628H124.947V99.1628ZM165.35 99.1628H168.826V97.6628H165.35V99.1628ZM19.648 49.1605C18.9324 47.194 18.2629 45.4719 17.6466 43.9742L16.2595 44.545C16.8673 46.0222 17.5294 47.7249 18.2385 49.6735L19.648 49.1605ZM2 45.0096H16.953V43.5096H2V45.0096ZM24.8301 46.1142C24.2336 46.2751 23.4855 46.152 22.5798 45.6959C21.6805 45.243 20.71 44.5027 19.7248 43.5762C17.7569 41.7255 15.8402 39.2367 14.4517 37.1766L13.2079 38.0149C14.6283 40.1224 16.6161 42.7118 18.6972 44.6689C19.7365 45.6463 20.8265 46.4923 21.905 47.0355C22.9771 47.5755 24.1239 47.8583 25.2208 47.5624L24.8301 46.1142ZM13.1769 37.9648C13.9047 39.2524 14.9562 41.3775 16.2595 44.545L17.6466 43.9742C16.3271 40.7673 15.2493 38.583 14.4827 37.2267L13.1769 37.9648ZM14.4827 37.2267C14.0416 36.4463 13.6866 35.9095 13.4347 35.6104L12.2874 36.5768C12.4472 36.7665 12.7473 37.2048 13.1769 37.9648L14.4827 37.2267ZM12.2218 36.4859C12.5088 36.9535 12.8402 37.4694 13.2079 38.0149L14.4517 37.1766C14.0953 36.6477 13.7755 36.1497 13.5003 35.7013L12.2218 36.4859ZM224 13.4245H203.364V14.9245H224V13.4245ZM203.364 13.4245H182.728V14.9245H203.364V13.4245Z" fill="black"/>
</svg>
