<svg width="66" height="62" viewBox="0 0 66 62" fill="none" xmlns="http://www.w3.org/2000/svg">
<path d="M38.5 28.3687C37.3333 13.0354 29.2 -12.2313 6 9.36873C12.3333 8.03542 27.7 9.96879 38.5 28.3687Z" fill="#99CD70"/>
<path d="M52.5 2.86873L38.5 28.3687L35.5 33.3687L22 58.8687C24.4461 59.4802 27.8528 60.14 31.5 60.5399L58.7256 9.36873C57.0841 7.20733 55.0364 5.0208 52.5 2.86873Z" fill="#99CD70"/>
<path d="M50.5 57.3687L64 30.8687C65.3464 27.0988 65.6269 18.4559 58.7256 9.36873L31.5 60.5399C38.7871 61.339 47.0345 61.1008 50.5 57.3687Z" fill="black"/>
<path d="M38.5 28.3687L6 9.36873L2 14.8687L35.5 33.3687L38.5 28.3687Z" fill="#99CD70"/>
<path d="M50.5 57.3687L51.0496 57.8791L51.1208 57.8024L51.1683 57.7092L50.5 57.3687ZM64 30.8687L64.6683 31.2092L64.6901 31.1663L64.7063 31.121L64 30.8687ZM52.5 2.86873L52.9852 2.29685L52.2847 1.70246L51.8426 2.50778L52.5 2.86873ZM38.5 28.3687L39.1431 28.7546L39.1505 28.7423L39.1574 28.7297L38.5 28.3687ZM6 9.36873L5.48894 8.81981L5.436 8.8691L5.39345 8.92759L6 9.36873ZM2 14.8687L1.39345 14.4275L0.8938 15.1145L1.63743 15.5252L2 14.8687ZM22 58.8687L21.3372 58.5177L20.8891 59.364L21.8181 59.5963L22 58.8687ZM31.5 60.5399L31.4182 61.2854L31.5 60.5399ZM51.1683 57.7092L64.6683 31.2092L63.3317 30.5283L49.8317 57.0283L51.1683 57.7092ZM51.8426 2.50778L37.8426 28.0078L39.1574 28.7297L53.1574 3.22967L51.8426 2.50778ZM39.2478 28.3118C38.9527 24.4333 38.2173 19.9229 36.909 15.6731C35.6038 11.4332 33.7107 7.3938 31.065 4.51156C28.3978 1.60579 24.9469 -0.136111 20.6224 0.322916C16.3475 0.776677 11.3429 3.36958 5.48894 8.81981L6.51106 9.91765C12.2571 4.56788 16.9692 2.21911 20.7807 1.81454C24.5426 1.41523 27.5481 2.89833 29.96 5.5259C32.3935 8.17699 34.2024 11.9792 35.4754 16.1144C36.7452 20.2395 37.4639 24.6375 37.7522 28.4256L39.2478 28.3118ZM6.15451 10.1026C12.1772 8.83473 27.2189 10.6307 37.8532 28.7484L39.1468 27.9891C28.1811 9.30685 12.4895 7.23611 5.84549 8.63481L6.15451 10.1026ZM38.8785 27.7213L6.37852 8.72125L5.62148 10.0162L38.1215 29.0162L38.8785 27.7213ZM5.39345 8.92759L1.39345 14.4275L2.60655 15.3098L6.60655 9.80986L5.39345 8.92759ZM1.63743 15.5252L35.1374 34.0252L35.8626 32.7121L2.36257 14.2121L1.63743 15.5252ZM34.8372 33.0177L21.3372 58.5177L22.6628 59.2196L36.1628 33.7196L34.8372 33.0177ZM64.7063 31.121C66.1421 27.1008 66.3698 18.194 59.3229 8.91512L58.1283 9.82233C64.884 18.7177 64.5508 27.0967 63.2937 30.6165L64.7063 31.121ZM59.3229 8.91512C57.6469 6.70822 55.561 4.48238 52.9852 2.29685L52.0148 3.44061C54.5117 5.55921 56.5214 7.70644 58.1283 9.82233L59.3229 8.91512ZM21.8181 59.5963C24.2956 60.2156 27.7357 60.8816 31.4182 61.2854L31.5818 59.7944C27.9698 59.3983 24.5966 58.7447 22.1819 58.141L21.8181 59.5963ZM31.4182 61.2854C35.0925 61.6883 39.0401 61.8339 42.5262 61.3977C45.9839 60.9651 49.1333 59.9428 51.0496 57.8791L49.9504 56.8584C48.4012 58.5268 45.6942 59.4896 42.34 59.9093C39.0142 60.3254 35.1945 60.1905 31.5818 59.7944L31.4182 61.2854ZM58.0635 9.01645L30.8379 60.1876L32.1621 60.8922L59.3877 9.72101L58.0635 9.01645ZM37.8569 27.9829L34.8569 32.9828L36.1431 33.7545L39.1431 28.7546L37.8569 27.9829Z" fill="black"/>
</svg>
