<svg width="116" height="72" viewBox="0 0 116 72" fill="none" xmlns="http://www.w3.org/2000/svg">
<path d="M52.4604 52.0802L52.3753 51.8776C52.6517 51.811 52.8954 51.7429 53.1434 51.6933C53.9129 51.5389 54.2629 51.0075 54.3692 50.2918C54.4365 49.8171 54.472 49.3385 54.4755 48.8591C54.4882 47.561 54.4982 46.263 54.4755 44.9663C54.4643 44.36 54.4031 43.7557 54.2927 43.1595C54.0801 42.0343 53.3305 41.4349 52.2308 41.2648C51.6082 41.1672 50.9707 41.2432 50.3885 41.4845C49.5057 41.8416 49.038 42.5501 48.7773 43.4302C48.5605 44.1586 48.542 44.911 48.518 45.6593C48.491 46.5237 48.5038 47.3896 48.518 48.254C48.525 48.8775 48.5576 49.5011 48.5718 50.1232C48.5916 51.0046 49.1188 51.4935 49.7707 51.6537C50.0173 51.7132 50.2596 51.7954 50.5104 51.8662V52.0079H49.0805C47.645 52.0079 46.2109 52.0079 44.7754 52.0079C44.6337 52.0079 44.448 52.1029 44.3502 51.8974C44.6337 51.8152 44.9171 51.7245 45.209 51.6508C45.4115 51.6011 45.5983 51.5013 45.7523 51.3607C45.9063 51.2201 46.0225 51.0431 46.0904 50.8459C46.2103 50.5325 46.2791 50.2019 46.2945 49.8667C46.337 48.6489 46.3597 47.4316 46.3625 46.2148C46.3625 45.3985 46.3469 44.5809 46.2903 43.766C46.2336 42.9512 46.021 42.2072 45.2983 41.7381C44.9707 41.52 44.6011 41.373 44.2133 41.3067C43.8254 41.2403 43.4279 41.2559 43.0465 41.3527C41.6691 41.6772 40.867 42.5686 40.6006 43.9347C40.4984 44.4678 40.4424 45.0088 40.4333 45.5516C40.4163 46.528 40.4475 47.5044 40.4631 48.4807C40.4716 49.0575 40.4815 49.6357 40.4999 50.211C40.524 50.9408 40.9137 51.3986 41.5883 51.6281C41.8292 51.7103 42.0843 51.7529 42.3266 51.8308C42.3748 51.8464 42.396 51.9456 42.4286 52.0065C40.5028 52.0065 38.5755 52.0065 36.6497 52.0065C36.5207 52.0065 36.3549 52.0901 36.2656 51.9087C36.4333 51.8386 36.6069 51.7836 36.7843 51.7444C37.7012 51.6196 38.139 50.972 38.2014 50.0438C38.2439 49.3594 38.2382 48.6735 38.2439 47.9876C38.2439 47.2224 38.2439 46.4571 38.2439 45.6919C38.2525 45.6154 38.2686 45.5399 38.2921 45.4666V49.8596C38.4338 49.2927 38.4083 43.4458 38.2921 43.1297V43.7462C38.2637 43.5109 38.2326 43.2771 38.2085 43.0376C38.1532 42.5048 37.9633 42.0201 37.4999 41.7339C37.1853 41.5383 36.7999 41.459 36.3804 41.3017L36.3634 41.0976L40.2704 40.6342C40.3866 41.2422 40.4957 41.8132 40.6133 42.4226C41.2879 41.7624 42.0991 41.2583 42.9898 40.946C44.0937 40.5747 45.2175 40.4996 46.3342 40.8751C46.9549 41.082 47.4367 41.5072 47.8448 42.0088L48.27 42.5445C48.8524 42.1363 49.3937 41.6871 49.9974 41.3499C51.4882 40.5208 53.0725 40.3678 54.6739 40.9857C55.6914 41.3782 56.4056 42.1094 56.5827 43.253C56.5467 43.3347 56.5224 43.4211 56.5105 43.5095C56.5105 45.6267 56.5105 47.7434 56.5105 49.8596C56.5166 49.9179 56.529 49.9754 56.5473 50.0311L56.6097 50.024V43.5308C56.6384 43.6991 56.6573 43.869 56.6663 44.0395C56.6734 45.9413 56.6663 47.8416 56.6819 49.742C56.6824 50.0594 56.7224 50.3754 56.801 50.6829C56.9427 51.2101 57.3366 51.4893 57.8383 51.6367C58.0664 51.7033 58.3017 51.7514 58.527 51.8265C58.5738 51.8435 58.5936 51.9427 58.6248 52.0037C56.7216 52.0037 54.817 52.0037 52.9138 52.0037C52.7608 52.0163 52.6091 52.0419 52.4604 52.0802Z" fill="white"/>
<path d="M25.9672 51.907C26.1698 51.8489 26.3696 51.7752 26.5765 51.7369C27.0966 51.6391 27.6138 51.5569 28.0276 51.1772C28.2764 50.9708 28.454 50.6915 28.5353 50.3787C28.6167 50.066 28.5977 49.7355 28.4811 49.4341C28.2827 48.829 28.0376 48.2395 27.791 47.6514C27.4041 46.7274 26.9988 45.8091 26.5978 44.8781H20.3767C20.2024 45.3032 20.0224 45.7638 19.8367 46.2159C19.5632 46.8791 19.2699 47.5352 19.0134 48.1998C18.7881 48.7485 18.6763 49.3371 18.6846 49.9301C18.7059 50.7634 19.3819 51.4634 20.0621 51.6306L20.8486 51.8418C20.8358 52.0827 20.6502 52.0033 20.5255 52.0033C18.5632 52.0033 16.6001 52.0033 14.636 52.0033L14.6133 51.8885C15.0169 51.7835 15.4148 51.6572 15.8051 51.5102C16.5065 51.2055 16.9898 50.6287 17.3639 49.9953C17.8051 49.2413 18.1966 48.4593 18.5358 47.6542C19.5037 45.3755 20.4376 43.0826 21.38 40.7926C22.2416 38.6981 23.1003 36.6022 23.9563 34.5049C24.0286 34.3277 24.1093 34.1548 24.1929 33.9607H24.9936C25.2005 34.4057 25.4187 34.862 25.6271 35.3268C26.1741 36.5682 26.7126 37.8124 27.2553 39.0566C28.0801 40.9428 28.8963 42.8346 29.7324 44.7166C30.4882 46.4067 31.2535 48.0916 32.0281 49.7714C32.3116 50.3822 32.6843 50.9391 33.2794 51.3146C33.6862 51.5711 34.1425 51.6363 34.5945 51.727C34.8113 51.7695 35.031 51.8035 35.2818 51.8474L35.2095 52.0643C35.1755 52.0274 35.1415 51.9566 35.1089 51.958C34.9856 51.958 34.8624 52.0033 34.7391 52.0033C31.9672 52.0033 29.1953 52.0033 26.4235 52.0033C26.2686 51.9863 26.1157 51.954 25.9672 51.907ZM26.3583 44.2631C25.3833 41.9787 24.4126 39.7411 23.4135 37.4085C22.919 38.6201 22.4513 39.7354 22.0063 40.8606C21.5614 41.9858 21.0597 43.0968 20.636 44.2617L26.3583 44.2631ZM26.5893 44.7633V44.7194H20.4234V44.7633H26.5893Z" fill="white"/>
<path d="M57.5508 41.3002L57.5678 40.9884L61.7114 40.4343C61.7086 40.6501 61.7176 40.8658 61.7383 41.0805C61.7723 41.3044 61.8418 41.5227 61.9056 41.7763C62.1989 41.6233 62.4511 41.4929 62.7062 41.3597C64.4479 40.4981 66.249 40.3677 68.0615 41.0522C69.5806 41.6261 70.5939 42.7428 71.1295 44.2761C71.3243 44.7649 71.4034 45.2921 71.3605 45.8165C71.3407 45.9795 71.4654 46.1594 71.4427 46.3196C71.3393 47.0508 71.3959 47.8033 71.1083 48.509C70.8206 49.2147 70.5202 49.8539 70.0199 50.4136C69.2375 51.2888 68.2141 51.9134 67.078 52.2091C66.2978 52.4009 65.4891 52.4489 64.6916 52.3508C64.0042 52.2746 63.346 52.0314 62.7742 51.6422L61.9339 51.0952C61.9197 51.2369 61.8999 51.339 61.8999 51.4396C61.8999 52.5308 61.8999 53.6219 61.9112 54.7117C61.916 54.984 61.942 55.2555 61.9892 55.5237C62.121 56.2974 62.6084 56.6205 63.3028 56.809C63.4715 56.8544 63.6486 56.8756 63.813 56.9323C63.8654 56.9507 63.8923 57.0457 63.9221 57.091C63.9094 57.1155 63.8952 57.1391 63.8796 57.1619C63.8693 57.174 63.8568 57.1841 63.8427 57.1916C63.8289 57.1997 63.8134 57.2046 63.7974 57.2058L57.9221 57.2143H57.7038C57.6202 57.0655 57.6231 56.9635 57.7676 56.9309C57.9377 56.887 58.112 56.8586 58.2848 56.8289C59.0217 56.7042 59.454 56.3442 59.5815 55.5535C59.6972 54.7938 59.7536 54.0262 59.7501 53.2577C59.7686 50.211 59.7629 47.1642 59.7501 44.116C59.7608 43.5072 59.6545 42.902 59.437 42.3333C59.2173 41.7848 58.7851 41.5298 58.248 41.405C58.0354 41.354 57.8129 41.3342 57.5508 41.3002ZM61.8361 46.5789H61.8985C61.8985 46.7716 61.8857 46.9644 61.8985 47.1557C61.958 47.9521 61.9892 48.7542 62.1025 49.5435C62.1784 50.2048 62.5026 50.8126 63.0095 51.244C64.1914 52.236 65.804 52.3125 67.0794 51.1718C68.515 49.8964 68.9883 48.1788 68.9854 46.3338C68.9854 45.645 68.8083 44.9421 68.6283 44.269C68.3919 43.3673 67.9125 42.5477 67.2424 41.8996C66.7296 41.3943 66.0535 41.0883 65.3354 41.0363C64.6174 40.9844 63.9043 41.19 63.3241 41.6162C62.5957 42.149 62.2258 42.9072 62.0969 43.7603C61.958 44.6871 61.9183 45.6323 61.8347 46.5718L61.8361 46.5789Z" fill="white"/>
<path d="M86.1761 51.9059C86.3611 51.8352 86.5504 51.7765 86.7429 51.7302C87.6088 51.58 87.9928 51.0514 88.1005 50.1713C88.155 49.7265 88.1834 49.2789 88.1856 48.8308C88.1955 46.4217 88.1856 44.0211 88.1856 41.6177C88.1856 41.5397 88.1771 41.4618 88.17 41.3413H86.186C86.1747 41.1628 86.1676 41.0267 86.1562 40.8383H88.16C88.177 40.6682 88.1983 40.5463 88.1983 40.4245C88.1983 39.4141 88.1813 38.4037 88.2082 37.3947C88.218 36.9484 88.2818 36.5049 88.3981 36.0739C88.6319 35.2421 89.2484 34.7008 89.9739 34.3011C90.5186 34.0104 91.1002 33.7949 91.7028 33.6606C92.3122 33.5128 92.9353 33.4283 93.5621 33.4084C94.2905 33.3871 95.0344 33.4495 95.6707 33.9029C96.1497 34.2445 96.2914 34.6738 96.0604 35.1415C95.8294 35.6091 95.3887 35.7962 94.8516 35.6431C94.6024 35.5818 94.3827 35.4348 94.2309 35.2279C94.0184 34.9289 93.8058 34.6299 93.5918 34.3323C93.4879 34.1796 93.3463 34.0563 93.1807 33.9743C93.0151 33.8924 92.8311 33.8546 92.6466 33.8647C92.1967 33.855 91.752 33.9619 91.3556 34.175C90.7335 34.5222 90.5181 35.1202 90.4345 35.7693C90.3934 36.2002 90.3778 36.6332 90.3877 37.0659C90.3877 38.1231 90.3877 39.1817 90.3877 40.2388C90.38 40.3814 90.3634 40.5234 90.3381 40.664V36.0725H90.2361V40.6299C90.2361 40.7249 90.229 40.8298 90.3778 40.8241H93.1199V41.3243H90.4047C90.3962 41.5128 90.3835 41.6531 90.3835 41.7934C90.3835 44.4387 90.3868 47.0839 90.3934 49.7292C90.3934 49.8893 90.4033 50.0495 90.4104 50.2096C90.4458 50.9337 90.8355 51.3957 91.5016 51.6267C91.7425 51.7089 91.9976 51.7514 92.2399 51.8308C92.2867 51.8464 92.3065 51.9456 92.3391 52.0065C90.4132 52.0065 88.4888 52.0065 86.5644 52.0065C86.4354 52.0022 86.2696 52.0873 86.1761 51.9059ZM90.2985 41.4604H90.2531V50.228H90.2985V41.4604Z" fill="white"/>
<path d="M71.0742 51.9101C71.2783 51.8491 71.4795 51.7683 71.6864 51.7301C72.385 51.5884 72.8343 51.1958 72.9547 50.4759C73.0204 50.1799 73.0612 49.8789 73.0766 49.5761C73.0832 45.166 73.0832 40.7565 73.0766 36.3474C73.0718 35.9802 73.0047 35.6165 72.8782 35.2718C72.7923 35.0112 72.6326 34.7812 72.4186 34.6097C72.2045 34.4381 71.9452 34.3324 71.6722 34.3053C71.5305 34.2855 71.3888 34.2755 71.2117 34.2585C71.1989 34.1678 71.1847 34.0786 71.1635 33.9326L75.2235 33.4395C75.2391 33.6109 75.2646 33.7597 75.2646 33.9085C75.2646 35.8925 75.2646 37.8811 75.2646 39.8745C75.2646 43.0167 75.2717 46.1594 75.2859 49.3026C75.2859 49.654 75.327 50.0111 75.361 50.3541C75.429 51.0428 75.847 51.4382 76.4777 51.6394C76.7341 51.7216 76.9977 51.7811 77.2812 51.8661V52.1155C77.2372 52.1354 77.2089 52.1595 77.1805 52.1595C75.207 52.1595 73.2325 52.1595 71.257 52.1595C71.2027 52.1495 71.1505 52.1303 71.1026 52.1028H76.8759C76.9566 52.1028 77.036 52.1028 77.1168 52.1028C77.1325 52.1001 77.1471 52.0932 77.1593 52.0829C77.1731 52.0764 77.1853 52.0667 77.1947 52.0546C77.2044 52.0325 77.2111 52.0091 77.2146 51.9852C77.0643 51.9937 76.9198 52.0093 76.7752 52.0093C75.028 52.0093 73.2792 52.0093 71.5319 52.0093C71.3764 51.9915 71.2231 51.9583 71.0742 51.9101ZM73.1928 49.4457H73.2396V36.4706H73.1928V49.4457Z" fill="white"/>
<path d="M60.1452 27.5458H58.8698C58.8585 27.4168 58.8415 27.2935 58.8415 27.1702C58.8415 26.0961 58.8202 25.0205 58.8415 23.9463C58.8897 21.6988 59.9624 20.0507 61.8741 18.9311C62.8559 18.3734 63.9706 18.0928 65.0994 18.1191C70.3824 18.1276 75.6659 18.1276 80.9498 18.1191H81.4189C81.7802 17.8584 82.0381 17.6062 82.3471 17.463C83.0655 17.1328 83.9697 17.5438 84.246 18.2835C84.3377 18.5087 84.3605 18.756 84.3115 18.9941C84.2626 19.2323 84.1441 19.4505 83.9711 19.6213C83.7951 19.8217 83.5676 19.9699 83.3132 20.0499C83.0588 20.1298 82.7874 20.1384 82.5285 20.0748C82.092 19.9784 81.8086 19.678 81.528 19.352H81.1893C75.7929 19.352 70.3966 19.3294 65.0002 19.3634C62.9539 19.3775 61.4093 20.3171 60.5179 22.2075C60.2676 22.7477 60.1407 23.3368 60.1466 23.9321C60.1466 24.9581 60.1466 25.9846 60.1466 27.0115L60.1452 27.5458ZM81.4019 19.2557L81.3934 19.2075H64.636V19.2557H81.4019ZM59.9922 27.4125L60.0389 27.3913V23.5651H59.9922V27.4125Z" fill="white"/>
<path d="M56.5992 27.4608C56.5553 27.4948 56.5113 27.5558 56.466 27.5558C56.099 27.5643 55.7305 27.5558 55.3323 27.5558C55.321 27.4141 55.3025 27.2936 55.3025 27.1731C55.3025 26.0834 55.2742 24.9922 55.3025 23.9025C55.3564 22.0829 54.0399 20.3979 52.4102 19.7404C51.7546 19.4764 51.0536 19.3435 50.3469 19.3493C45.0658 19.3493 39.7838 19.3493 34.5008 19.3493H33.9467C33.1701 20.3569 32.1569 20.252 31.5532 19.6781C31.4232 19.5521 31.3206 19.4008 31.2517 19.2334C31.1827 19.0661 31.149 18.8863 31.1526 18.7054C31.1562 18.5244 31.197 18.3462 31.2725 18.1817C31.348 18.0172 31.4566 17.87 31.5915 17.7494C32.283 17.1018 33.2169 17.2392 33.9425 18.1164H34.3988C39.6973 18.1164 44.9945 18.1235 50.2931 18.1164C51.9667 18.1164 53.4475 18.6067 54.7031 19.7121C55.5908 20.4866 56.2133 21.52 56.483 22.6667C56.5283 22.851 56.5482 23.0423 56.5794 23.2336C56.5539 23.2874 56.5071 23.3399 56.5071 23.3923C56.5071 24.6856 56.5071 25.9795 56.5071 27.2738C56.5057 27.3333 56.5666 27.397 56.5992 27.4608ZM50.772 19.2572V19.2118H34.0034V19.2572H50.772Z" fill="white"/>
<path d="M78.667 52.0972L78.5508 51.8733C78.8144 51.8152 79.0298 51.7599 79.2494 51.7231C79.975 51.5998 80.3548 51.1364 80.5121 50.4477C80.5531 50.2935 80.5769 50.1352 80.5829 49.9758C80.5829 47.7155 80.5957 45.4552 80.5829 43.1949C80.5724 42.9078 80.507 42.6255 80.3902 42.363C80.3094 42.1523 80.1781 41.9646 80.0079 41.8163C79.8377 41.6681 79.6337 41.5639 79.4138 41.5128C79.2126 41.4646 79.0099 41.4249 78.7931 41.3711C78.6897 41.1698 78.7931 41.0763 78.9816 41.0522C79.2834 41.0154 79.5881 41.0055 79.8914 40.9686C80.7331 40.868 81.5735 40.756 82.4167 40.654C82.5474 40.6466 82.6785 40.6466 82.8092 40.654C82.8092 40.834 82.8092 41.0026 82.8092 41.1727C82.8092 43.946 82.8092 46.7207 82.8248 49.4954C82.822 49.8472 82.8543 50.1985 82.9211 50.544C83.0416 51.1109 83.4469 51.4396 83.9783 51.621C84.2476 51.7117 84.5253 51.7812 84.8073 51.8619V52.1085C84.7625 52.1301 84.7148 52.1449 84.6656 52.1524C82.7223 52.1524 80.7799 52.1524 78.8385 52.1524C78.7801 52.1411 78.724 52.12 78.6727 52.0901C80.6727 52.0835 82.6722 52.0754 84.6713 52.066C84.6883 52.066 84.7039 52.0192 84.7195 51.9966H83.4724C81.9986 51.9966 80.5262 51.9966 79.0524 51.9966C78.9205 52.0151 78.7912 52.0489 78.667 52.0972ZM80.7657 43.3919L80.7175 43.4089V49.6442H80.7657V43.3919Z" fill="white"/>
<path d="M98.4199 40.6738C98.4604 40.8126 98.4875 40.955 98.5007 41.099C98.5007 43.5647 98.5007 46.0305 98.5007 48.4963C98.5007 48.9923 98.5007 49.4882 98.522 49.9842C98.5517 50.8855 98.9471 51.4481 99.8356 51.6848C100.043 51.7474 100.247 51.8207 100.446 51.9044C100.361 52.0886 100.194 52.005 100.067 52.005C98.2924 52.0107 96.5182 52.0107 94.744 52.005C94.5899 51.9902 94.4376 51.9607 94.2891 51.9172C94.5512 51.8378 94.812 51.7429 95.0784 51.6805C95.7402 51.5261 96.0789 51.0726 96.1951 50.449C96.2706 50.0247 96.3095 49.5947 96.3113 49.1637C96.3255 47.5133 96.3255 45.86 96.3113 44.2038C96.314 43.7409 96.2803 43.2784 96.2107 42.8207C96.1044 42.1774 95.7558 41.7012 95.0912 41.5227C94.8772 41.4646 94.6561 41.4263 94.4209 41.381C94.3628 41.1741 94.4478 41.082 94.6462 41.0635C94.9296 41.038 95.2229 41.0196 95.5078 40.9842C96.2546 40.8921 96.9986 40.7872 97.7454 40.7008C97.9353 40.6767 98.128 40.6823 98.3207 40.6738V49.4599H98.41L98.4199 40.6738Z" fill="white"/>
<path d="M57.6738 15.2253C58.1136 15.2104 58.5509 15.296 58.9526 15.4755C59.3544 15.655 59.7099 15.9237 59.9922 16.2612C60.3919 16.7181 60.6146 17.3031 60.62 17.9102C60.6255 18.5172 60.4133 19.1061 60.022 19.5701C58.8174 21.0368 56.4976 20.9702 55.3838 19.4724C54.4145 18.17 54.8623 16.2598 56.4537 15.5087C56.8313 15.3163 57.2501 15.219 57.6738 15.2253Z" fill="white"/>
<path d="M77.2268 22.1977C77.3708 21.9529 77.5818 21.7544 77.8348 21.6256C78.0879 21.4968 78.3726 21.4431 78.6552 21.4707C79.3808 21.5146 79.983 22.0602 79.9901 22.7843C80 23.5708 79.4105 24.0852 78.7147 24.1703C78.1224 24.244 77.744 24.0484 77.2041 23.4291H63.3164C63.3379 23.3321 63.3682 23.2372 63.4071 23.1457C63.5682 22.8475 63.8098 22.6005 64.1045 22.4328C64.3991 22.2652 64.7349 22.1837 65.0736 22.1977C66.5998 22.1977 68.1247 22.1977 69.6509 22.1977H76.8781H77.2268Z" fill="white"/>
<path d="M38.2009 23.4364C38.0761 23.6559 37.8971 23.8398 37.6811 23.9706C37.465 24.1013 37.219 24.1745 36.9666 24.1831C36.7143 24.1918 36.4639 24.1357 36.2393 24.0201C36.0148 23.9045 35.8237 23.7333 35.6841 23.5228C35.5056 23.2332 35.4437 22.8867 35.5107 22.5532C35.5778 22.2197 35.7689 21.924 36.0455 21.7259C36.3395 21.5107 36.7016 21.4094 37.0647 21.441C37.4277 21.4725 37.767 21.6347 38.0195 21.8974C38.1102 21.9853 38.1825 22.0915 38.2689 22.1936H50.3597C51.1915 22.1936 51.8051 22.5351 52.1353 23.3273H38.6643C38.5525 23.3194 38.4402 23.3194 38.3284 23.3273C38.2802 23.3343 38.2434 23.3981 38.2009 23.4364ZM50.7678 22.3381L50.755 22.2899H38.2406V22.3381H50.7678Z" fill="white"/>
<path d="M63.2227 27.571V26.3396H72.8675C73.6625 25.3603 74.6006 25.3788 75.2766 25.9853C75.4075 26.1038 75.5127 26.2481 75.5855 26.409C75.6584 26.57 75.6973 26.7442 75.7 26.9208C75.7027 27.0974 75.669 27.2727 75.601 27.4358C75.533 27.5988 75.4323 27.7462 75.3049 27.8686C74.629 28.5488 73.7135 28.4468 72.8958 27.571H63.2227Z" fill="white"/>
<path d="M42.5791 26.3326H52.2325V27.4903C52.2223 27.5028 52.2114 27.5146 52.1999 27.5258C52.1904 27.5373 52.1789 27.5469 52.1659 27.5541C52.1346 27.5607 52.1028 27.5645 52.0709 27.5654H42.5763C42.5012 27.659 42.4261 27.7582 42.3439 27.8489C41.7657 28.4922 40.4492 28.454 39.9617 27.5881C39.8691 27.4152 39.815 27.2243 39.8032 27.0285C39.7915 26.8327 39.8222 26.6367 39.8935 26.4539C39.9647 26.2711 40.0747 26.106 40.2159 25.9698C40.3571 25.8336 40.5261 25.7297 40.7114 25.6651C40.9977 25.554 41.3117 25.5353 41.6093 25.6115C41.9068 25.6877 42.1731 25.8551 42.3708 26.0902C42.4232 26.1512 42.4842 26.2249 42.5791 26.3326Z" fill="white"/>
<path d="M81.7639 36.992C82.488 36.992 83.0095 37.4852 83.0138 38.1625C83.018 38.8399 82.4667 39.3657 81.7384 39.3572C81.01 39.3487 80.4219 38.8243 80.4502 38.1625C80.4581 37.9989 80.4986 37.8385 80.5692 37.6907C80.6398 37.5429 80.7392 37.4106 80.8615 37.3017C80.9838 37.1927 81.1265 37.1092 81.2815 37.056C81.4364 37.0028 81.6004 36.9811 81.7639 36.992Z" fill="white"/>
<path d="M97.3651 36.9894C97.569 36.9746 97.7733 37.013 97.9579 37.1008C98.1425 37.1886 98.3012 37.3229 98.4183 37.4904C98.5355 37.658 98.6071 37.8531 98.6262 38.0567C98.6452 38.2603 98.6111 38.4653 98.5271 38.6517C98.3358 39.091 97.9687 39.2979 97.5124 39.339C97.0561 39.3801 96.6239 39.2781 96.3263 38.8785C96.1921 38.7199 96.1073 38.5255 96.0821 38.3193C96.0569 38.1131 96.0925 37.9041 96.1846 37.7178C96.2661 37.5265 96.3962 37.3599 96.562 37.2343C96.7278 37.1088 96.9236 37.0288 97.1298 37.0022C97.2049 36.9909 97.2857 36.9937 97.3651 36.9894Z" fill="white"/>
<path d="M38.1992 23.436C38.2417 23.3978 38.28 23.334 38.3268 23.3269C38.4386 23.3191 38.5508 23.3191 38.6626 23.3269H52.1337C52.1138 23.3595 52.094 23.419 52.0713 23.4204C51.9112 23.4304 51.751 23.4289 51.5909 23.4289H38.6796C38.5195 23.4261 38.3594 23.4318 38.1992 23.436Z" fill="white"/>
<path d="M14.6367 52.0009C16.6008 52.0009 18.564 52.0009 20.5262 52.0009C20.6509 52.0009 20.8366 52.0803 20.8493 51.8394L20.9669 52.0873C20.8492 52.121 20.7288 52.1442 20.607 52.1568C18.7222 52.1568 16.837 52.1568 14.9513 52.1568C14.8309 52.1596 14.6509 52.2319 14.6367 52.0009Z" fill="white"/>
<path d="M86.1802 51.906C86.2695 52.0874 86.4353 52.0024 86.5643 52.0024C88.4887 52.0024 90.4131 52.0024 92.339 52.0024C92.2965 52.0548 92.2568 52.1441 92.2114 52.1526C92.0201 52.1696 91.826 52.1526 91.6333 52.1526H86.5742C86.4478 52.1601 86.321 52.1471 86.1986 52.1143C86.1037 52.086 86.0654 51.9882 86.1802 51.906Z" fill="white"/>
<path d="M36.2658 51.9045C36.3551 52.0859 36.5209 52.0023 36.6498 52.0023C38.5757 52.0023 40.5029 52.0023 42.4288 52.0023C42.4033 52.0519 42.3849 52.1341 42.348 52.144C42.2546 52.1614 42.1593 52.1666 42.0646 52.1596H36.6116C36.5015 52.1672 36.3909 52.1542 36.2856 52.1214C36.1864 52.0831 36.1538 51.9896 36.2658 51.9045Z" fill="white"/>
<path d="M94.293 51.9146C94.4415 51.9582 94.5938 51.9876 94.7479 52.0025C96.5221 52.0081 98.2963 52.0081 100.071 52.0025C100.198 52.0025 100.365 52.0861 100.45 51.9019C100.562 51.9812 100.541 52.0762 100.439 52.1187C100.334 52.1539 100.222 52.1679 100.112 52.1598C98.7229 52.1527 97.3327 52.1399 95.9439 52.1314C95.4026 52.1314 94.8612 52.1314 94.293 52.1314V51.9146Z" fill="white"/>
<path d="M25.9688 51.9072C26.1169 51.9537 26.2693 51.9855 26.4236 52.0022C29.1955 52.0078 31.9674 52.0078 34.7392 52.0022C34.8625 52.0022 34.9858 51.9611 35.1091 51.9568C35.1417 51.9568 35.1757 52.0263 35.2097 52.0631C35.0888 52.0937 34.9656 52.1141 34.8413 52.124C31.9844 52.124 29.127 52.124 26.2692 52.124C26.1756 52.124 26.0821 52.1113 25.9688 52.1042V51.9072Z" fill="white"/>
<path d="M98.4174 40.6736V49.447H98.3281V40.6609L98.4174 40.6736Z" fill="white"/>
<path d="M56.6031 43.5309V50.017L56.5408 50.0241C56.5224 49.9684 56.5101 49.911 56.5039 49.8527C56.5039 47.7355 56.5039 45.6188 56.5039 43.5026C56.5159 43.4141 56.5402 43.3278 56.5762 43.2461L56.6031 43.5309Z" fill="white"/>
<path d="M38.2852 43.7322V43.1157C38.4028 43.4317 38.4269 49.2731 38.2852 49.8456V43.7322Z" fill="white"/>
<path d="M71.0742 51.9104C71.2229 51.9561 71.3757 51.987 71.5305 52.0025C73.2778 52.0096 75.0265 52.0025 76.7738 52.0025C76.9155 52.0025 77.0573 51.9869 77.2131 51.9784C77.2097 52.0024 77.203 52.0257 77.1933 52.0479C77.1839 52.06 77.1717 52.0697 77.1579 52.0762C77.1457 52.0865 77.131 52.0933 77.1154 52.096C77.0346 52.096 76.9552 52.096 76.8744 52.096H71.1011L71.0742 51.9104Z" fill="white"/>
<path d="M44.3531 51.8918C44.4481 52.0973 44.6366 52.001 44.7783 52.0024C46.2138 52.0095 47.6479 52.0024 49.0835 52.0024H50.519C50.5048 52.1866 50.3617 52.1214 50.2653 52.1228C49.7382 52.1228 49.211 52.1228 48.6838 52.1228H44.2695L44.3531 51.8918Z" fill="white"/>
<path d="M52.4609 52.0801C52.608 52.044 52.7578 52.0203 52.9087 52.0093C54.8119 52.0093 56.7165 52.0093 58.6197 52.0093C58.5488 52.2516 58.3519 52.1255 58.2187 52.1269C56.5521 52.1354 54.8851 52.1354 53.2177 52.1269C52.9654 52.1255 52.7132 52.0957 52.4609 52.0801Z" fill="white"/>
<path d="M90.3683 40.8243C90.2266 40.8243 90.2266 40.7251 90.2266 40.6302V36.0728H90.3286V40.6571L90.3683 40.8243Z" fill="white"/>
<path d="M56.6017 27.4608C56.5691 27.397 56.5082 27.3332 56.5082 27.2709C56.5025 25.9775 56.5025 24.6837 56.5082 23.3894C56.5082 23.337 56.5549 23.2846 56.5804 23.2307C56.5946 23.7593 56.6187 24.2879 56.6201 24.8165C56.6215 25.6979 56.6088 26.5793 56.6017 27.4608Z" fill="white"/>
<path d="M23.5025 44.7705C25.9115 44.7705 27.8643 44.7571 27.8643 44.7407C27.8643 44.7243 25.9115 44.7109 23.5025 44.7109C21.0935 44.7109 19.1406 44.7243 19.1406 44.7407C19.1406 44.7571 21.0935 44.7705 23.5025 44.7705Z" fill="white"/>
<path d="M90.2787 52.036C90.2967 52.036 90.3113 49.2621 90.3113 45.8404C90.3113 42.4186 90.2967 39.6448 90.2787 39.6448C90.2607 39.6448 90.2461 42.4186 90.2461 45.8404C90.2461 49.2621 90.2607 52.036 90.2787 52.036Z" fill="white"/>
<path d="M73.2162 52.1327C73.2342 52.1327 73.2488 48.0252 73.2488 42.9583C73.2488 37.8914 73.2342 33.7839 73.2162 33.7839C73.1982 33.7839 73.1836 37.8914 73.1836 42.9583C73.1836 48.0252 73.1982 52.1327 73.2162 52.1327Z" fill="white"/>
<path d="M81.4082 19.2559H64.6367V19.2078H81.3997L81.4082 19.2559Z" fill="white"/>
<path d="M59.9961 27.4125V23.5623H60.0429V27.3885L59.9961 27.4125Z" fill="white"/>
<path d="M42.3882 19.2668C48.9366 19.2668 54.2452 19.2523 54.2452 19.2343C54.2452 19.2163 48.9366 19.2017 42.3882 19.2017C35.8398 19.2017 30.5312 19.2163 30.5312 19.2343C30.5312 19.2523 35.8398 19.2668 42.3882 19.2668Z" fill="white"/>
<path d="M80.7669 43.3918V49.6498H80.7188V43.4145L80.7669 43.3918Z" fill="white"/>
<path d="M78.668 52.0972C78.7932 52.0536 78.923 52.0246 79.0548 52.0107C80.5286 52.0036 82.001 52.0107 83.4748 52.0107H84.7219C84.7063 52.0334 84.6907 52.0802 84.6737 52.0802C82.6737 52.0896 80.6741 52.0976 78.6751 52.1042L78.668 52.0972Z" fill="white"/>
<path d="M50.7655 22.338H38.2383V22.2898H50.7485L50.7655 22.338Z" fill="white"/>
</svg>
