<svg width="116" height="72" viewBox="0 0 116 72" fill="none" xmlns="http://www.w3.org/2000/svg">
<path d="M12.6283 41.0664C12.6191 40.9846 12.5811 40.9212 12.5143 40.8763C12.4474 40.8307 12.3633 40.808 12.2619 40.808C12.1893 40.808 12.1265 40.8195 12.0735 40.8426C12.0205 40.865 11.9793 40.8961 11.9499 40.9359C11.9211 40.9751 11.9067 41.0197 11.9067 41.0698C11.9067 41.1119 11.9165 41.1482 11.9361 41.1787C11.9563 41.2093 11.9825 41.2349 12.0147 41.2556C12.0476 41.2758 12.0827 41.2928 12.1202 41.3066C12.1576 41.3199 12.1936 41.3308 12.2282 41.3395L12.401 41.3844C12.4575 41.3982 12.5154 41.417 12.5747 41.4406C12.6341 41.4642 12.6891 41.4953 12.7398 41.5339C12.7905 41.5725 12.8314 41.6203 12.8625 41.6774C12.8942 41.7344 12.9101 41.8027 12.9101 41.8822C12.9101 41.9824 12.8841 42.0715 12.8323 42.1492C12.781 42.227 12.7064 42.2884 12.6084 42.3333C12.5111 42.3783 12.3933 42.4007 12.255 42.4007C12.1225 42.4007 12.0078 42.3797 11.911 42.3376C11.8142 42.2956 11.7385 42.2359 11.6838 42.1587C11.629 42.081 11.5988 41.9888 11.593 41.8822H11.8609C11.8661 41.9461 11.8868 41.9994 11.9231 42.0421C11.96 42.0841 12.007 42.1155 12.064 42.1363C12.1216 42.1564 12.1847 42.1665 12.2533 42.1665C12.3287 42.1665 12.3959 42.1547 12.4546 42.1311C12.514 42.1069 12.5606 42.0735 12.5946 42.0308C12.6286 41.9876 12.6456 41.9372 12.6456 41.8796C12.6456 41.8272 12.6306 41.7843 12.6007 41.7508C12.5713 41.7174 12.5312 41.6898 12.4805 41.6679C12.4304 41.646 12.3737 41.6267 12.3103 41.61L12.1012 41.5529C11.9594 41.5143 11.8471 41.4576 11.7641 41.3827C11.6817 41.3078 11.6405 41.2087 11.6405 41.0854C11.6405 40.9834 11.6682 40.8944 11.7235 40.8184C11.7788 40.7423 11.8537 40.6833 11.9482 40.6412C12.0427 40.5986 12.1493 40.5772 12.268 40.5772C12.3878 40.5772 12.4935 40.5983 12.5851 40.6403C12.6773 40.6824 12.7499 40.7403 12.8029 40.814C12.8559 40.8872 12.8836 40.9713 12.8859 41.0664H12.6283ZM14.237 40.8313V40.6014H15.6068V40.8313H15.0545V42.3713H14.7884V40.8313H14.237ZM16.9449 42.3713H16.6615L17.2984 40.6014H17.6069L18.2438 42.3713H17.9604L17.46 40.9229H17.4462L16.9449 42.3713ZM16.9925 41.6782H17.912V41.9029H16.9925V41.6782ZM19.5946 42.3713V40.6014H20.2254C20.3625 40.6014 20.4763 40.6251 20.5668 40.6723C20.6578 40.7196 20.7258 40.7849 20.7707 40.8685C20.8157 40.9514 20.8381 41.0474 20.8381 41.1563C20.8381 41.2646 20.8154 41.3599 20.7699 41.4423C20.7249 41.5241 20.657 41.5878 20.5659 41.6333C20.4755 41.6788 20.3617 41.7016 20.2246 41.7016H19.7467V41.4717H20.2004C20.2868 41.4717 20.3571 41.4593 20.4112 41.4345C20.466 41.4098 20.506 41.3738 20.5314 41.3265C20.5567 41.2793 20.5694 41.2225 20.5694 41.1563C20.5694 41.0894 20.5564 41.0315 20.5305 40.9826C20.5051 40.9336 20.4651 40.8961 20.4104 40.8702C20.3562 40.8437 20.2851 40.8305 20.1969 40.8305H19.8616V42.3713H19.5946ZM20.4683 41.5728L20.9056 42.3713H20.6014L20.1727 41.5728H20.4683ZM22.1709 40.8313V40.6014H23.5407V40.8313H22.9885V42.3713H22.7223V40.8313H22.1709ZM26.0767 40.6014H26.3446V41.7655C26.3446 41.8894 26.3155 41.9992 26.2573 42.0948C26.1991 42.1899 26.1173 42.2648 26.0118 42.3195C25.9064 42.3736 25.7828 42.4007 25.6411 42.4007C25.4999 42.4007 25.3766 42.3736 25.2712 42.3195C25.1658 42.2648 25.084 42.1899 25.0258 42.0948C24.9676 41.9992 24.9385 41.8894 24.9385 41.7655V40.6014H25.2055V41.7439C25.2055 41.824 25.2231 41.8952 25.2583 41.9574C25.294 42.0196 25.3444 42.0686 25.4095 42.1043C25.4746 42.1394 25.5518 42.157 25.6411 42.157C25.731 42.157 25.8085 42.1394 25.8736 42.1043C25.9392 42.0686 25.9894 42.0196 26.0239 41.9574C26.0591 41.8952 26.0767 41.824 26.0767 41.7439V40.6014ZM27.8279 42.3713V40.6014H28.4588C28.5965 40.6014 28.7106 40.6265 28.801 40.6766C28.8915 40.7268 28.9592 40.7953 29.0041 40.8823C29.049 40.9687 29.0715 41.0661 29.0715 41.1744C29.0715 41.2833 29.0488 41.3812 29.0032 41.4682C28.9583 41.5547 28.8903 41.6232 28.7993 41.6739C28.7088 41.724 28.595 41.7491 28.4579 41.7491H28.0241V41.5227H28.4337C28.5207 41.5227 28.5913 41.5077 28.6455 41.4777C28.6996 41.4472 28.7394 41.4057 28.7647 41.3533C28.7901 41.3009 28.8027 41.2412 28.8027 41.1744C28.8027 41.1076 28.7901 41.0482 28.7647 40.9964C28.7394 40.9445 28.6993 40.9039 28.6446 40.8745C28.5904 40.8452 28.519 40.8305 28.4303 40.8305H28.095V42.3713H27.8279ZM32.3684 42.3713H32.0849L32.7218 40.6014H33.0304L33.6673 42.3713H33.3838L32.8834 40.9229H32.8696L32.3684 42.3713ZM32.4159 41.6782H33.3354V41.9029H32.4159V41.6782ZM36.4048 41.177H36.1352C36.1248 41.1194 36.1055 41.0687 36.0773 41.0249C36.049 40.9811 36.0145 40.944 35.9736 40.9134C35.9327 40.8829 35.8869 40.8598 35.8362 40.8443C35.786 40.8287 35.7327 40.821 35.6763 40.821C35.5743 40.821 35.483 40.8466 35.4023 40.8979C35.3223 40.9491 35.2589 41.0243 35.2122 41.1234C35.1661 41.2225 35.1431 41.3435 35.1431 41.4864C35.1431 41.6304 35.1661 41.752 35.2122 41.8511C35.2589 41.9502 35.3225 42.0251 35.4032 42.0758C35.4839 42.1265 35.5746 42.1518 35.6754 42.1518C35.7313 42.1518 35.7843 42.1443 35.8344 42.1294C35.8851 42.1138 35.9309 42.091 35.9718 42.0611C36.0128 42.0311 36.0473 41.9945 36.0755 41.9513C36.1044 41.9075 36.1242 41.8574 36.1352 41.801L36.4048 41.8018C36.3904 41.8888 36.3625 41.9689 36.321 42.0421C36.2801 42.1147 36.2274 42.1775 36.1628 42.2305C36.0989 42.2829 36.0257 42.3235 35.9433 42.3523C35.8609 42.3811 35.7711 42.3955 35.6737 42.3955C35.5204 42.3955 35.3839 42.3592 35.2641 42.2866C35.1442 42.2135 35.0497 42.1089 34.9806 41.9729C34.912 41.837 34.8778 41.6748 34.8778 41.4864C34.8778 41.2974 34.9123 41.1352 34.9815 40.9998C35.0506 40.8639 35.1451 40.7596 35.2649 40.687C35.3848 40.6138 35.521 40.5772 35.6737 40.5772C35.7676 40.5772 35.8552 40.5908 35.9364 40.6179C36.0182 40.6444 36.0917 40.6835 36.1568 40.7354C36.2219 40.7867 36.2758 40.8495 36.3184 40.9238C36.361 40.9975 36.3898 41.0819 36.4048 41.177ZM39.2895 41.177H39.0199C39.0095 41.1194 38.9902 41.0687 38.962 41.0249C38.9337 40.9811 38.8992 40.944 38.8582 40.9134C38.8173 40.8829 38.7715 40.8598 38.7208 40.8443C38.6707 40.8287 38.6174 40.821 38.561 40.821C38.459 40.821 38.3677 40.8466 38.287 40.8979C38.2069 40.9491 38.1435 41.0243 38.0969 41.1234C38.0508 41.2225 38.0277 41.3435 38.0277 41.4864C38.0277 41.6304 38.0508 41.752 38.0969 41.8511C38.1435 41.9502 38.2072 42.0251 38.2879 42.0758C38.3685 42.1265 38.4593 42.1518 38.5601 42.1518C38.616 42.1518 38.669 42.1443 38.7191 42.1294C38.7698 42.1138 38.8156 42.091 38.8565 42.0611C38.8974 42.0311 38.932 41.9945 38.9602 41.9513C38.989 41.9075 39.0089 41.8574 39.0199 41.801L39.2895 41.8018C39.2751 41.8888 39.2471 41.9689 39.2057 42.0421C39.1648 42.1147 39.112 42.1775 39.0475 42.2305C38.9836 42.2829 38.9104 42.3235 38.828 42.3523C38.7456 42.3811 38.6557 42.3955 38.5584 42.3955C38.4051 42.3955 38.2686 42.3592 38.1487 42.2866C38.0289 42.2135 37.9344 42.1089 37.8653 41.9729C37.7967 41.837 37.7624 41.6748 37.7624 41.4864C37.7624 41.2974 37.797 41.1352 37.8661 40.9998C37.9353 40.8639 38.0298 40.7596 38.1496 40.687C38.2694 40.6138 38.4057 40.5772 38.5584 40.5772C38.6523 40.5772 38.7399 40.5908 38.8211 40.6179C38.9029 40.6444 38.9764 40.6835 39.0415 40.7354C39.1066 40.7867 39.1604 40.8495 39.2031 40.9238C39.2457 40.9975 39.2745 41.0819 39.2895 41.177ZM40.7041 42.3713V40.6014H41.8138V40.8313H40.9712V41.3706H41.7559V41.5996H40.9712V42.1415H41.8242V42.3713H40.7041ZM43.2656 42.3713V40.6014H43.5326V42.1415H44.3346V42.3713H43.2656ZM45.7344 42.3713V40.6014H46.844V40.8313H46.0014V41.3706H46.7861V41.5996H46.0014V42.1415H46.8544V42.3713H45.7344ZM48.2958 42.3713V40.6014H48.9267C49.0638 40.6014 49.1776 40.6251 49.2681 40.6723C49.3591 40.7196 49.4271 40.7849 49.472 40.8685C49.517 40.9514 49.5394 41.0474 49.5394 41.1563C49.5394 41.2646 49.5167 41.3599 49.4712 41.4423C49.4262 41.5241 49.3582 41.5878 49.2672 41.6333C49.1768 41.6788 49.063 41.7016 48.9258 41.7016H48.4479V41.4717H48.9016C48.9881 41.4717 49.0584 41.4593 49.1125 41.4345C49.1672 41.4098 49.2073 41.3738 49.2326 41.3265C49.258 41.2793 49.2707 41.2225 49.2707 41.1563C49.2707 41.0894 49.2577 41.0315 49.2318 40.9826C49.2064 40.9336 49.1664 40.8961 49.1117 40.8702C49.0575 40.8437 48.9863 40.8305 48.8982 40.8305H48.5629V42.3713H48.2958ZM49.1696 41.5728L49.6068 42.3713H49.3026L48.874 41.5728H49.1696ZM51.109 42.3713H50.8255L51.4625 40.6014H51.771L52.4079 42.3713H52.1244L51.6241 40.9229H51.6102L51.109 42.3713ZM51.1565 41.6782H52.076V41.9029H51.1565V41.6782ZM53.4622 40.8313V40.6014H54.832V40.8313H54.2797V42.3713H54.0136V40.8313H53.4622ZM57.6911 41.4864C57.6911 41.6754 57.6566 41.8378 57.5874 41.9738C57.5183 42.1092 57.4235 42.2135 57.3031 42.2866C57.1833 42.3592 57.047 42.3955 56.8943 42.3955C56.7411 42.3955 56.6043 42.3592 56.4838 42.2866C56.364 42.2135 56.2695 42.1089 56.2004 41.9729C56.1312 41.837 56.0967 41.6748 56.0967 41.4864C56.0967 41.2974 56.1312 41.1352 56.2004 40.9998C56.2695 40.8639 56.364 40.7596 56.4838 40.687C56.6043 40.6138 56.7411 40.5772 56.8943 40.5772C57.047 40.5772 57.1833 40.6138 57.3031 40.687C57.4235 40.7596 57.5183 40.8639 57.5874 40.9998C57.6566 41.1352 57.6911 41.2974 57.6911 41.4864ZM57.4267 41.4864C57.4267 41.3424 57.4034 41.2211 57.3567 41.1226C57.3106 41.0235 57.2472 40.9486 57.1666 40.8979C57.0865 40.8466 56.9957 40.821 56.8943 40.821C56.7924 40.821 56.7013 40.8466 56.6212 40.8979C56.5412 40.9486 56.4778 41.0235 56.4311 41.1226C56.385 41.2211 56.362 41.3424 56.362 41.4864C56.362 41.6304 56.385 41.752 56.4311 41.8511C56.4778 41.9496 56.5412 42.0245 56.6212 42.0758C56.7013 42.1265 56.7924 42.1518 56.8943 42.1518C56.9957 42.1518 57.0865 42.1265 57.1666 42.0758C57.2472 42.0245 57.3106 41.9496 57.3567 41.8511C57.4034 41.752 57.4267 41.6304 57.4267 41.4864ZM59.1192 42.3713V40.6014H59.7501C59.8872 40.6014 60.001 40.6251 60.0914 40.6723C60.1825 40.7196 60.2504 40.7849 60.2954 40.8685C60.3403 40.9514 60.3628 41.0474 60.3628 41.1563C60.3628 41.2646 60.34 41.3599 60.2945 41.4423C60.2496 41.5241 60.1816 41.5878 60.0906 41.6333C60.0001 41.6788 59.8863 41.7016 59.7492 41.7016H59.2713V41.4717H59.725C59.8114 41.4717 59.8817 41.4593 59.9359 41.4345C59.9906 41.4098 60.0306 41.3738 60.056 41.3265C60.0813 41.2793 60.094 41.2225 60.094 41.1563C60.094 41.0894 60.0811 41.0315 60.0551 40.9826C60.0298 40.9336 59.9897 40.8961 59.935 40.8702C59.8808 40.8437 59.8097 40.8305 59.7215 40.8305H59.3862V42.3713H59.1192ZM59.9929 41.5728L60.4302 42.3713H60.126L59.6973 41.5728H59.9929ZM63.8599 40.0311V42.9417H63.6283V40.0311H63.8599ZM69.0792 42.3713H68.7957L69.4326 40.6014H69.7411L70.3781 42.3713H70.0946L69.5942 40.9229H69.5804L69.0792 42.3713ZM69.1267 41.6782H70.0462V41.9029H69.1267V41.6782ZM73.1573 40.6014V42.3713H72.9119L72.0122 41.0733H71.9958V42.3713H71.7288V40.6014H71.9759L72.8764 41.9012H72.8928V40.6014H73.1573ZM75.8397 41.1606C75.823 41.1082 75.8006 41.0612 75.7723 41.0197C75.7447 40.9777 75.7116 40.9419 75.673 40.9126C75.6344 40.8826 75.5903 40.8598 75.5407 40.8443C75.4918 40.8287 75.4379 40.821 75.3791 40.821C75.2795 40.821 75.1896 40.8466 75.1095 40.8979C75.0294 40.9491 74.966 41.0243 74.9194 41.1234C74.8733 41.2219 74.8502 41.3426 74.8502 41.4855C74.8502 41.629 74.8736 41.7503 74.9202 41.8494C74.9669 41.9485 75.0308 42.0236 75.1121 42.0749C75.1933 42.1262 75.2858 42.1518 75.3895 42.1518C75.4857 42.1518 75.5695 42.1322 75.641 42.0931C75.713 42.0539 75.7686 41.9986 75.8078 41.9271C75.8475 41.8551 75.8674 41.7704 75.8674 41.6731L75.9365 41.686H75.4301V41.4657H76.1258V41.667C76.1258 41.8157 76.0941 41.9447 76.0307 42.0542C75.9679 42.1631 75.8809 42.2472 75.7697 42.3065C75.6591 42.3659 75.5324 42.3955 75.3895 42.3955C75.2293 42.3955 75.0887 42.3587 74.9678 42.2849C74.8473 42.2112 74.7534 42.1066 74.686 41.9712C74.6186 41.8352 74.5849 41.6739 74.5849 41.4873C74.5849 41.3461 74.6045 41.2194 74.6437 41.107C74.6829 40.9947 74.7379 40.8993 74.8087 40.821C74.8802 40.742 74.964 40.6818 75.0602 40.6403C75.157 40.5983 75.2627 40.5772 75.3774 40.5772C75.473 40.5772 75.562 40.5914 75.6444 40.6196C75.7274 40.6478 75.8011 40.6879 75.8657 40.7397C75.9308 40.7916 75.9846 40.8532 76.0273 40.9247C76.0699 40.9955 76.0987 41.0742 76.1137 41.1606H75.8397ZM77.5599 42.3713V40.6014H78.6695V40.8313H77.8269V41.3706H78.6116V41.5996H77.8269V42.1415H78.6799V42.3713H77.5599ZM80.1214 42.3713V40.6014H80.3884V42.1415H81.1904V42.3713H80.1214ZM85.7578 40.6014V42.3713H85.5124L84.6128 41.0733H84.5963V42.3713H84.3293V40.6014H84.5765L85.477 41.9012H85.4934V40.6014H85.7578ZM87.2425 42.3713V40.6014H88.3521V40.8313H87.5095V41.3706H88.2942V41.5996H87.5095V42.1415H88.3625V42.3713H87.2425ZM89.7167 40.8313V40.6014H91.0864V40.8313H90.5342V42.3713H90.268V40.8313H89.7167ZM92.8308 42.3713L92.3399 40.6014H92.6208L92.9656 41.9721H92.982L93.3407 40.6014H93.6189L93.9776 41.9729H93.994L94.338 40.6014H94.6197L94.128 42.3713H93.8592L93.4867 41.0456H93.4729L93.1004 42.3713H92.8308ZM97.4078 41.4864C97.4078 41.6754 97.3732 41.8378 97.3041 41.9738C97.235 42.1092 97.1402 42.2135 97.0198 42.2866C96.8999 42.3592 96.7637 42.3955 96.611 42.3955C96.4578 42.3955 96.3209 42.3592 96.2005 42.2866C96.0807 42.2135 95.9862 42.1089 95.917 41.9729C95.8479 41.837 95.8133 41.6748 95.8133 41.4864C95.8133 41.2974 95.8479 41.1352 95.917 40.9998C95.9862 40.8639 96.0807 40.7596 96.2005 40.687C96.3209 40.6138 96.4578 40.5772 96.611 40.5772C96.7637 40.5772 96.8999 40.6138 97.0198 40.687C97.1402 40.7596 97.235 40.8639 97.3041 40.9998C97.3732 41.1352 97.4078 41.2974 97.4078 41.4864ZM97.1434 41.4864C97.1434 41.3424 97.12 41.2211 97.0734 41.1226C97.0273 41.0235 96.9639 40.9486 96.8832 40.8979C96.8031 40.8466 96.7124 40.821 96.611 40.821C96.509 40.821 96.418 40.8466 96.3379 40.8979C96.2578 40.9486 96.1945 41.0235 96.1478 41.1226C96.1017 41.2211 96.0787 41.3424 96.0787 41.4864C96.0787 41.6304 96.1017 41.752 96.1478 41.8511C96.1945 41.9496 96.2578 42.0245 96.3379 42.0758C96.418 42.1265 96.509 42.1518 96.611 42.1518C96.7124 42.1518 96.8031 42.1265 96.8832 42.0758C96.9639 42.0245 97.0273 41.9496 97.0734 41.8511C97.12 41.752 97.1434 41.6304 97.1434 41.4864ZM98.8358 42.3713V40.6014H99.4667C99.6038 40.6014 99.7176 40.6251 99.8081 40.6723C99.8991 40.7196 99.9671 40.7849 100.012 40.8685C100.057 40.9514 100.079 41.0474 100.079 41.1563C100.079 41.2646 100.057 41.3599 100.011 41.4423C99.9662 41.5241 99.8982 41.5878 99.8072 41.6333C99.7168 41.6788 99.603 41.7016 99.4659 41.7016H98.9879V41.4717H99.4417C99.5281 41.4717 99.5984 41.4593 99.6525 41.4345C99.7073 41.4098 99.7473 41.3738 99.7726 41.3265C99.798 41.2793 99.8107 41.2225 99.8107 41.1563C99.8107 41.0894 99.7977 41.0315 99.7718 40.9826C99.7464 40.9336 99.7064 40.8961 99.6517 40.8702C99.5975 40.8437 99.5263 40.8305 99.4382 40.8305H99.1029V42.3713H98.8358ZM99.7096 41.5728L100.147 42.3713H99.8426L99.414 41.5728H99.7096ZM101.499 42.3713V40.6014H101.767V41.4466H101.788L102.53 40.6014H102.867L102.153 41.3982L102.869 42.3713H102.548L101.976 41.5806L101.767 41.8208V42.3713H101.499Z" fill="white"/>
<g clip-path="url(#clip0_323_5517)">
<path d="M11.4533 38.0491H84.1124C84.2004 38.3668 84.1647 38.7062 84.0125 38.9986H12.0453C11.4187 39.0102 11.4168 39.0102 11.4283 38.3816C11.4302 38.2874 11.4418 38.1952 11.4533 38.0491Z" fill="white"/>
<path d="M18.2275 33.0185L18.1314 32.3035C18.0575 32.4043 17.9932 32.5118 17.9392 32.6245C17.6816 33.4068 17.4375 34.2045 17.1799 34.9734C16.9646 35.6289 16.7378 36.2805 16.5033 36.9744C16.0958 36.9744 15.6691 36.9744 15.2423 36.9744C15.2116 36.9744 15.1808 36.9283 15.1501 36.9033C15.0655 36.5861 14.9925 36.2651 14.8925 35.9518C14.6003 35.0445 14.2985 34.1411 13.9948 33.2377C13.9634 33.1799 13.9523 33.0639 13.9048 33.0185C13.6008 32.3938 14.0658 33.449 13.6008 32.3938C13.2183 33.9066 13.0972 35.454 12.7569 36.9725H11.3672C11.4229 36.64 11.4729 36.3286 11.5267 36.0114C11.6325 35.4174 11.7401 34.8235 11.8458 34.2276C11.9515 33.6317 12.0707 33.0128 12.1687 32.4034C12.3071 31.5596 12.4302 30.7119 12.5666 29.8661C12.6064 29.6876 12.6551 29.5111 12.7127 29.3375C13.1702 29.3048 13.6219 29.3202 14.1121 29.3375C14.6887 31.0867 15.2481 32.8282 15.8421 34.6293C16.0035 34.1872 16.1535 33.8086 16.2823 33.4241C16.5417 32.636 16.7897 31.8441 17.0511 31.056C17.2068 30.5735 17.376 30.0949 17.5201 29.6105C17.5326 29.524 17.5784 29.4458 17.6477 29.3927C17.717 29.3395 17.8044 29.3156 17.8911 29.326C18.2756 29.326 18.6389 29.326 19.0252 29.326C19.4596 31.8979 19.8941 34.3968 20.3342 36.9456C20.2445 36.9675 20.1533 36.9829 20.0613 36.9917C19.7499 36.9917 19.4385 36.9917 19.129 36.9917C19.0422 36.9752 18.9582 36.9467 18.8791 36.9071C18.8495 36.4296 18.7853 35.9549 18.6869 35.4866C18.5062 34.6678 18.3774 33.8412 18.2275 33.0185Z" fill="white"/>
<path d="M31.3594 31.3464H32.7568C33.1259 32.3767 33.4738 33.3801 33.8582 34.4354C34.1466 34.1163 34.1965 33.7491 34.3349 33.43C34.4733 33.111 34.5925 32.7246 34.7194 32.3748C34.8462 32.0249 34.9885 31.702 35.1307 31.3425H36.0438C36.4071 32.3478 36.7742 33.3608 37.1414 34.3738H37.2182C37.5835 33.3762 37.9468 32.3767 38.3081 31.3906C38.7707 31.2902 39.2491 31.2863 39.7133 31.3791L37.7026 36.9784H36.705C36.334 35.95 35.9592 34.9178 35.5517 33.7953C35.0961 34.8928 34.7328 35.9308 34.3196 36.9707H33.3585C32.7049 35.1293 32.0456 33.2724 31.3594 31.3464Z" fill="white"/>
<path d="M63.9159 30.6755L62.9164 31.6096C62.8068 31.5251 62.6992 31.452 62.605 31.3655C62.2586 31.0422 61.8408 30.8052 61.3855 30.6739C60.9302 30.5427 60.4504 30.5208 59.985 30.6101C59.6232 30.6691 59.28 30.8112 58.9825 31.0253C58.685 31.2395 58.4412 31.5198 58.2704 31.8442C57.9419 32.4224 57.8425 33.1029 57.9917 33.751C58.0547 34.1147 58.2017 34.4587 58.4209 34.7557C58.6401 35.0526 58.9256 35.2944 59.2546 35.4617C59.5761 35.6336 59.9286 35.74 60.2916 35.7747C60.6545 35.8093 61.0207 35.7715 61.369 35.6636C61.8346 35.5314 62.2592 35.2834 62.6031 34.9427C62.6972 34.8629 62.7967 34.7896 62.901 34.7236L63.9044 35.6847C63.5377 36.0889 63.1095 36.4327 62.6357 36.7035C62.1419 36.9704 61.5965 37.1283 61.0365 37.1667C60.6079 37.209 60.1757 37.196 59.7505 37.1283C58.9816 36.9803 58.2646 36.715 57.7014 36.1191C57.3424 35.7759 57.0509 35.3684 56.8422 34.9178C56.7039 34.5992 56.6026 34.2657 56.5404 33.924C56.4501 33.4199 56.4501 32.9038 56.5404 32.3997C56.6421 31.7751 56.8956 31.185 57.2786 30.6812C57.7192 30.1343 58.2969 29.7138 58.9528 29.4625C59.5403 29.225 60.1725 29.1181 60.8055 29.1493C61.4385 29.1805 62.0571 29.3491 62.6184 29.6432C63.1106 29.9047 63.5505 30.2546 63.9159 30.6755Z" fill="white"/>
<path d="M44.8652 36.9804L44.8018 36.4903L44.2713 36.7978C43.9306 37.0159 43.5358 37.1344 43.1314 37.14C42.6662 37.1446 42.2078 37.0286 41.8008 36.8032C41.3938 36.5778 41.0523 36.2508 40.8094 35.854C40.2923 35.0678 40.2327 34.2105 40.4384 33.309C40.5188 32.9086 40.6917 32.5324 40.9434 32.2107C41.195 31.889 41.5184 31.6305 41.8877 31.456C42.2837 31.2484 42.7287 31.1524 43.175 31.1785C43.6213 31.2046 44.0521 31.3517 44.4212 31.604C44.5327 31.6732 44.6346 31.7578 44.771 31.8578C44.796 31.7617 44.821 31.6925 44.8345 31.6194C44.8479 31.5464 44.8498 31.4618 44.8614 31.3465C45.3089 31.3092 45.7585 31.3028 46.2069 31.3272C46.2379 31.4176 46.2592 31.5111 46.2703 31.606C46.2703 33.3282 46.2703 35.0512 46.2703 36.7747C46.2649 36.8394 46.2553 36.9036 46.2415 36.967C45.7834 36.9974 45.3239 37.0019 44.8652 36.9804ZM41.7551 34.1567C41.7386 34.4047 41.7824 34.6529 41.8829 34.8802C41.9833 35.1075 42.1373 35.3071 42.3318 35.4619C42.5684 35.6383 42.847 35.7498 43.1401 35.7852C43.4331 35.8206 43.7303 35.7787 44.0021 35.6637C44.8691 35.2408 45.1189 34.1855 44.7383 33.384C44.4539 32.7843 43.7273 32.3729 43.1237 32.4902C42.7286 32.5468 42.369 32.7492 42.1157 33.0576C41.8624 33.3661 41.7338 33.7582 41.7551 34.1567Z" fill="white"/>
<path d="M70.6998 31.3466C70.7863 31.7311 70.7844 36.6192 70.6998 36.969H69.3658C69.3485 36.8864 69.3312 36.8114 69.3197 36.7345C69.3081 36.6576 69.3005 36.6057 69.2851 36.4847C69.1236 36.5827 68.991 36.6576 68.8641 36.7422C67.6108 37.5726 66.1058 37.0286 65.358 35.9541C64.9024 35.2976 64.7179 34.4906 64.8429 33.7013C64.9217 32.934 65.3011 32.229 65.8982 31.7407C66.3223 31.4031 66.8426 31.2088 67.3842 31.1857C67.9258 31.1625 68.4608 31.3118 68.9122 31.6119C69.0198 31.6849 69.1255 31.7618 69.2659 31.8618L69.3581 31.3466H70.6998ZM67.7934 35.7888C68.6796 35.8849 69.4254 35.0411 69.3966 34.1549C69.3639 33.1016 68.7353 32.5153 67.8031 32.4884C66.9919 32.4653 66.2518 33.1362 66.223 34.1242C66.198 34.9988 66.9573 35.8772 67.7934 35.7888Z" fill="white"/>
<path d="M25.6881 31.8674L25.765 31.335C26.2109 31.3023 26.6492 31.3215 27.0798 31.3234C27.1663 31.6271 27.1932 36.3461 27.1144 36.9632C26.6668 36.9995 26.2175 37.0092 25.7688 36.992L25.6862 36.4865C25.5843 36.548 25.5055 36.5883 25.4325 36.6383C24.9956 36.9681 24.4622 37.1446 23.9148 37.1404C23.3675 37.1363 22.8368 36.9517 22.405 36.6152C21.4151 35.8464 21.0979 34.818 21.2517 33.6147C21.2974 33.2202 21.4271 32.8401 21.632 32.4999C21.8369 32.1597 22.1123 31.8674 22.4396 31.6425C22.8601 31.3446 23.3617 31.1824 23.877 31.1776C24.3924 31.1728 24.8969 31.3256 25.3229 31.6156C25.4286 31.6867 25.5382 31.7655 25.6881 31.8674ZM25.7996 34.0337C25.765 33.9088 25.7131 33.6781 25.6381 33.4571C25.3037 32.4748 23.8639 32.0904 23.0355 33.0207C22.8875 33.1858 22.7751 33.3795 22.705 33.5897C22.6349 33.8 22.6087 34.0224 22.628 34.2432C22.6254 34.4685 22.6736 34.6914 22.7691 34.8954C22.8647 35.0995 23.005 35.2793 23.1796 35.4216C23.4134 35.6095 23.6933 35.7313 23.9901 35.7743C24.287 35.8172 24.5899 35.7797 24.8673 35.6657C25.5151 35.3581 25.7573 34.8237 25.7996 34.0337Z" fill="white"/>
<path d="M81.015 36.9691H79.6502C79.6272 36.8096 79.606 36.6673 79.5791 36.4905C79.4888 36.5386 79.4196 36.5674 79.358 36.6078C78.9525 36.8749 78.5353 37.1152 78.0337 37.1364C77.0264 37.1806 76.2499 36.7519 75.652 35.9619C75.4123 35.6457 75.2405 35.2835 75.1472 34.8978C75.0539 34.5121 75.0413 34.1114 75.11 33.7206C75.1538 33.2981 75.289 32.8902 75.506 32.5252C75.7231 32.1601 76.0169 31.8465 76.3671 31.6062C76.7875 31.3369 77.2758 31.1926 77.7751 31.1902C78.2744 31.1878 78.764 31.3274 79.187 31.5927L79.5849 31.8638C79.6079 31.6715 79.6272 31.5235 79.6483 31.3371C80.0846 31.2986 80.5114 31.3217 80.9842 31.3217C81.0496 32.2828 81.0035 33.2131 81.0131 34.1493C81.0227 35.0854 81.015 36.0042 81.015 36.9691ZM79.6387 34.1646C79.6387 34.1012 79.6387 34.0608 79.6387 34.0205C79.654 33.7419 79.5859 33.4651 79.4431 33.2255C79.3003 32.9858 79.0894 32.7941 78.8371 32.6749C78.5822 32.5335 78.2924 32.4675 78.0014 32.4845C77.7105 32.5015 77.4303 32.6009 77.1937 32.771C76.519 33.2112 76.3556 34.1608 76.6823 34.9028C77.1475 35.9542 78.4488 36.0311 79.1601 35.4083C79.3319 35.2531 79.4647 35.0597 79.5479 34.8436C79.6311 34.6276 79.6622 34.395 79.6387 34.1646Z" fill="white"/>
<path d="M85.4699 39.0237L86.1427 37.5628C86.2657 37.2957 86.3983 37.0342 86.506 36.7613C86.553 36.6548 86.5618 36.5353 86.531 36.423C86.3829 36.052 86.1984 35.6964 86.0408 35.3292C85.9159 35.0352 85.8197 34.7276 85.6948 34.4335C85.443 33.8434 85.17 33.2648 84.9259 32.6728C84.7548 32.2556 84.6203 31.8232 84.4492 31.3426C84.9432 31.2965 85.3949 31.3253 85.8793 31.3253L87.369 34.866C87.592 34.397 87.7765 34.0183 87.9457 33.6358C88.2225 33.0399 88.4961 32.4427 88.7665 31.8443C89.0587 31.2023 88.8991 31.3407 89.6315 31.3195C89.8698 31.3195 90.1101 31.3195 90.3561 31.3195C90.4119 31.6348 90.2293 31.8232 90.1351 32.0308C89.8583 32.6497 89.5584 33.2533 89.2874 33.8818C88.9645 34.6507 88.5954 35.4196 88.2436 36.1712C87.8419 37.0342 87.4286 37.9011 87.0423 38.7604C87.0132 38.8641 86.9481 38.9541 86.8585 39.014C86.769 39.0739 86.661 39.0998 86.554 39.0871C86.2176 39.0622 85.8659 39.1352 85.4699 39.0237Z" fill="white"/>
<path d="M91.6749 35.191C91.9171 35.3601 92.1151 35.4908 92.3054 35.6331C92.499 35.7598 92.7313 35.8136 92.9609 35.7849C93.1973 35.7734 93.4453 35.6235 93.4645 35.4543C93.4806 35.3538 93.4651 35.2507 93.4199 35.1594C93.3748 35.0681 93.3024 34.9932 93.2127 34.9449C92.909 34.7777 92.5976 34.6239 92.3016 34.4471C91.9171 34.2222 91.5423 34.0146 91.2886 33.6205C90.9195 33.0439 90.9695 32.1654 91.5173 31.6984C92.094 31.1947 92.7629 31.1082 93.4857 31.2639C94.0039 31.3962 94.4595 31.7056 94.7735 32.1385C94.6313 32.2923 94.5006 32.4422 94.3603 32.5826C94.2199 32.7229 94.07 32.8574 93.9124 33.0054C93.6567 32.8574 93.4241 32.7152 93.1839 32.5845C93.1014 32.5388 93.0117 32.5075 92.9186 32.4922C92.8173 32.4865 92.7166 32.5108 92.629 32.5621C92.5415 32.6134 92.471 32.6894 92.4265 32.7805C92.4046 32.8596 92.4131 32.944 92.4505 33.017C92.4879 33.09 92.5514 33.1462 92.6284 33.1746C92.8609 33.3072 93.1051 33.4168 93.3415 33.5437C93.7171 33.7215 94.0659 33.9512 94.3776 34.226C94.6165 34.4785 94.772 34.7984 94.8229 35.1423C94.8738 35.4862 94.8176 35.8374 94.662 36.1482C94.5493 36.3608 94.3935 36.5476 94.2045 36.6965C94.0155 36.8454 93.7975 36.9533 93.5645 37.0132C93.1255 37.1683 92.6501 37.1883 92.1996 37.0708C91.7491 36.9533 91.3441 36.7036 91.0368 36.3539C90.8446 36.1502 90.8446 36.129 91.0214 35.9214C91.2328 35.6811 91.4481 35.4447 91.6749 35.191Z" fill="white"/>
<path d="M98.8281 36.1098L99.6412 35.166C99.7835 35.2852 99.8969 35.3755 100.003 35.4735C100.131 35.5914 100.283 35.6799 100.449 35.7327C100.615 35.7855 100.791 35.8013 100.964 35.7792C101.059 35.7777 101.152 35.7473 101.23 35.6921C101.308 35.6368 101.367 35.5593 101.4 35.4697C101.467 35.2986 101.35 35.1756 101.237 35.0487C100.977 34.7527 100.602 34.6643 100.289 34.4605C100.005 34.2853 99.7323 34.0927 99.4721 33.8839C98.7608 33.2957 98.8646 32.0924 99.6335 31.5484C100.433 30.9814 101.725 31.1025 102.423 31.7964C102.525 31.8983 102.615 32.0136 102.734 32.1501L101.904 32.9766C101.571 32.8075 101.289 32.6594 101.004 32.5191C100.783 32.4076 100.61 32.5383 100.452 32.6614C100.421 32.688 100.397 32.7216 100.381 32.7593C100.366 32.797 100.359 32.8379 100.362 32.8786C100.365 32.9194 100.378 32.9589 100.399 32.9939C100.42 33.0289 100.449 33.0586 100.483 33.0804C100.71 33.2416 100.95 33.3825 101.202 33.5014C101.702 33.7397 102.19 33.9838 102.523 34.4529C102.66 34.6594 102.749 34.8936 102.785 35.1388C102.821 35.3841 102.803 35.6342 102.731 35.8714C102.659 36.1086 102.536 36.3271 102.37 36.5112C102.204 36.6953 102 36.8404 101.771 36.9363C101.387 37.1016 100.967 37.1677 100.55 37.1286C99.968 37.0747 99.1741 36.7576 98.8281 36.1098Z" fill="white"/>
<path d="M96.1974 29.2471H97.5429C97.7121 29.9045 97.5429 30.5926 97.6506 31.2923L98.4079 31.3384C98.4645 31.7088 98.471 32.0851 98.4271 32.4571C98.2349 32.4571 98.0658 32.4744 97.8947 32.4725C97.7236 32.4706 97.6179 32.5533 97.616 32.7378V33.0203C97.616 34.1737 97.616 35.3321 97.616 36.4957V36.9186C97.1416 37.0118 96.6542 37.0164 96.1782 36.932V32.511L95.4766 32.4514V31.3519L96.1513 31.2923C96.2243 30.6253 96.1263 29.9429 96.1974 29.2471Z" fill="white"/>
<path d="M62.5916 33.2222C62.5916 34.3755 61.7516 35.179 60.581 35.2193C59.297 35.2635 58.5704 34.1698 58.5473 33.2222C58.5243 32.2745 59.3892 31.2231 60.5849 31.2058C61.6459 31.1885 62.7108 32.2822 62.5916 33.2222Z" fill="white"/>
<path d="M71.6133 32.4458V31.3444L72.2918 31.2983C72.3687 30.6216 72.2822 29.9527 72.3437 29.2415C72.7961 29.2069 73.2504 29.2069 73.7027 29.2415V31.2771L74.5658 31.3444C74.6028 31.713 74.606 32.0843 74.5754 32.4535C74.4178 32.4535 74.2755 32.4689 74.1333 32.4727C73.7488 32.4862 73.7162 32.5092 73.7162 32.8918C73.7162 34.0886 73.7162 35.2868 73.7162 36.4863V36.9707C73.251 37.0091 72.8147 36.9899 72.3322 36.9841V32.5054L71.6133 32.4458Z" fill="white"/>
<path d="M83.7236 36.9729H82.3685C82.2916 36.673 82.2685 29.755 82.3396 29.2245C82.5146 29.0803 82.7241 29.1495 82.9163 29.1399C83.1085 29.1303 83.3007 29.1399 83.4834 29.1399C83.517 29.1352 83.5512 29.1381 83.5835 29.1484C83.6158 29.1587 83.6454 29.1761 83.6702 29.1993C83.6949 29.2226 83.7141 29.251 83.7263 29.2827C83.7386 29.3143 83.7436 29.3483 83.7409 29.3821C83.7409 29.4494 83.7409 29.5167 83.7409 29.584C83.7409 31.9252 83.7409 34.2658 83.7409 36.6058C83.7467 36.7038 83.7332 36.8172 83.7236 36.9729Z" fill="white"/>
<path d="M47.3867 31.3333H48.5189C48.5535 31.4928 48.5842 31.6409 48.6265 31.8427C49.1052 31.2987 49.628 31.0084 50.3565 31.3198C50.3257 31.7312 50.0816 32.0657 49.999 32.4578C49.8644 32.4578 49.7741 32.4578 49.6818 32.4424C49.2974 32.4155 49.1205 32.5155 48.961 32.8845C48.8085 33.2596 48.7346 33.6619 48.7438 34.0667V36.9846C48.2786 37.0019 47.8403 36.9961 47.4098 36.9846C47.3271 36.6713 47.3156 31.8158 47.3867 31.3333Z" fill="white"/>
<path d="M29.6539 36.9725H28.2969V31.3443H29.4348L29.5444 31.7922C30.2806 31.1425 30.6977 31.0387 31.2744 31.3597C31.1437 31.723 31.0091 32.0882 30.8745 32.4611C30.7477 32.4515 30.6535 32.4515 30.5631 32.4381C30.4296 32.4159 30.2926 32.4389 30.1735 32.5032C30.0545 32.5676 29.9603 32.6698 29.9058 32.7937C29.7533 33.0646 29.6751 33.3709 29.6789 33.6817C29.6674 34.6428 29.6693 35.5924 29.6636 36.5477C29.6674 36.69 29.6578 36.8322 29.6539 36.9725Z" fill="white"/>
<path d="M51.0078 31.3389H52.3534V36.969H51.0078V31.3389Z" fill="white"/>
<path d="M17.0216 36.4133C17.1331 36.05 17.2427 35.6848 17.3561 35.3215C17.5483 34.716 17.7405 34.1124 17.9328 33.5088L18.1404 33.3301C18.1692 33.5627 18.1903 33.7856 18.2269 34.0086C18.2519 34.1643 18.3057 34.3162 18.3287 34.4719C18.346 34.7909 18.3903 35.108 18.4614 35.4195C18.5959 35.8212 18.5921 36.2326 18.6536 36.6382C18.6554 36.7518 18.6444 36.8653 18.6209 36.9765C18.0443 36.9765 17.4868 36.9765 16.9102 36.9765L17.0216 36.4133Z" fill="white"/>
<path d="M15.0058 36.8958C14.975 36.9208 14.9443 36.965 14.9135 36.9669C14.3368 36.9669 13.7602 36.9669 13.1681 36.9669C13.1263 36.7214 13.1322 36.4702 13.1854 36.2269C13.2642 35.8424 13.3161 35.4369 13.3777 35.0428C13.4276 34.7525 13.4949 34.4661 13.541 34.1759C13.5776 33.951 13.5968 33.7261 13.6237 33.4993L13.8159 33.3936C13.9409 33.778 14.0562 34.1451 14.1773 34.5104C14.2849 34.8371 14.4253 35.1543 14.506 35.4888C14.6286 35.9722 14.7959 36.4433 15.0058 36.8958Z" fill="white"/>
<path d="M105.435 29.2649C105.804 29.2649 105.81 29.2649 105.908 29.534C106.069 29.9742 106.223 30.4182 106.384 30.8584C106.434 30.9968 106.49 31.1294 106.567 31.3216C106.759 30.7661 106.926 30.2683 107.103 29.7839C107.149 29.6317 107.218 29.4877 107.309 29.3572C107.348 29.3235 107.394 29.2986 107.443 29.2844C107.492 29.2701 107.544 29.2667 107.595 29.2745C107.635 29.2909 107.671 29.3171 107.698 29.3507C107.726 29.3842 107.745 29.4241 107.753 29.4667C107.811 30.2567 107.855 31.0487 107.899 31.8387C107.899 31.8618 107.876 31.8868 107.857 31.9252C107.827 31.9418 107.794 31.9503 107.76 31.9499C107.726 31.9494 107.693 31.9401 107.664 31.9227C107.635 31.9053 107.611 31.8806 107.594 31.851C107.578 31.8214 107.57 31.788 107.57 31.7541C107.549 31.621 107.535 31.4869 107.528 31.3524C107.488 30.9314 107.445 30.5105 107.397 30.0069C106.974 30.6412 106.905 31.3524 106.609 31.9713C106.315 31.8503 106.267 31.6215 106.2 31.4139C106.046 30.943 105.906 30.4682 105.758 29.9953C105.742 29.9473 105.715 29.9031 105.671 29.8031C105.596 30.5508 105.688 31.2544 105.467 31.931C105.275 31.931 105.229 31.8445 105.235 31.7061C105.235 31.4639 105.235 31.2217 105.26 30.9795C105.298 30.4701 105.346 29.9607 105.392 29.4533C105.402 29.3894 105.416 29.3265 105.435 29.2649Z" fill="white"/>
<path d="M52.5804 29.9373C52.5627 30.1722 52.4594 30.3924 52.29 30.5561C52.1206 30.7199 51.897 30.8157 51.6616 30.8254C51.2772 30.8254 50.7005 30.4082 50.7716 29.8796C50.8427 29.303 51.0773 29.0185 51.6674 29.0146C51.9099 29.0187 52.1413 29.1175 52.3119 29.2899C52.4826 29.4623 52.5789 29.6947 52.5804 29.9373Z" fill="white"/>
<path d="M102.938 29.3395C103.062 29.2928 103.191 29.2593 103.322 29.2395C103.781 29.2395 104.241 29.2395 104.7 29.2395C104.754 29.2316 104.809 29.2396 104.858 29.2626C104.916 29.3062 104.959 29.3676 104.979 29.4375C104.979 29.4664 104.894 29.5413 104.842 29.549C104.696 29.5682 104.546 29.5605 104.398 29.5702C104.333 29.5797 104.268 29.5958 104.206 29.6182C104.197 29.7335 104.177 29.8508 104.177 29.9661C104.177 30.4659 104.177 30.9638 104.177 31.4616C104.177 31.6346 104.254 31.8653 103.997 31.9364C103.866 31.971 103.804 31.8172 103.804 31.4789C103.804 30.9522 103.804 30.4275 103.804 29.9008C103.8 29.8162 103.79 29.7321 103.774 29.649C103.522 29.4529 103.187 29.6951 102.938 29.3395Z" fill="white"/>
</g>
<defs>
<clipPath id="clip0_323_5517">
<rect width="96.5329" height="13.6784" fill="white" transform="translate(11.3672 29.0146)"/>
</clipPath>
</defs>
</svg>
