<svg width="116" height="72" viewBox="0 0 116 72" fill="none" xmlns="http://www.w3.org/2000/svg">
<path d="M30.9748 43.8208C30.7932 43.875 30.6075 43.9153 30.4196 43.9415C28.2978 44.0623 25.4688 43.9743 24.9595 43.769C25.3768 43.0788 26.374 43.4101 26.8461 42.6733V30.8137C25.688 30.655 24.5476 30.7585 23.4212 30.7482C22.6928 31.397 22.7299 32.4737 21.9519 33.0949C21.7167 32.0147 21.791 30.9569 21.8352 29.8164C22.226 29.7836 22.5301 29.7353 22.836 29.7353C25.6579 29.7353 28.4811 29.7353 31.3054 29.7353H32.2337C32.2337 29.347 32.2832 29.0451 32.2248 28.7638C32.0215 27.7906 31.7793 26.826 31.5547 25.858C31.4575 25.4353 31.2559 25.1212 30.7714 25.0349C27.9424 24.5173 25.1965 24.5328 22.7476 26.2808C21.3133 27.3195 20.2212 28.7445 19.6056 30.3806C18.9998 31.9287 18.6905 33.5722 18.6932 35.2294C18.6773 37.1447 18.87 39.0065 19.5985 40.7873C20.5957 43.2392 22.2507 45.1011 24.8287 46.0984C26.2777 46.6458 27.819 46.9232 29.3728 46.9163H30.7873C31.0543 47.5669 31.0243 47.7929 30.5327 48.918C30.2923 48.9749 30.0164 49.056 29.7335 49.1026C27.183 49.5246 24.563 49.2621 22.1535 48.3434C19.747 47.4478 17.9188 45.8482 16.5414 43.7828C15.304 41.9275 14.6398 39.7638 14.6283 37.5502C14.6141 36.7685 14.6017 35.9869 14.6318 35.2069C14.6928 32.9929 15.3754 30.8376 16.605 28.976C18.0088 26.8739 20.0626 25.2631 22.4682 24.3775C24.2608 23.7048 26.1633 23.3541 28.0838 23.3422C30.198 23.2988 32.3104 23.4904 34.3802 23.9133C34.5226 23.9414 34.6631 23.9777 34.801 24.0221C34.8929 24.0731 34.9784 24.1345 35.0556 24.205C34.6012 27.0935 34.1397 30.0234 33.673 32.9517C33.6395 33.0672 33.5908 33.178 33.528 33.2812L33.3123 33.1846C33.1726 32.6273 33.0134 32.0734 32.8985 31.5126C32.7641 30.8534 32.6704 30.7413 32.0144 30.7292C31.2364 30.7171 30.4567 30.7292 29.6787 30.7292C29.4663 30.7436 29.2549 30.7701 29.0457 30.8086C28.9986 31.0636 28.9673 31.3212 28.952 31.5799C28.952 34.94 28.952 38.2996 28.952 41.6587C28.952 42.7527 29.1288 42.9683 30.2145 43.2237C30.5363 43.3083 30.8139 43.4135 30.9748 43.8208Z" fill="white"/>
<path d="M72.809 36.5676C72.9098 35.503 72.0646 34.7955 71.1629 35.0802C70.59 35.2528 70.0366 35.5047 69.4425 35.7342C69.0199 35.5616 68.912 35.201 68.912 34.7368C70.1038 33.9672 71.3874 33.6031 72.8143 34.0035C73.1573 34.1098 73.4634 34.3069 73.6984 34.5729C74.2229 35.1713 74.5064 35.9355 74.4958 36.7229C74.5047 38.0205 74.4958 39.3112 74.4958 40.6191C74.4958 40.8279 74.4658 41.035 74.4445 41.3094L73.4526 41.3818L72.9876 40.8089C72.7825 40.9159 72.5915 41.0057 72.4094 41.1092C71.7747 41.4681 71.0359 41.6113 70.3089 41.5164C69.3629 41.4163 68.645 40.8055 68.4258 39.7909C68.2596 39.0196 68.5885 38.3414 69.1879 37.8393C69.8962 37.2608 70.7682 36.9063 71.688 36.823C72.0667 36.7603 72.441 36.675 72.809 36.5676ZM72.8426 37.8997C71.9878 37.7858 71.1212 38.0005 70.4256 38.4985C70.2205 38.6271 70.0691 38.8227 69.9984 39.0504C69.9278 39.2781 69.9426 39.5228 70.0401 39.7408C70.1564 39.9482 70.3355 40.1154 70.553 40.2195C70.7705 40.3236 71.0156 40.3596 71.2548 40.3223C71.8625 40.25 72.4253 39.9729 72.8461 39.539L72.8426 37.8997Z" fill="white"/>
<path d="M86.8923 35.6584C86.5386 35.4617 86.2805 35.2391 86.4131 34.7215C86.9569 34.3194 87.5882 34.045 88.2582 33.9193C88.9281 33.7936 89.6187 33.8201 90.2765 33.9967C90.6241 34.0777 90.9413 34.2528 91.1915 34.5019C91.4418 34.751 91.6149 35.064 91.691 35.4048C91.8599 36.0903 91.967 36.7889 92.011 37.4927C92.0641 38.4814 92.0287 39.477 92.0216 40.4692C92.0216 40.7211 91.981 40.9731 91.9527 41.2957L90.9378 41.4027L90.4674 40.8333C90.2411 40.9316 90.0166 41.0058 89.8097 41.1214C89.099 41.494 88.2784 41.6159 87.4864 41.4666C86.4131 41.294 85.628 39.936 85.9728 38.8783C86.1832 38.226 86.5669 37.6963 87.2547 37.4219C87.9425 37.1476 88.5791 36.8628 89.3234 36.8283C89.6687 36.783 90.0098 36.7115 90.3437 36.6144C90.3278 36.3866 90.372 36.1519 90.2906 35.969C89.937 35.1977 89.2403 34.9337 88.4005 35.1925C87.8948 35.3478 87.3909 35.5031 86.8923 35.6584ZM90.4055 37.9793C89.4561 37.7204 88.0698 38.1639 87.5765 38.8248C87.1805 39.358 87.3414 39.9464 87.9584 40.2242C88.6197 40.5192 89.9264 40.1379 90.3065 39.534C90.3604 39.4559 90.3927 39.3655 90.4002 39.2717C90.4109 38.8299 90.4055 38.3899 90.4055 37.9793Z" fill="white"/>
<path d="M49.7639 36.5002C49.5482 35.3027 48.8339 34.8403 47.7924 35.1612C47.262 35.3234 46.751 35.5305 46.141 35.7513L45.6759 34.8886C46.415 34.1984 47.2355 33.9482 48.1178 33.8653C48.4331 33.8395 48.7501 33.8395 49.0655 33.8653C49.969 33.9361 50.6356 34.3727 50.968 35.1923C51.1443 35.6071 51.2465 36.0483 51.2704 36.4968C51.3075 37.9617 51.2863 39.4302 51.2827 40.8951C51.2668 41.0375 51.2415 41.1787 51.2067 41.3179L50.2519 41.399L49.7763 40.8244C49.557 40.9366 49.3466 41.0384 49.1415 41.1505C48.5439 41.4819 47.8506 41.6106 47.17 41.5163C46.1091 41.3852 45.5946 40.9314 45.363 39.953C45.1314 38.9746 45.4815 38.1119 46.3089 37.6166C46.9883 37.2023 47.7501 36.9336 48.5439 36.8281C48.9582 36.7481 49.366 36.6385 49.7639 36.5002ZM49.7745 37.9514C48.9293 37.7633 47.7659 38.0187 47.1806 38.5277C46.9844 38.6934 46.845 38.9138 46.781 39.1593C46.6414 39.8823 47.2814 40.4551 48.0824 40.3447C48.7543 40.2532 49.29 39.9081 49.7745 39.4474V37.9514Z" fill="white"/>
<path d="M66.7235 39.2886C66.9799 39.6199 67.1478 39.8408 67.3247 40.072C67.0112 40.6249 66.4972 41.0435 65.8836 41.2453C64.2163 41.7941 62.6762 41.6422 61.313 40.4809C60.6658 39.9305 60.3688 39.173 60.0753 38.4293C59.8057 37.719 59.6977 36.9601 59.7588 36.2051C59.8295 34.8971 60.2079 33.6772 61.0813 32.6884C62.464 31.1199 65.3054 30.6178 67.0365 32.5055C67.0361 32.6955 66.9751 32.8807 66.862 33.0353C66.7489 33.1899 66.5892 33.3063 66.4052 33.3683C65.9119 33.1405 65.4787 32.8731 65.0066 32.7316C63.5921 32.3037 62.2006 33.1785 61.7232 34.4157C61.1503 35.9048 61.1521 37.4147 61.9318 38.8727C62.7116 40.3308 64.4585 40.5983 65.675 39.9184C65.9968 39.7355 66.3168 39.5302 66.7235 39.2886Z" fill="white"/>
<path d="M93.9348 34.062H95.0523L95.4642 34.766C95.6517 34.6262 95.8179 34.4985 95.9823 34.3778C96.3266 34.1308 96.7232 33.9621 97.1429 33.8842C97.5627 33.8062 97.995 33.821 98.4082 33.9274C99.3612 34.1345 99.9712 34.8247 100.021 35.9532C100.093 37.6269 100.038 39.3059 100.031 40.9831C100.008 41.098 99.9674 41.2091 99.9111 41.3127H98.6876C98.6557 40.9814 98.6062 40.7087 98.6027 40.4344C98.5939 39.3248 98.6027 38.2136 98.5939 37.1024C98.5871 36.7732 98.551 36.4453 98.486 36.1223C98.3428 35.3906 97.9167 35.087 97.1634 35.1508C96.6793 35.1762 96.2242 35.3843 95.8942 35.731C95.5643 36.0778 95.3854 36.5361 95.3953 37.0092C95.3953 38.167 95.3953 39.3248 95.3953 40.4827C95.3953 40.7381 95.3705 41.0003 95.3546 41.3178H93.9401C93.9083 38.9021 93.926 36.5347 93.9348 34.062Z" fill="white"/>
<path d="M42.363 41.3488H41.0068C40.9768 41.0485 40.9237 40.7793 40.9237 40.5084C40.9237 38.2411 40.9237 35.9737 40.9237 33.7064V32.7746H38.3122C37.8613 32.4468 37.8065 32.1362 37.9479 31.7997C38.0788 31.4891 38.3794 31.4546 38.6835 31.4546C40.6744 31.4546 42.6671 31.4546 44.6598 31.4546C44.9038 31.4781 45.1448 31.5249 45.3794 31.5944V32.678L42.5982 32.7643C42.5734 33.0973 42.5345 33.3717 42.5345 33.6443C42.5345 35.7701 42.5345 37.896 42.5239 40.0287C42.4939 40.4712 42.4402 40.9118 42.363 41.3488Z" fill="white"/>
<path d="M77.9642 31.9585C77.996 32.6487 78.0261 33.2475 78.0596 33.9411L79.9763 34.0602C79.9993 34.4277 80.0187 34.7504 80.047 35.2008L78.2435 35.325C78.1693 35.5804 78.0278 35.8427 78.0314 36.1067C78.0437 37.1679 78.0596 38.2325 78.1534 39.2885C78.24 40.2566 78.5653 40.4533 79.5502 40.2997C79.6291 40.2945 79.7082 40.2945 79.7871 40.2997C80.2115 40.4964 80.2557 40.8363 80.1125 41.3126C79.2478 41.599 78.3655 41.725 77.4938 41.2367C77.2516 41.0993 77.0503 40.9026 76.9101 40.6658C76.7699 40.4291 76.6956 40.1607 76.6946 39.8873C76.631 38.8037 76.5903 37.7183 76.5497 36.6347C76.5355 36.2361 76.5497 35.8375 76.5497 35.4268C76.3516 35.363 76.2208 35.3164 76.0864 35.2767C75.952 35.237 75.8123 35.2042 75.6055 35.1524V34.1171L76.6345 33.9204C76.6752 33.2906 76.7159 32.6677 76.7618 31.9637L77.9642 31.9585Z" fill="white"/>
<path d="M53.401 30.7881H54.8438C54.8774 31.1332 54.9322 31.43 54.9322 31.725C54.9322 34.2547 54.9322 36.7826 54.9322 39.3174V40.1094C55.3142 40.4959 55.7986 40.7547 55.5865 41.3259C54.4849 41.9229 53.5973 41.4984 53.4647 40.2906C53.3904 39.59 53.3374 38.8825 53.3321 38.1768C53.3144 36.0285 53.3321 33.8785 53.3321 31.7285C53.3391 31.4524 53.3727 31.1763 53.401 30.7881Z" fill="white"/>
<path d="M82.8855 41.3383H81.4958C81.4369 41.1077 81.3973 40.8728 81.3773 40.636C81.369 38.6804 81.369 36.7196 81.3773 34.7537C81.3926 34.5267 81.4221 34.3008 81.4657 34.0773H82.7034C82.7759 34.3637 82.8307 34.5863 82.8979 34.852C83.6051 34.1618 84.3566 33.6442 85.4193 33.941C85.7499 34.3896 85.6138 34.7813 85.3096 35.1695C85.0212 35.1612 84.7325 35.1768 84.4468 35.2161C83.5627 35.4077 82.9969 36.1307 82.981 37.0918C82.9598 38.2013 82.981 39.3125 82.9704 40.422C82.9668 40.6964 82.9209 40.9708 82.8855 41.3383Z" fill="white"/>
</svg>
