<svg width="116" height="72" viewBox="0 0 116 72" fill="none" xmlns="http://www.w3.org/2000/svg">
<g clip-path="url(#clip0_323_5437)">
<path d="M40.0669 40.8955V45.9991H43.4066V47.1515H38.7969V40.8955H40.0669Z" fill="white"/>
<path d="M45.6918 40.8721H44.4453V47.1516H45.6918V40.8721Z" fill="white"/>
<path d="M47.5226 46.2579C46.9111 45.6699 46.6289 44.9173 46.6289 44.0001C46.6289 43.1299 46.9347 42.3773 47.5226 41.7658C48.1341 41.1543 48.8632 40.8721 49.7569 40.8721C50.6506 40.8721 51.4267 41.1543 52.0618 41.7187L51.2151 42.636C50.7917 42.3067 50.2978 42.1421 49.7569 42.1421C49.1925 42.1421 48.7456 42.3302 48.3928 42.6595C48.04 43.0123 47.8754 43.4591 47.8754 44.0001C47.8754 44.588 48.0636 45.0349 48.3928 45.3877C48.7456 45.7405 49.1925 45.9051 49.7569 45.9051C50.2038 45.9051 50.5566 45.811 50.7917 45.6464V44.5645H49.9451V43.3886H52.0382V46.3284C51.4032 46.8929 50.6271 47.1751 49.7334 47.1751C48.8632 47.1516 48.1106 46.8694 47.5226 46.2579Z" fill="white"/>
<path d="M53.3359 47.1516V40.8721H54.5824V43.3886H57.4988V40.8721H58.7688V47.1516H57.4988V44.5645H54.5824V47.1516H53.3359Z" fill="white"/>
<path d="M65.2336 40.8955V42.0479H63.1405V47.1515H61.894V42.0479H59.8008V40.8955H65.2336Z" fill="white"/>
<path d="M66.1758 47.1516V40.8721H67.4223V43.3886H70.3621V40.8721H71.6086V47.1516H70.3621V44.5645H67.4223V47.1516H66.1758Z" fill="white"/>
<path d="M73.5343 46.2578C72.9229 45.6463 72.6406 44.9172 72.6406 44.0235C72.6406 43.1298 72.9464 42.3772 73.5343 41.7892C74.1458 41.1777 74.8749 40.8955 75.7686 40.8955C76.6623 40.8955 77.4149 41.2013 78.0029 41.7892C78.6144 42.3772 78.8966 43.1298 78.8966 44.0235C78.8966 44.9172 78.5909 45.6698 78.0029 46.2578C77.3914 46.8693 76.6623 47.1515 75.7686 47.1515C74.8984 47.1515 74.1458 46.8693 73.5343 46.2578ZM75.7921 45.9991C76.3566 45.9991 76.8035 45.8109 77.1562 45.4346C77.509 45.0583 77.6737 44.588 77.6737 44.0235C77.6737 43.4591 77.509 42.9887 77.1562 42.6124C76.8035 42.2361 76.3566 42.0479 75.7921 42.0479C75.2277 42.0479 74.7808 42.2361 74.4281 42.6124C74.0753 42.9887 73.9106 43.4591 73.9106 44.0235C73.9106 44.588 74.0753 45.0583 74.4281 45.4346C74.7808 45.8109 75.2277 45.9991 75.7921 45.9991Z" fill="white"/>
<path d="M81.0162 40.8955V44.5409C81.0162 45.0113 81.1573 45.3641 81.4395 45.5758C81.7218 45.8109 82.0745 45.905 82.4744 45.905C82.8977 45.905 83.2505 45.7874 83.5092 45.5758C83.7914 45.3641 83.9325 45.0113 83.9325 44.5409V40.8955H85.179V44.8702C85.179 45.5052 84.9203 46.0461 84.4029 46.493C83.8855 46.9398 83.227 47.1515 82.4508 47.1515C81.6747 47.1515 81.0162 46.9398 80.4988 46.493C79.9814 46.0461 79.7227 45.5052 79.7227 44.8702V40.8955H81.0162Z" fill="white"/>
<path d="M89.9546 41.0837C90.2838 41.2248 90.5661 41.4364 90.8483 41.7187L90.0016 42.5653C89.7194 42.2361 89.3431 42.0714 88.8257 42.0714C88.3318 42.0714 88.0025 42.189 87.8614 42.4242C87.7203 42.6594 87.7203 42.8711 87.8614 43.0357C88.0025 43.2004 88.3318 43.3179 88.8257 43.412C89.3666 43.4591 89.837 43.6472 90.2603 43.9294C90.6837 44.2117 90.9189 44.682 90.9189 45.3406C90.9189 45.8345 90.6837 46.2813 90.2368 46.6341C89.7664 46.9869 89.2255 47.175 88.614 47.175C88.026 47.175 87.5321 47.081 87.1558 46.9163C86.756 46.7517 86.4268 46.5165 86.1445 46.2578L86.9912 45.4111C87.2734 45.7404 87.7438 45.9521 88.4259 45.9991C88.9903 45.9991 89.3431 45.8815 89.4607 45.6463C89.6018 45.4111 89.6018 45.1759 89.4607 44.9407C89.3196 44.7056 88.9668 44.5644 88.4259 44.4939C87.932 44.4469 87.4616 44.2822 87.0383 44.0235C86.6149 43.7648 86.4032 43.3415 86.4032 42.73C86.4032 42.1655 86.6384 41.7187 87.1088 41.3894C87.5792 41.0601 88.0731 40.8955 88.567 40.8955C89.1785 40.8955 89.6488 40.9425 89.9546 41.0837Z" fill="white"/>
<path d="M92.0469 47.1516V40.8956L96.6566 40.8721V42.048H93.2934V43.3886H95.8099V44.5645H93.2934V45.9992H96.6566V47.1516H92.0469Z" fill="white"/>
<path d="M39.4569 50.6326L40.868 54.3015L42.3262 50.6326H43.3845L41.3854 55.6421H40.3976L38.375 50.6326H39.4569Z" fill="white"/>
<path d="M44.2109 55.6421V50.6561L47.8799 50.6326V51.5733H45.1987V52.6552H47.2213V53.5724H45.1987V54.7013H47.8799V55.6421H44.2109Z" fill="white"/>
<path d="M48.8906 55.6421V50.6326H49.2199L52.3479 53.7841V50.6326H53.3592V55.6421H52.9829L49.8784 52.5376V55.6421H48.8906Z" fill="white"/>
<path d="M58.4603 50.6326V51.5733H56.814V55.6421H55.8026V51.5733H54.1328V50.6326H58.4603Z" fill="white"/>
<path d="M60.1324 50.6326V53.5254C60.1324 53.9017 60.25 54.1839 60.4617 54.3485C60.6733 54.5367 60.9556 54.6073 61.2848 54.6073C61.6141 54.6073 61.8963 54.5132 62.108 54.3485C62.3197 54.1604 62.4373 53.9017 62.4373 53.5254V50.6326H63.4486V53.8076C63.4486 54.325 63.2369 54.7484 62.8371 55.1011C62.4373 55.4539 61.9198 55.6421 61.2848 55.6421C60.6733 55.6421 60.1559 55.4539 59.7326 55.1011C59.3328 54.7484 59.1211 54.3015 59.1211 53.8076V50.6326H60.1324Z" fill="white"/>
<path d="M67.5613 53.4548L68.8078 55.6421H67.6553L66.4559 53.5724H65.5387V55.6421H64.5273V50.6326H66.7146C67.8905 50.6326 68.455 51.1029 68.455 52.0672C68.4785 52.7963 68.1728 53.2667 67.5613 53.4548ZM65.5622 52.6552H66.9733C67.3731 52.6552 67.5848 52.467 67.5848 52.1143C67.5848 51.785 67.3731 51.6204 66.9733 51.5968H65.5622V52.6552Z" fill="white"/>
<path d="M69.3281 55.6421V50.6561L72.9971 50.6326V51.5733H70.3159V52.6552H72.315V53.5724H70.3159V54.7013H72.9971V55.6421H69.3281Z" fill="white"/>
<path d="M76.7135 50.821C76.9722 50.9386 77.2074 51.1032 77.4191 51.3149L76.7606 51.9734C76.5489 51.7147 76.2196 51.5736 75.8198 51.5736C75.42 51.5736 75.1613 51.6677 75.0437 51.8558C74.9261 52.044 74.9261 52.2086 75.0437 52.3497C75.1613 52.4908 75.42 52.5849 75.8198 52.6555C76.2432 52.7025 76.6195 52.8436 76.9722 53.0788C77.325 53.314 77.4897 53.6903 77.4897 54.2077C77.4897 54.6075 77.3015 54.9603 76.9487 55.2425C76.5724 55.5248 76.1491 55.6659 75.6552 55.6659C75.1848 55.6659 74.8085 55.5953 74.5028 55.4542C74.197 55.3131 73.9148 55.1485 73.7031 54.9133L74.3617 54.2547C74.5733 54.5135 74.9731 54.6781 75.4906 54.7251C75.9374 54.7251 76.2196 54.631 76.3137 54.4429C76.4313 54.2547 76.4313 54.0666 76.3137 53.8784C76.1961 53.6903 75.9374 53.5727 75.4906 53.5257C75.0907 53.4786 74.7144 53.361 74.3852 53.1494C74.0559 52.9377 73.8913 52.6084 73.8913 52.1145C73.8913 51.6677 74.0794 51.3149 74.4557 51.0562C74.832 50.7975 75.2318 50.6564 75.6317 50.6564C76.102 50.6328 76.4548 50.7034 76.7135 50.821Z" fill="white"/>
<path d="M33.1544 60.6514C32.7076 57.9702 32.2842 55.2891 31.9079 52.5844C31.5316 49.8797 31.1788 47.1986 30.8966 44.4939C30.6144 41.7893 30.3792 39.0846 30.2616 36.3564L30.0264 28.1954V28.1248L30.0499 28.0778C30.2851 27.7485 30.5203 27.4428 30.779 27.137C30.9201 26.9959 31.0377 26.8313 31.2024 26.6902C31.2494 26.6431 31.2729 26.6196 31.32 26.5961C31.367 26.5726 31.32 26.5961 31.32 26.5961C31.32 26.5961 31.32 26.5961 31.3435 26.5726C31.367 26.5255 31.3905 26.4315 31.3905 26.3374C31.4376 25.9846 31.4376 25.5848 31.414 25.2085C31.414 24.8322 31.3905 24.4324 31.367 24.0561L31.2494 21.7277C31.2259 21.3279 31.2024 20.9516 31.2259 20.5517C31.2259 20.4577 31.2259 20.3636 31.2259 20.246V20.1754C31.2259 20.1519 31.2259 20.1519 31.2259 20.1284C31.2259 20.1049 31.2259 20.0814 31.2024 20.0343C31.1553 19.8932 31.0613 19.7286 30.9437 19.5875C30.5203 18.976 29.9559 18.435 29.4149 17.8941C28.874 17.3532 28.3096 16.8358 27.7216 16.2948C26.6162 15.26 25.4403 14.2487 24.2408 13.2609L24.5465 13.2374C23.6293 14.1781 22.6885 15.1189 21.7243 16.0361C21.2539 16.483 20.76 16.9534 20.2661 17.3767C19.7722 17.8236 19.2783 18.2469 18.6903 18.6232C18.6198 18.6702 18.5492 18.7173 18.4552 18.7643C18.4316 18.7643 18.4081 18.7878 18.4081 18.7878C18.4316 18.7878 18.4316 18.7878 18.4316 18.7878C18.4316 18.7878 18.4081 18.8113 18.4081 18.8349C18.3611 18.9289 18.3376 19.0936 18.3376 19.2582C18.314 19.564 18.314 19.8932 18.314 20.2225C18.314 20.881 18.3611 21.5395 18.4081 22.1981L18.5492 24.1736C18.5728 24.5029 18.5963 24.8322 18.5963 25.1614C18.5963 25.3261 18.5963 25.4907 18.5963 25.6788C18.5963 25.8435 18.5963 26.0081 18.5492 26.2198L18.5022 26.0316L20.0074 28.0778L19.7487 28.0072L20.1015 27.9131L20.4543 27.8426C20.6894 27.7955 20.9011 27.7485 21.1363 27.7015C21.5832 27.6074 22.0535 27.5133 22.5004 27.4428C23.4176 27.2781 24.3113 27.1135 25.2286 26.9724C27.0395 26.6666 28.874 26.3844 30.685 26.0787C34.3304 25.5142 37.9758 24.9733 41.6212 24.4559C45.2666 23.9385 48.9356 23.421 52.581 22.9507L58.0609 22.2451C59.8953 22.0334 61.7298 21.7982 63.5643 21.6571C61.7298 21.8218 59.8953 22.104 58.0844 22.3392L52.6045 23.1388L41.6682 24.7851C38.0228 25.3496 34.3774 25.914 30.732 26.502C28.921 26.7842 27.0866 27.09 25.2756 27.3957C24.3584 27.5604 23.4647 27.7015 22.5474 27.8896C22.1006 27.9837 21.6537 28.0543 21.1833 28.1483C20.9482 28.1954 20.7365 28.2424 20.5013 28.2894L20.2191 28.313L19.9133 28.407L19.7487 28.4541L19.6546 28.3365L18.1494 26.2903L18.0789 26.1963L18.1024 26.1022C18.1494 25.8435 18.1494 25.4907 18.1494 25.1614C18.1494 24.8322 18.1259 24.5029 18.1024 24.1736L17.9613 22.1981C17.9142 21.5395 17.8672 20.881 17.8672 20.199C17.8672 19.8697 17.8672 19.5404 17.8907 19.1877C17.9142 19.023 17.9377 18.8349 18.0083 18.6467C18.0318 18.5997 18.0553 18.5291 18.1024 18.4821C18.1259 18.4586 18.1729 18.4115 18.22 18.388L18.267 18.3645C18.3376 18.341 18.4081 18.2939 18.4552 18.2469C18.9726 17.8941 19.49 17.4708 19.9839 17.0474C20.4778 16.6241 20.9482 16.1772 21.4421 15.7069C22.4063 14.7896 23.3236 13.8724 24.2643 12.9316L24.3819 12.7905L24.5465 12.9316C25.746 13.9194 26.9219 14.9307 28.0508 15.9891C28.6153 16.5065 29.1797 17.0474 29.7442 17.5884C30.2851 18.1528 30.8261 18.6938 31.2964 19.3523C31.414 19.5169 31.5316 19.6815 31.6022 19.9167C31.6257 19.9638 31.6257 20.0343 31.6492 20.1049C31.6492 20.1284 31.6492 20.199 31.6492 20.2225V20.293C31.6492 20.3871 31.6492 20.4812 31.6492 20.5753C31.6492 20.9516 31.6727 21.3279 31.6727 21.7277L31.7903 24.0561C31.8139 24.4324 31.8139 24.8322 31.8374 25.232C31.8374 25.6318 31.8374 26.0081 31.7903 26.4315C31.7668 26.5255 31.7668 26.6431 31.7198 26.7607C31.6963 26.7842 31.6963 26.8313 31.6727 26.8548C31.6492 26.8783 31.5787 26.9489 31.5787 26.9489C31.5552 26.9724 31.5081 26.9959 31.4846 27.0194C31.3435 27.137 31.2259 27.2781 31.1083 27.4192C30.8496 27.7015 30.6144 28.0072 30.4027 28.313L30.4262 28.1954L30.4968 32.2876L30.5438 34.3338C30.5438 35.0158 30.5438 35.6979 30.5909 36.3799C30.685 39.0846 30.8966 41.8128 31.1553 44.5174C31.414 47.2221 31.7198 49.9268 32.049 52.6314C32.3548 55.2655 32.7311 57.9702 33.1544 60.6514Z" fill="white"/>
<path d="M63.7993 33.4633C60.1539 33.2282 56.5085 33.0635 52.863 32.8754C49.2176 32.6872 45.5722 32.5226 41.9268 32.3815C38.2814 32.2404 34.636 32.0992 30.9905 31.9817C27.3451 31.8876 23.6997 31.817 20.0543 31.8405L20.2895 31.5818C20.5011 33.8867 20.6187 36.168 20.6658 38.4729C20.7128 40.7777 20.6893 43.0825 20.5717 45.3874C20.4541 47.6922 20.2659 49.9971 19.9367 52.2784C19.7721 53.4308 19.5604 54.5597 19.3487 55.6886C19.1135 56.8175 18.8313 57.9464 18.502 59.0518L18.2433 58.9342C18.455 58.605 18.6902 58.3463 18.9254 58.064L19.3017 57.6642L19.7015 57.2879C19.9602 57.0292 20.2424 56.794 20.5247 56.5588C20.8069 56.3237 21.0891 56.0885 21.3713 55.8768C21.6536 55.6651 21.9593 55.4299 22.2415 55.2418L23.1352 54.6303C23.7467 54.254 24.3582 53.8542 24.9932 53.5014C25.6282 53.1251 26.2632 52.8193 26.9218 52.4901C27.5568 52.1608 28.2388 51.8786 28.8974 51.5493C29.5559 51.2671 30.2379 50.9849 30.8965 50.7026L32.9191 49.9265L30.8965 50.7497L28.9209 51.6434C28.2624 51.9727 27.6038 52.2784 26.9688 52.6077C26.3338 52.9605 25.6988 53.2897 25.0638 53.666C24.4288 54.0188 23.8408 54.4186 23.2293 54.8184L22.3356 55.4299C22.0299 55.6416 21.7712 55.8768 21.4654 56.0885C21.1832 56.3001 20.901 56.5353 20.6187 56.7705C20.36 57.0057 20.0778 57.2409 19.8191 57.4996L19.4428 57.8759L19.09 58.2757C18.8548 58.5344 18.6196 58.8166 18.4315 59.0989L17.9141 59.8985L18.1728 58.9813C18.4785 57.8759 18.7372 56.7705 18.9724 55.6416C19.1841 54.5127 19.3722 53.3838 19.5369 52.2549C19.8426 49.9736 20.0308 47.6922 20.1248 45.4109C20.2189 43.1296 20.2424 40.8247 20.1954 38.5434C20.1248 36.2621 20.0072 33.9572 19.7956 31.6759L19.7721 31.4172H20.0308C23.6997 31.3702 27.3451 31.4878 30.9905 31.5818C34.636 31.6994 38.2814 31.8405 41.9503 32.0287C45.5957 32.2168 49.2411 32.4285 52.8866 32.6637L58.3429 33.04C60.1539 33.1576 61.9884 33.2752 63.7993 33.4633Z" fill="white"/>
<path d="M19.8906 45.6462C20.6432 44.8231 21.4664 44.0705 22.3131 43.3649C23.1597 42.6593 24.0535 42.0008 24.9942 41.3893C25.935 40.8013 26.8992 40.2369 27.9105 39.7665C28.9219 39.3197 29.9802 38.9434 31.0856 38.7317C30.0508 39.108 29.063 39.5784 28.0752 40.0958C27.84 40.2369 27.6048 40.3545 27.3461 40.4956C27.1109 40.6132 26.8757 40.7778 26.6405 40.9189C26.1702 41.2012 25.6998 41.4834 25.2529 41.7891C24.3357 42.3771 23.442 43.0121 22.5483 43.6706C21.6545 44.3057 20.7608 44.9642 19.8906 45.6462Z" fill="white"/>
</g>
<defs>
<clipPath id="clip0_323_5437">
<rect width="78.8116" height="47.8608" fill="white" transform="translate(17.8438 12.7905)"/>
</clipPath>
</defs>
</svg>
