<svg width="116" height="72" viewBox="0 0 116 72" fill="none" xmlns="http://www.w3.org/2000/svg">
<path d="M12.1836 38.3226C12.4234 37.8687 12.8066 37.5065 13.2736 37.2921C13.8965 37.0076 14.5194 36.7247 15.1563 36.4636C16.8772 35.7529 18.6634 35.2115 20.4896 34.8471C21.5921 34.6264 22.7071 34.4741 23.8174 34.2891C24.9818 34.1155 26.1613 34.0634 27.3366 34.1337C27.8442 34.1555 28.3488 34.2378 28.8549 34.2891C29.0207 34.3082 29.188 34.3134 29.3547 34.3047C29.4582 34.3017 29.5597 34.2756 29.6517 34.2283C29.7437 34.181 29.824 34.1138 29.8866 34.0315C29.9492 33.9492 29.9925 33.8539 30.0134 33.7527C30.0342 33.6515 30.0321 33.547 30.0072 33.4467C29.9797 33.3034 29.932 33.1647 29.8655 33.0348C28.8273 31.0857 27.2183 29.9132 25.0382 29.5174C24.3957 29.4037 23.7339 29.5394 23.1882 29.8966C21.6676 30.8324 20.0069 31.5198 18.2691 31.9328C17.8782 32.0214 17.4812 32.0882 17.0841 32.1364C16.7617 32.1799 16.4768 32.1146 16.3242 31.7727C16.405 31.4839 16.5432 31.2144 16.7304 30.9799C16.9177 30.7455 17.1502 30.551 17.4142 30.408C18.3654 29.8772 19.3887 29.4871 20.4523 29.25C21.2345 29.0699 22.0295 28.9499 22.8301 28.891C22.9765 28.8807 23.1206 28.8498 23.2583 28.7993C23.8812 28.5615 23.931 28.1915 23.8516 27.6522C23.8303 27.5568 23.7984 27.464 23.7566 27.3755C23.7379 27.3336 23.7068 27.2963 23.6663 27.2294L23.386 27.4113C22.3934 28.0798 21.3079 28.5993 20.1642 28.9532C19.3044 29.1969 18.4076 29.2837 17.517 29.2096C17.2344 29.1876 16.9532 29.1507 16.6745 29.0993C16.391 29.0475 16.135 28.8972 15.952 28.6749C15.6686 28.3392 15.5814 27.9646 15.7963 27.5636C16.0416 27.0658 16.4467 26.6643 16.947 26.4227C17.8704 25.9855 18.8295 25.6278 19.8138 25.3534C20.5924 25.1544 21.371 25.1839 22.1496 25.1871H22.9593C22.9188 25.0936 22.8515 25.0143 22.7659 24.959C22.6802 24.9037 22.5801 24.8749 22.4782 24.8762C21.63 24.77 20.771 24.7862 19.9275 24.9244C19.3976 25.0251 18.8845 25.1993 18.403 25.442C18.023 25.6098 17.6233 25.7288 17.2133 25.7963C17.2166 25.6459 17.2621 25.4995 17.3447 25.3736C17.4273 25.2478 17.5436 25.1476 17.6805 25.0845C18.6584 24.598 19.6815 24.2498 20.7886 24.1923C21.1592 24.1736 21.5267 24.1472 21.9036 24.1472C22.4351 24.1517 22.9571 24.289 23.4218 24.5467C23.6478 24.6664 23.843 24.8365 23.9924 25.0438C24.1418 25.2511 24.2412 25.49 24.283 25.7419C24.392 26.3637 24.4947 26.973 24.5804 27.59C24.6333 28.011 24.5521 28.4378 24.3484 28.8102C24.4465 28.8413 24.5243 28.8723 24.6053 28.891C25.2157 29.0309 25.8386 29.1241 26.4319 29.3138C27.907 29.7762 29.1714 30.7433 30.0025 32.0447C30.1754 32.3058 30.3248 32.5809 30.4899 32.8483C30.5856 33.008 30.6466 33.186 30.6691 33.3707C30.6917 33.5554 30.6752 33.7428 30.6207 33.9208C30.5756 34.0902 30.5335 34.2612 30.4837 34.4585C30.5413 34.5487 30.6083 34.6559 30.6783 34.7601C30.8278 34.9683 30.9119 35.2161 30.92 35.4721C30.928 35.7281 30.8596 35.9807 30.7235 36.1978C30.3531 36.8612 29.8213 37.4209 29.1772 37.8252C28.9561 37.9698 28.7241 38.0972 28.4967 38.234L28.1853 38.4267C28.2233 38.4868 28.2644 38.5449 28.3083 38.6008C28.3877 38.6878 28.4796 38.7562 28.5543 38.8526C28.7614 39.1013 28.7832 39.3189 28.601 39.5754C28.4903 39.7363 28.3595 39.8826 28.2117 40.0106C27.824 40.3416 27.4222 40.6556 27.0267 40.9774L26.7947 41.1701C26.7947 41.2167 26.7869 41.24 26.7947 41.254C27.0563 41.7094 26.9504 42.1384 26.6982 42.555C26.6078 42.7104 26.4988 42.8441 26.4007 42.9902C26.3329 43.08 26.2869 43.1843 26.2663 43.2949C26.2458 43.4055 26.2513 43.5193 26.2824 43.6275C26.3481 43.8194 26.3492 44.0275 26.2857 44.2202C26.2222 44.4129 26.0975 44.5797 25.9305 44.6953C25.5583 44.9828 25.1846 45.2704 24.8015 45.5424C24.6758 45.6187 24.5732 45.7277 24.5049 45.8578C24.4366 45.9879 24.4051 46.1341 24.4138 46.2807C24.4324 46.747 24.4324 47.2008 24.434 47.6594C24.434 47.9593 24.3468 48.0806 24.1226 48.1101C23.8983 48.1396 23.7302 48.0308 23.6352 47.7806C23.5402 47.5303 23.4327 47.2304 23.3237 46.9615C23.2473 46.8181 23.2156 46.6551 23.2328 46.4936C23.25 46.3321 23.3153 46.1794 23.4203 46.0553C23.4383 46.0321 23.453 46.0065 23.4639 45.9791C23.4673 45.9492 23.4673 45.9189 23.4639 45.889C23.0138 45.8672 22.5405 45.9449 22.134 45.6683C22.1664 45.4653 22.2513 45.2743 22.3802 45.1141C22.509 44.9538 22.6775 44.8298 22.869 44.7543C22.0204 44.8398 21.1841 44.9922 20.3635 44.7139C20.3233 44.4409 20.3789 44.1625 20.5208 43.9257C20.6627 43.6889 20.8822 43.5083 21.1421 43.4145C21.6101 43.2433 22.0887 43.1021 22.5747 42.9917C23.3362 42.8099 24.1163 42.8721 24.8903 42.8674C25.0569 42.8674 25.2235 42.8674 25.3901 42.8674C25.6018 42.8484 25.802 42.763 25.962 42.6233C26.122 42.4837 26.2336 42.2971 26.2808 42.0902C26.2853 42.0243 26.2758 41.9581 26.2527 41.8962C26.2297 41.8342 26.1937 41.7778 26.1472 41.7308C26.1006 41.6838 26.0446 41.6471 25.9828 41.6234C25.921 41.5996 25.8549 41.5892 25.7888 41.5929C25.6626 41.6024 25.5383 41.6297 25.4197 41.6737C23.8033 42.1773 22.1885 42.6871 20.5706 43.186C20.0543 43.3474 19.5081 43.3899 18.9729 43.3104C18.6724 43.2669 18.3687 43.2529 18.0651 43.2327C17.8883 43.2363 17.7172 43.1704 17.5886 43.0493C17.5528 42.9097 17.563 42.7624 17.6177 42.6292C17.6724 42.4959 17.7687 42.3838 17.8922 42.3094C18.5616 41.8343 19.3334 41.5228 20.1455 41.4001C20.58 41.3302 21.0113 41.2447 21.4411 41.1499C22.6853 40.8691 23.9618 40.7577 25.236 40.8188C25.2654 40.8149 25.2953 40.8149 25.3247 40.8188C25.7467 40.9587 26.1033 40.8188 26.4599 40.5903C26.8165 40.3618 27.2229 40.1473 27.5935 39.9095C27.7141 39.8292 27.8152 39.723 27.8894 39.5987C28.0062 39.4013 27.9641 39.2878 27.7757 39.1526C27.6828 39.0872 27.5763 39.0435 27.4642 39.0247C27.3521 39.0059 27.2372 39.0124 27.1279 39.0438C26.639 39.1837 26.1516 39.3282 25.6704 39.4961C24.1132 40.0401 22.556 40.609 20.9366 40.9742C20.2218 41.1297 19.5055 41.3131 18.7783 41.4032C18.251 41.4449 17.7209 41.4392 17.1946 41.3861C16.4487 41.3473 15.7262 41.1608 14.9974 41.0147C14.6665 40.9365 14.3508 40.8041 14.0631 40.623C14.4774 40.2663 14.9705 40.0127 15.502 39.8831C16.1684 39.7277 16.8411 39.5971 17.5139 39.4728C18.5852 39.2692 19.6581 39.0687 20.7248 38.8946C21.8631 38.7034 23.0014 38.5029 24.1506 38.3661C24.8794 38.2791 25.619 38.3008 26.354 38.2775C26.6078 38.2682 26.8617 38.2775 27.1139 38.262C27.1924 38.2559 27.2693 38.2365 27.3413 38.2045C27.9146 37.9798 28.4631 37.6964 28.9779 37.3589C29.3982 37.0829 29.7454 36.7097 29.99 36.2709C30.098 36.0642 30.1682 35.84 30.1972 35.6087C30.233 35.3103 30.0523 35.0305 29.6366 35.2326C29.5822 35.26 29.5301 35.2917 29.4808 35.3274C28.456 36.0515 27.3148 36.5956 26.1064 36.9361C23.9123 37.5889 21.7089 38.2169 19.4775 38.736C18.7762 38.9171 18.0592 39.0316 17.3363 39.078C16.7975 39.0997 16.2572 39.1448 15.72 39.1199C14.7112 39.0826 13.7122 38.9085 12.7504 38.6024C12.5545 38.524 12.365 38.4304 12.1836 38.3226V38.3226ZM28.9685 34.9388L28.9405 34.8471C28.5818 34.765 28.2174 34.7099 27.8505 34.6824C26.9162 34.6824 25.9678 34.6979 25.0273 34.7492C24.3935 34.7834 23.7628 34.8782 23.1322 34.9621C22.405 35.0585 21.6731 35.1378 20.9521 35.2823C19.0322 35.6707 17.152 36.2341 15.3353 36.9657C14.8308 37.1693 14.3247 37.39 13.8202 37.6076C13.6953 37.6481 13.5822 37.7186 13.491 37.8129C13.3998 37.9072 13.3332 38.0225 13.297 38.1485C13.414 38.2001 13.5335 38.2457 13.6551 38.2853C13.8825 38.3443 14.1114 38.3972 14.3419 38.4407C15.2762 38.6241 16.2105 38.7236 17.1448 38.5682C18.6802 38.3148 20.2047 38.0148 21.7151 37.6356C23.7328 37.1472 25.7142 36.5198 27.6449 35.758C28.0344 35.6259 28.3999 35.4317 28.7272 35.1829C28.8144 35.1036 28.8876 35.0181 28.9685 34.9388ZM23.386 26.3108C23.216 26.1345 23.0004 26.0087 22.7631 25.9471C22.296 25.8601 21.8164 25.7917 21.3399 25.7482C20.7746 25.6922 20.2343 25.8507 19.6908 25.9798C18.8118 26.1752 17.9704 26.5117 17.1993 26.9761C16.912 27.147 16.6625 27.3744 16.4659 27.6444C16.4264 27.6857 16.3958 27.7346 16.3759 27.788C16.356 27.8415 16.3471 27.8984 16.3499 27.9554C16.3526 28.0124 16.367 28.0682 16.392 28.1195C16.417 28.1708 16.4522 28.2164 16.4955 28.2537C16.6042 28.3877 16.7397 28.4977 16.8933 28.5766C17.0469 28.6556 17.2153 28.7018 17.3877 28.7122C17.9651 28.7529 18.5452 28.7258 19.1162 28.6314C19.9977 28.4636 20.8511 28.1727 21.6513 27.7672C22.089 27.5454 22.5152 27.3016 22.9282 27.0367C23.0522 26.9555 23.1572 26.8487 23.2362 26.7235C23.3152 26.5982 23.3663 26.4575 23.386 26.3108ZM25.8215 38.9319L25.8043 38.8479C25.7187 38.8479 25.6315 38.8308 25.5458 38.834C25.0787 38.851 24.624 38.851 24.1662 38.8946C23.2505 38.9832 22.3318 39.0624 21.4255 39.2054C20.0848 39.4246 18.7503 39.6873 17.4173 39.9562C16.9506 40.0666 16.4901 40.2015 16.0376 40.3603C15.9193 40.3976 15.7729 40.4271 15.7262 40.5794C16.5686 40.9261 17.9203 41.0457 18.8873 40.8468C20.7559 40.4629 22.6012 39.9702 24.4371 39.4479C24.9058 39.3189 25.359 39.1075 25.8215 38.9319ZM18.3501 42.6436L18.3656 42.7166C18.4949 42.7368 18.621 42.7633 18.7503 42.7788C19.1869 42.852 19.6336 42.8409 20.0661 42.7462C21.5475 42.341 23.0268 41.9265 24.5041 41.5027C24.5835 41.481 24.6831 41.4654 24.6816 41.3271C24.618 41.3134 24.5534 41.3051 24.4885 41.3022C23.8656 41.3442 23.2536 41.3535 22.6448 41.4405C21.8522 41.5556 21.0705 41.7374 20.2825 41.882C19.6802 41.9719 19.1011 42.1778 18.5774 42.4881C18.4996 42.5394 18.4264 42.5907 18.3501 42.6436ZM17.2164 31.4416C18.294 31.5971 21.7478 30.3008 22.4564 29.5267C22.3898 29.5127 22.322 29.5054 22.2539 29.5049C21.751 29.5718 21.2433 29.6215 20.7466 29.7194C19.819 29.9225 18.9244 30.2536 18.0885 30.7033C17.8951 30.7948 17.7078 30.8986 17.5279 31.0142C17.4457 31.0556 17.3745 31.116 17.3204 31.1903C17.2662 31.2646 17.2306 31.3508 17.2164 31.4416ZM24.2674 43.5124C23.8516 43.5016 23.4421 43.4378 23.0216 43.4534C22.4372 43.4978 21.8693 43.668 21.357 43.9523C21.2935 43.9754 21.2389 44.0179 21.2009 44.0737C21.1629 44.1294 21.1434 44.1957 21.1452 44.2632C22.2423 44.3925 23.3496 44.1263 24.2674 43.5124ZM24.339 45.0994C24.9183 44.9067 25.3123 44.5243 25.7125 44.1124L25.496 43.6663C25.1425 43.8357 24.8233 44.0021 24.4947 44.1482C24.1662 44.2943 23.8438 44.4171 23.5168 44.5492V44.6067C23.8828 44.6222 24.1163 44.8414 24.339 45.0994Z" fill="white"/>
<path d="M98.61 42.7061V38.8514C98.5355 38.8542 98.4615 38.8641 98.3889 38.8809C97.9028 39.0364 97.3932 39.1064 96.8831 39.0876C96.4315 39.0721 95.9799 39.097 95.5283 39.0876C94.7405 39.0696 93.9716 38.8432 93.3 38.4317C92.8925 38.1982 92.5515 37.8648 92.309 37.4631C92.0665 37.0614 91.9306 36.6047 91.9141 36.136C91.8642 35.3077 91.8674 34.477 91.9234 33.6491C91.9966 32.6574 92.7596 32.0652 93.7749 32.1601V32.4709C93.7749 33.5279 93.7905 34.5832 93.7749 35.6402C93.761 35.955 93.8509 36.2657 94.0309 36.5246C94.211 36.7835 94.4711 36.9762 94.7715 37.0733C95.6131 37.3591 96.5214 37.3857 97.3783 37.1494C98.0556 36.9691 98.6069 36.5137 98.596 35.5391C98.5851 34.5646 98.596 33.5636 98.596 32.5751V32.2378H100.465V42.6843C99.8558 42.7279 99.2594 42.6952 98.61 42.7061Z" fill="white"/>
<path d="M66.8008 39.0844C66.1537 39.1249 65.5043 39.0672 64.8745 38.9134C64.4573 38.8025 64.0586 38.6312 63.6911 38.4052C62.8081 37.8534 62.3643 37.042 62.2787 36.0271C62.2073 35.3715 62.3199 34.709 62.6041 34.1137C62.9779 33.3614 63.6039 32.8982 64.3638 32.5967C64.9586 32.3619 65.5927 32.2416 66.2324 32.2423C66.6746 32.2423 67.1169 32.2283 67.5576 32.2423C68.4027 32.255 69.2294 32.4904 69.9541 32.9246C70.8635 33.4935 71.3182 34.3235 71.382 35.3805C71.4226 35.8591 71.3697 36.341 71.2263 36.7996C70.9273 37.7057 70.292 38.2995 69.4402 38.6741C68.8182 38.9441 68.1471 39.0832 67.4688 39.0829C67.2524 39.086 67.0266 39.0844 66.8008 39.0844ZM66.9736 37.3327C67.1293 37.3218 67.4205 37.314 67.7102 37.2736C68.1514 37.2243 68.5765 37.0795 68.9559 36.8493C69.1569 36.7215 69.3223 36.5452 69.4369 36.3367C69.5515 36.1282 69.6116 35.8942 69.6116 35.6564C69.6116 35.4185 69.5515 35.1845 69.4369 34.976C69.3223 34.7675 69.1569 34.5912 68.9559 34.4634C68.7308 34.3278 68.4882 34.2232 68.2349 34.1526C67.4335 33.9562 66.6001 33.9276 65.787 34.0686C65.4458 34.1171 65.1165 34.2278 64.8153 34.395C64.5936 34.5124 64.4069 34.6862 64.2743 34.8989C64.1416 35.1116 64.0678 35.3555 64.0602 35.6059C64.0526 35.8563 64.1115 36.1043 64.231 36.3246C64.3506 36.5449 64.5264 36.7297 64.7406 36.8602C64.9087 36.9599 65.086 37.0432 65.2701 37.1089C65.773 37.2907 66.3009 37.3265 66.9736 37.3327Z" fill="white"/>
<path d="M50.5766 39.1542C49.5161 39.1931 48.9493 38.6165 48.7858 37.7554C48.7482 37.534 48.7284 37.31 48.7266 37.0855C48.7266 36.5679 48.7111 36.0487 48.7266 35.5311C48.7317 35.3649 48.6986 35.1998 48.6297 35.0483C48.5609 34.8969 48.4582 34.7632 48.3296 34.6576C48.0817 34.4318 47.778 34.2762 47.4497 34.2069C46.4971 34.004 45.5123 34.004 44.5596 34.2069C44.162 34.2868 43.801 34.4929 43.5303 34.7944C43.4451 34.882 43.3782 34.9857 43.3336 35.0994C43.2889 35.213 43.2674 35.3345 43.2702 35.4565C43.2811 35.985 43.2874 36.5135 43.2702 37.0419C43.2642 37.3638 43.2219 37.6839 43.1441 37.9963C43.0787 38.2804 42.9297 38.5385 42.7164 38.7376C42.503 38.9367 42.235 39.0677 41.9466 39.1138C41.7753 39.1465 41.6009 39.1605 41.4032 39.1869C41.3883 39.1057 41.3779 39.0237 41.372 38.9413C41.372 37.875 41.3611 36.8088 41.372 35.7425C41.3616 35.322 41.4173 34.9024 41.5371 34.4991C41.8688 33.5028 42.5789 32.8888 43.5381 32.5344C44.1289 32.3189 44.7544 32.2136 45.3833 32.2235C45.8645 32.2235 46.3457 32.2235 46.8269 32.2235C47.6947 32.2255 48.543 32.481 49.267 32.9587C49.6621 33.2024 49.9891 33.5417 50.2178 33.9452C50.4465 34.3487 50.5693 34.8034 50.575 35.2669C50.6124 36.5275 50.5875 37.7896 50.589 39.0517C50.5879 39.0862 50.5837 39.1205 50.5766 39.1542Z" fill="white"/>
<path d="M61.115 39.1487C60.7718 39.1977 60.4219 39.133 60.119 38.9646C59.816 38.7962 59.5768 38.5332 59.4379 38.2161C59.312 37.9183 59.2504 37.5973 59.2573 37.2742C59.2573 36.7068 59.2464 36.1395 59.2573 35.5722C59.261 35.392 59.2219 35.2136 59.1431 35.0515C59.0643 34.8894 58.9482 34.7482 58.8041 34.6396C58.4034 34.3173 57.9092 34.1325 57.3949 34.1127C56.7012 34.0396 56.0011 34.0553 55.3114 34.1593C54.9016 34.2177 54.5158 34.3876 54.1964 34.6505C54.0566 34.7582 53.9443 34.8975 53.8688 35.0569C53.7933 35.2163 53.7567 35.3913 53.762 35.5675C53.7796 36.1447 53.7796 36.7213 53.762 37.2975C53.7555 37.5508 53.7158 37.8022 53.6436 38.0451C53.449 38.6901 52.9943 39.0492 52.3294 39.1456C52.1985 39.1658 52.0646 39.172 51.9151 39.186C51.9151 39.0694 51.8996 38.9839 51.8996 38.8984C51.8996 37.7731 51.8996 36.6493 51.8996 35.524C51.8875 35.0871 51.9717 34.6528 52.146 34.2519C52.3204 33.8509 52.5807 33.493 52.9086 33.2034C53.4108 32.774 54.0179 32.485 54.6683 32.3656C55.0028 32.2927 55.343 32.2491 55.6851 32.2351C56.3225 32.1993 56.9615 32.1993 57.5989 32.2351C58.5534 32.3112 59.4457 32.6034 60.1714 33.2625C60.8254 33.8578 61.1057 34.6318 61.1212 35.4929C61.1415 36.6773 61.1212 37.8601 61.1212 39.0445C61.1214 39.0793 61.1193 39.1141 61.115 39.1487Z" fill="white"/>
<path d="M91.7252 27.7225C91.4635 28.265 91.2175 28.7732 90.9746 29.2768C90.7503 29.2287 90.5526 29.1805 90.3517 29.1463C90.1246 29.0971 89.888 29.1171 89.6725 29.2039C89.457 29.2907 89.2726 29.4401 89.1433 29.6328C88.9431 29.8769 88.8244 30.1775 88.8039 30.4923C88.7961 31.0472 88.8039 31.6037 88.8039 32.1912C88.8926 32.2067 88.9845 32.2238 89.0779 32.2378C89.9982 32.3777 90.6024 33.1207 90.5059 34.0362H88.7945V39.1747C88.1919 39.1872 87.6204 39.1887 87.0224 39.1747V34.0579C85.9558 33.9165 85.3625 33.3538 85.3516 32.2192H87.0069C87.0069 32.0839 87.0224 31.9876 87.0224 31.8928C87.0224 31.4047 87.0084 30.9151 87.0224 30.427C87.0816 28.9551 87.9832 27.878 89.285 27.5671C90.0963 27.3712 90.8952 27.4552 91.7252 27.7225Z" fill="white"/>
<path d="M72.0273 32.2436H74.1747C75.0187 33.7979 75.8643 35.3678 76.7332 36.9781C76.8126 36.8428 76.8671 36.7542 76.9169 36.6672C77.4557 35.6476 77.9898 34.6233 78.5395 33.6099C78.6998 33.3079 78.8874 33.0212 79.1001 32.7534C79.7058 32.0089 80.7149 32.0167 81.3829 32.4519L77.6208 39.0795H75.8985L72.0273 32.2436Z" fill="white"/>
<path d="M39.9017 32.23V39.069H38.0689C38.0689 38.9897 38.0549 38.9244 38.0549 38.8576C38.0549 37.2644 38.0549 35.6697 38.0549 34.075C38.0491 33.6917 38.1517 33.3146 38.3508 32.9869C38.7105 32.4165 39.254 32.244 39.9017 32.23Z" fill="white"/>
<path d="M84.0976 32.264V39.0688H82.271C82.271 38.9926 82.2539 38.9134 82.2539 38.8263C82.2539 37.244 82.2539 35.6602 82.2742 34.0779C82.2792 33.7955 82.3319 33.516 82.4299 33.251C82.553 32.921 82.7856 32.643 83.0891 32.4634C83.3925 32.2838 83.7485 32.2135 84.0976 32.264Z" fill="white"/>
<path d="M16.3851 30.623C16.294 30.7593 16.1896 30.8863 16.0736 31.0023C15.0388 31.8778 14.2212 32.9806 13.6849 34.2244C13.4482 34.759 13.2551 35.3124 13.0371 35.8548C13.0076 35.9362 12.9597 36.0096 12.897 36.0693C12.8543 36.1107 12.8007 36.139 12.7425 36.151C12.6843 36.1629 12.6238 36.158 12.5683 36.1367C12.5128 36.1155 12.4645 36.0788 12.4292 36.0311C12.3939 35.9833 12.373 35.9265 12.3691 35.8673C12.3504 35.6909 12.3588 35.5127 12.394 35.3388C12.6687 34.062 13.3023 32.8899 14.2206 31.9597C14.6519 31.5198 15.1066 31.1017 15.5613 30.6852C15.8432 30.4272 16.03 30.4194 16.3851 30.623Z" fill="white"/>
<path d="M82.2976 29.151C83.4546 29.0578 84.0993 29.9499 84.0946 30.8266H82.3194C82.2571 30.6261 82.2384 29.4805 82.2976 29.151Z" fill="white"/>
<path d="M38.0781 29.1523C39.0451 29.0264 39.8393 29.7429 39.9 30.8309H38.0781V29.1523Z" fill="white"/>
<path d="M56.5875 40.8125H56.874V41.8352C57.0074 41.7536 57.1476 41.6834 57.2929 41.6254C57.3816 41.5965 57.4752 41.5857 57.5682 41.5936C57.6612 41.6015 57.7516 41.628 57.8341 41.6715C57.9167 41.715 57.9896 41.7746 58.0485 41.8468C58.1075 41.919 58.1513 42.0023 58.1774 42.0917C58.27 42.3516 58.27 42.6354 58.1774 42.8953C58.1405 43.0147 58.0741 43.123 57.9842 43.21C57.8944 43.2971 57.784 43.3602 57.6633 43.3935C57.5426 43.4268 57.4155 43.4292 57.2936 43.4005C57.1717 43.3719 57.059 43.313 56.9659 43.2295C56.9379 43.2046 56.9052 43.1844 56.8616 43.1533L56.8071 43.3554C56.7766 43.3644 56.7453 43.3707 56.7136 43.374C56.6708 43.3711 56.6282 43.3659 56.5859 43.3585L56.5875 40.8125ZM56.874 42.4989H56.8834C56.8834 42.5673 56.8834 42.6357 56.8834 42.7041C56.891 42.8214 56.9383 42.9326 57.0175 43.0196C57.0967 43.1065 57.2031 43.1641 57.3194 43.1828C57.431 43.1978 57.5444 43.1754 57.6419 43.1191C57.7394 43.0629 57.8154 42.976 57.8582 42.872C57.909 42.7616 57.9364 42.6419 57.9385 42.5204C57.9407 42.399 57.9176 42.2784 57.8706 42.1663C57.8375 42.0632 57.7704 41.9743 57.6802 41.9142C57.59 41.854 57.482 41.8262 57.3739 41.8352C57.2664 41.8414 57.1636 41.881 57.0798 41.9484C56.996 42.0159 56.9355 42.1078 56.9067 42.2114C56.8881 42.3062 56.8771 42.4024 56.874 42.4989Z" fill="white"/>
<path d="M40.2286 40.8125H40.4746C40.5322 41.0301 40.5525 42.8455 40.5011 43.3491L40.3314 43.3787L40.2224 43.1688C40.1946 43.179 40.168 43.192 40.1429 43.2077C39.6571 43.6118 39.0825 43.4269 38.919 42.816C38.8512 42.5685 38.8698 42.3054 38.9719 42.0699C39.0102 41.9687 39.0702 41.8771 39.1477 41.8016C39.2253 41.726 39.3185 41.6683 39.4208 41.6326C39.5231 41.5969 39.632 41.584 39.7398 41.5948C39.8476 41.6057 39.9517 41.64 40.0448 41.6954C40.0947 41.7218 40.1429 41.7513 40.2286 41.7995V40.8125ZM40.2457 42.5331C40.2394 42.4289 40.227 42.3251 40.2084 42.2223C40.1855 42.1202 40.1305 42.0281 40.0514 41.9595C39.9723 41.8909 39.8732 41.8493 39.7688 41.841C39.6643 41.8327 39.5599 41.8579 39.4709 41.9131C39.3818 41.9683 39.3129 42.0505 39.274 42.1477C39.2221 42.2641 39.1952 42.3901 39.1952 42.5176C39.1952 42.645 39.2221 42.7711 39.274 42.8875C39.3089 42.9807 39.3735 43.0599 39.458 43.1127C39.5424 43.1655 39.642 43.1891 39.7412 43.1797C39.8407 43.1829 39.9383 43.1528 40.0187 43.0942C40.0991 43.0356 40.1576 42.9519 40.185 42.8564C40.2118 42.75 40.2321 42.642 40.2457 42.5331Z" fill="white"/>
<path d="M74.9416 42.546H73.6958C73.6691 42.6287 73.6682 42.7176 73.6932 42.8009C73.7182 42.8842 73.768 42.9579 73.836 43.0123C73.9612 43.1035 74.1074 43.1618 74.2611 43.1817C74.4285 43.1837 74.5957 43.167 74.7594 43.132L74.8061 43.2687C74.3888 43.5236 73.8079 43.4475 73.5463 43.1133C73.4157 42.9172 73.3536 42.6835 73.3697 42.4486C73.3857 42.2136 73.479 41.9905 73.6351 41.8139C73.7249 41.7161 73.8399 41.6448 73.9676 41.6076C74.0952 41.5705 74.2306 41.569 74.359 41.6033C74.4874 41.6376 74.604 41.7063 74.696 41.8021C74.788 41.8979 74.8519 42.017 74.8809 42.1465C74.9078 42.2786 74.9281 42.4119 74.9416 42.546ZM74.5974 42.319C74.5974 41.988 74.4417 41.803 74.1817 41.7984C73.9216 41.7937 73.7285 41.9989 73.7052 42.319H74.5974Z" fill="white"/>
<path d="M42.5728 42.5519H41.3738C41.2975 43.0695 41.6027 43.2342 42.4156 43.1394C42.4304 43.162 42.4419 43.1866 42.4498 43.2125C42.4535 43.2455 42.4535 43.2789 42.4498 43.3119C42.3047 43.3809 42.147 43.4197 41.9863 43.4258C41.8257 43.432 41.6655 43.4054 41.5155 43.3477C41.4095 43.3078 41.3147 43.2431 41.2391 43.159C41.1635 43.0748 41.1093 42.9738 41.081 42.8643C41.0008 42.6003 41.018 42.3163 41.1293 42.0638C41.1965 41.9051 41.3147 41.7731 41.4652 41.6887C41.6157 41.6043 41.7901 41.5722 41.9609 41.5975C42.1277 41.6175 42.2817 41.6971 42.3943 41.8217C42.5068 41.9463 42.5702 42.1075 42.5728 42.2752C42.5791 42.3545 42.5728 42.4306 42.5728 42.5519ZM42.2816 42.3187C42.2209 41.9441 42.0652 41.7825 41.8145 41.798C41.5638 41.8136 41.3925 42.0125 41.3722 42.3187H42.2816Z" fill="white"/>
<path d="M47.4178 43.1424C47.4326 43.1669 47.4446 43.193 47.4536 43.2201C47.4518 43.2519 47.4481 43.2836 47.4427 43.315C47.2298 43.4151 46.9917 43.4492 46.7591 43.4129C46.6513 43.4019 46.5469 43.3695 46.4519 43.3176C46.3569 43.2656 46.2733 43.1952 46.206 43.1104C46.1388 43.0256 46.0893 42.9282 46.0605 42.824C46.0316 42.7198 46.024 42.6108 46.0381 42.5036C46.0484 42.3481 46.0841 42.1953 46.144 42.0513C46.2129 41.8875 46.3375 41.7532 46.4959 41.6721C46.6543 41.5911 46.8363 41.5685 47.0098 41.6083C47.3493 41.6767 47.5579 41.9363 47.5782 42.3249C47.5782 42.3824 47.5782 42.4414 47.5704 42.5362H46.3745C46.3419 42.6167 46.3361 42.7055 46.358 42.7894C46.3799 42.8734 46.4282 42.9481 46.4959 43.0025C46.6179 43.0977 46.763 43.1588 46.9164 43.1797C47.0844 43.1859 47.2526 43.1734 47.4178 43.1424ZM46.3542 42.3171H47.2761C47.2481 41.9798 47.1095 41.8119 46.8619 41.7979C46.6143 41.784 46.4165 41.9689 46.3542 42.3171Z" fill="white"/>
<path d="M81.1513 42.5549H79.9616C79.9289 42.8549 80.0426 43.0865 80.2964 43.1393C80.5417 43.1703 80.7891 43.1812 81.0361 43.172L81.0486 43.3134C80.7842 43.429 80.4884 43.452 80.2092 43.3787C80.0792 43.349 79.9602 43.2833 79.8658 43.1894C79.7714 43.0954 79.7053 42.9768 79.6751 42.8471C79.6104 42.609 79.6201 42.3568 79.7031 42.1244C79.7603 41.9454 79.8814 41.7937 80.0433 41.698C80.2052 41.6023 80.3967 41.5693 80.5814 41.6052C80.9536 41.6721 81.1638 41.9456 81.1669 42.3653C81.1653 42.4135 81.1653 42.4601 81.1513 42.5549ZM80.8632 42.3155C80.8477 41.9814 80.6857 41.7964 80.4257 41.7964C80.1656 41.7964 79.9725 42.0109 79.9679 42.3155H80.8632Z" fill="white"/>
<path d="M71.9143 43.121V43.32C71.6585 43.4313 71.3723 43.4521 71.1031 43.3791C70.9444 43.3425 70.8023 43.2548 70.6987 43.1295C70.5951 43.0042 70.5358 42.8482 70.53 42.6858C70.5191 42.4917 70.5418 42.2972 70.597 42.1107C70.6278 42.0148 70.6774 41.926 70.743 41.8494C70.8087 41.7729 70.8889 41.7102 70.9791 41.6651C71.0693 41.6199 71.1677 41.5932 71.2684 41.5864C71.3691 41.5797 71.4701 41.5931 71.5655 41.6258C71.9221 41.7299 72.0965 42.0781 72.0062 42.5584H70.8259C70.8368 43.1102 71.1451 43.2656 71.9143 43.121ZM71.7477 42.3143C71.7337 41.9864 71.592 41.8123 71.3366 41.7983C71.0813 41.7843 70.9022 41.9537 70.8259 42.3143H71.7477Z" fill="white"/>
<path d="M63.2589 42.5459H62.0692C61.9727 43.062 62.3153 43.2485 63.1188 43.1319L63.1375 43.3231C62.8689 43.4351 62.5702 43.4526 62.2904 43.3728C62.2242 43.3538 62.1604 43.3272 62.1004 43.2935C61.7485 43.0759 61.7111 42.7309 61.7438 42.361C61.7474 42.208 61.7953 42.0593 61.8818 41.9329C61.9683 41.8066 62.0897 41.708 62.2312 41.6491C62.3377 41.5966 62.4557 41.5715 62.5744 41.5762C62.6931 41.5809 62.8087 41.6152 62.9107 41.6759C63.0127 41.7367 63.0979 41.8219 63.1585 41.9239C63.219 42.0259 63.253 42.1414 63.2574 42.2599C63.2589 42.3407 63.2589 42.42 63.2589 42.5459ZM62.9475 42.3143C62.9273 41.9879 62.784 41.8138 62.5348 41.7983C62.2857 41.7827 62.0942 41.9646 62.0241 42.3143H62.9475Z" fill="white"/>
<path d="M66.6275 43.3451C66.4842 43.4383 66.4017 43.3451 66.3316 43.2316C66.219 43.2901 66.103 43.342 65.9843 43.387C65.8593 43.4339 65.7214 43.4338 65.5964 43.3866C65.4715 43.3394 65.368 43.2484 65.3054 43.1306C65.2761 43.0655 65.26 42.9953 65.258 42.924C65.256 42.8527 65.2682 42.7817 65.2938 42.7151C65.3194 42.6485 65.358 42.5876 65.4073 42.5359C65.4566 42.4842 65.5156 42.4428 65.581 42.414C65.7549 42.3502 65.9342 42.3024 66.1167 42.271C66.1805 42.257 66.2475 42.2555 66.3113 42.2477C66.3113 41.8141 66.0715 41.7161 65.4938 41.8918C65.4716 41.8771 65.4517 41.8593 65.4346 41.8389C65.4213 41.8073 65.4109 41.7745 65.4035 41.741C65.5337 41.6548 65.6831 41.6017 65.8386 41.5862C65.9941 41.5708 66.1511 41.5935 66.2958 41.6524C66.3903 41.6937 66.4705 41.7622 66.5259 41.8491C66.5814 41.936 66.6097 42.0375 66.6072 42.1405C66.6212 42.3736 66.6181 42.6068 66.6197 42.843C66.6275 43.0124 66.6275 43.1772 66.6275 43.3451ZM66.3378 42.4529C66.1515 42.4786 65.9673 42.5176 65.7866 42.5695C65.7423 42.5841 65.7018 42.6079 65.6675 42.6395C65.6333 42.671 65.6062 42.7094 65.5881 42.7523C65.5699 42.7951 65.5612 42.8413 65.5624 42.8878C65.5636 42.9342 65.5747 42.9799 65.595 43.0218C65.6148 43.0632 65.643 43.1 65.6778 43.1299C65.7126 43.1599 65.7532 43.1823 65.7971 43.1957C65.8411 43.2092 65.8873 43.2133 65.9329 43.208C65.9785 43.2027 66.0226 43.188 66.0622 43.1648C66.1402 43.1354 66.2076 43.0835 66.2559 43.0156C66.3042 42.9478 66.3311 42.8671 66.3331 42.784C66.3409 42.7 66.3378 42.6145 66.3378 42.4529Z" fill="white"/>
<path d="M50.9624 41.8154C51.107 41.7341 51.2587 41.6659 51.4155 41.6117C51.4937 41.5881 51.5761 41.5821 51.6568 41.5942C51.7376 41.6064 51.8146 41.6363 51.8823 41.6818C51.95 41.7274 52.0067 41.7874 52.0482 41.8576C52.0898 41.9277 52.1151 42.0062 52.1225 42.0874C52.1708 42.5008 52.1661 42.9205 52.1848 43.3588L51.8936 43.3759C51.8781 43.3444 51.8671 43.3109 51.8609 43.2764C51.8609 42.9733 51.8609 42.6718 51.8609 42.3687C51.8609 42.0236 51.7052 41.8402 51.4436 41.8402C51.1819 41.8402 50.9764 42.0485 50.9764 42.3687C50.9764 42.6889 50.9764 43.0106 50.9764 43.3495L50.7459 43.3759C50.721 43.3464 50.6992 43.3308 50.6992 43.3153C50.6992 42.7697 50.6992 42.2273 50.6992 41.6553L50.8954 41.6257L50.9624 41.8154Z" fill="white"/>
<path d="M43.9769 42.2552C43.9769 41.8216 43.7464 41.7237 43.15 41.9008L43.0535 41.7547C43.1858 41.6661 43.3376 41.6108 43.4959 41.5935C43.6543 41.5762 43.8145 41.5974 43.9629 41.6553C44.0579 41.6963 44.1385 41.765 44.194 41.8523C44.2495 41.9396 44.2775 42.0415 44.2743 42.1449C44.2852 42.3594 44.2836 42.5739 44.2852 42.7899C44.2852 42.9733 44.2852 43.1567 44.2852 43.3479C44.145 43.4381 44.0641 43.3479 43.9956 43.2205C43.9026 43.2777 43.8064 43.3296 43.7075 43.3759C43.5784 43.4393 43.4299 43.4506 43.2927 43.4074C43.1555 43.3643 43.0403 43.2701 42.9709 43.1443C42.9394 43.0749 42.9227 42.9997 42.9219 42.9236C42.9211 42.8474 42.9362 42.7719 42.9662 42.7018C42.9962 42.6318 43.0406 42.5688 43.0963 42.5168C43.1521 42.4648 43.2181 42.4249 43.2902 42.3998C43.4477 42.346 43.6098 42.3065 43.7744 42.2816C43.8445 42.2646 43.9115 42.263 43.9769 42.2552ZM44.0049 42.5148C43.8266 42.4621 43.6351 42.4776 43.4677 42.5583C43.4209 42.5733 43.378 42.5982 43.3418 42.6313C43.3056 42.6644 43.277 42.705 43.2579 42.7501C43.2388 42.7953 43.2297 42.844 43.2313 42.893C43.2328 42.942 43.2449 42.9901 43.2668 43.0339C43.2888 43.0749 43.3191 43.1108 43.3557 43.1395C43.3923 43.1681 43.4345 43.1889 43.4796 43.2004C43.5247 43.2119 43.5717 43.214 43.6176 43.2065C43.6635 43.199 43.7074 43.182 43.7464 43.1567C43.8184 43.1262 43.8806 43.0763 43.9259 43.0127C43.9713 42.949 43.9981 42.8741 44.0033 42.7961C44.0086 42.7024 44.0091 42.6085 44.0049 42.5148Z" fill="white"/>
<path d="M59.9898 43.3384C59.8169 43.4348 59.7375 43.3509 59.6783 43.211C59.5849 43.2654 59.5055 43.3229 59.4198 43.3664C59.1084 43.511 58.7471 43.4022 58.6412 43.124C58.6113 43.0538 58.5964 42.9782 58.5977 42.9019C58.599 42.8257 58.6164 42.7506 58.6487 42.6815C58.681 42.6125 58.7276 42.551 58.7853 42.5011C58.8431 42.4511 58.9107 42.4139 58.9838 42.3919C59.0932 42.3503 59.2063 42.3195 59.3217 42.3002C59.4245 42.2784 59.532 42.2737 59.6332 42.2613C59.6643 41.837 59.4541 41.7453 58.8001 41.8976L58.7331 41.7779C58.7565 41.7499 58.7705 41.7173 58.7938 41.708C59.0059 41.6049 59.2458 41.5732 59.4775 41.6178C59.6046 41.6338 59.7217 41.6949 59.8074 41.7899C59.8932 41.8849 59.9419 42.0076 59.9446 42.1354C59.9602 42.311 59.9446 42.4867 59.9555 42.6623C59.9555 42.7789 59.9555 42.897 59.9555 43.0136C59.9555 43.1302 59.9898 43.2219 59.9898 43.3384ZM59.6783 42.5116C59.4855 42.4688 59.2839 42.4912 59.1053 42.5753C59.0231 42.6169 58.9607 42.6892 58.9315 42.7765C58.9024 42.8638 58.9089 42.959 58.9496 43.0416C58.9719 43.0793 59.0014 43.1123 59.0366 43.1386C59.0717 43.1649 59.1117 43.184 59.1542 43.1948C59.1967 43.2057 59.241 43.208 59.2845 43.2017C59.3279 43.1954 59.3697 43.1806 59.4074 43.1581C59.4855 43.1298 59.5533 43.0786 59.6019 43.0112C59.6505 42.9438 59.6777 42.8634 59.6799 42.7804C59.6861 42.6996 59.6783 42.6126 59.6783 42.5116Z" fill="white"/>
<path d="M77.8808 43.3543C77.6986 43.3683 77.6986 43.3683 77.5927 43.2253C77.4849 43.2876 77.3731 43.3427 77.2579 43.39C77.1929 43.4205 77.1223 43.4373 77.0505 43.4397C76.9787 43.442 76.9072 43.4297 76.8403 43.4036C76.7735 43.3774 76.7126 43.338 76.6615 43.2876C76.6104 43.2373 76.57 43.1771 76.543 43.1107C76.5159 43.0443 76.5026 42.9731 76.504 42.9014C76.5054 42.8297 76.5213 42.7591 76.5509 42.6938C76.5805 42.6284 76.6231 42.5698 76.6761 42.5214C76.7291 42.4731 76.7914 42.436 76.8593 42.4124C77.0899 42.3359 77.3256 42.2757 77.5647 42.2321C77.5787 41.9337 77.4089 41.7658 77.1115 41.8124C76.9869 41.8295 76.867 41.8699 76.7316 41.9026L76.6537 41.7471C76.789 41.66 76.9437 41.6074 77.1042 41.5938C77.2646 41.5803 77.4259 41.6062 77.574 41.6694C77.6606 41.7064 77.7347 41.7676 77.7872 41.8456C77.8397 41.9237 77.8684 42.0153 77.8699 42.1093C77.8808 42.2927 77.8792 42.4792 77.8808 42.6642C77.8823 42.8864 77.8808 43.1103 77.8808 43.3543ZM77.5569 42.4481C77.3726 42.4808 77.1913 42.5286 77.015 42.5911C76.9737 42.6076 76.9365 42.6326 76.9058 42.6646C76.875 42.6966 76.8515 42.7348 76.8367 42.7766C76.822 42.8184 76.8164 42.8628 76.8203 42.907C76.8241 42.9511 76.8374 42.994 76.8593 43.0326C76.8791 43.0715 76.9066 43.1061 76.9401 43.1342C76.9736 43.1623 77.0125 43.1834 77.0543 43.1962C77.0962 43.2089 77.1402 43.2131 77.1838 43.2085C77.2273 43.2039 77.2695 43.1906 77.3077 43.1693C77.5631 43.0652 77.6285 42.8989 77.5569 42.4481Z" fill="white"/>
<path d="M55.6654 41.6377H55.9332V43.3474L55.7401 43.3708L55.6576 43.1718C55.6327 43.1791 55.6087 43.189 55.586 43.2013C55.4924 43.2705 55.3922 43.3304 55.287 43.3801C54.9226 43.5075 54.5504 43.3133 54.5084 42.934C54.4695 42.5097 54.499 42.0791 54.499 41.6377H54.7389C54.7511 41.6656 54.76 41.6948 54.7653 41.7247C54.7653 41.9983 54.7653 42.2734 54.7653 42.547C54.7689 42.6517 54.783 42.7559 54.8074 42.8578C54.8176 42.9316 54.8518 42.9999 54.9047 43.0524C54.9575 43.1049 55.0262 43.1387 55.1001 43.1485C55.1822 43.1685 55.2686 43.1621 55.3469 43.1303C55.4251 43.0985 55.4914 43.0429 55.5361 42.9713C55.6039 42.8435 55.6422 42.7023 55.6483 42.5579C55.6763 42.2703 55.6654 41.9672 55.6654 41.6377Z" fill="white"/>
<path d="M44.9655 41.8759L44.7195 41.8184L44.707 41.663L44.9468 41.6008C44.9577 41.4796 44.9686 41.3568 44.9827 41.2122L45.2598 41.1345C45.2707 41.3008 45.2801 41.4454 45.291 41.6008C45.3548 41.6101 45.4202 41.6241 45.4841 41.6288C45.5479 41.6335 45.6211 41.6288 45.7052 41.6288L45.7317 41.82L45.2848 41.8604C45.2848 42.2334 45.2848 42.6018 45.2848 42.9686C45.2866 43.0186 45.3072 43.0661 45.3423 43.1018C45.3775 43.1374 45.4247 43.1587 45.4747 43.1614C45.5417 43.1614 45.6087 43.1722 45.6803 43.1784V43.3556C45.277 43.5111 45.0309 43.3774 44.9827 42.9748C44.9634 42.7412 44.9567 42.5067 44.9624 42.2723C44.9624 42.1479 44.9655 42.022 44.9655 41.8759Z" fill="white"/>
<path d="M102.509 32.4148C102.681 32.4157 102.848 32.4676 102.991 32.5638C103.133 32.6599 103.243 32.7961 103.308 32.955C103.372 33.1139 103.388 33.2884 103.353 33.4563C103.318 33.6242 103.234 33.778 103.112 33.8982C102.989 34.0184 102.834 34.0995 102.665 34.1313C102.496 34.1631 102.322 34.1441 102.164 34.0768C102.006 34.0094 101.871 33.8968 101.777 33.7531C101.684 33.6094 101.635 33.4411 101.637 33.2697C101.645 33.0428 101.74 32.8276 101.902 32.6685C102.064 32.5095 102.281 32.4186 102.509 32.4148ZM102.976 33.6924C102.999 33.6769 103.03 33.6691 103.046 33.6489C103.133 33.5243 103.174 33.3736 103.162 33.2223C103.15 33.071 103.086 32.9285 102.981 32.8189C102.879 32.7161 102.747 32.6486 102.604 32.6265C102.461 32.6044 102.315 32.6288 102.186 32.6961C102.053 32.7701 101.949 32.8878 101.892 33.0294C101.835 33.171 101.829 33.3278 101.875 33.4733C101.906 33.5876 101.97 33.6907 102.058 33.7703C102.146 33.8498 102.255 33.9027 102.372 33.9225C102.619 33.9644 102.861 33.9396 102.995 33.6785L102.976 33.6924Z" fill="white"/>
<path d="M60.6437 41.8805L60.4023 41.8136V41.6582L60.6297 41.6007L60.6577 41.2137L60.9396 41.1406C60.952 41.3132 60.9614 41.4515 60.9723 41.6162L61.3943 41.6427V41.8292L60.9707 41.8587C60.9707 41.9706 60.9583 42.0825 60.9567 42.1945C60.9567 42.381 60.9567 42.5659 60.9567 42.7509C60.9567 43.1115 60.9879 43.1441 61.3616 43.1908V43.3711C60.9302 43.4954 60.72 43.3711 60.6717 42.9607C60.6437 42.7307 60.6499 42.4944 60.6437 42.2628C60.6406 42.1354 60.6437 42.011 60.6437 41.8805Z" fill="white"/>
<path d="M79.274 43.1895C79.2807 43.2233 79.2843 43.2576 79.2849 43.292C79.2797 43.3192 79.2719 43.3457 79.2616 43.3713C78.8396 43.4941 78.6216 43.3713 78.5842 42.9548C78.5515 42.605 78.5515 42.2538 78.5359 41.8869L78.3117 41.8108C78.3117 41.7704 78.3117 41.7253 78.3008 41.6554L78.5359 41.5916C78.5453 41.4782 78.5546 41.3631 78.5655 41.217L78.8489 41.1238C78.8598 41.2979 78.8676 41.4346 78.8785 41.6041L79.3021 41.6351L79.313 41.8186L78.8692 41.8543C78.8692 42.2165 78.8583 42.5646 78.8692 42.9143C78.8801 43.1102 78.9532 43.1491 79.274 43.1895Z" fill="white"/>
<path d="M70.185 41.6961L70.132 41.8779C69.3893 41.7443 69.0031 42.0054 69.179 42.7857C69.2569 43.1385 69.5933 43.2333 70.1289 43.1183L70.1616 43.297C69.9806 43.3986 69.7713 43.4384 69.5656 43.4104C69.3598 43.3823 69.1688 43.2879 69.0218 43.1416C68.8968 42.9724 68.8256 42.7697 68.8172 42.5597C68.8089 42.3496 68.8639 42.1419 68.975 41.9634C69.1915 41.6463 69.7225 41.4831 70.185 41.6961Z" fill="white"/>
<path d="M68.4922 41.7116L68.4205 41.8903C68.0889 41.8095 67.779 41.7831 67.5532 42.083C67.4724 42.2062 67.4283 42.3498 67.4261 42.497C67.4239 42.6442 67.4637 42.7891 67.5407 42.9146C67.7665 43.241 68.0889 43.1959 68.4283 43.126L68.4859 43.2814C68.3107 43.3903 68.1043 43.4382 67.899 43.4177C67.6936 43.3972 67.5008 43.3094 67.3507 43.168C67.21 42.9976 67.1284 42.7863 67.1183 42.5657C67.1081 42.3451 67.1701 42.1272 67.2947 41.9447C67.4383 41.7761 67.635 41.6612 67.8525 41.6189C68.0701 41.5765 68.2956 41.6092 68.4922 41.7116Z" fill="white"/>
<path d="M54.0097 41.6928L53.9614 41.8715C53.2482 41.7503 52.8418 41.9819 52.9975 42.7512C53.0738 43.1321 53.3759 43.2269 53.9318 43.1305C53.9517 43.1486 53.9681 43.1702 53.9801 43.1942C53.9874 43.2295 53.9911 43.2654 53.991 43.3015C53.5487 43.5082 53.0863 43.4367 52.8324 43.1289C52.7148 42.9608 52.6485 42.7624 52.6413 42.5575C52.6341 42.3526 52.6864 42.15 52.7919 41.9741C52.9835 41.6865 53.4989 41.4689 54.0097 41.6928Z" fill="white"/>
<path d="M72.5764 40.8193H72.8396V43.356L72.6154 43.3762C72.525 43.3 72.5095 41.2235 72.5764 40.8193Z" fill="white"/>
<path d="M76.2862 41.8516C75.8423 41.9387 75.7115 42.0925 75.7053 42.5169C75.7053 42.7889 75.7053 43.0609 75.7053 43.3547H75.4297V41.6573L75.6166 41.6294L75.7209 41.8905C75.8595 41.7164 75.9934 41.5796 76.2519 41.6029C76.2597 41.676 76.2721 41.7553 76.2862 41.8516Z" fill="white"/>
<path d="M38.3709 43.367H38.0938V41.6448H38.3709V43.367Z" fill="white"/>
<path d="M50.024 43.3606H49.7422V41.6509H50.024V43.3606Z" fill="white"/>
<path d="M63.8614 42.9824C63.8903 42.9841 63.9186 42.9914 63.9447 43.0039C63.9707 43.0165 63.9941 43.034 64.0133 43.0556C64.0326 43.0771 64.0474 43.1022 64.057 43.1295C64.0665 43.1568 64.0706 43.1857 64.0689 43.2145C64.0673 43.2433 64.06 43.2716 64.0474 43.2976C64.0348 43.3236 64.0173 43.3469 63.9957 43.3661C63.9741 43.3854 63.9489 43.4002 63.9216 43.4097C63.8943 43.4192 63.8653 43.4233 63.8364 43.4217C63.783 43.4154 63.7335 43.3903 63.6969 43.3509C63.6603 43.3115 63.639 43.2604 63.6367 43.2067C63.6383 43.1477 63.6625 43.0916 63.7043 43.0499C63.7461 43.0081 63.8023 42.984 63.8614 42.9824Z" fill="white"/>
<path d="M81.773 43.4217C81.7191 43.4212 81.6671 43.4014 81.6265 43.366C81.5859 43.3306 81.5593 43.2819 81.5515 43.2286C81.5469 43.1701 81.5649 43.1121 81.6017 43.0664C81.6385 43.0206 81.6914 42.9906 81.7496 42.9825C81.8036 42.9811 81.8561 43.0003 81.8964 43.0362C81.9367 43.0721 81.9618 43.1219 81.9665 43.1756C81.9702 43.2045 81.9681 43.2338 81.9604 43.2619C81.9526 43.2899 81.9394 43.3162 81.9214 43.3391C81.9034 43.362 81.881 43.3811 81.8555 43.3953C81.8301 43.4095 81.802 43.4184 81.773 43.4217Z" fill="white"/>
<path d="M48.1553 43.4217C48.1264 43.4209 48.0979 43.4144 48.0716 43.4026C48.0452 43.3909 48.0214 43.374 48.0015 43.353C47.9614 43.3107 47.9398 43.2541 47.9415 43.1959C47.9432 43.1377 47.9679 43.0824 48.0104 43.0424C48.0528 43.0024 48.1094 42.9809 48.1678 42.9825C48.1967 42.9842 48.225 42.9921 48.2507 43.0055C48.2764 43.019 48.299 43.0378 48.3168 43.0606C48.3347 43.0835 48.3475 43.1099 48.3543 43.138C48.3612 43.1662 48.3619 43.1955 48.3566 43.2239C48.3577 43.2505 48.3533 43.277 48.3435 43.3017C48.3338 43.3264 48.3189 43.3488 48.2999 43.3675C48.281 43.3861 48.2583 43.4006 48.2334 43.4099C48.2085 43.4193 48.1819 43.4233 48.1553 43.4217Z" fill="white"/>
<path d="M49.8659 41.3813C49.7847 41.2614 49.7098 41.196 49.6958 41.1196C49.6938 41.0932 49.6979 41.0667 49.7076 41.0421C49.7174 41.0174 49.7325 40.9953 49.752 40.9773C49.7715 40.9594 49.7949 40.946 49.8202 40.9383C49.8456 40.9306 49.8724 40.9287 49.8987 40.9327C50.0094 40.9514 50.0828 41.0262 50.0547 41.1337C50.0219 41.2084 49.9486 41.2676 49.8659 41.3813Z" fill="white"/>
<path d="M38.4097 41.0555C38.4097 41.2115 38.3676 41.3004 38.2441 41.3066C38.2198 41.3104 38.1949 41.3087 38.1713 41.3016C38.1477 41.2945 38.126 41.2821 38.1078 41.2655C38.0897 41.2489 38.0755 41.2284 38.0664 41.2055C38.0572 41.1826 38.0534 41.158 38.0551 41.1335C38.0551 41.0196 38.1113 40.9292 38.2113 40.937C38.2941 40.9432 38.3613 41.0243 38.4097 41.0555Z" fill="white"/>
<path d="M102.994 33.6833L102.735 33.6678L102.519 33.3321L102.461 33.3414C102.445 33.4378 102.43 33.5341 102.411 33.6522L102.238 33.674V32.8238H102.607C102.661 32.8168 102.715 32.826 102.764 32.8501C102.812 32.8742 102.852 32.9121 102.878 32.959C102.902 33.0075 102.908 33.0626 102.896 33.115C102.883 33.1674 102.853 33.2139 102.81 33.2466C102.791 33.2668 102.777 33.2916 102.76 33.3119C102.838 33.4409 102.916 33.5668 102.986 33.6927L102.994 33.6833ZM102.459 32.9652V33.1626C102.584 33.1813 102.673 33.1751 102.673 33.0072L102.459 32.9652Z" fill="white"/>
</svg>
