<svg width="116" height="72" viewBox="0 0 116 72" fill="none" xmlns="http://www.w3.org/2000/svg">
<g clip-path="url(#clip0_323_5494)">
<path d="M37.8423 7.11206C40.2789 7.11206 42.1417 8.15489 43.0532 10.2405C43.3243 10.9074 43.454 11.6233 43.434 12.3428C43.434 16.2237 43.434 20.1 43.434 23.972C43.434 26.4817 45.1288 28.8435 47.4706 29.6152C48.6889 30.0257 50.0087 30.0224 51.2249 29.6058C52.4411 29.1893 53.4858 28.3828 54.1966 27.3117C54.2731 27.2003 54.3447 27.0872 54.4511 26.9291C54.9038 28.8754 55.8732 30.6635 57.2569 32.105C57.1388 32.2132 57.0324 32.3196 56.9243 32.4177C54.4578 34.5549 51.5887 35.4115 48.3471 35.1953C43.3958 34.8626 39.5521 31.0955 38.3779 27.3283C38.0289 26.2225 37.85 25.07 37.8473 23.9104C37.8373 18.3764 37.8373 12.8435 37.8473 7.31165L37.8423 7.11206Z" fill="white"/>
<path d="M78.1081 40.6655C76.2786 40.6123 74.6819 40.0967 73.541 38.5898C72.8711 37.7015 72.5196 36.6136 72.5431 35.5013C72.5431 31.6027 72.5431 27.7053 72.5431 23.8089C72.5431 20.8152 70.3393 18.2488 67.3871 17.8813C65.0586 17.5935 63.1909 18.4567 61.8038 20.3511C61.7306 20.4492 61.6624 20.554 61.5576 20.7037C61.1371 18.7622 60.2025 16.9693 58.8516 15.5129C60.3152 14.1673 61.9767 13.216 63.9027 12.8118C67.8395 11.9802 71.3871 12.7752 74.4009 15.5295C76.8325 17.7565 78.1115 20.5091 78.1181 23.8172C78.1303 29.3513 78.1303 34.8848 78.1181 40.4177C78.1198 40.4909 78.1131 40.5624 78.1081 40.6655Z" fill="white"/>
<path d="M44.668 17.8278V12.5189C44.7844 12.5189 44.8958 12.5039 45.0006 12.5039C46.5224 12.5039 48.0426 12.5039 49.5644 12.5039C54.0751 12.5189 58.5075 15.5326 60.0426 19.6241C60.4152 20.612 60.5067 21.6465 60.5848 22.686C60.6713 23.8054 60.7329 24.9314 61.132 25.9992C61.5627 27.1474 62.3329 28.1371 63.3402 28.8366C64.3475 29.536 65.544 29.912 66.7703 29.9143H71.3292V35.2366H71.0048C69.4946 35.2366 67.9828 35.2516 66.4726 35.2366C63.5848 35.2374 60.8097 34.1156 58.7337 32.1081C57.152 30.6212 55.9794 28.8649 55.5137 26.726C55.2875 25.6865 55.246 24.6037 55.1495 23.5376C55.0181 22.1156 54.6339 20.8066 53.6293 19.7305C53.0812 19.1208 52.4085 18.6361 51.6566 18.3093C50.9048 17.9824 50.0914 17.8211 49.2717 17.8361H44.668V17.8278Z" fill="white"/>
<path d="M27.5859 42.7746C28.7302 42.6083 29.8562 42.4935 30.9805 42.7513C31.9785 42.9808 32.6304 43.6594 32.7103 44.486C32.8001 45.4241 32.4059 46.0944 31.5976 46.5434L31.3697 46.6648C31.7024 46.8677 32.0533 47.0257 32.3294 47.2719C33.4654 48.2898 33.2259 50.1925 31.8886 50.9309C31.3637 51.2128 30.781 51.3704 30.1855 51.3917C29.625 51.4233 29.0629 51.4249 28.5007 51.4183C28.203 51.4183 27.9036 51.3684 27.5859 51.3401V42.7746ZM28.7136 50.4985C29.4737 50.5933 30.2105 50.6166 30.9257 50.3089C31.5427 50.0411 31.8404 49.5588 31.8421 48.8819C31.8578 48.5765 31.7763 48.274 31.6092 48.0179C31.4422 47.7617 31.1982 47.5652 30.9123 47.4565C30.2071 47.1405 29.4587 47.1904 28.7069 47.2104L28.7136 50.4985ZM28.7269 43.558V46.3388C29.0976 46.3581 29.4692 46.3548 29.8396 46.3289C30.1881 46.2934 30.5291 46.2047 30.8508 46.0661C31.0983 45.9515 31.3022 45.7601 31.4322 45.5204C31.5622 45.2807 31.6115 45.0054 31.5726 44.7355C31.5547 44.474 31.4537 44.225 31.2844 44.0248C31.115 43.8247 30.8862 43.6839 30.6313 43.6228C30.0009 43.4266 29.3639 43.4698 28.7269 43.558Z" fill="white"/>
<path d="M52.1762 45.888C52.1912 45.6768 52.2095 45.4207 52.2295 45.1429H53.1492C53.1492 47.1936 53.1808 49.2344 53.1342 51.2718C53.1126 52.2697 52.765 53.1778 51.7954 53.6552C50.5812 54.2506 49.3421 54.1841 48.1164 53.6452C47.975 53.5837 47.9317 53.5072 47.9899 53.3558C48.0764 53.1346 48.143 52.9067 48.2228 52.6639C48.8118 52.9969 49.4808 53.162 50.1571 53.1412C51.1833 53.1196 51.8486 52.5758 52.0083 51.5579C52.0665 51.182 52.0515 50.7961 52.0731 50.3787C52.0033 50.4136 51.9717 50.4202 51.9584 50.4402C51.165 51.5928 49.1309 51.6992 48.0947 50.4136C47.0153 49.083 47.2082 46.7196 48.5055 45.6086C49.392 44.8518 50.7525 44.7587 51.6041 45.404C51.8004 45.5537 51.9816 45.7234 52.1762 45.888ZM52.0515 48.1433H52.0332C52.0332 47.9554 52.0332 47.7691 52.0332 47.5812C52.0464 47.211 51.9346 46.8472 51.7159 46.5482C51.4972 46.2493 51.1842 46.0327 50.8274 45.9332C50.4706 45.8337 50.0907 45.8572 49.7489 45.9998C49.4071 46.1425 49.1232 46.396 48.943 46.7196C48.6931 47.1429 48.5539 47.6223 48.5382 48.1135C48.5225 48.6048 48.6308 49.0921 48.8532 49.5304C49.1858 50.2223 49.8611 50.5417 50.6394 50.4402C50.9745 50.3836 51.2842 50.2258 51.5268 49.9879C51.7694 49.75 51.9334 49.4435 51.9966 49.1096C52.0368 48.7891 52.0552 48.4663 52.0515 48.1433Z" fill="white"/>
<path d="M55.7452 64.2267L56.0246 63.3785C56.601 63.7063 57.2561 63.8702 57.919 63.8525C58.9419 63.8259 59.5606 63.3252 59.7385 62.3223C59.7923 61.9334 59.8068 61.54 59.7818 61.1481C59.4494 61.5713 58.9862 61.8726 58.4645 62.0047C57.3003 62.2808 56.1577 61.8001 55.6171 60.724C54.9651 59.4184 55.0483 58.1178 55.8683 56.9069C56.1675 56.4754 56.5917 56.1458 57.0837 55.9624C57.5758 55.7789 58.1122 55.7505 58.6209 55.8807C59.1568 56.017 59.6171 56.3596 59.9015 56.8338C59.9298 56.5011 59.9531 56.235 59.978 55.9539H60.9144V57.0084C60.9144 58.5286 60.9144 60.0487 60.8978 61.5706C60.8911 61.9451 60.846 62.3179 60.7631 62.6832C60.6813 63.1481 60.4641 63.5784 60.1386 63.9202C59.8131 64.262 59.3939 64.4999 58.9335 64.6042C58.0119 64.8545 57.0339 64.7996 56.146 64.4479C56.05 64.4086 55.9562 64.3642 55.8649 64.3148C55.823 64.2883 55.783 64.2588 55.7452 64.2267ZM59.8134 58.9261H59.7884V58.3639C59.792 58.0128 59.6844 57.6695 59.4809 57.3833C59.2775 57.097 58.9886 56.8826 58.6558 56.7706C58.299 56.6576 57.9144 56.6705 57.5659 56.807C57.2175 56.9435 56.9265 57.1954 56.7414 57.5207C56.4868 57.9481 56.3476 58.4343 56.3374 58.9317C56.3272 59.4291 56.4464 59.9206 56.6832 60.3581C56.8454 60.6582 57.0976 60.8998 57.4043 61.049C57.711 61.1982 58.0568 61.2474 58.393 61.1897C58.7151 61.1419 59.015 60.9971 59.2528 60.7745C59.4905 60.552 59.6547 60.2622 59.7236 59.9439C59.7752 59.6069 59.8052 59.2669 59.8134 58.9261Z" fill="white"/>
<path d="M69.68 51.3618H68.7087C68.6871 51.0457 68.6655 50.7347 68.6405 50.3638C68.5707 50.4387 68.5358 50.4703 68.5075 50.5069C68.2581 50.839 67.9303 51.104 67.5532 51.2781C67.1762 51.4522 66.7619 51.5299 66.3474 51.5044C65.9329 51.4788 65.5312 51.3507 65.1785 51.1316C64.8257 50.9125 64.5328 50.6093 64.3262 50.2491C63.4946 48.8603 63.7291 46.7331 64.8451 45.6769C65.7333 44.8337 67.2185 44.7306 68.115 45.4507C68.258 45.5671 68.3977 45.6886 68.5274 45.7983V42.2324H69.68V51.3618ZM68.564 48.2333H68.5291C68.5291 47.9838 68.5457 47.7343 68.5291 47.4832C68.5101 47.1216 68.3753 46.7758 68.1447 46.4966C67.9141 46.2175 67.5999 46.0199 67.2484 45.9331C66.8921 45.8391 66.5145 45.868 66.1765 46.0149C65.8386 46.1619 65.56 46.4184 65.3856 46.743C65.1362 47.1796 64.9977 47.6707 64.9823 48.1732C64.967 48.6758 65.0752 49.1744 65.2975 49.6254C65.4454 49.9517 65.6964 50.2205 66.0119 50.3902C66.3275 50.56 66.69 50.6215 67.0439 50.5651C67.3918 50.5212 67.7172 50.3691 67.9741 50.1304C68.231 49.8917 68.4065 49.5783 68.4759 49.2345C68.524 48.9027 68.5534 48.5684 68.564 48.2333Z" fill="white"/>
<path d="M47.4591 62.1078C47.0799 62.1078 46.7389 62.1244 46.3996 62.0978C46.3181 62.0978 46.2133 61.9548 46.1801 61.8583C45.9289 61.1431 45.6811 60.4246 45.4549 59.6961C45.4402 59.6053 45.3901 59.5241 45.3156 59.4701C45.2411 59.4162 45.1482 59.394 45.0574 59.4084C44.2458 59.4234 43.4324 59.4217 42.6208 59.4084C42.5787 59.4005 42.5355 59.4011 42.4936 59.4103C42.4518 59.4194 42.4121 59.4367 42.3771 59.4614C42.3421 59.486 42.3123 59.5174 42.2896 59.5537C42.2669 59.5901 42.2517 59.6305 42.2449 59.6728C42.0171 60.408 41.7609 61.1348 41.5264 61.8666C41.5214 61.9047 41.5087 61.9415 41.489 61.9745C41.4694 62.0075 41.4432 62.0362 41.412 62.0588C41.3809 62.0814 41.3455 62.0974 41.3079 62.1058C41.2704 62.1142 41.2316 62.1149 41.1938 62.1078C40.9044 62.0895 40.615 62.1078 40.2773 62.1078C40.4869 61.4857 40.6848 60.9003 40.8844 60.3148C41.6162 58.1527 42.3514 56.0071 43.0732 53.85C43.1564 53.5971 43.2711 53.4824 43.5339 53.529C43.5754 53.5323 43.6171 53.5323 43.6586 53.529C44.5418 53.529 44.5385 53.529 44.8229 54.3489C45.68 56.867 46.5382 59.384 47.3975 61.8999C47.4142 61.9498 47.4275 61.998 47.4591 62.1078ZM42.5925 58.5053H45.0873L43.83 54.6799C43.4191 55.9556 43.0083 57.2263 42.5925 58.5053Z" fill="white"/>
<path d="M84.246 51.3534H83.125V42.2324H84.231V46.0694C84.3042 45.9913 84.3375 45.963 84.3641 45.9281C84.6371 45.5569 85.0146 45.2755 85.4483 45.12C85.8821 44.9645 86.3523 44.9418 86.799 45.0549C87.2318 45.168 87.6168 45.4169 87.8976 45.7651C88.1785 46.1132 88.3402 46.5423 88.3591 46.9892C88.429 47.859 88.4107 48.7372 88.424 49.6121C88.424 50.1825 88.424 50.7547 88.424 51.3468H87.2597V51.0141C87.2597 49.9098 87.2597 48.8054 87.2597 47.701C87.2587 47.5135 87.2409 47.3265 87.2065 47.1422C87.0901 46.5318 86.7824 46.0744 86.1287 45.963C85.8302 45.8966 85.5184 45.9261 85.2376 46.0473C84.9569 46.1686 84.7216 46.3754 84.5653 46.6383C84.3846 46.9265 84.2809 47.2564 84.2643 47.5963C84.2294 48.7322 84.251 49.8682 84.251 51.0042L84.246 51.3534Z" fill="white"/>
<path d="M62.5607 51.3532H61.5394C61.5078 51.117 61.4746 50.8842 61.438 50.6098C61.3465 50.6946 61.2817 50.7528 61.2201 50.8127C60.9194 51.1214 60.5392 51.341 60.1216 51.4472C59.7039 51.5535 59.265 51.5422 58.8534 51.4148C58.5347 51.3406 58.2462 51.1709 58.0266 50.9284C57.8069 50.6859 57.6666 50.382 57.6243 50.0576C57.5456 49.7088 57.5678 49.3449 57.6883 49.0083C57.8087 48.6716 58.0225 48.3762 58.3045 48.1565C58.885 47.6875 59.5819 47.5229 60.3004 47.4397C60.633 47.4014 60.9656 47.3881 61.2983 47.3648C61.4829 46.4567 60.7893 45.7382 59.8097 45.8314C59.5508 45.8542 59.2946 45.9015 59.0446 45.9727C58.7968 46.0443 58.5623 46.1623 58.2979 46.2688L58.0334 45.5204C59.0962 44.9615 60.1956 44.7453 61.3083 45.226C62.2363 45.6251 62.4509 46.4917 62.4725 47.4064C62.4958 48.4177 62.4725 49.4289 62.4908 50.4384C62.4925 50.7378 62.5357 51.0372 62.5607 51.3532ZM61.3482 48.1931C61.1054 48.1931 60.8792 48.1748 60.6546 48.1931C60.1473 48.2414 59.6417 48.3145 59.2126 48.6256C59.0457 48.7424 58.914 48.9029 58.8319 49.0894C58.7498 49.2759 58.7204 49.4813 58.7469 49.6834C58.7497 49.8772 58.8113 50.0656 58.9236 50.2236C59.0359 50.3816 59.1935 50.5018 59.3756 50.5682C60.1806 50.8742 61.2417 50.2655 61.3399 49.4039C61.3648 49.0008 61.3676 48.5966 61.3482 48.1931Z" fill="white"/>
<path d="M38.8976 51.3535H37.9645C37.9279 51.1173 37.893 50.8778 37.8481 50.5867C37.4701 51.0576 36.933 51.3741 36.3379 51.4765C34.9824 51.721 33.9395 50.8512 34.0244 49.5073C34.0826 48.6009 34.6298 48.0187 35.4497 47.7576C36.0751 47.5564 36.7454 47.4982 37.399 47.3834C37.5097 47.3741 37.621 47.3741 37.7316 47.3834C37.8597 46.3971 37.1978 45.7202 36.2198 45.8383C35.7046 45.9296 35.1949 46.0496 34.693 46.1975C34.6314 46.0196 34.5483 45.7784 34.4551 45.5123C35.5046 44.9584 36.5774 44.7589 37.6834 45.1963C38.5599 45.5439 38.821 46.3339 38.8826 47.1921C38.9192 47.711 38.8976 48.2333 38.8992 48.7539C38.8976 49.6154 38.8976 50.467 38.8976 51.3535ZM37.7749 48.1318C37.2477 48.2034 36.752 48.2416 36.278 48.3464C36.0162 48.4093 35.7722 48.531 35.5645 48.7023C34.9192 49.2246 35.0655 50.3007 35.809 50.5767C36.6605 50.8961 37.7233 50.2208 37.7782 49.3144C37.7965 48.9568 37.7766 48.5925 37.7766 48.1352L37.7749 48.1318Z" fill="white"/>
<path d="M76.6244 48.4493H72.2518C72.2183 48.6958 72.2342 48.9465 72.2985 49.1867C72.3628 49.427 72.4743 49.6521 72.6264 49.8488C72.7786 50.0456 72.9684 50.2101 73.1848 50.3327C73.4012 50.4554 73.6398 50.5338 73.8868 50.5633C74.6198 50.663 75.3662 50.5654 76.0489 50.2805C76.1188 50.5566 76.1853 50.8194 76.2618 51.1254C74.9629 51.5462 73.6905 51.7575 72.4464 51.0523C71.4202 50.4685 70.913 49.1229 71.1325 47.7408C71.2789 46.8244 71.6215 46.0161 72.4098 45.4689C74.1047 44.2897 76.2236 45.1878 76.5446 47.2202C76.6061 47.6144 76.5995 48.0269 76.6244 48.4493ZM75.4851 47.6177C75.5084 46.4851 74.878 45.7882 73.8668 45.8148C73.0053 45.8331 72.1953 46.7362 72.2585 47.6177H75.4851Z" fill="white"/>
<path d="M67.1811 61.0295C67.251 61.3239 67.3108 61.5733 67.379 61.8611C66.1117 62.2769 64.8659 62.4765 63.6518 61.8012C62.7537 61.3022 62.3794 60.4474 62.3079 59.4727C62.2314 58.4099 62.436 57.4087 63.2144 56.617C63.9927 55.8253 64.9624 55.6357 66.0069 55.9367C67.0181 56.2278 67.4639 57.0228 67.6551 57.9858C67.6974 58.3051 67.7196 58.6267 67.7217 58.9488C67.7383 59.18 67.6352 59.2449 67.4073 59.2415C66.1882 59.2315 64.969 59.2415 63.7483 59.2415H63.4156C63.3867 59.4936 63.409 59.7488 63.4813 59.992C63.5536 60.2352 63.6743 60.4612 63.8362 60.6565C63.9981 60.8518 64.1979 61.0123 64.4234 61.1285C64.6489 61.2446 64.8957 61.3139 65.1487 61.3322C65.8406 61.396 66.5378 61.2922 67.1811 61.0295ZM66.5957 58.39C66.6855 57.432 66.0967 56.6819 65.2285 56.632C64.2589 56.5754 63.4489 57.3588 63.4306 58.39H66.5957Z" fill="white"/>
<path d="M48.6211 55.9518H49.5675C49.5907 56.2561 49.614 56.5522 49.639 56.8865C49.6755 56.858 49.71 56.8268 49.7421 56.7934C50.0201 56.3991 50.4132 56.1004 50.8675 55.9381C51.3219 55.7758 51.8153 55.758 52.2801 55.8869C53.16 56.1264 53.777 56.8765 53.8253 57.9343C53.8818 59.2965 53.8485 60.6636 53.8519 62.0275C53.8519 62.0458 53.8352 62.0641 53.8219 62.0923H52.7192C52.7192 61.4021 52.7192 60.7268 52.7192 60.0532C52.7393 59.377 52.7226 58.7002 52.6693 58.0258C52.5596 57.1327 52.0473 56.7268 51.2273 56.7568C50.8546 56.7801 50.5029 56.9374 50.237 57.1997C49.9711 57.4619 49.8089 57.8114 49.7803 58.1838C49.7371 58.9738 49.7604 59.7672 49.7554 60.5572C49.7554 61.0562 49.7554 61.5551 49.7554 62.0824H48.6228L48.6211 55.9518Z" fill="white"/>
<path d="M41.8485 51.3534H40.6992V45.1446H41.6755L41.7404 46.0727C41.8872 45.8972 42.0444 45.7306 42.2111 45.5737C42.5416 45.2735 42.952 45.0754 43.3926 45.0034C43.8333 44.9314 44.2854 44.9885 44.6942 45.1679C45.6323 45.5488 45.9766 46.3687 46.0065 47.2985C46.0514 48.6423 46.0181 49.9862 46.0181 51.3534H44.8672V51.0207C44.8672 49.9263 44.8672 48.8319 44.8672 47.7376C44.8702 47.5397 44.8546 47.342 44.8206 47.1471C44.6693 46.4037 44.2319 45.9829 43.5832 45.9446C43.2375 45.9175 42.8926 46.0056 42.6023 46.1952C42.3119 46.3847 42.0925 46.6651 41.9782 46.9924C41.8974 47.2389 41.8558 47.4965 41.8551 47.7558C41.8418 48.8403 41.8551 49.918 41.8551 51.0074L41.8485 51.3534Z" fill="white"/>
<path d="M77.5664 51.0406L77.8259 50.234C78.1726 50.376 78.5295 50.4917 78.8936 50.5799C79.2209 50.6273 79.5538 50.6189 79.8783 50.555C80.0503 50.5267 80.2082 50.4421 80.3271 50.3145C80.4459 50.1869 80.5191 50.0234 80.5352 49.8498C80.5708 49.6789 80.5517 49.5012 80.4806 49.3418C80.4096 49.1824 80.2902 49.0494 80.1394 48.9616C79.8849 48.8053 79.5988 48.7005 79.3311 48.5641C78.9993 48.4183 78.6809 48.2435 78.3797 48.0419C78.1731 47.8859 78.0069 47.6828 77.8949 47.4495C77.7829 47.2162 77.7283 46.9594 77.7358 46.7007C77.7433 46.442 77.8126 46.1888 77.9379 45.9624C78.0633 45.7359 78.241 45.5428 78.4562 45.399C79.2196 44.8518 80.6184 44.8385 81.4334 45.3857C81.3452 45.6435 81.2571 45.9063 81.1772 46.1392C80.8022 46.0213 80.4192 45.9302 80.0313 45.8664C79.7637 45.8434 79.4948 45.8928 79.2529 46.0094C79.1347 46.0662 79.0336 46.1531 78.9597 46.2615C78.8859 46.3698 78.8419 46.4957 78.8323 46.6265C78.8227 46.7572 78.8477 46.8882 78.9049 47.0062C78.9621 47.1242 79.0495 47.225 79.1581 47.2984C79.4053 47.4501 79.6639 47.5824 79.9315 47.6943C80.2836 47.8464 80.6244 48.0237 80.951 48.2248C81.1699 48.3849 81.3484 48.5937 81.4726 48.8348C81.5967 49.0758 81.6631 49.3425 81.6663 49.6136C81.6695 49.8847 81.6096 50.1529 81.4912 50.3968C81.3728 50.6408 81.1993 50.8538 80.9843 51.019C80.1593 51.6411 78.418 51.6593 77.5664 51.0406Z" fill="white"/>
<path d="M71.6445 61.8215L71.9339 60.9466C72.4218 61.241 72.9825 61.3926 73.5522 61.384C74.0662 61.3574 74.4404 61.1113 74.5502 60.7287C74.6118 60.5605 74.616 60.3766 74.5621 60.2057C74.5083 60.0348 74.3994 59.8866 74.2524 59.784C73.997 59.6268 73.7308 59.4878 73.4558 59.3682C73.1963 59.2385 72.9185 59.137 72.6741 58.9857C72.1352 58.653 71.7876 58.189 71.8308 57.5254C71.8416 57.1893 71.9532 56.8642 72.151 56.5922C72.3488 56.3203 72.6237 56.114 72.9402 56.0002C73.3507 55.8452 73.7904 55.783 74.2278 55.8181C74.6652 55.8532 75.0894 55.9847 75.4699 56.2031L75.2138 56.9533C74.8489 56.8407 74.4773 56.7512 74.1011 56.6855C73.8435 56.6607 73.5839 56.7031 73.3477 56.8086C73.2269 56.86 73.1222 56.9429 73.0445 57.0487C72.9669 57.1545 72.9191 57.2792 72.9061 57.4098C72.8932 57.5404 72.9156 57.6721 72.9711 57.791C73.0265 57.91 73.1129 58.0118 73.2213 58.0859C73.4859 58.2502 73.7641 58.3915 74.0529 58.5083C74.314 58.6381 74.5867 58.7429 74.8362 58.8925C75.1356 59.0564 75.3764 59.3094 75.5255 59.6164C75.6745 59.9233 75.7242 60.2691 75.6678 60.6057C75.6421 60.9252 75.5222 61.2299 75.3233 61.4813C75.1243 61.7327 74.8553 61.9193 74.5502 62.0177C73.5772 62.382 72.6192 62.2722 71.6445 61.8215Z" fill="white"/>
<path d="M55.0664 42.2224H56.1691V51.3534H55.0664V42.2224Z" fill="white"/>
<path d="M69.1172 53.0933H70.2166V62.0862H69.1172V53.0933Z" fill="white"/>
</g>
<defs>
<clipPath id="clip0_323_5494">
<rect width="60.84" height="57.6467" fill="white" transform="translate(27.5898 7.1123)"/>
</clipPath>
</defs>
</svg>
