<svg width="116" height="72" viewBox="0 0 116 72" fill="none" xmlns="http://www.w3.org/2000/svg">
<path d="M69.7852 18.2468H70.6717C73.463 18.2468 76.2571 18.2468 79.0512 18.2468C81.1753 18.2157 83.2839 18.6124 85.2515 19.4133C87.8452 20.492 89.8927 22.2074 91.2376 24.7023C91.948 26.0474 92.3916 27.5172 92.5441 29.0307C92.7559 30.7463 92.6376 32.4866 92.1955 34.1578C91.8155 35.6333 91.1373 37.0153 90.2026 38.2185C89.268 39.4218 88.0967 40.4208 86.7611 41.154C84.9784 42.1669 82.9985 42.7838 80.956 42.9627C80.2479 43.0286 79.5343 43.067 78.8262 43.0725C76.0513 43.0725 73.2764 43.0725 70.5015 43.0725H69.8373C69.8208 42.7706 69.7934 42.5236 69.7934 42.2491C69.7934 35.6619 69.7934 29.0819 69.7934 22.5093V18.2468H69.7852ZM75.3349 18.8177V42.422C75.5298 42.422 75.6945 42.4495 75.8592 42.4495C76.6277 42.4495 77.3962 42.4495 78.1647 42.4495C79.8449 42.4562 81.4796 41.9039 82.8114 40.8795C84.1914 39.795 85.2331 38.3391 85.8141 36.6829C87.0081 33.4469 87.1288 30.1341 86.4482 26.7773C86.1592 25.2238 85.5548 23.746 84.6723 22.4352C83.3412 20.5139 81.5763 19.2157 79.2077 18.9577C77.9479 18.8122 76.6688 18.8561 75.3349 18.8177Z" fill="white"/>
<path d="M46.1225 40.1274C45.3092 40.8233 44.3936 41.3899 43.408 41.8072C40.7673 43.0096 37.8728 43.5486 34.9763 43.3771C31.7979 43.185 28.9737 42.1118 26.712 39.809C24.9646 37.9998 23.8388 35.681 23.498 33.1889C23.3307 32.2092 23.2617 31.2152 23.2922 30.2218C23.4074 27.3646 24.1156 24.705 25.9243 22.4214C27.5373 20.3294 29.8388 18.8758 32.421 18.3181C36.2201 17.3997 40.2264 17.963 43.6248 19.8936C44.0267 20.1345 44.4143 20.3985 44.7858 20.6841C45.0109 20.846 45.214 21.0409 45.4528 21.233L45.1783 21.6008C44.676 21.2769 44.2204 20.9475 43.7346 20.6703C41.9261 19.617 39.8688 19.0664 37.7759 19.0757C36.6175 19.0689 35.4729 19.3267 34.4293 19.8295C33.3857 20.3323 32.4707 21.0667 31.754 21.9768C30.6281 23.3693 29.866 25.0199 29.5363 26.78C28.8795 29.7234 28.9882 32.7861 29.852 35.6755C30.4146 37.5227 31.3506 39.1531 32.8711 40.3992C34.0308 41.3642 35.4458 41.9716 36.9442 42.1475C38.0825 42.2624 39.2316 42.206 40.3531 41.9801C40.4768 41.9457 40.5979 41.9026 40.7154 41.8511V29.9748C41.1491 29.8294 45.3595 29.7909 46.0731 29.909C46.1884 30.3207 46.2432 38.6837 46.1225 40.1274Z" fill="white"/>
<path d="M48.8633 39.6333C48.9319 39.54 48.9813 39.4604 49.0417 39.3918C49.0985 39.334 49.1591 39.2799 49.2228 39.2299C49.3134 39.315 49.3985 39.3836 49.4726 39.4632C50.9394 41.0228 52.9218 41.9979 55.0526 42.2079C55.9516 42.3156 56.8633 42.1958 57.7039 41.8593C59.2602 41.2308 60.1055 40.045 60.2839 38.3982C60.3755 37.6689 60.2934 36.9283 60.0444 36.2367C59.7955 35.5451 59.3866 34.9221 58.8512 34.4184C58.0688 33.6888 57.2017 33.0558 56.2684 32.5328C55.3243 31.9564 54.3774 31.3856 53.4469 30.7872C52.7179 30.3233 52.059 29.7577 51.4899 29.1075C50.5777 27.9943 50.0253 26.6301 49.9062 25.1958C49.7871 23.7615 50.1068 22.3249 50.823 21.0765C51.2787 20.3272 51.8868 19.6819 52.6079 19.1826C53.3289 18.6833 54.1469 18.3411 55.0086 18.1781C58.3023 17.4837 61.3379 18.0875 64.0661 20.0994C64.2884 20.2641 64.4833 20.4672 64.7111 20.6675C64.6123 20.8158 64.53 20.942 64.4366 21.0793L63.9646 20.7389C62.4358 19.6712 60.7697 19.0043 58.8732 19.0921C56.886 19.1882 55.6125 20.4397 55.3407 22.1113C55.069 23.7828 55.6289 25.2347 56.9052 26.3326C57.5857 26.8921 58.3027 27.4056 59.0516 27.8696C59.8036 28.3637 60.5941 28.7973 61.3571 29.2721C62.4249 29.9031 63.3833 30.7031 64.1951 31.6408C65.1627 32.805 65.7057 34.2636 65.7349 35.7771C65.8023 36.942 65.5965 38.1065 65.1338 39.1777C64.3653 40.9014 63.0204 42.013 61.305 42.7101C59.7785 43.3064 58.1324 43.5321 56.5017 43.3689C54.3748 43.2157 52.3321 42.4755 50.6007 41.2308C49.9549 40.7757 49.3709 40.2387 48.8633 39.6333Z" fill="white"/>
<path d="M81.0018 51.6249C81.0276 50.9345 81.321 50.2813 81.8198 49.8035C82.3187 49.3256 82.9839 49.0606 83.6747 49.0645C84.3655 49.0684 85.0277 49.341 85.5211 49.8245C86.0145 50.308 86.3004 50.9645 86.3183 51.6551C86.3276 52.0113 86.2651 52.3657 86.1347 52.6974C86.0043 53.029 85.8086 53.331 85.5592 53.5855C85.3098 53.84 85.0118 54.0418 84.6829 54.1789C84.3539 54.316 84.0008 54.3856 83.6445 54.3836C83.2882 54.3816 82.9359 54.308 82.6085 54.1672C82.2812 54.0263 81.9855 53.8212 81.739 53.5638C81.4925 53.3065 81.3002 53.0023 81.1736 52.6692C81.047 52.3361 80.9886 51.981 81.0018 51.6249ZM83.6532 49.7036C82.5938 49.7036 81.839 50.4996 81.8335 51.6249C81.828 52.7502 82.5773 53.5956 83.6258 53.5818C84.6742 53.5681 85.4702 52.9176 85.4784 51.6221C85.4867 50.3266 84.5507 49.6762 83.656 49.7063L83.6532 49.7036Z" fill="white"/>
<path d="M35.6784 49.1521L38.1816 52.9562C38.2314 52.3308 38.2452 51.7031 38.2228 51.0761C38.2228 50.4586 38.2228 49.8438 38.2228 49.1823H38.8815C38.9968 49.6324 39.0078 53.5875 38.8815 54.1529H38.0306C37.2072 52.8931 36.3838 51.6223 35.5604 50.3104C35.415 50.5848 35.5028 50.8319 35.4863 51.0706C35.4698 51.3094 35.4863 51.5592 35.4863 51.8007V54.1365H34.7617V49.1521H35.6784Z" fill="white"/>
<path d="M73.7227 54.0787V49.1931C73.8445 49.1578 73.9695 49.1348 74.0959 49.1245C74.767 49.1072 75.4385 49.1384 76.105 49.2178C77.3896 49.4484 78.0867 50.3569 78.1334 51.5975C78.1479 52.1817 77.9548 52.7521 77.5885 53.2074C77.2221 53.6626 76.7063 53.9733 76.1325 54.0842C75.3347 54.2184 74.5199 54.2165 73.7227 54.0787ZM74.5241 53.4501C75.1256 53.5578 75.7452 53.4961 76.3136 53.2717C76.609 53.1461 76.8604 52.9355 77.0358 52.6667C77.2112 52.3979 77.3028 52.0831 77.299 51.7622C77.3347 51.0266 77.0959 50.42 76.4262 50.0659C75.8323 49.7885 75.1623 49.7189 74.5241 49.8683V53.4501Z" fill="white"/>
<path d="M51.8701 51.9324L53.1491 54.0349C52.8746 54.2599 52.6001 54.1694 52.2927 54.1364L51.0521 52.001H50.3852V54.1309H49.688C49.5755 53.6616 49.57 49.6955 49.688 49.1411C50.4346 49.1411 51.1976 49.034 51.9524 49.2179C52.231 49.2682 52.4852 49.409 52.6758 49.6184C52.8663 49.8277 52.9825 50.0941 53.0064 50.3762C53.0484 50.6687 52.9898 50.9668 52.8402 51.2216C52.6906 51.4764 52.4588 51.6729 52.183 51.7787C52.1088 51.8254 52.01 51.8583 51.8701 51.9324ZM50.3962 51.356C50.8463 51.3149 51.2607 51.3094 51.6587 51.2325C51.7523 51.2219 51.8425 51.1909 51.9229 51.1418C52.0033 51.0927 52.0721 51.0267 52.1243 50.9483C52.1766 50.8699 52.2111 50.781 52.2255 50.6879C52.2399 50.5948 52.2338 50.4996 52.2077 50.4091C52.1793 50.251 52.0949 50.1084 51.9698 50.0075C51.8448 49.9067 51.6875 49.8544 51.527 49.8602C51.1619 49.8245 50.7887 49.8602 50.3989 49.8602L50.3962 51.356Z" fill="white"/>
<path d="M57.1714 51.8718H54.8713C54.8129 52.3994 54.8001 52.9311 54.8329 53.461H57.3553V54.1471C56.2574 54.213 55.187 54.1746 54.1358 54.1718C53.9903 53.6229 53.9875 49.6623 54.1193 49.1545H57.1906C57.3498 49.3302 57.3114 49.5251 57.229 49.7886C56.466 49.8462 55.6838 49.7886 54.8823 49.8242C54.8029 50.284 54.7936 50.7532 54.8549 51.2158H57.122L57.1714 51.8718Z" fill="white"/>
<path d="M68.6006 49.1465H69.2648C69.2813 49.3276 69.3087 49.4896 69.3115 49.6515C69.3115 50.4392 69.3115 51.227 69.3115 52.0147C69.3073 52.1979 69.3137 52.3812 69.3307 52.5636C69.3448 52.8393 69.4649 53.0989 69.6659 53.2881C69.8669 53.4774 70.1333 53.5816 70.4093 53.5792C70.6833 53.6089 70.9585 53.5346 71.1802 53.3708C71.4019 53.2071 71.5539 52.966 71.606 52.6954C71.644 52.515 71.6606 52.3307 71.6554 52.1464C71.6554 51.3395 71.6554 50.5326 71.6554 49.7284C71.6554 49.5472 71.6746 49.3633 71.6856 49.152H72.3526C72.391 49.2151 72.4267 49.2453 72.4267 49.2782C72.4267 50.3267 72.498 51.3779 72.4267 52.4209C72.3334 53.8262 71.1531 54.6167 69.8439 54.2104C69.4709 54.1038 69.1415 53.8811 68.9036 53.5746C68.6658 53.2681 68.5317 52.8938 68.521 52.506C68.4826 51.4383 68.521 50.3706 68.521 49.3029C68.532 49.2727 68.5594 49.2398 68.6006 49.1465Z" fill="white"/>
<path d="M30.4254 49.1492H33.5159L33.5571 49.775C32.7337 49.86 31.9295 49.775 31.1116 49.8353V51.2077H33.3787L33.4309 51.8033C32.6623 51.935 31.913 51.8033 31.1335 51.8966C31.0724 52.4139 31.0586 52.9358 31.0924 53.4556H33.6093V54.1418C32.5388 54.2104 31.4821 54.1692 30.4419 54.1637C30.3211 53.6834 30.3074 49.731 30.4254 49.1492Z" fill="white"/>
<path d="M44.4927 49.1492H45.0993C45.1158 49.3331 45.146 49.495 45.1487 49.6542C45.1487 50.4035 45.1487 51.1555 45.1487 51.9048C45.1521 52.1816 45.1825 52.4574 45.2393 52.7282C45.2812 52.9826 45.4175 53.2118 45.6211 53.3701C45.8246 53.5283 46.0803 53.6039 46.3372 53.5818C46.592 53.6055 46.8466 53.5347 47.0525 53.3829C47.2585 53.2311 47.4015 53.0088 47.4543 52.7584C47.5145 52.5039 47.5449 52.2432 47.5448 51.9817C47.5448 51.2296 47.5448 50.4803 47.5448 49.731C47.5448 49.5499 47.564 49.3687 47.575 49.1519H48.231C48.2602 49.2644 48.2795 49.3792 48.2886 49.495C48.2886 50.4502 48.3134 51.4163 48.2886 52.3632C48.2743 52.7163 48.1855 53.0624 48.0279 53.3787C47.6574 54.1006 46.7653 54.4382 45.8953 54.2515C45.5006 54.1841 45.1407 53.9842 44.8748 53.6849C44.6089 53.3856 44.4528 53.0046 44.4324 52.6047C44.3912 51.5069 44.4324 50.3925 44.4324 49.2891C44.4324 49.2727 44.4598 49.2397 44.4927 49.1492Z" fill="white"/>
<path d="M60.0078 53.5049L60.5568 53.0465C60.6995 53.1673 60.8065 53.2661 60.9245 53.3539C61.0838 53.471 61.268 53.5498 61.4627 53.5841C61.6574 53.6183 61.8574 53.6072 62.0471 53.5515C62.2045 53.5159 62.3461 53.4303 62.4509 53.3077C62.5558 53.1851 62.6182 53.0318 62.629 52.8709C62.6487 52.72 62.6169 52.5669 62.5387 52.4363C62.4604 52.3058 62.3404 52.2055 62.1981 52.1518C61.962 52.042 61.7068 51.9734 61.4625 51.8773C61.2326 51.7997 61.0103 51.7014 60.7983 51.5836C60.6207 51.4697 60.4725 51.3155 60.3655 51.1337C60.2585 50.9519 60.1958 50.7475 60.1825 50.5369C60.1691 50.3264 60.2055 50.1157 60.2886 49.9218C60.3718 49.7279 60.4993 49.5563 60.661 49.4208C61.053 49.1204 61.5411 48.9734 62.0338 49.0072C62.5265 49.0411 62.9899 49.2535 63.3371 49.6047C63.2759 49.6889 63.21 49.7696 63.1395 49.8462C63.0654 49.9258 62.9776 49.9972 62.865 50.0932C62.7067 49.9335 62.5125 49.8141 62.2986 49.7448C62.0847 49.6756 61.8573 49.6586 61.6354 49.6953C61.5421 49.7035 61.4512 49.7301 61.3682 49.7735C61.2851 49.8169 61.2114 49.8762 61.1512 49.9481C61.0911 50.02 61.0457 50.103 61.0176 50.1924C60.9895 50.2818 60.9794 50.3759 60.9877 50.4693C60.9838 50.5733 61.0097 50.6763 61.0622 50.7662C61.1147 50.8561 61.1916 50.9292 61.2841 50.977C61.4153 51.0476 61.5521 51.1073 61.6931 51.1554C61.9675 51.2625 62.2612 51.3448 62.5357 51.4628C62.795 51.5513 63.0192 51.7206 63.1753 51.9459C63.3314 52.1711 63.4112 52.4405 63.403 52.7144C63.4227 53.0066 63.3511 53.2977 63.1982 53.5475C63.0453 53.7973 62.8186 53.9934 62.5494 54.1087C62.1179 54.2994 61.6359 54.3436 61.177 54.2345C60.718 54.1255 60.3074 53.8692 60.0078 53.5049Z" fill="white"/>
<path d="M87.0156 53.5049L87.5646 53.0465C87.7073 53.1673 87.8171 53.2689 87.9351 53.3539C88.0938 53.4712 88.2775 53.5501 88.4718 53.5844C88.6661 53.6186 88.8657 53.6074 89.0549 53.5516C89.2127 53.5167 89.3548 53.4314 89.4598 53.3086C89.5648 53.1858 89.6269 53.0321 89.6368 52.8709C89.657 52.7199 89.6254 52.5666 89.5471 52.436C89.4688 52.3053 89.3485 52.2051 89.2059 52.1518C88.9671 52.042 88.7146 51.9734 88.4703 51.8773C88.2405 51.7997 88.0181 51.7014 87.8061 51.5836C87.6285 51.4694 87.4803 51.315 87.3733 51.1329C87.2664 50.9509 87.2037 50.7462 87.1903 50.5355C87.177 50.3248 87.2133 50.1139 87.2964 49.9198C87.3796 49.7257 87.5071 49.5538 87.6689 49.4181C88.0635 49.1169 88.5548 48.9708 89.0499 49.0072C89.5449 49.0436 90.0095 49.2601 90.3559 49.6157L89.8234 50.0466C89.6691 49.8997 89.4823 49.7913 89.2781 49.7302C89.074 49.6692 88.8583 49.6572 88.6487 49.6953C88.4599 49.7127 88.2858 49.8042 88.1644 49.9498C88.0429 50.0954 87.9842 50.2832 88.001 50.472C87.9994 50.5756 88.0261 50.6777 88.0784 50.7672C88.1306 50.8567 88.2064 50.9302 88.2974 50.9798C88.4301 51.0493 88.5677 51.1089 88.7091 51.1582C88.9836 51.2625 89.2772 51.3448 89.5517 51.4629C89.8108 51.5523 90.0345 51.7223 90.19 51.948C90.3456 52.1737 90.4249 52.4432 90.4163 52.7172C90.4356 53.0093 90.3635 53.3002 90.2101 53.5495C90.0566 53.7989 89.8294 53.9943 89.5599 54.1087C89.1282 54.3001 88.6456 54.3446 88.186 54.2356C87.7265 54.1265 87.3154 53.8699 87.0156 53.5049Z" fill="white"/>
<path d="M27.6757 54.1474H27.0114L25.1094 49.2454C25.4442 49.1109 25.4442 49.1109 25.9328 49.1795C26.3939 50.4256 26.866 51.7019 27.3847 53.099C27.898 51.7129 28.3756 50.4339 28.8531 49.1521H29.5228C29.5427 49.1756 29.561 49.2004 29.5777 49.2262C29.5878 49.2418 29.5934 49.2598 29.5942 49.2784L27.8348 53.8318C27.7937 53.9333 27.736 54.0294 27.6757 54.1474Z" fill="white"/>
<path d="M42.1058 54.1416H41.3181V49.8407H39.7701L39.7344 49.2149C40.201 49.0997 42.9813 49.0804 43.6346 49.1847L43.6757 49.7721L42.1058 49.8435V54.1416Z" fill="white"/>
<path d="M65.4631 54.0811C65.4631 53.3895 65.4631 52.6841 65.4631 51.9759C65.4631 51.2678 65.4631 50.6036 65.4631 49.8323H63.9453V49.1269C65.2051 49.1132 66.4512 49.1269 67.744 49.1269C67.7604 49.3575 67.7714 49.5359 67.7879 49.7774L66.2124 49.8488V54.0537C66.1045 54.1325 65.9755 54.1772 65.842 54.1821C65.7084 54.187 65.5765 54.1518 65.4631 54.0811Z" fill="white"/>
<path d="M79.2835 49.1521H79.9066C80.0356 49.6269 80.0383 53.593 79.9066 54.1337H79.2918C79.1792 53.6699 79.171 49.7175 79.2835 49.1521Z" fill="white"/>
</svg>
