<svg width="116" height="72" viewBox="0 0 116 72" fill="none" xmlns="http://www.w3.org/2000/svg">
<path d="M17.8477 50.8028C17.8601 50.5944 17.8835 50.3888 17.8835 50.1762C17.8835 40.9105 17.8835 31.6444 17.8835 22.3778V21.7139H46.9712V22.3281C46.9712 31.6113 46.9712 40.894 46.9712 50.1762C46.9712 50.3846 46.9946 50.5903 47.007 50.8028H17.8477ZM33.2068 45.0855C33.2164 44.9643 33.2164 44.8424 33.2068 44.7211C32.941 43.3256 32.6683 41.9329 32.4012 40.5387C31.9651 38.2557 31.5299 35.9726 31.0956 33.6896C30.7156 31.7088 30.3203 29.7308 29.9526 27.7473C29.8975 27.4533 29.7598 27.3691 29.5009 27.3704C28.7683 27.3732 28.0384 27.3732 27.3113 27.3732C27.0359 27.3732 26.9092 27.4905 26.8582 27.7625C26.4767 29.7874 26.0843 31.8151 25.6973 33.8428C25.0923 36.9964 24.4891 40.1504 23.8877 43.3049C23.779 43.8695 23.6826 44.4368 23.5669 45.08C24.1962 45.08 24.7567 45.0938 25.3172 45.0662C25.4026 45.0662 25.5196 44.8799 25.5527 44.7625C25.6395 44.4354 25.6904 44.0986 25.7551 43.7659L26.182 41.5574C26.2425 41.5361 26.3047 41.5204 26.368 41.5105C27.6308 41.5105 28.8936 41.5105 30.1578 41.5008C30.4332 41.5008 30.5131 41.6154 30.5586 41.8666C30.7348 42.8328 30.9373 43.7991 31.1204 44.7653C31.1549 44.9447 31.2044 45.0814 31.411 45.0814C31.9894 45.0869 32.5678 45.0855 33.2068 45.0855ZM31.546 27.3829C31.5365 27.4986 31.5365 27.615 31.546 27.7307C31.8214 29.1566 32.0968 30.5825 32.3612 32.0097C32.8258 34.4667 33.2889 36.9246 33.7507 39.3834C34.0813 41.1438 34.4086 42.9042 34.7326 44.6645C34.7877 44.9627 34.9144 45.109 35.2449 45.0993C35.9569 45.0786 36.6703 45.0828 37.3822 45.0993C37.6948 45.0993 37.845 45.0027 37.9028 44.6783C38.2457 42.7901 38.6079 40.9045 38.9604 39.019C39.5746 35.7642 40.1833 32.5122 40.7865 29.2629C40.898 28.6652 40.9986 28.0634 41.1211 27.3732C40.5579 27.3732 40.0621 27.3801 39.5664 27.3732C39.2648 27.3732 39.1532 27.503 39.0968 27.797C38.8434 29.2601 38.5721 30.7191 38.3008 32.1781C37.7894 34.9388 37.2767 37.6994 36.7625 40.4601C36.662 40.997 36.5505 41.5312 36.443 42.0668C36.0795 40.5677 35.8027 39.077 35.5245 37.5876C35.0517 35.0662 34.5798 32.5448 34.1088 30.0234C33.9711 29.2946 33.8471 28.563 33.6957 27.8356C33.6599 27.6603 33.6626 27.4022 33.3996 27.3953C32.7964 27.3732 32.1863 27.3829 31.546 27.3829Z" fill="white"/>
<path d="M63.3984 37.1609C63.8185 37.1609 64.2041 37.1609 64.5897 37.1609C64.8293 37.1609 64.8651 37.3141 64.9271 37.4935C65.3664 38.8739 65.8139 40.2639 66.2587 41.6483C66.4818 42.3385 66.7022 43.0287 66.9253 43.7188C66.9652 43.8632 67.0489 43.9915 67.1649 44.086V37.1844H68.1592V47.2966H66.979L64.5001 39.4591H64.4285V47.2925H63.4012L63.3984 37.1609Z" fill="white"/>
<path d="M68.4888 34.827C68.2024 34.8398 67.9155 34.8356 67.6295 34.8145C67.566 34.7953 67.5079 34.7613 67.46 34.7152C67.4121 34.6691 67.3758 34.6123 67.3541 34.5495C67.2918 34.282 67.259 34.0084 67.2563 33.7337C67.2425 33.1195 67.2632 32.5039 67.2467 31.8896C67.2191 30.8985 66.7826 30.4789 65.8007 30.472C65.5459 30.472 65.2911 30.472 64.9909 30.472V34.8021H63.8672V24.6194C64.8876 24.6415 65.9026 24.5242 66.9065 24.7105C67.6653 24.8486 68.179 25.34 68.2754 26.1005C68.3599 26.8534 68.3783 27.6123 68.3305 28.3684C68.296 29.0448 67.9173 29.5472 67.2935 29.8357C67.3031 29.8716 67.3031 29.9144 67.321 29.9227C68.1143 30.3202 68.38 31.009 68.3897 31.8413C68.3897 32.2775 68.3897 32.7151 68.4021 33.1512C68.4241 33.6965 68.4585 34.2403 68.4888 34.827ZM65.0116 29.4161C65.4247 29.4161 65.7731 29.4368 66.1257 29.4161C66.7605 29.3733 67.1695 29.0392 67.2164 28.4498C67.2632 27.8388 67.2632 27.2251 67.2164 26.614C67.1737 26.0426 66.8445 25.7334 66.2799 25.6823C65.8668 25.645 65.4536 25.6754 65.0102 25.6754L65.0116 29.4161Z" fill="white"/>
<path d="M86.1871 47.3136C86.1266 47.3136 86.0646 47.333 86.0012 47.3343C85.0372 47.3702 84.9753 47.3247 84.9491 46.3364C84.9312 45.7056 84.9491 45.072 84.9422 44.4412C84.9271 43.446 84.5167 43.0346 83.5169 43.0029C83.2607 42.9946 83.0032 43.0029 82.6906 43.0029V47.3081H81.5586V37.2096C82.5667 37.2096 83.5554 37.1434 84.5305 37.2317C84.9021 37.2512 85.2541 37.4052 85.5211 37.6652C85.788 37.9251 85.9518 38.2734 85.982 38.6452C86.0648 39.3996 86.0809 40.1599 86.0302 40.9172C85.993 41.5922 85.617 42.096 84.9353 42.3886C85.0538 42.4645 85.1391 42.5267 85.2287 42.5791C85.8153 42.9297 86.0425 43.4874 86.0784 44.1292C86.11 44.7117 86.0784 45.2956 86.1004 45.8781C86.1114 46.3446 86.1555 46.8098 86.1871 47.3136ZM82.7002 42.0049C83.2084 41.9649 83.6642 41.9566 84.1049 41.8889C84.3266 41.863 84.5311 41.7565 84.6798 41.5897C84.8285 41.4228 84.9111 41.2072 84.9119 40.9835C84.9532 40.3699 84.9532 39.7543 84.9119 39.1407C84.8844 38.7128 84.6599 38.3401 84.1986 38.267C83.7138 38.1897 83.2167 38.1911 82.703 38.1552L82.7002 42.0049Z" fill="white"/>
<path d="M52.8285 24.6348H54.481C55.1269 28.0014 55.7742 31.3749 56.4297 34.794H55.3073C55.1696 34.1369 55.0319 33.473 54.8942 32.787H52.3451C52.212 33.4431 52.0743 34.1171 51.932 34.8091H50.8867L52.8285 24.6348ZM54.7303 31.7531C54.3612 29.8662 54.0018 28.0359 53.6437 26.2056L53.5391 26.2125C53.1907 28.0511 52.8422 29.8897 52.4883 31.7531H54.7303Z" fill="white"/>
<path d="M85.4289 24.6475H87.0925C87.7397 28.0265 88.3828 31.3848 89.0342 34.7929H87.8995L87.4987 32.7941H84.9428C84.805 33.4567 84.6673 34.1303 84.5296 34.8067H83.4844C84.1358 31.4111 84.7775 28.0527 85.4289 24.6475ZM86.2552 26.2197H86.1464C85.7966 28.0513 85.4468 29.883 85.0929 31.741H87.3307C86.9644 29.8692 86.6077 28.0444 86.2524 26.2197H86.2552Z" fill="white"/>
<path d="M61.2089 24.6475H62.2403C62.2588 24.7733 62.2708 24.9 62.2761 25.0271C62.2761 27.4882 62.2885 29.9493 62.2693 32.409C62.2603 32.8279 62.1884 33.243 62.0558 33.6403C61.8396 34.3028 61.3507 34.7059 60.6677 34.866C59.0936 35.2415 57.9795 34.4864 57.7426 32.8949C57.721 32.7348 57.7104 32.5734 57.711 32.4118C57.711 29.9336 57.711 27.4564 57.711 24.9801C57.711 24.8863 57.7192 24.791 57.7247 24.6585H58.8443V25.1913C58.8443 27.5227 58.8443 29.8527 58.8443 32.184C58.8384 32.5069 58.8759 32.8291 58.9559 33.142C59.1019 33.6541 59.5191 33.9108 60.0686 33.8956C60.5905 33.8805 60.9679 33.6196 61.1042 33.1061C61.171 32.8399 61.203 32.5662 61.1992 32.2917C61.2075 29.9286 61.1992 27.5655 61.1992 25.2024L61.2089 24.6475Z" fill="white"/>
<path d="M75.4097 37.1736H76.5458V37.705C76.5458 40.1022 76.5458 42.4993 76.5458 44.8965C76.5409 45.1224 76.5655 45.3479 76.6188 45.5673C76.7703 46.1374 77.1421 46.4149 77.7067 46.419C78.2713 46.4232 78.6707 46.1319 78.8222 45.5397C78.8699 45.319 78.8917 45.0934 78.8869 44.8675C78.8869 42.5016 78.8869 40.1367 78.8869 37.7726V37.2012H79.9321C79.9404 37.3641 79.9542 37.5214 79.9542 37.6788C79.9542 40.0916 79.9542 42.5049 79.9542 44.9186C79.9542 45.0483 79.9542 45.1781 79.9418 45.3078C79.8413 46.8027 78.7905 47.6544 77.3073 47.4543C76.28 47.3162 75.6548 46.7047 75.4772 45.6695C75.4236 45.3668 75.3946 45.0603 75.3904 44.753C75.3821 42.3388 75.3904 39.9218 75.3904 37.5118C75.3973 37.4193 75.4097 37.324 75.4097 37.1736Z" fill="white"/>
<path d="M53.7153 45.7316C53.7484 45.5936 53.7897 45.4666 53.8145 45.3313C54.2965 42.7547 54.7776 40.1781 55.2577 37.6015C55.3417 37.1515 55.3445 37.1501 55.8168 37.1515C55.9752 37.1515 56.135 37.1653 56.3856 37.1763C55.7521 40.5719 55.1241 43.9275 54.4948 47.2955H52.7927C52.1564 43.9234 51.5257 40.5761 50.8867 37.186H52.0435C52.5751 40.0157 53.1108 42.866 53.6451 45.7178L53.7153 45.7316Z" fill="white"/>
<path d="M93.2499 44.3427H94.2511C94.2786 44.6878 94.2924 45.008 94.3323 45.3255C94.4205 46.0308 94.8171 46.4063 95.4643 46.4201C96.1116 46.4339 96.5233 46.0778 96.65 45.3765C96.7149 45.0656 96.7049 44.7436 96.6209 44.4373C96.5368 44.131 96.3811 43.8492 96.1667 43.6153C95.8555 43.2871 95.5273 42.9756 95.1834 42.6822C94.8846 42.4061 94.5664 42.1562 94.2731 41.8788C93.3229 40.9788 93.0943 39.8704 93.3862 38.6323C93.6107 37.6826 94.2717 37.1305 95.2399 37.0711C95.5156 37.053 95.7924 37.0627 96.0661 37.1001C96.3814 37.1348 96.6821 37.2515 96.9384 37.4386C97.1947 37.6258 97.3977 37.877 97.5273 38.1671C97.7591 38.6969 97.8584 39.2755 97.8165 39.8525H96.7409C96.7258 39.6275 96.7203 39.3915 96.6955 39.1623C96.6074 38.3341 95.9753 37.92 95.1806 38.1547C95.0229 38.1946 94.8789 38.2765 94.7638 38.3916C94.6487 38.5068 94.5667 38.651 94.5265 38.809C94.3571 39.4053 94.3337 40.0112 94.6945 40.5385C94.9692 40.9163 95.2816 41.265 95.6268 41.5793C96.0923 42.0279 96.6266 42.4075 97.059 42.8837C97.928 43.8389 98.0341 44.9749 97.6223 46.1523C97.2684 47.1655 96.3939 47.5326 95.3693 47.4567C94.0335 47.367 93.3353 46.6064 93.2609 45.2634C93.2361 44.9694 93.2499 44.6781 93.2499 44.3427Z" fill="white"/>
<path d="M58.8767 46.3209H61.861V47.3037H57.7461V37.1956H61.8458V38.1714H58.874V41.6609H61.2977V42.7058H58.8767V46.3209Z" fill="white"/>
<path d="M70.0508 24.6455H74.1822V25.6435H71.1924V29.1205H73.612V30.1475H71.1828V33.7722H74.1863V34.7992H70.0549L70.0508 24.6455Z" fill="white"/>
<path d="M91.885 37.2041V38.1524H88.8719V41.6695H91.3011V42.7033H88.8719V46.3253H91.8781V47.3026H87.7344V37.2041H91.885Z" fill="white"/>
<path d="M72.3811 47.3077C72.1718 47.3202 72.0299 47.3326 71.8881 47.3353C71.6953 47.3353 71.5038 47.3353 71.2532 47.3353V38.1893H69.4023V37.1982H74.2223V38.1493H72.3811V47.3077Z" fill="white"/>
<path d="M75.7188 24.6455H76.8342V33.7626H79.7262V34.8088H75.7188V24.6455Z" fill="white"/>
<path d="M81.0781 24.6348H82.1647V34.8022H81.0823L81.0781 24.6348Z" fill="white"/>
<path d="M30.1799 39.6583H26.4727C27.0786 36.4836 27.6804 33.3185 28.3015 30.0554L30.1799 39.6583Z" fill="white"/>
</svg>
