<svg width="116" height="72" viewBox="0 0 116 72" fill="none" xmlns="http://www.w3.org/2000/svg">
<path d="M21.8828 11.9724C22.3969 11.8658 32.8432 11.8952 33.1519 12.0125C33.0777 12.0561 32.9977 12.0888 32.9142 12.1098C32.7089 12.1206 32.5036 12.1098 32.2967 12.1098H22.5265C22.1283 12.1098 22.1051 12.1391 22.1005 12.5528C22.1005 12.7705 22.1005 12.9897 22.1005 13.2073C22.1005 29.0757 22.1005 44.943 22.1005 60.8093C22.1005 61.0995 22.1005 61.3913 22.1005 61.6815C22.1005 61.9115 22.2008 62.0118 22.4308 62.001C22.6377 61.9918 22.843 62.001 23.0483 62.001C26.6349 62.001 30.2204 62.001 33.8049 62.001C34.0693 62.0048 34.328 61.9237 34.5428 61.7695C36.5357 60.4187 38.5179 59.051 40.5417 57.7481C42.8094 56.2877 45.0972 54.8552 47.4127 53.4736C49.6341 52.1475 51.8895 50.8863 54.1541 49.6235C55.5435 48.8517 56.9328 48.1122 58.3484 47.3944C59.8345 46.638 61.3329 45.9063 62.8437 45.1992C64.5078 44.4197 66.1797 43.6555 67.8685 42.9346C69.7549 42.1257 71.6583 41.3508 73.5663 40.5928C74.755 40.1204 75.9575 39.6774 77.1724 39.276C79.0743 38.6482 80.9854 38.0472 82.9058 37.473C84.1655 37.0978 85.4452 36.7845 86.7219 36.468C87.9033 36.1747 89.0868 35.9004 90.2724 35.6452C91.1446 35.4584 92.0261 35.3179 92.8967 35.1559C93.1221 35.1142 93.3444 35.0632 93.5713 35.0262C93.617 35.0241 93.6617 35.0127 93.7027 34.9927C93.7438 34.9726 93.7803 34.9444 93.81 34.9096C93.8396 34.8749 93.8619 34.8344 93.8752 34.7907C93.8886 34.7471 93.8929 34.7011 93.8878 34.6557C93.8878 34.5708 93.8878 34.4859 93.8878 34.4025C93.8878 27.1821 93.8878 19.9626 93.8878 12.7442C93.8878 12.1067 93.8878 12.1067 93.2471 12.1067C80.3355 12.1067 67.4239 12.1067 54.5123 12.1067C54.3579 12.1067 54.1711 12.1839 54.0492 11.9369H94.1116V12.4911C94.1116 19.8319 94.1116 27.1723 94.1116 34.5121C94.1116 43.5603 94.1142 52.608 94.1193 61.6552C94.1193 62.3298 94.1641 62.2727 93.5204 62.2727H34.8716H22.3675H22.2255C21.9168 62.2635 21.8936 62.2496 21.8844 61.947C21.8844 61.8127 21.8844 61.6799 21.8844 61.5472C21.8833 45.1962 21.8828 28.8431 21.8828 12.488V11.9724ZM82.0876 60.3307C82.0182 60.0961 81.9688 59.9078 81.9055 59.7271C81.6477 59 81.3837 58.2761 81.1336 57.549C80.7925 56.5811 80.4513 55.6131 80.1209 54.6406C80.0992 54.5463 80.0433 54.4634 79.9641 54.4078C79.8848 54.3523 79.7879 54.328 79.6918 54.3396C79.2287 54.3396 78.7656 54.3396 78.3117 54.3396C78.264 54.3324 78.2154 54.3346 78.1687 54.3463C78.1219 54.3579 78.0779 54.3786 78.0391 54.4073C78.0004 54.436 77.9677 54.4721 77.943 54.5134C77.9182 54.5548 77.9019 54.6006 77.8949 54.6483C77.8115 54.974 77.6927 55.2921 77.5862 55.6101C77.0922 56.9963 76.5966 58.3826 76.0996 59.7688C76.0378 59.9463 75.9977 60.1316 75.9313 60.377C76.3111 60.3848 76.6321 60.4002 76.9517 60.394C77.5229 60.3848 77.6633 60.5484 77.8131 59.7673C77.8131 59.7565 77.8131 59.7441 77.8131 59.7318C77.8329 59.6367 77.8881 59.5528 77.9675 59.4969C78.0469 59.441 78.1445 59.4174 78.2407 59.4307C78.6143 59.4524 78.9909 59.4307 79.3661 59.44C80.2166 59.4585 79.9835 59.2964 80.3062 60.1177C80.3244 60.2001 80.3714 60.2734 80.4387 60.3243C80.506 60.3752 80.5893 60.4005 80.6736 60.3956C81.0611 60.3956 81.4454 60.3956 81.8345 60.3956C81.9208 60.3826 82.0057 60.3609 82.0876 60.3307ZM86.64 60.3307C86.7694 60.3633 86.901 60.3865 87.0337 60.4002C87.4443 60.4002 87.8565 60.4002 88.2687 60.4002C88.3583 60.4082 88.4481 60.3867 88.5244 60.3391C88.6007 60.2915 88.6594 60.2202 88.6916 60.1362C88.9772 59.5836 89.286 59.0417 89.5978 58.4706C89.9065 59.0479 90.2153 59.5928 90.5086 60.1486C90.5396 60.2269 90.5948 60.2932 90.6662 60.3379C90.7376 60.3826 90.8213 60.4034 90.9053 60.3971C91.353 60.3971 91.8007 60.3971 92.2484 60.3971C92.336 60.3832 92.4219 60.3599 92.5046 60.3276C92.4459 60.2119 92.412 60.1254 92.361 60.0467C91.8315 59.21 91.3175 58.3625 90.7587 57.5474C90.5595 57.2572 90.6043 57.0596 90.7726 56.8033C91.2357 56.1102 91.6849 55.4063 92.1357 54.7054C92.1832 54.6171 92.2224 54.5246 92.253 54.4291C92.1758 54.3921 92.1449 54.3643 92.1125 54.3643C91.5923 54.3643 91.072 54.3442 90.5518 54.355C90.4506 54.3774 90.362 54.4383 90.3048 54.5248C90.2235 54.6591 90.1518 54.7989 90.0902 54.9432L89.5839 55.942C89.3508 55.4588 89.1424 55.0389 88.9463 54.6128C88.9169 54.5271 88.8595 54.4539 88.7833 54.4049C88.7071 54.3558 88.6166 54.3339 88.5265 54.3427C88.0911 54.3535 87.6558 54.3427 87.2189 54.3427C87.1199 54.3513 87.0218 54.3684 86.9256 54.3936C86.9256 54.4584 86.9164 54.4878 86.9256 54.5048C87.4459 55.3044 87.963 56.1071 88.4971 56.8975C88.5638 56.9735 88.6005 57.0712 88.6005 57.1723C88.6005 57.2734 88.5638 57.3711 88.4971 57.4471C88.2285 57.833 87.9877 58.239 87.7253 58.6357C87.3857 59.1853 87.0275 59.7287 86.64 60.3307ZM84.9142 55.7289C85.3464 55.7289 85.72 55.7289 86.092 55.7289C86.3159 55.7289 86.4316 55.6363 86.4255 55.4047C86.4255 55.2226 86.4255 55.042 86.4255 54.8598C86.4255 54.3519 86.4255 54.3473 85.9238 54.3458H82.4766C81.7326 54.3458 81.8221 54.3288 81.8237 54.9864C81.8237 55.7814 81.7094 55.7274 82.5554 55.7366C83.3705 55.7444 83.2994 55.5992 83.2994 56.4946C83.2994 57.6786 83.2994 58.8642 83.2994 60.0451C83.2994 60.377 83.3272 60.394 83.656 60.3987C83.9463 60.3987 84.2365 60.3987 84.5267 60.3987C84.8956 60.3987 84.908 60.3832 84.908 60.0004C84.908 58.7417 84.908 57.4841 84.908 56.2275L84.9142 55.7289ZM84.7382 51.3185C84.6974 51.2795 84.6587 51.2383 84.6224 51.195C84.0312 50.3244 83.409 49.4753 82.8641 48.5784C82.5785 48.1045 82.2466 47.9455 81.7187 48.0011C81.3034 48.0459 81.2679 48.0366 81.2648 48.4642C81.2648 49.3117 81.2648 50.1623 81.2648 51.0052C81.2648 51.4775 81.2648 51.9499 81.2648 52.4207C81.2648 52.5751 81.3019 52.7295 81.484 52.7418C81.7187 52.7604 81.9549 52.7418 82.2312 52.7418V49.2947C82.3223 49.4213 82.3655 49.4769 82.4041 49.534C83.0216 50.4417 83.6699 51.334 84.2565 52.2648C84.5143 52.6785 84.8169 52.8005 85.2677 52.7635C85.7184 52.7264 85.7076 52.7465 85.7092 52.3003C85.7092 51.0067 85.7092 49.7126 85.7092 48.4179C85.7092 48.3577 85.7092 48.2959 85.7092 48.2357C85.6953 47.9471 85.473 47.9949 85.3078 48.015C85.1102 48.0381 84.8138 47.8606 84.7552 48.2357C84.7467 48.3441 84.7467 48.4531 84.7552 48.5615C84.7366 49.4553 84.7382 50.3491 84.7382 51.3154V51.3185ZM64.9694 52.8499C65.8061 52.8499 66.2615 52.7125 66.6212 52.4022C67.1754 51.9252 67.2001 51.0283 66.7755 50.576C66.4942 50.3057 66.1401 50.1233 65.7567 50.0511C65.2936 49.9369 64.8212 49.8242 64.3581 49.6976C64.2544 49.6797 64.1609 49.6244 64.0952 49.5422C64.0295 49.46 63.9962 49.3566 64.0015 49.2515C64.0074 49.1404 64.0502 49.0345 64.1232 48.9506C64.1962 48.8667 64.2952 48.8096 64.4044 48.7884C64.6639 48.7356 64.9285 48.7117 65.1932 48.7174C65.6563 48.7359 65.9651 48.9644 66.05 49.4445C66.0522 49.4809 66.0619 49.5164 66.0784 49.5489C66.0949 49.5814 66.1179 49.6102 66.146 49.6335C66.174 49.6568 66.2066 49.6741 66.2416 49.6843C66.2766 49.6945 66.3133 49.6975 66.3495 49.693C66.4703 49.7007 66.5914 49.7007 66.7122 49.693C66.9438 49.6668 67.0488 49.551 67.0071 49.3302C66.9052 48.7961 66.6736 48.3253 66.1472 48.1061C65.7652 47.9349 65.3496 47.8518 64.9311 47.8631C64.5127 47.8743 64.1021 47.9795 63.7298 48.1709C63.2204 48.4287 63.0907 48.9211 63.1 49.429C63.0991 49.6564 63.173 49.8778 63.3102 50.0591C63.4474 50.2403 63.6404 50.3715 63.8595 50.4324C64.1682 50.5374 64.4847 50.6115 64.7965 50.6995C65.1546 50.8014 65.5359 50.8539 65.8632 51.0175C66.2568 51.212 66.2368 51.6612 65.8524 51.8758C65.4248 52.1151 64.9648 52.0626 64.5186 51.9484C64.3502 51.9153 64.197 51.8286 64.082 51.7011C63.9671 51.5736 63.8966 51.4123 63.8811 51.2413C63.8615 51.1901 63.8302 51.1442 63.7898 51.1072C63.7493 51.0702 63.7007 51.0432 63.648 51.0283C63.4945 51.0073 63.3393 51.0021 63.1849 51.0129C62.9996 51.0129 62.9255 51.0978 62.9332 51.2799C62.9316 51.5477 63.0025 51.8109 63.1384 52.0417C63.2743 52.2724 63.4701 52.4621 63.7051 52.5905C64.0947 52.7912 64.5324 52.8799 64.9694 52.8468V52.8499ZM73.4907 49.7331H73.483V48.6433C73.483 47.981 73.483 47.9887 72.8192 48.0057C72.6046 48.0057 72.5104 48.0798 72.5104 48.3021C72.5181 49.2824 72.4734 50.2657 72.5351 51.2444C72.5907 52.1043 73.0446 52.6847 73.8828 52.8113C74.3149 52.8723 74.7535 52.8723 75.1857 52.8113C75.46 52.786 75.7209 52.6807 75.9358 52.5083C76.1507 52.3359 76.3102 52.1042 76.3944 51.8419C76.5098 51.4991 76.5783 51.1424 76.5982 50.7813C76.6291 50.0681 76.6074 49.3518 76.6074 48.6371C76.6074 47.9764 76.6074 47.9841 75.9375 48.0026C75.7167 48.0104 75.6287 48.0922 75.6364 48.3114C75.6442 48.7112 75.6457 49.111 75.6364 49.5108C75.6256 50.0419 75.5917 50.5729 75.5855 51.104C75.5855 51.6813 75.1409 52.0611 74.4864 52.0302C73.8319 51.9993 73.5108 51.7214 73.4876 51.0499C73.4783 50.6053 73.4907 50.1654 73.4907 49.73V49.7331ZM90.3449 50.2842C91.0334 49.5124 91.8346 48.8687 92.4861 48.0628C92.1347 48.0208 91.7803 48.0099 91.4271 48.0304C91.3345 48.0304 91.2372 48.1308 91.1631 48.2064C90.9516 48.421 90.754 48.6495 90.5456 48.8702C90.2369 49.199 89.9281 49.5263 89.5654 49.9029V49.4753C89.5654 49.0879 89.5654 48.7035 89.5654 48.3145C89.5654 48.2188 89.5067 48.0474 89.4619 48.0428C89.2253 48.0012 88.9829 48.0039 88.7472 48.0505C88.5342 48.1122 88.6144 48.3592 88.6144 48.5352C88.6144 49.7702 88.6144 51.0052 88.6144 52.2401C88.6011 52.3359 88.6058 52.4333 88.6283 52.5273C88.6638 52.6137 88.7487 52.7295 88.8228 52.7388C89.0736 52.756 89.3251 52.7591 89.5762 52.748V50.6933C90.1597 51.3108 90.7 51.8666 91.2141 52.4424C91.3962 52.6477 91.5691 52.7974 91.8578 52.7511C92.1125 52.7171 92.3842 52.8206 92.6898 52.6338L90.3449 50.2842ZM68.8487 51.1086C69.3458 51.1086 69.7827 51.1333 70.2149 51.1086C71.5533 51.0129 71.8698 50.0728 71.6043 49.0107C71.4283 48.3237 70.8463 48.0628 70.1841 48.0289C69.5805 47.9965 68.9738 48.015 68.3686 48.015C67.9055 48.015 67.8932 48.015 67.8932 48.4781C67.8932 49.7614 67.8932 51.0453 67.8932 52.3297C67.8932 52.7326 67.9271 52.7619 68.327 52.7681H68.503C68.8271 52.7573 68.8457 52.7418 68.8487 52.4084C68.8518 51.9854 68.8487 51.5763 68.8487 51.1055V51.1086ZM78.4722 48.7668V49.2299C78.4722 50.2827 78.4722 51.334 78.4722 52.3852C78.4722 52.4964 78.5124 52.694 78.5572 52.7032C78.7801 52.7469 79.0091 52.7506 79.2333 52.7141C79.4294 52.6724 79.3707 52.4562 79.3707 52.3081C79.3707 51.2799 79.3707 50.2518 79.3707 49.2206C79.3707 49.0801 79.3861 48.9397 79.3969 48.7436H80.6782V48.0196C80.5238 48.0119 80.3973 48.0011 80.2691 48.0011H77.8826C77.6895 47.9913 77.4961 47.9954 77.3037 48.0134C77.2556 48.0238 77.2106 48.0453 77.1723 48.0761C77.134 48.1069 77.1034 48.1463 77.0829 48.191C76.9857 48.5862 77.1261 48.7544 77.529 48.7591C77.8285 48.7668 78.1265 48.7637 78.4722 48.7637V48.7668ZM86.6894 50.3815C86.6894 51.07 86.6894 51.76 86.6894 52.4485C86.6894 52.535 86.728 52.694 86.762 52.6971C87.0078 52.7408 87.2591 52.7444 87.5061 52.7079C87.5802 52.6924 87.6388 52.4238 87.6404 52.271C87.6512 51.036 87.6496 49.8011 87.6481 48.5661C87.6481 47.9918 87.6481 47.9918 87.0584 48.0042C86.7157 48.0119 86.691 48.0304 86.6879 48.3808C86.6863 49.0493 86.691 49.7146 86.6894 50.3784V50.3815Z" fill="white"/>
<path d="M51.5545 13.5564C50.9972 13.2199 50.4646 12.9822 49.8363 13.1026C49.3149 13.1804 48.8386 13.4421 48.4933 13.8405C47.9391 14.5181 47.4945 15.4722 48.5504 16.9279C48.2417 17.1548 47.9484 17.391 47.635 17.6117C46.2788 18.5484 44.8033 19.2991 43.2478 19.844C42.2236 20.206 41.1699 20.4783 40.0986 20.6575C39.0379 20.8286 37.962 20.8855 36.8892 20.8273C35.7016 20.7925 34.541 20.4653 33.51 19.8748C33.0255 19.5959 32.6103 19.2112 32.2951 18.7495C32.2048 18.6109 32.1516 18.4514 32.1407 18.2863C32.0205 15.643 32.819 13.0396 34.4004 10.9181C35.9819 8.79668 38.2489 7.288 40.8164 6.6483C41.907 6.36503 43.0352 6.25409 44.1601 6.31948C46.4849 6.45533 48.6137 7.18242 50.4692 8.61653C51.062 9.07038 51.5838 9.61531 52.1303 10.1278C52.1969 10.2109 52.2425 10.3089 52.263 10.4134C52.4097 10.8951 52.3171 11.3844 52.2214 11.8506C52.0999 12.4537 51.8743 13.0309 51.5545 13.5564Z" fill="white"/>
<path d="M54.5501 14.467C56.1077 19.2016 54.1564 25.6157 48.2826 28.2061C42.5446 30.7393 36.3636 28.1752 33.7578 23.5626C34.1113 23.7432 34.4278 23.9068 34.7458 24.0674C35.3652 24.3668 36.0189 24.5892 36.6924 24.7296C37.7911 24.9709 38.9179 25.0592 40.0407 24.9921C41.259 24.9379 42.4667 24.741 43.6391 24.4055C46.2634 23.646 48.6716 22.4341 50.7541 20.6326C51.9346 19.6253 52.9235 18.4131 53.6733 17.0543C54.083 16.2363 54.378 15.3656 54.5501 14.467Z" fill="white"/>
<path d="M51.9971 14.0307C52.4975 13.185 52.8367 12.2538 52.9974 11.2844C53.4605 11.851 53.8434 12.4082 53.8758 13.16C53.917 13.7369 53.8905 14.3167 53.7971 14.8875C53.5589 15.9777 53.0887 17.0039 52.4185 17.8961C51.38 19.3157 50.082 20.5256 48.5932 21.4621C47.4565 22.2188 46.2314 22.8337 44.9454 23.293C44.0933 23.5863 43.2303 23.8611 42.3535 24.0648C41.7237 24.2192 41.063 24.2192 40.4192 24.3226C39.5539 24.4318 38.6777 24.4219 37.815 24.2933C36.7344 24.159 35.6862 23.9058 34.7276 23.3671C34.2502 23.1077 33.8077 22.7887 33.4108 22.4177C33.0658 22.1104 32.8139 21.7125 32.6837 21.2692C32.5834 20.8971 32.4768 20.5251 32.3749 20.1515C32.3646 20.0587 32.3646 19.965 32.3749 19.8721C32.7562 20.1145 33.0943 20.363 33.4555 20.556C34.3312 21.025 35.2948 21.3068 36.2852 21.3834C36.8749 21.4282 37.4677 21.5223 38.0543 21.4961C38.8856 21.4491 39.7141 21.3605 40.5366 21.2306C41.5379 21.0649 42.5203 20.8007 43.4696 20.4417C44.8181 19.9782 46.1069 19.3564 47.3088 18.5893C47.8352 18.2466 48.3508 17.8838 48.8525 17.5087C48.9306 17.4364 49.0287 17.3894 49.134 17.374C49.2393 17.3585 49.3467 17.3754 49.4422 17.4222C50.2913 17.7526 51.0384 17.5257 51.6806 16.9529C52.4849 16.2336 52.6285 15.1514 52.1051 14.2128C52.0758 14.1557 52.0419 14.1063 51.9971 14.0307Z" fill="white"/>
<path d="M55.1875 14.4829L75.3777 31.2322L75.3391 31.2801C74.822 30.8725 74.3064 30.4619 73.7861 30.059C71.7217 28.4576 69.6572 26.8583 67.5928 25.2611C65.2257 23.421 62.8587 21.5778 60.4917 19.7315C58.948 18.5274 57.3965 17.329 55.8374 16.1362C55.5379 15.9062 55.3033 15.6731 55.2909 15.2594C55.2595 15.0113 55.2026 14.7672 55.1211 14.5308L55.1875 14.4829Z" fill="white"/>
<path d="M35.8486 49.9495C35.8378 49.7102 35.827 49.4709 35.8131 49.2332C35.776 48.5817 35.7436 47.9303 35.6988 47.2789C35.6417 46.4715 35.5738 45.6641 35.5136 44.8583C35.4982 44.653 35.5043 44.4461 35.4904 44.2408C35.4256 43.2775 35.3561 42.3127 35.2882 41.3494C35.2882 41.3 35.2882 41.2522 35.2882 41.2043C35.2527 40.346 35.2326 39.4877 35.1817 38.631C35.0983 37.3296 35.0073 36.0283 34.9146 34.7269C34.8591 33.9087 34.8081 33.089 34.7603 32.2693C34.6923 31.2335 34.6198 30.1977 34.555 29.1618C34.4994 28.268 34.4531 27.3758 34.4006 26.4835C34.379 26.1145 34.3527 25.7456 34.3203 25.2871C34.6291 25.6175 34.8683 25.8799 35.1061 26.147C35.1458 26.1899 35.1721 26.2436 35.1817 26.3013C35.2265 26.6842 35.2882 27.0732 35.2975 27.4529C35.3222 28.4208 35.3098 29.3903 35.333 30.3582C35.3592 31.4388 35.4148 32.5071 35.4488 33.5815C35.4889 34.8741 35.5234 36.1667 35.5522 37.4593C35.5831 38.7406 35.6001 40.0234 35.6356 41.3047C35.6695 42.5011 35.7189 43.6959 35.7621 44.8923C35.8023 45.9729 35.847 47.0411 35.8825 48.1155C35.9011 48.6574 35.9072 49.1961 35.9181 49.7426C35.9181 49.809 35.9088 49.8754 35.9026 49.9433L35.8486 49.9495Z" fill="white"/>
<path d="M72.2342 34.2423C66.5358 29.817 60.838 25.3916 55.1406 20.9663C55.2055 20.6993 55.2688 20.4477 55.3459 20.1343L72.2789 34.1821L72.2342 34.2423Z" fill="white"/>
<path d="M38.8458 28.7251C39.0529 28.7889 39.2556 28.8662 39.4525 28.9567C39.4933 28.9872 39.5272 29.0262 39.5517 29.0709C39.5762 29.1157 39.5908 29.1651 39.5945 29.216C39.6161 29.8072 39.6161 30.4 39.6316 30.9913C39.6501 31.6443 39.6748 32.2972 39.6995 32.9487C39.7149 33.3578 39.7412 33.7669 39.752 34.1837C39.7844 35.4186 39.806 36.6536 39.8415 37.8886C39.8801 39.2301 39.9326 40.5716 39.9743 41.913C40.0051 42.9535 40.0252 43.994 40.0561 45.0329C40.0983 46.3996 40.1431 47.7658 40.1904 49.1314C40.2166 49.928 40.2475 50.7246 40.2305 51.5227C40.1904 50.6397 40.1595 49.7551 40.1055 48.8721C40.0268 47.5939 39.9218 46.3173 39.8415 45.0406C39.7813 44.0742 39.7535 43.1079 39.6871 42.1431C39.6007 40.78 39.4926 39.4184 39.4016 38.0553C39.3475 37.2479 39.3136 36.4375 39.2595 35.6301C39.1993 34.7039 39.1252 33.7777 39.0604 32.8514C39.048 32.6832 39.0604 32.5118 39.0434 32.3436C38.9786 31.3911 38.906 30.4402 38.8443 29.4892C38.8335 29.2361 38.8458 28.9937 38.8458 28.7251Z" fill="white"/>
<path d="M78.3164 58.1557C78.5356 57.4657 78.7348 56.8359 78.9339 56.206L79.025 56.1968C79.2164 56.4762 79.2534 56.8143 79.363 57.1369C79.4726 57.4595 79.5745 57.7853 79.6934 58.1557H78.3164Z" fill="white"/>
<path d="M68.8711 50.3955V48.8039C69.3448 48.7229 69.8303 48.7456 70.2944 48.8703C70.5522 48.9351 70.7205 49.2979 70.6988 49.6421C70.6772 49.9864 70.5074 50.2195 70.2033 50.2596C69.7788 50.3275 69.3496 50.3507 68.8711 50.3955Z" fill="white"/>
</svg>
