<svg width="116" height="72" viewBox="0 0 116 72" fill="none" xmlns="http://www.w3.org/2000/svg">
<path d="M36.4648 24.3119C36.5627 24.1668 36.6711 24.0287 36.755 23.8749C37.1046 23.2369 37.435 22.5953 37.7776 21.9521C37.8309 21.8402 37.8966 21.7347 37.9734 21.6374C38.2688 21.3053 38.7093 21.3805 38.8474 21.8035C38.9278 22.0557 38.9702 22.3184 38.9732 22.5831C38.9872 23.4676 38.996 24.3539 38.9732 25.2384C38.9644 25.5548 38.8869 25.8656 38.746 26.1491C37.6465 28.2677 36.5243 30.374 35.4055 32.4822C34.5839 34.0274 33.7554 35.5674 32.9356 37.1127C31.6368 39.5599 30.3328 42.0071 29.0515 44.4736C28.2946 45.921 27.5919 47.3876 26.8629 48.8279C26.6881 49.1898 26.4452 49.5271 26.2301 49.8767C26.1636 49.9805 26.0888 50.0787 26.0064 50.1704C25.3719 50.8696 24.6412 50.936 23.886 50.3714C23.7602 50.2788 23.6273 50.1966 23.498 50.1092C23.3074 49.8418 23.1187 49.5726 22.9229 49.3069C22.2992 48.4328 21.8013 47.4755 21.4441 46.4628C21.1766 45.7444 20.9371 45.0155 20.6854 44.2901C20.4896 43.4493 20.2694 42.6137 20.1016 41.7677C19.7147 39.7796 19.3377 37.7897 18.9706 35.7982C18.6746 34.1667 18.4013 32.5352 18.1508 30.9037C17.9375 29.528 17.7627 28.1453 17.5774 26.7661C17.4026 25.4901 17.2086 24.2158 17.0915 22.9362C17.0198 22.1286 17.074 21.3088 17.0792 20.489C17.0877 20.3829 17.1118 20.2786 17.1509 20.1796C17.1758 20.0751 17.2368 19.9827 17.3232 19.9187C17.4095 19.8548 17.5156 19.8233 17.6229 19.83C17.7221 19.8242 17.82 19.8545 17.8987 19.9152C17.9774 19.9759 18.0315 20.0629 18.0511 20.1603C18.1167 20.4162 18.1658 20.676 18.198 20.9382C18.4235 22.6146 18.635 24.2927 18.8675 25.969C19.0598 27.3674 19.259 28.7659 19.4775 30.1643C19.7537 31.9228 20.0317 33.6796 20.3515 35.4311C20.6966 37.519 21.1956 39.5785 21.8444 41.5929C21.8709 41.6564 21.9025 41.7178 21.9387 41.7764C22.182 42.7476 22.5805 43.6731 23.1187 44.5173C23.3075 44.8127 23.477 45.1221 23.6903 45.3913C24.2252 46.0905 24.6534 46.0905 25.1411 45.3616C25.5239 44.791 25.874 44.1992 26.1899 43.5891C27.1042 41.8411 27.9869 40.0686 28.8976 38.3136C29.3853 37.3749 29.8975 36.4484 30.4079 35.5167C31.4795 33.5712 32.5632 31.6291 33.633 29.6818C34.3217 28.4302 35.0029 27.1746 35.6765 25.9148C35.9526 25.3904 36.2009 24.8485 36.4648 24.3119Z" fill="white"/>
<path d="M37.1539 42.7096C36.0264 43.9332 34.684 44.4996 33.1597 44.7478C33.1391 44.8121 33.1297 44.8795 33.1317 44.947C33.5163 46.543 34.3553 47.8016 35.8988 48.4815C36.3426 48.6519 36.8023 48.7772 37.271 48.8556C37.6469 48.9378 37.7535 49.1475 37.4965 49.4395C37.0473 49.9499 36.5299 50.3974 35.8709 50.5949C35.527 50.6739 35.1718 50.6905 34.8221 50.6439C33.088 50.4988 31.7071 49.7296 30.8121 48.2228C29.6112 46.2004 29.8175 43.9402 31.7473 42.3687C32.9046 41.3916 34.3125 40.7582 35.8114 40.5403C36.5351 40.4424 36.9232 40.5945 37.3951 41.2395C38.0579 40.5456 38.8478 39.9854 39.7218 39.5894C39.9595 40.4371 39.9438 41.2797 40.0469 42.103C40.15 42.9263 40.2217 43.7514 40.3126 44.6551C40.416 44.5729 40.5135 44.4835 40.6045 44.3877C41.3045 43.5419 42.1731 42.8513 43.1549 42.36C43.2169 42.3258 43.2834 42.3005 43.3524 42.2848C43.4438 42.2783 43.5355 42.2783 43.6268 42.2848C43.7842 42.6676 43.9677 43.0627 44.1128 43.4717C44.576 44.7687 45.0235 46.071 45.4797 47.3698C45.5776 47.653 45.6913 47.9309 45.7839 48.2158C45.8293 48.3316 45.8454 48.4568 45.8308 48.5803C45.8161 48.7039 45.7712 48.8218 45.7 48.9238C45.3057 49.493 44.8082 49.9833 44.2334 50.3694C43.9223 50.5757 43.7544 50.532 43.5062 50.2523C42.9102 49.5811 42.5361 48.7822 42.19 47.9676C41.9365 47.3698 41.676 46.7755 41.3859 46.1007C41.3185 46.2003 41.26 46.3056 41.2111 46.4154C41.0942 46.7666 41.0007 47.1251 40.9314 47.4887C40.844 48.1075 40.5066 48.5689 40.0766 48.9727C39.6466 49.3765 39.2026 49.7436 38.7429 50.1055C38.5316 50.2434 38.3095 50.3638 38.0786 50.4656C37.8374 49.1266 37.7622 47.8645 37.6119 46.6199C37.4616 45.3753 37.3147 44.0835 37.1539 42.7096ZM34.5319 42.6851C34.1386 42.4526 33.7225 42.3495 33.3974 42.5557C33.1579 42.7096 33.0303 43.0802 33.0898 43.4525L34.5319 42.6851Z" fill="white"/>
<path d="M47.8383 32.9063C48.2963 32.8032 48.6896 32.7088 49.0864 32.6266C49.3347 32.5759 49.5899 32.5497 49.7664 32.7874C49.8353 32.8902 49.8739 33.0102 49.8779 33.1338C49.8819 33.2574 49.8512 33.3796 49.7891 33.4866C49.5432 34.0796 49.1771 34.6152 48.7141 35.0598C48.607 35.1503 48.5291 35.2705 48.4902 35.4052C48.4513 35.5399 48.4532 35.6831 48.4956 35.8167C48.8662 37.4319 49.2542 39.0418 49.5811 40.6658C49.7996 41.7548 49.9185 42.863 50.0898 43.9608C50.3275 45.4886 50.3153 47.0268 50.3101 48.5668C50.3204 48.9233 50.1955 49.2705 49.9604 49.5387C49.533 50.0387 49.0153 50.4538 48.4344 50.7623C47.889 51.0438 47.6006 50.9127 47.501 50.3148C47.3262 49.2538 47.1968 48.184 46.9958 47.1282C46.5256 44.6705 46.0256 42.2163 45.5327 39.7638C45.3579 38.8898 45.1621 38.0035 44.9733 37.1243C44.9401 36.9722 44.8947 36.8219 44.837 36.5999L43.5574 36.9267C42.9421 37.0893 42.3251 37.2396 41.715 37.4214C41.4668 37.4966 41.2623 37.4931 41.091 37.2903C41.0146 37.204 40.9657 37.0969 40.9504 36.9826C40.9352 36.8684 40.9543 36.7521 41.0053 36.6488C41.3278 35.8018 41.871 35.0564 42.5785 34.49C42.8264 34.3229 43.0973 34.1927 43.3826 34.1037C43.6431 34.004 43.9193 33.9394 44.2566 33.8415C44.1588 33.3171 44.0661 32.8032 43.9665 32.291C43.8581 31.7386 43.7305 31.1897 43.6396 30.6321C43.6091 30.46 43.6374 30.2827 43.72 30.1287C43.9008 29.8077 44.1255 29.5135 44.3877 29.2547C44.794 28.9139 45.2201 28.5975 45.6638 28.3072C45.7947 28.2164 45.9385 28.1457 46.0903 28.0975C46.5098 27.9646 46.7773 28.1289 46.8664 28.552C47.1508 29.8968 47.4369 31.241 47.7247 32.5846C47.7457 32.6825 47.7877 32.7787 47.8383 32.9063Z" fill="white"/>
<path d="M36.4625 24.3118C36.1986 24.8484 35.9381 25.3903 35.6672 25.9165C34.9948 27.1774 34.3136 28.433 33.6237 29.6835C32.5539 31.6308 31.4702 33.5728 30.3986 35.5184C29.8882 36.4448 29.376 37.3713 28.8883 38.3152C27.9776 40.065 27.0949 41.8357 26.1807 43.5837C25.8647 44.1939 25.5146 44.7857 25.1318 45.3562C24.6441 46.0799 24.2159 46.0799 23.681 45.386C23.4677 45.1115 23.2982 44.8021 23.1094 44.5119C23.1666 44.4497 23.2181 44.3824 23.2632 44.3109C23.8173 43.2621 24.3662 42.1923 24.9186 41.1348C25.6772 39.6839 26.4254 38.2278 27.191 36.7839C27.9881 35.2964 28.8114 33.8245 29.6225 32.3422C30.5245 30.6921 31.4247 29.0408 32.3232 27.3883C32.9525 26.2276 33.5695 25.0617 34.1918 23.8923L35.2109 21.9694C35.4469 21.5237 35.6392 21.3734 35.9101 21.445C36.3 21.5394 36.3611 21.8838 36.3978 22.1879C36.4485 22.6092 36.4276 23.0375 36.4363 23.4623C36.4503 23.7472 36.4555 24.0286 36.4625 24.3118Z" fill="white"/>
<path d="M34.2038 23.894C33.5815 25.0581 32.9644 26.2241 32.3352 27.39C31.4402 29.0436 30.5399 30.6949 29.6345 32.3439C28.8234 33.8262 28.0001 35.2981 27.203 36.7856C26.4303 38.2295 25.6822 39.6856 24.9305 41.1365C24.3781 42.194 23.8293 43.2551 23.2751 44.3126C23.2301 44.3841 23.1786 44.4514 23.1213 44.5136C22.5831 43.6694 22.1847 42.7439 21.9414 41.7727C22.1162 41.4668 22.291 41.1662 22.4536 40.8585C23.9114 38.1368 25.357 35.4082 26.8236 32.6918C28.2605 29.9998 29.7393 27.3271 31.1972 24.6439C31.7793 23.5758 32.3456 22.499 32.919 21.4257C32.9788 21.2983 33.052 21.1776 33.1375 21.0657C33.1834 21.0053 33.2434 20.9571 33.3121 20.9251C33.3809 20.8931 33.4564 20.8784 33.5322 20.8822C33.6079 20.886 33.6816 20.9082 33.7469 20.9468C33.8121 20.9855 33.8669 21.0395 33.9066 21.1041C34.0131 21.2847 34.0732 21.4889 34.0814 21.6984C34.1094 22.2823 34.0954 22.8679 34.1111 23.4465C34.1289 23.598 34.1599 23.7478 34.2038 23.894Z" fill="white"/>
<path d="M20.6867 44.2832C20.9384 45.0086 21.1779 45.7375 21.4454 46.4559C21.7994 47.468 22.2937 48.4253 22.9137 49.3C23.1095 49.5657 23.2983 49.8349 23.4888 50.1023C22.9015 50.8802 22.0449 50.9763 21.2828 50.2771C21.1272 50.1373 20.9489 50.0202 20.7811 49.8926C20.7583 49.8105 20.7235 49.7321 20.678 49.6601C19.98 48.8206 19.4372 47.8635 19.0751 46.8335C18.5506 45.3582 18.0752 43.8619 17.5805 42.3691C17.4739 41.6961 17.3777 41.0231 17.2571 40.3519C16.9477 38.6353 16.6191 36.9205 16.3167 35.2022C16.0597 33.7461 15.8097 32.2865 15.593 30.8321C15.3448 29.14 15.1385 27.441 14.9113 25.7454C14.7837 24.784 14.6124 23.8226 14.5354 22.8611C14.4743 22.0868 14.5197 21.3036 14.5267 20.524C14.5328 20.4003 14.56 20.2785 14.6071 20.1639C14.6347 20.06 14.6979 19.969 14.7858 19.907C14.8737 19.845 14.9806 19.8159 15.0878 19.8248C15.1959 19.8209 15.3018 19.8565 15.3854 19.9251C15.4691 19.9936 15.5249 20.0904 15.5423 20.1972C15.621 20.594 15.6891 20.996 15.7416 21.398C15.9688 23.1461 16.1751 24.8941 16.4198 26.6421C16.6331 28.1786 16.8743 29.7099 17.119 31.2394C17.4337 33.1517 17.7361 35.0676 18.1101 36.9694C18.4824 38.946 19.0198 40.8878 19.7166 42.7746C19.8914 43.2186 20.1186 43.6381 20.3231 44.0699C20.3948 44.2307 20.4805 44.3688 20.6867 44.2832Z" fill="white"/>
<path d="M71.7862 50.5211C70.5014 49.2345 70.136 47.5669 69.3389 46.0147C69.2578 46.2068 69.1957 46.4065 69.1537 46.6108C69.0488 47.9917 68.2657 48.9496 67.2168 49.7467C66.9931 49.9215 66.7659 50.0963 66.5281 50.2397C66.3889 50.3103 66.2439 50.3688 66.0946 50.4145C66.0454 50.2729 66.0063 50.128 65.9775 49.9809C65.7596 48.0535 65.5451 46.1254 65.3342 44.1967C65.2608 43.5482 65.1891 42.8997 65.1105 42.2529C65.0834 42.0958 65.0893 41.9348 65.1278 41.7801C65.1663 41.6255 65.2366 41.4805 65.3342 41.3544C65.9843 40.6044 66.7984 40.0141 67.7133 39.6292C67.986 40.4402 67.937 41.2915 68.0629 42.1148C68.1887 42.9382 68.2377 43.7632 68.3198 44.6687C68.4255 44.584 68.5259 44.4929 68.6205 44.396C69.2996 43.5521 70.1568 42.8687 71.1307 42.3945C71.3058 42.327 71.4843 42.2687 71.6656 42.2197C72.0029 43.1112 72.3316 43.945 72.6322 44.7893C73.0273 45.9028 73.3978 47.025 73.7842 48.142C73.8908 48.4479 73.9013 48.7416 73.6653 48.9846C73.2213 49.4373 72.7756 49.8865 72.3071 50.3131C72.1672 50.4302 71.961 50.4547 71.7862 50.5211Z" fill="white"/>
<path d="M17.5811 42.3828C18.0758 43.8721 18.5443 45.3719 19.0757 46.8473C19.4378 47.8772 19.9806 48.8344 20.6786 49.6738C20.7242 49.7459 20.7589 49.8242 20.7818 49.9063C20.2206 50.4447 19.5826 50.2664 18.9428 49.7315C18.3016 49.1698 17.7756 48.4889 17.3941 47.7265C16.6797 46.3674 16.1388 44.9238 15.7842 43.4299C15.293 41.3322 14.8262 39.2469 14.4224 37.137C14.0711 35.3016 13.8194 33.4452 13.5257 31.6115C13.2862 30.1239 13.0363 28.6259 12.8178 27.1296C12.6744 26.1542 12.566 25.1735 12.4682 24.1929C12.3545 23.1423 12.2531 22.083 12.1797 21.0342C12.1785 20.6117 12.2041 20.1896 12.2566 19.7704C12.2525 19.6536 12.2927 19.5396 12.3693 19.4514C12.4458 19.3632 12.553 19.3072 12.6692 19.2949C12.731 19.2787 12.7955 19.2759 12.8584 19.2867C12.9214 19.2974 12.9813 19.3214 13.0343 19.3572C13.0872 19.3929 13.1319 19.4395 13.1654 19.4939C13.1989 19.5482 13.2204 19.6091 13.2285 19.6725C13.3154 20.0494 13.3796 20.4311 13.4208 20.8157C13.6679 22.5567 13.9114 24.2989 14.1515 26.0423C14.3123 27.2292 14.4364 28.4213 14.6165 29.6048C14.8251 30.9787 15.0581 32.348 15.3157 33.7126C15.5761 35.1827 15.8506 36.6528 16.2002 38.1071C16.4781 39.2871 16.8557 40.4425 17.1913 41.6032C17.2542 41.8234 17.3067 42.0472 17.3888 42.2587C17.4028 42.3216 17.513 42.3444 17.5811 42.3828Z" fill="white"/>
<path d="M76.9924 44.753C77.0117 45.4295 77.2739 45.9767 77.5745 46.4871C78.3716 47.8505 79.5376 48.6896 81.1405 48.8696C81.5286 48.9133 81.6282 49.1476 81.3677 49.4447C80.9427 49.9727 80.3792 50.3721 79.7403 50.5984C79.3607 50.6888 78.9671 50.7048 78.5814 50.6456C76.2793 50.4254 74.6886 48.957 74.1379 47.029C73.6904 45.4558 73.9631 44.0468 75.1028 42.8529C76.3754 41.5227 77.9801 40.8165 79.7666 40.5176C80.0124 40.4635 80.2689 40.4834 80.5034 40.5749C80.738 40.6663 80.9402 40.8252 81.0846 41.0315C81.237 41.2427 81.3191 41.4965 81.3191 41.7569C81.3191 42.0174 81.237 42.2712 81.0846 42.4824C80.8041 42.8884 80.4613 43.2476 80.069 43.5469C79.1667 44.2112 78.1058 44.6271 76.9924 44.753ZM76.9138 43.4682L78.3594 42.7096C78.2153 42.5825 78.0377 42.4994 77.8477 42.4703C77.6578 42.4412 77.4635 42.4672 77.2879 42.5453C76.9522 42.6799 76.961 43.0749 76.9138 43.4682Z" fill="white"/>
<path d="M60.2485 44.8318C60.3217 45.1358 60.411 45.4357 60.516 45.7303C61.2309 47.4783 62.4633 48.6023 64.3914 48.8627C64.5504 48.8855 64.7497 48.8785 64.7654 49.076C64.7686 49.1518 64.7566 49.2275 64.7302 49.2986C64.7038 49.3697 64.6635 49.4349 64.6116 49.4903C64.227 49.8277 63.825 50.1458 63.4107 50.4447C63.0611 50.6947 62.6433 50.6859 62.2325 50.6667C60.4548 50.5758 59.0022 49.8766 58.046 48.3558C56.6791 46.1725 56.9972 43.8302 59.0669 42.2377C60.2102 41.3311 61.5721 40.7415 63.0157 40.5282C63.7533 40.4233 64.5067 40.7257 64.5889 41.6242C64.626 42.0137 64.5115 42.4026 64.269 42.7097C63.6991 43.4718 62.9178 43.9491 62.0507 44.2829C61.4984 44.4892 60.9145 44.6325 60.2485 44.8318ZM60.1769 43.3722L60.2678 43.4456L61.6767 42.6887C61.3096 42.4545 60.9355 42.4475 60.4828 42.5332C60.3831 42.7989 60.28 43.0855 60.1751 43.3722H60.1769Z" fill="white"/>
<path d="M54.7046 42.7566C55.4178 42.1798 56.0471 41.6397 56.7113 41.1467C57.063 40.9131 57.4344 40.7107 57.8213 40.5419C57.9514 40.4869 58.0909 40.4578 58.2321 40.4562C58.7146 40.437 58.9593 40.7901 58.7303 41.2236C58.5353 41.5589 58.3162 41.8797 58.0748 42.1833C57.5552 42.8568 56.918 43.4307 56.1939 43.8771C55.7172 44.1563 55.3396 44.5774 55.1136 45.0815C55.0256 45.2715 54.9894 45.4814 55.0087 45.6898C55.1486 46.4712 55.021 47.2421 54.9423 48.0129C54.8989 48.2738 54.7812 48.5166 54.6032 48.7122C53.9923 49.4468 53.287 50.0975 52.5056 50.6472C52.419 50.7084 52.3279 50.7628 52.2329 50.8098C51.8413 50.9846 51.5162 50.8745 51.3921 50.4602C51.1959 49.8713 51.1273 49.2474 51.1911 48.63C51.2505 48.1615 51.3973 47.7035 51.4865 47.2316C51.5316 47.0097 51.548 46.7829 51.5354 46.5568C51.4527 45.3787 51.3618 44.2011 51.2627 43.0241C51.2371 42.7943 51.2648 42.5617 51.3436 42.3444C51.4224 42.127 51.5503 41.9307 51.7172 41.7708C52.2241 41.2831 52.766 40.8373 53.3132 40.3811C53.3976 40.3174 53.4922 40.2684 53.5928 40.236C54.1452 40.0315 54.4913 40.2587 54.5298 40.8461C54.5647 41.374 54.6026 41.9019 54.6434 42.4298C54.6577 42.5398 54.6781 42.6489 54.7046 42.7566Z" fill="white"/>
<path d="M82.7027 43.1066L83.3757 43.2954C83.832 44.8686 84.2165 46.5223 85.4471 47.8298C85.7181 47.5134 85.788 47.1673 85.8789 46.8334C86.2023 45.6622 86.5169 44.4876 86.8456 43.3199C87.1532 42.2291 88.0395 41.6418 88.896 41.0474C89.2124 40.8289 89.4973 41.0177 89.4886 41.4075C89.4492 42.3773 89.2775 43.3371 88.9782 44.2603C88.358 46.3405 87.1427 48.1938 85.4821 49.5918C85.0294 49.9763 84.4857 50.256 83.9998 50.6074C83.6991 50.8224 83.4509 50.7595 83.1747 50.5759C82.5051 50.1337 81.9748 49.5106 81.6452 48.779C81.3043 48.0273 81.0579 47.2337 80.7712 46.4558C80.717 46.3072 80.703 46.1429 80.6453 45.9978C80.5176 45.7318 80.486 45.4297 80.5558 45.1429C80.6255 44.8561 80.7925 44.6023 81.0281 44.4246C81.5788 43.9579 82.1644 43.5279 82.7027 43.1066Z" fill="white"/>
<path d="M95.1486 50.8904C94.7762 50.8904 94.4039 50.8904 94.0316 50.8904C93.7781 50.8904 93.5823 50.8257 93.488 50.5618C93.4502 50.4613 93.4469 50.3512 93.4786 50.2487C93.5102 50.1462 93.575 50.0571 93.6628 49.9954C94.3043 49.4867 94.965 49.0305 95.8355 48.9816C96.4882 48.9402 97.1379 48.8602 97.7811 48.7421C98.2146 48.6652 98.3719 48.3925 98.3614 47.9782C98.3614 47.7107 98.1866 47.5587 98.0013 47.4206C97.5521 47.071 97.0854 46.7546 96.6344 46.412C96.4362 46.2641 96.2514 46.0992 96.082 45.919C95.8967 45.7364 95.7818 45.4943 95.7575 45.2353C95.7332 44.9763 95.8011 44.717 95.9492 44.5031C96.3132 43.9298 96.8286 43.4682 97.4385 43.1694C98.7145 42.4824 100.019 41.8444 101.321 41.2029C101.74 40.9948 102.081 41.0613 102.232 41.3182C102.382 41.5752 102.263 41.9772 101.882 42.222C101.345 42.5628 100.768 42.839 100.234 43.1834C99.8613 43.4209 99.5145 43.6962 99.1987 44.0049C98.8579 44.3406 98.8928 44.5468 99.2092 44.9139C99.7861 45.5834 100.366 46.2511 100.922 46.9399C101.206 47.282 101.388 47.6969 101.447 48.1373C101.494 48.4341 101.426 48.7377 101.258 48.9868C100.873 49.5675 100.306 50.0041 99.6462 50.2279C98.7969 50.5355 97.9082 50.7209 97.0067 50.7785C96.3879 50.824 95.7709 50.8729 95.1538 50.9201L95.1486 50.8904Z" fill="white"/>
<path d="M92.6822 43.0171C93.3692 42.386 93.9635 41.8057 94.6051 41.2691C94.9553 41.0033 95.3285 40.7693 95.7203 40.5698C95.9231 40.4527 96.1748 40.3758 96.3531 40.5908C96.5314 40.8058 96.4545 41.0296 96.3199 41.2323C95.75 42.0854 95.1819 42.9349 94.3096 43.531C93.8273 43.8342 93.4354 44.2617 93.1752 44.7686C93.0503 45.0215 92.9903 45.3014 93.0004 45.5832C93.0196 46.1495 93.0109 46.7159 93.0004 47.2823C93.0004 47.8818 92.857 48.436 92.413 48.8765C91.8484 49.4323 91.303 50.0127 90.707 50.5371C90.2787 50.9129 89.9641 50.7835 89.8417 50.2329C89.6271 49.3526 89.6488 48.4312 89.9046 47.5619C90.0285 47.0835 90.0629 46.5863 90.006 46.0953C89.9466 45.1444 89.8906 44.1918 89.7997 43.2443C89.7516 42.9108 89.7868 42.5706 89.902 42.254C90.0173 41.9375 90.2092 41.6543 90.4605 41.4299C90.8521 41.0803 91.2471 40.7202 91.6579 40.3811C91.7879 40.2939 91.9387 40.2426 92.0949 40.2325C92.1434 40.2228 92.1934 40.2241 92.2413 40.2363C92.2891 40.2485 92.3337 40.2713 92.3716 40.303C92.4095 40.3347 92.4398 40.3745 92.4603 40.4195C92.4808 40.4645 92.4909 40.5134 92.4899 40.5629C92.5127 40.7901 92.5371 41.0191 92.5564 41.2481C92.5896 41.8179 92.635 42.3808 92.6822 43.0171Z" fill="white"/>
<path d="M102.641 49.8398H103.845V50.8589H102.641V49.8398Z" fill="white"/>
<path d="M34.5308 42.6924L33.0887 43.4598C33.0293 43.0805 33.1569 42.7169 33.3964 42.5631C33.7215 42.3603 34.1375 42.46 34.5308 42.6924Z" fill="white"/>
<path d="M76.918 43.4684C76.9652 43.0751 76.9564 42.6801 77.292 42.5402C77.4676 42.4621 77.662 42.4361 77.8519 42.4652C78.0419 42.4943 78.2195 42.5774 78.3636 42.7045L76.918 43.4684Z" fill="white"/>
<path d="M60.1797 43.3719C60.2846 43.0853 60.3877 42.7986 60.4856 42.5329C60.9383 42.4472 61.3124 42.4542 61.6795 42.6885L60.2706 43.4454L60.1797 43.3719Z" fill="white"/>
</svg>
