<svg width="116" height="72" viewBox="0 0 116 72" fill="none" xmlns="http://www.w3.org/2000/svg">
<path d="M95.8076 51.0864C93.1579 51.0864 90.6442 50.3593 88.152 49.5876C85.3386 48.7462 82.6618 47.5021 80.2048 45.8939C79.5011 45.4254 79.019 45.6859 78.4999 46.1661C76.8417 47.6941 75.2126 49.2571 73.498 50.7229C71.554 52.3772 69.5458 53.948 67.1935 54.9997C66.4373 55.3341 65.613 55.6374 64.8024 55.6937C63.2141 55.8045 62.3743 54.7392 62.9769 53.2637C63.6448 51.5593 64.4851 49.9275 65.4847 48.3939C67.3763 45.5965 69.4369 42.9099 71.4743 40.2135C71.9953 39.5214 72.075 39.0471 71.5345 38.2695C68.8868 34.5467 67.0827 30.3748 65.3137 26.1971C65.0353 25.4747 64.8885 24.7084 64.8801 23.9343C64.8374 22.8262 65.4011 22.2546 66.5092 22.1847C66.9466 22.1574 67.3976 22.2857 67.837 22.3693C71.5306 23.0692 74.4467 25.091 76.9739 27.7621C77.7048 28.5397 78.4941 29.2512 79.229 30.0191C79.7636 30.577 80.201 30.5653 80.7842 30.0366C82.5979 28.3919 84.3962 26.7181 86.3285 25.2212C87.929 23.9764 89.6352 22.8738 91.4277 21.9261C92.2053 21.514 93.3037 21.5859 94.2523 21.6092C94.9386 21.6267 94.9969 22.2896 95.0299 22.8631C95.131 24.7294 94.5517 26.4129 93.6866 28.0303C92.0071 31.1532 90.0285 34.1057 87.7788 36.8465C86.8242 38.0129 86.9098 38.4425 88.2259 39.2279C91.6707 41.2847 94.8355 43.6991 97.5747 46.6327C98.2551 47.3597 99.0444 48.1879 98.9005 49.4165C98.7877 50.3885 98.2492 51.0184 97.2617 51.0767C96.7776 51.1078 96.2916 51.0864 95.8076 51.0864ZM70.024 27.904L69.7966 27.9234C69.7285 28.0773 69.6915 28.2431 69.6877 28.4114C69.8107 29.2032 69.9795 29.9874 70.1931 30.7597C70.8405 32.8748 71.7309 34.8616 73.3911 36.4129C73.7799 36.7687 74.1337 37.0797 74.6275 36.6073C75.061 36.1952 75.3098 35.7675 74.8588 35.1882C73.0625 32.8865 71.2254 30.6081 70.024 27.904ZM87.388 29.5272L87.0964 29.3017C85.7667 30.5809 84.4098 31.8289 83.1209 33.1548C82.6213 33.666 83.1209 34.0957 83.4864 34.4534C83.9257 34.8752 84.264 34.5992 84.5109 34.2259C85.4498 32.8107 86.3693 31.3818 87.285 29.9491C87.342 29.815 87.3768 29.6725 87.388 29.5272ZM90.1291 46.9884L90.2535 46.7065C90.0129 46.5084 89.7618 46.3234 89.5012 46.1525C87.5921 45.0211 85.6792 43.8961 83.7624 42.7777C83.5259 42.6111 83.263 42.4855 82.9848 42.4064C82.8805 42.4022 82.7767 42.4217 82.6811 42.4635C82.5854 42.5052 82.5005 42.5681 82.4327 42.6474C82.3588 42.7407 82.4327 43.0226 82.5338 43.1606C82.6584 43.3083 82.8163 43.4242 82.9945 43.4989C84.8452 44.4709 86.6882 45.4429 88.5583 46.3974C89.0704 46.6238 89.5948 46.8211 90.1291 46.9884ZM68.185 48.3862C67.4715 49.4845 66.5889 50.3788 66.5228 51.7357C67.0556 51.5996 67.5657 51.3868 68.0372 51.1039C68.1268 51.0427 68.2018 50.9626 68.2569 50.8692C68.312 50.7758 68.3458 50.6714 68.356 50.5635C68.3366 49.8869 68.253 49.2143 68.185 48.3862ZM72.1916 46.5802C73.2005 45.1299 74.6702 43.9907 75.2554 42.2528C74.4331 42.4491 72.7029 44.9064 72.1877 46.5802H72.1916ZM77.3219 39.2979V39.5836C77.7569 39.9473 78.2112 40.2874 78.6827 40.6023C78.7931 40.6474 78.9125 40.6665 79.0315 40.658C79.1505 40.6496 79.2659 40.6139 79.3689 40.5537C79.505 40.4662 79.6139 40.0444 79.54 39.9705C79.1599 39.5733 78.7172 39.241 78.2297 38.9868C78.0276 38.8974 77.6387 39.1851 77.3219 39.2979ZM74.678 45.3652C76.0796 44.71 76.6512 44.0043 76.4023 43.1587C75.7764 43.9577 75.2262 44.6711 74.678 45.3652ZM69.9015 25.6314C69.921 25.5536 69.9424 25.4759 69.9638 25.3981C69.6469 25.2445 69.3417 25.0093 69.0112 24.9724C68.8284 24.9491 68.6088 25.2504 68.4046 25.4059C68.5991 25.542 68.7837 25.7714 68.9879 25.7947C69.2853 25.8141 69.5963 25.6917 69.9015 25.6314Z" fill="white"/>
<path d="M44.5033 34.2492C46.3307 35.5108 48.1017 36.79 49.933 37.9778C50.8117 38.5474 51.8478 38.8721 52.7304 39.4378C53.543 39.9588 54.48 40.4273 54.6258 41.6015C54.6569 41.8542 54.9699 42.0991 55.1974 42.2955C55.8564 42.8631 56.5737 43.3647 57.1978 43.9634C58.1017 44.8285 57.9909 45.5303 56.8265 45.888C53.7588 46.8309 50.6484 47.4432 47.3999 46.9475C43.4244 46.3371 40.0282 44.5155 36.8905 42.1186C35.6794 41.1932 35.6794 41.1738 34.5947 42.2547C30.7241 46.1077 26.595 49.6419 21.9993 52.6182C21.3589 53.0487 20.6569 53.3797 19.9173 53.6C18.6751 53.9382 18.1444 53.4056 18.3038 52.1517C18.3232 51.9942 18.3349 51.8367 18.364 51.551C18.0238 51.5218 17.7225 51.4907 17.4192 51.4693C16.5211 51.4071 16.0098 50.715 16.3306 49.8655C16.5415 49.3256 16.831 48.8199 17.1898 48.3647C19.406 45.5167 21.5872 42.6396 23.9045 39.8752C25.4072 38.0828 27.1043 36.4498 28.747 34.776C29.3089 34.2045 29.3536 33.7321 28.9784 32.9914C27.6934 30.4642 26.0857 28.1313 24.5071 25.781C23.5415 24.3007 22.7057 22.7397 22.0091 21.1154C21.3462 19.6224 21.9955 18.8759 23.5798 19.0819C23.7742 19.1053 24.0328 19.1908 24.1358 19.1014C24.8804 18.454 25.4655 18.907 26.0215 19.3599C27.5301 20.6158 29.0017 21.926 30.5317 23.1488C32.1374 24.4416 33.7918 25.676 35.4228 26.9358C35.9613 27.3537 36.3948 27.206 36.8769 26.7939C39.0776 24.9548 41.2199 23.0302 43.5508 21.37C45.6639 19.8615 47.9637 18.5979 50.246 17.3459C50.94 16.9571 51.8498 16.8988 52.6702 16.8502C53.4478 16.8035 53.7433 17.2234 53.5061 17.9661C53.2689 18.7087 53.4167 19.3638 53.5916 20.1045C53.786 20.8918 53.786 21.928 53.3972 22.6064C52.3512 24.5604 51.1532 26.4292 49.8144 28.1955C48.2183 30.2503 46.3871 32.1224 44.5033 34.2492ZM39.4236 30.1473C39.8377 30.5167 40.106 30.7461 40.3645 30.9871C40.7766 31.3759 41.1421 31.3331 41.5173 30.9152C44.1184 28.0186 46.7221 25.1233 49.3284 22.2293C49.5187 21.9705 49.6822 21.693 49.8163 21.4011L49.6219 21.267C45.8291 23.732 42.5535 26.7861 39.4236 30.1473ZM30.6891 35.7655L30.3995 35.5439C26.034 39.6304 22.1321 44.1855 18.7645 49.1268C19.6801 49.1423 20.0806 48.7244 20.4616 48.2228C22.1393 46.0183 23.8209 43.8176 25.5316 41.6384C26.1459 40.8608 26.8283 40.1221 27.5087 39.3931C28.5157 38.3161 29.5519 37.2663 30.5628 36.1913C30.6541 36.096 30.6483 35.9094 30.6891 35.7655ZM28.0686 24.5369L27.8742 24.7313C27.9674 25.0353 28.0824 25.3322 28.2183 25.6197C29.0717 27.1282 29.9679 28.6212 30.8077 30.1317C31.875 32.0272 32.0208 31.2982 33.0492 30.3573C33.5702 29.881 33.5682 29.4824 33.0492 28.9964C31.6553 27.7095 30.2886 26.3914 28.8967 25.1084C28.6358 24.8968 28.3589 24.7057 28.0686 24.5369ZM52.4641 44.3892C51.5115 43.3744 50.5473 42.5735 49.0135 42.554C47.6196 42.5365 46.2218 42.1769 44.8416 41.895C43.9862 41.72 43.1561 41.4129 42.3144 41.1641L42.2463 41.3915C45.3451 43.3686 48.6072 44.8188 52.4641 44.3892ZM47.5924 40.5886C46.9508 40.091 46.5057 39.6788 45.9983 39.3678C45.2732 38.9207 44.4858 38.5727 43.7549 38.1275C43.263 37.8301 42.8451 37.4102 42.3591 37.1011C42.1433 36.963 41.7428 36.8172 41.5931 36.9203C40.9827 37.3421 40.4267 37.8553 39.8435 38.3569C40.9322 39.2162 46.2977 40.8083 47.5924 40.5886ZM44.0445 31.8405L44.2389 32.0097C44.473 31.855 44.6935 31.6807 44.898 31.4887C46.3929 29.8499 47.9442 28.2558 49.3362 26.5334C50.3607 25.2659 51.1869 23.8351 52.0578 22.4509C52.2172 22.1963 52.188 21.823 52.2522 21.5042L51.9392 21.407L44.0445 31.8405ZM38.4069 33.979C38.0297 33.631 37.707 33.2363 37.293 33.007C37.1277 32.9117 36.7097 33.0925 36.4998 33.2674C36.1222 33.6132 35.7724 33.9883 35.4539 34.3891C34.8143 35.1337 34.8707 35.3378 35.6639 35.8919C36.0877 36.1835 36.4104 36.1602 36.7583 35.7986C37.1355 35.4098 37.536 35.0443 37.9248 34.6535C38.1006 34.439 38.2629 34.2137 38.4108 33.979H38.4069ZM28.298 42.4802L28.4924 42.6921L33.0744 39.0159L32.3843 38.0614C30.7864 39.2943 29.4053 40.7851 28.298 42.4724V42.4802ZM41.9547 43.5805L42.0927 43.3861L37.4699 40.1376L37.2424 40.4681C38.6661 41.7106 40.2512 42.7549 41.9547 43.5727V43.5805ZM34.9971 31.1387C33.8656 31.4887 33.053 32.4335 33.1055 33.2947C33.9706 32.6823 34.6238 32.0349 34.9971 31.1251V31.1387ZM40.6561 26.0843L40.4189 25.8141C39.4236 26.6053 38.3991 27.3693 37.6021 28.3724L37.8392 28.6271L40.6561 26.0843Z" fill="white"/>
</svg>
