<svg width="190" height="182" viewBox="0 0 190 182" fill="none" xmlns="http://www.w3.org/2000/svg">
<path d="M182.766 130.91L175.864 125.807L174.902 122.216C176.916 120.389 178.401 118.055 179.202 115.457C180.003 112.862 180.089 110.099 179.452 107.459C178.781 104.699 177.347 102.184 175.313 100.203C173.276 98.219 170.722 96.847 167.943 96.246L155.659 50.3984C154.79 47.1516 152.864 44.287 150.185 42.2576C147.503 40.2264 144.221 39.1442 140.857 39.1811L140.329 37.2126C140.298 37.0947 140.234 36.9556 140.185 36.8329C140.148 36.7381 140.109 36.6439 140.068 36.5506C140.027 36.4582 139.95 36.2695 139.888 36.134C139.826 35.9994 139.845 35.9736 139.785 35.906C139.712 35.7509 139.638 35.5965 139.561 35.4431C139.543 35.3755 139.491 35.3169 139.457 35.2474C139.374 35.0967 139.298 34.9454 139.209 34.7912L139.096 34.6019C139.01 34.4583 138.923 34.3086 138.823 34.1531C138.723 33.9967 138.726 34.0063 138.681 33.9355L138.42 33.5498L138.225 33.2894C138.145 33.1858 138.069 33.0757 137.983 32.9733C137.899 32.8697 137.812 32.7625 137.727 32.6601C137.642 32.5584 137.594 32.4979 137.527 32.4216C137.459 32.3456 137.315 32.1802 137.205 32.0627L137.037 31.8841C136.919 31.7575 136.797 31.6349 136.672 31.5162L136.523 31.3698L136.134 31.0132C136.08 30.9707 136.031 30.9208 135.975 30.8735L135.587 30.5542L135.394 30.402L135.026 30.1246C134.944 30.0689 134.864 30.0103 134.786 29.9489L134.442 29.7221C134.345 29.6548 134.245 29.5927 134.143 29.5258L133.831 29.3382L133.478 29.1345L133.33 29.049L133.177 28.9698L132.808 28.781L132.495 28.6298L132.144 28.4734L131.796 28.3264C131.69 28.2824 131.583 28.2374 131.474 28.1985L131.09 28.056L130.796 27.9576L130.378 27.8232L130.096 27.7476L129.661 27.6293L129.377 27.5696C129.234 27.5341 129.09 27.5031 128.945 27.4764C128.802 27.4526 128.736 27.4392 128.631 27.4196C128.497 27.3942 128.362 27.3728 128.226 27.3553L127.863 27.3076L127.501 27.2678L127.09 27.2374L126.771 27.2183L126.328 27.2065L126.038 27.2003L125.586 27.2118L125.3 27.22L124.859 27.2553L124.551 27.2799L124.145 27.3265L123.798 27.3782L123.426 27.4404C123.305 27.4731 123.171 27.4831 123.048 27.5108C122.924 27.5389 122.823 27.5712 122.71 27.6012L11.7894 57.3224C7.9041 58.3626 4.5898 60.9011 2.5733 64.3812C1.5764 66.1018 0.928803 68.0021 0.667503 69.9733C0.406203 71.9445 0.536402 73.9479 1.0506 75.8687L23.1864 158.481C23.9652 161.387 25.5954 163.994 27.8681 165.969C30.1424 167.946 32.9542 169.2 35.9446 169.571L35.9591 169.625C36.998 173.503 39.539 176.808 43.0216 178.813C46.5079 180.818 50.6475 181.36 54.5323 180.318L115.154 164.074C116.42 166.601 118.37 168.723 120.781 170.199C123.28 171.726 126.168 172.499 129.097 172.425C132.026 172.351 134.871 171.432 137.29 169.779C139.79 168.072 141.721 165.656 142.837 162.841L143.832 160.323L154.116 168.275C155.966 169.707 158.121 170.692 160.415 171.152C162.708 171.613 165.077 171.538 167.336 170.932C170.537 170.074 173.369 168.194 175.401 165.581L185.7 152.333C186.94 150.742 187.849 148.918 188.373 146.97C188.896 145.022 189.025 142.989 188.75 140.991C188.476 138.996 187.805 137.077 186.777 135.345C185.749 133.614 184.386 132.106 182.766 130.91Z" fill="#FBFFE1" stroke="black" stroke-miterlimit="10"/>
<path d="M157.607 116.273L162.43 134.275L162.179 134.609L147.271 123.582C147.254 123.569 147.241 123.554 147.232 123.535C147.223 123.517 147.218 123.497 147.217 123.476C147.217 123.455 147.222 123.435 147.231 123.417C147.241 123.398 147.255 123.383 147.273 123.372L157.538 116.172L157.607 116.273ZM141.032 54.4136L155.739 109.301L155.656 109.893L143.528 108.243L143.571 107.918L130.025 57.3619L141.031 54.4127L141.032 54.4136ZM137.332 136.199L143.237 140.769L143.027 141.04L134.341 143.367L137.151 136.263C137.158 136.245 137.169 136.23 137.184 136.217C137.204 136.199 137.229 136.188 137.255 136.185C137.282 136.182 137.308 136.187 137.332 136.199ZM118.765 132.934L124.143 146.092L124.078 146.119L50.6465 165.795L47.0046 152.204L118.462 133.057L118.765 132.934Z" fill="black"/>
<path d="M118.458 133.057L37.8699 154.65L15.7344 72.0394L126.035 42.4844L143.568 107.917M20.0149 86.84L129.915 57.3922M115.817 61.1687L112.051 47.1145" stroke="black" stroke-linecap="round" stroke-linejoin="round"/>
<path d="M115.818 61.168L120.762 52.1233L126.037 42.4833M124.076 146.118L50.6445 165.794L46.9375 151.959M143.026 141.042L134.34 143.369M157.605 116.272L162.429 134.274" stroke="black" stroke-linecap="round" stroke-linejoin="round"/>
<path d="M112.054 47.1136L120.763 52.1242L129.918 57.3911L141.032 54.4131L155.739 109.3M119.638 104.99L143.546 108.236L155.675 109.885L164.748 111.111L157.558 116.171L147.293 123.371C147.267 123.389 147.249 123.415 147.241 123.445C147.233 123.475 147.237 123.507 147.252 123.535C147.262 123.553 147.275 123.569 147.291 123.581L162.2 134.608L173.772 143.166L163.451 156.414L143.237 140.77L137.331 136.2C137.316 136.188 137.297 136.18 137.278 136.177C137.259 136.172 137.239 136.173 137.221 136.178C137.202 136.183 137.184 136.192 137.17 136.206C137.155 136.218 137.143 136.234 137.136 136.252L134.327 143.356L128.766 157.383L124.165 146.079L118.78 132.898L111.944 116.161M25.9 78.2901C26.5317 78.1209 26.907 77.4737 26.7382 76.8439C26.5695 76.2141 25.9209 75.8413 25.2892 76.0105C24.6584 76.1795 24.2831 76.8267 24.4519 77.4565C24.6206 78.0863 25.2692 78.4591 25.9 78.2901ZM33.5656 76.2361C33.8679 76.1551 34.1256 75.9574 34.2821 75.6863C34.4386 75.4153 34.481 75.0932 34.4 74.7909C34.319 74.4886 34.1212 74.2309 33.8502 74.0744C33.5792 73.918 33.2571 73.8756 32.9548 73.9566C32.3231 74.1258 31.9478 74.773 32.1165 75.4028C32.2853 76.0326 32.9339 76.4054 33.5656 76.2361ZM41.2302 74.1824C41.8619 74.0131 42.2372 73.366 42.0685 72.7362C41.8997 72.1064 41.2511 71.7336 40.6194 71.9028C39.9886 72.0718 39.6134 72.719 39.7821 73.3488C39.9509 73.9786 40.5995 74.3514 41.2302 74.1824Z" stroke="black" stroke-linecap="round" stroke-linejoin="round"/>
<path d="M111.929 116.197L106.63 103.222L119.639 104.991C124.973 94.004 120.995 87.465 113.705 86.346C104.731 84.975 95.524 94.31 95.524 94.31C95.524 94.31 92.835 72.7071 68.851 86.002C46.3478 98.477 40.9959 118.991 48.8689 127.077C60.2708 138.793 78.856 120.761 78.856 120.761C80.529 136.545 100.813 128.16 111.929 116.197Z" stroke="black" stroke-linecap="round" stroke-linejoin="round"/>
<path d="M139.816 70.0442C158.87 70.0442 174.316 54.598 174.316 35.5442C174.316 16.4904 158.87 1.0442 139.816 1.0442C120.762 1.0442 105.316 16.4904 105.316 35.5442C105.316 54.598 120.762 70.0442 139.816 70.0442Z" fill="#FF7979" stroke="black"/>
<path d="M120.547 42.5442H123.067V25.7442H120.787C120.331 28.1442 118.435 29.4402 115.867 29.7042L116.347 32.4642C118.051 32.3682 120.067 30.9522 120.547 29.4642V42.5442ZM130.407 31.1682V42.5442H132.927V35.6562C132.927 34.0482 133.695 33.1842 134.847 33.1842C135.975 33.1842 136.767 34.0002 136.767 35.4162V42.5442H139.287V35.4162C139.287 34.0002 140.079 33.1842 141.207 33.1842C142.335 33.1842 143.127 34.0002 143.127 35.4162V42.5442H145.647V34.8642C145.647 32.2962 144.279 30.9282 142.167 30.9282C140.751 30.9282 139.503 31.6962 138.927 33.3042C138.471 31.6962 137.343 30.9282 135.927 30.9282C134.415 30.9282 133.431 31.6242 132.927 32.7762V31.1682H130.407ZM147.872 31.1682V42.5442H150.392V31.1682H147.872ZM147.752 29.2242H150.512V26.4642H147.752V29.2242ZM155.153 42.5442V36.2082C155.153 34.2642 156.305 33.0882 157.841 33.0882C159.281 33.0882 160.193 34.1442 160.193 35.9682V42.5442H162.713V35.1042C162.713 32.5122 161.105 30.9282 158.729 30.9282C157.217 30.9282 155.945 31.5042 155.153 32.8242V31.1682H152.633V42.5442H155.153Z" fill="black"/>
</svg>
