<svg width="264" height="235" viewBox="0 0 264 235" fill="none" xmlns="http://www.w3.org/2000/svg">
<g clip-path="url(#clip0_337_15997)">
<path d="M221.766 147.91L214.864 142.807L213.902 139.216C215.916 137.389 217.401 135.055 218.202 132.457C219.003 129.862 219.089 127.099 218.452 124.459C217.781 121.699 216.347 119.184 214.313 117.203C212.276 115.219 209.722 113.847 206.943 113.246L194.659 67.3984C193.79 64.1516 191.864 61.287 189.185 59.2576C186.503 57.2264 183.221 56.1442 179.857 56.1811L179.329 54.2126C179.298 54.0947 179.234 53.9556 179.185 53.8329C179.148 53.7381 179.109 53.6439 179.068 53.5506C179.027 53.4582 178.95 53.2695 178.888 53.134C178.826 52.9994 178.845 52.9736 178.785 52.906C178.712 52.7509 178.638 52.5965 178.561 52.4431C178.543 52.3755 178.491 52.3169 178.457 52.2474C178.374 52.0967 178.298 51.9454 178.209 51.7912L178.096 51.6019C178.01 51.4583 177.923 51.3086 177.823 51.1531C177.723 50.9967 177.726 51.0063 177.681 50.9355L177.42 50.5498L177.225 50.2894C177.145 50.1858 177.069 50.0757 176.983 49.9733C176.899 49.8697 176.812 49.7625 176.727 49.6601C176.642 49.5584 176.594 49.4979 176.527 49.4216C176.459 49.3456 176.315 49.1802 176.205 49.0627L176.037 48.8841C175.919 48.7575 175.797 48.6349 175.672 48.5162L175.523 48.3698L175.134 48.0132C175.08 47.9707 175.031 47.9208 174.975 47.8735L174.587 47.5542L174.394 47.402L174.026 47.1246C173.944 47.0689 173.864 47.0103 173.786 46.9489L173.442 46.7221C173.345 46.6548 173.245 46.5927 173.143 46.5258L172.831 46.3382L172.478 46.1345L172.33 46.049L172.177 45.9698L171.808 45.781L171.495 45.6298L171.144 45.4734L170.796 45.3264C170.69 45.2824 170.583 45.2374 170.474 45.1985L170.09 45.056L169.796 44.9576L169.378 44.8232L169.096 44.7476L168.661 44.6293L168.377 44.5696C168.234 44.5341 168.09 44.5031 167.945 44.4764C167.802 44.4526 167.736 44.4392 167.631 44.4196C167.497 44.3942 167.362 44.3728 167.226 44.3553L166.863 44.3076L166.501 44.2678L166.09 44.2374L165.771 44.2183L165.328 44.2065L165.038 44.2003L164.586 44.2118L164.3 44.22L163.859 44.2553L163.551 44.2799L163.145 44.3265L162.798 44.3782L162.426 44.4404C162.305 44.4731 162.171 44.4831 162.048 44.5108C161.924 44.5389 161.823 44.5712 161.71 44.6012L50.7894 74.3224C46.9041 75.3626 43.5898 77.9011 41.5733 81.3812C40.5764 83.1018 39.9288 85.0021 39.6675 86.9733C39.4062 88.9445 39.5364 90.9479 40.0506 92.8687L62.1864 175.481C62.9652 178.387 64.5954 180.994 66.8681 182.969C69.1424 184.946 71.9542 186.2 74.9446 186.571L74.9591 186.625C75.998 190.503 78.539 193.808 82.0216 195.813C85.5079 197.818 89.6475 198.36 93.5323 197.318L154.154 181.074C155.42 183.601 157.37 185.723 159.781 187.199C162.28 188.726 165.168 189.499 168.097 189.425C171.026 189.351 173.871 188.432 176.29 186.779C178.79 185.072 180.721 182.656 181.837 179.841L182.832 177.323L193.116 185.275C194.966 186.707 197.121 187.692 199.415 188.152C201.708 188.613 204.077 188.538 206.336 187.932C209.537 187.074 212.369 185.194 214.401 182.581L224.7 169.333C225.94 167.742 226.849 165.918 227.373 163.97C227.896 162.022 228.025 159.989 227.75 157.991C227.476 155.996 226.805 154.077 225.777 152.345C224.749 150.614 223.386 149.106 221.766 147.91Z" fill="#FBFFE1" stroke="black" stroke-miterlimit="10"/>
<path d="M196.607 133.273L201.43 151.275L201.179 151.609L186.271 140.582C186.254 140.569 186.241 140.554 186.232 140.535C186.223 140.517 186.218 140.497 186.217 140.476C186.217 140.455 186.222 140.435 186.231 140.417C186.241 140.398 186.255 140.383 186.273 140.372L196.538 133.172L196.607 133.273ZM180.032 71.4136L194.739 126.301L194.656 126.893L182.528 125.243L182.571 124.918L169.025 74.3619L180.031 71.4127L180.032 71.4136ZM176.332 153.199L182.237 157.769L182.027 158.04L173.341 160.367L176.151 153.263C176.158 153.245 176.169 153.23 176.184 153.217C176.204 153.199 176.229 153.188 176.255 153.185C176.282 153.182 176.308 153.187 176.332 153.199ZM157.765 149.934L163.143 163.092L163.078 163.119L89.6465 182.795L86.0046 169.204L157.462 150.057L157.765 149.934Z" fill="black"/>
<path d="M157.458 150.057L76.8699 171.65L54.7344 89.0394L165.035 59.4844L182.568 124.917M59.0149 103.84L168.915 74.3922M154.817 78.1687L151.051 64.1145" stroke="black" stroke-linecap="round" stroke-linejoin="round"/>
<path d="M154.818 78.168L159.762 69.1233L165.037 59.4833M163.076 163.118L89.6445 182.794L85.9375 168.959M182.026 158.042L173.34 160.369M196.605 133.272L201.429 151.274" stroke="black" stroke-linecap="round" stroke-linejoin="round"/>
<path d="M151.054 64.1136L159.763 69.1242L168.918 74.3911L180.032 71.4131L194.739 126.3M158.638 121.99L182.546 125.236L194.675 126.885L203.748 128.111L196.558 133.171L186.293 140.371C186.267 140.389 186.249 140.415 186.241 140.445C186.233 140.475 186.237 140.507 186.252 140.535C186.262 140.553 186.275 140.569 186.291 140.581L201.2 151.608L212.772 160.166L202.451 173.414L182.237 157.77L176.331 153.2C176.316 153.188 176.297 153.18 176.278 153.177C176.259 153.172 176.239 153.173 176.221 153.178V153.178C176.202 153.183 176.184 153.192 176.17 153.206C176.155 153.218 176.143 153.234 176.136 153.252L173.327 160.356L167.766 174.383L163.165 163.079L157.78 149.898L150.944 133.161M64.9 95.2901C65.5317 95.1209 65.907 94.4737 65.7382 93.8439C65.5695 93.2141 64.9209 92.8413 64.2892 93.0105C63.6584 93.1795 63.2831 93.8267 63.4519 94.4565C63.6206 95.0863 64.2692 95.4591 64.9 95.2901ZM72.5656 93.2361C72.8679 93.1551 73.1256 92.9574 73.2821 92.6863C73.4386 92.4153 73.481 92.0932 73.4 91.7909C73.319 91.4886 73.1212 91.2309 72.8502 91.0744C72.5792 90.918 72.2571 90.8756 71.9548 90.9566C71.3231 91.1258 70.9478 91.773 71.1165 92.4028C71.2853 93.0326 71.9339 93.4054 72.5656 93.2361ZM80.2302 91.1824C80.8619 91.0131 81.2372 90.366 81.0685 89.7362C80.8997 89.1064 80.2511 88.7336 79.6194 88.9028C78.9886 89.0718 78.6134 89.719 78.7821 90.3488C78.9509 90.9786 79.5995 91.3514 80.2302 91.1824Z" stroke="black" stroke-linecap="round" stroke-linejoin="round"/>
<path d="M150.929 133.197L145.63 120.222L158.639 121.991C163.973 111.004 159.995 104.465 152.705 103.346C143.731 101.975 134.524 111.31 134.524 111.31C134.524 111.31 131.835 89.7071 107.851 103.002C85.3478 115.477 79.9959 135.991 87.8689 144.077C99.2708 155.793 117.856 137.761 117.856 137.761C119.529 153.545 139.813 145.16 150.929 133.197V133.197Z" stroke="black" stroke-linecap="round" stroke-linejoin="round"/>
<circle cx="178.816" cy="52.5442" r="34.5" fill="#FF7979" stroke="black"/>
<path d="M159.547 59.5442H162.067V42.7442H159.787C159.331 45.1442 157.435 46.4402 154.867 46.7042L155.347 49.4642C157.051 49.3682 159.067 47.9522 159.547 46.4642V59.5442ZM169.407 48.1682V59.5442H171.927V52.6562C171.927 51.0482 172.695 50.1842 173.847 50.1842C174.975 50.1842 175.767 51.0002 175.767 52.4162V59.5442H178.287V52.4162C178.287 51.0002 179.079 50.1842 180.207 50.1842C181.335 50.1842 182.127 51.0002 182.127 52.4162V59.5442H184.647V51.8642C184.647 49.2962 183.279 47.9282 181.167 47.9282C179.751 47.9282 178.503 48.6962 177.927 50.3042C177.471 48.6962 176.343 47.9282 174.927 47.9282C173.415 47.9282 172.431 48.6242 171.927 49.7762V48.1682H169.407ZM186.872 48.1682V59.5442H189.392V48.1682H186.872ZM186.752 46.2242H189.512V43.4642H186.752V46.2242ZM194.153 59.5442V53.2082C194.153 51.2642 195.305 50.0882 196.841 50.0882C198.281 50.0882 199.193 51.1442 199.193 52.9682V59.5442H201.713V52.1042C201.713 49.5122 200.105 47.9282 197.729 47.9282C196.217 47.9282 194.945 48.5042 194.153 49.8242V48.1682H191.633V59.5442H194.153Z" fill="black"/>
</g>
<defs>
<clipPath id="clip0_337_15997">
<rect width="224" height="183" fill="white" transform="translate(0.132812 57.9755) rotate(-15)"/>
</clipPath>
</defs>
</svg>
